G04 #@! TF.FileFunction,Soldermask,Bot*
%FSLAX46Y46*%
G04 Gerber Fmt 4.6, Leading zero omitted, Abs format (unit mm)*
G04 Created by KiCad (PCBNEW 4.0.4-stable) date 05/23/17 22:08:48*
%MOMM*%
%LPD*%
G01*
G04 APERTURE LIST*
%ADD10C,0.100000*%
%ADD11R,2.000000X2.000000*%
%ADD12C,2.000000*%
%ADD13O,2.000000X2.000000*%
%ADD14R,3.600000X3.600000*%
%ADD15O,3.600000X3.600000*%
%ADD16C,3.400000*%
%ADD17R,2.100000X2.100000*%
%ADD18O,2.100000X2.100000*%
%ADD19C,2.100000*%
%ADD20C,4.337000*%
G04 APERTURE END LIST*
D10*
D11*
X123000000Y-107000000D03*
D12*
X121000000Y-107000000D03*
D11*
X159000000Y-116500000D03*
D12*
X157000000Y-116500000D03*
D11*
X155300000Y-101700000D03*
D13*
X155300000Y-91540000D03*
D14*
X181550000Y-63450000D03*
D15*
X181550000Y-50750000D03*
D16*
X115080000Y-45000000D03*
X110000000Y-45000000D03*
D17*
X105150000Y-116200000D03*
D18*
X105150000Y-113660000D03*
X105150000Y-111120000D03*
D16*
X175080000Y-45000000D03*
X170000000Y-45000000D03*
X105800000Y-85520000D03*
X105800000Y-90600000D03*
X145080000Y-45000000D03*
X140000000Y-45000000D03*
D19*
X177165000Y-122555000D03*
X174625000Y-122555000D03*
X172085000Y-122555000D03*
X164465000Y-122555000D03*
X167005000Y-122555000D03*
X169545000Y-122555000D03*
X159385000Y-122555000D03*
X156845000Y-122555000D03*
X154305000Y-122555000D03*
X149225000Y-122555000D03*
X146685000Y-122555000D03*
X177165000Y-74295000D03*
X174625000Y-74295000D03*
X172085000Y-74295000D03*
X169545000Y-74295000D03*
X167005000Y-74295000D03*
X164465000Y-74295000D03*
X161925000Y-74295000D03*
X159385000Y-74295000D03*
X155321000Y-74295000D03*
X152781000Y-74295000D03*
X150241000Y-74295000D03*
X147701000Y-74295000D03*
X145161000Y-74295000D03*
X142621000Y-74295000D03*
X140081000Y-74295000D03*
X137541000Y-74295000D03*
X151765000Y-122555000D03*
D20*
X179705000Y-117475000D03*
X179705000Y-89535000D03*
X128905000Y-74295000D03*
X127635000Y-122555000D03*
X103550000Y-45350000D03*
X181550000Y-43600000D03*
D17*
X144000000Y-83000000D03*
D18*
X146540000Y-83000000D03*
X149080000Y-83000000D03*
X151620000Y-83000000D03*
X154160000Y-83000000D03*
D17*
X173800000Y-79000000D03*
D18*
X173800000Y-81540000D03*
X173800000Y-84080000D03*
X173800000Y-86620000D03*
X173800000Y-89160000D03*
X173800000Y-91700000D03*
D17*
X143500000Y-137075001D03*
D18*
X143500000Y-139615001D03*
X143500000Y-142155001D03*
X143500000Y-144695001D03*
X143500000Y-147235001D03*
X143500000Y-149775001D03*
M02*
