G04 #@! TF.FileFunction,Soldermask,Top*
%FSLAX46Y46*%
G04 Gerber Fmt 4.6, Leading zero omitted, Abs format (unit mm)*
G04 Created by KiCad (PCBNEW 4.0.4-stable) date 05/23/17 22:08:48*
%MOMM*%
%LPD*%
G01*
G04 APERTURE LIST*
%ADD10C,0.100000*%
%ADD11R,1.150000X1.600000*%
%ADD12R,1.600000X1.150000*%
%ADD13R,2.000000X2.000000*%
%ADD14C,2.000000*%
%ADD15O,2.000000X2.000000*%
%ADD16R,3.600000X3.600000*%
%ADD17O,3.600000X3.600000*%
%ADD18R,3.050000X2.430000*%
%ADD19R,2.430000X3.050000*%
%ADD20C,3.400000*%
%ADD21R,2.100000X2.100000*%
%ADD22O,2.100000X2.100000*%
%ADD23R,1.200000X1.300000*%
%ADD24R,1.600000X2.600000*%
%ADD25R,6.200000X6.800000*%
%ADD26R,1.300000X1.200000*%
%ADD27R,2.600000X1.600000*%
%ADD28R,6.800000X6.200000*%
%ADD29R,1.300000X1.600000*%
%ADD30R,1.600000X1.300000*%
%ADD31R,2.400000X2.100000*%
%ADD32R,2.100000X2.400000*%
%ADD33R,0.908000X1.543000*%
%ADD34R,1.670000X0.806400*%
%ADD35R,1.543000X0.908000*%
%ADD36C,2.100000*%
%ADD37C,4.337000*%
%ADD38R,1.200000X0.875000*%
%ADD39R,0.950000X1.050000*%
%ADD40R,0.950000X1.150000*%
%ADD41R,4.300000X2.625000*%
%ADD42R,1.650000X1.050000*%
%ADD43R,0.875000X1.200000*%
%ADD44R,1.050000X0.950000*%
%ADD45R,1.150000X0.950000*%
%ADD46R,2.625000X4.300000*%
%ADD47R,1.050000X1.650000*%
G04 APERTURE END LIST*
D10*
D11*
X114050000Y-107400000D03*
X114050000Y-109300000D03*
X114050000Y-111100000D03*
X114050000Y-113000000D03*
X114050000Y-114800000D03*
X114050000Y-116700000D03*
X114050000Y-118450000D03*
X114050000Y-120350000D03*
X103000000Y-100950000D03*
X103000000Y-99050000D03*
D12*
X127050000Y-112750000D03*
X128950000Y-112750000D03*
X127050000Y-110000000D03*
X128950000Y-110000000D03*
X107950000Y-104000000D03*
X106050000Y-104000000D03*
D13*
X123000000Y-107000000D03*
D14*
X121000000Y-107000000D03*
D11*
X112000000Y-100950000D03*
X112000000Y-99050000D03*
D13*
X159000000Y-116500000D03*
D14*
X157000000Y-116500000D03*
D13*
X155300000Y-101700000D03*
D15*
X155300000Y-91540000D03*
D16*
X181550000Y-63450000D03*
D17*
X181550000Y-50750000D03*
D18*
X102260000Y-80650000D03*
X106440000Y-80650000D03*
D19*
X150150000Y-42510000D03*
X150150000Y-46690000D03*
D20*
X115080000Y-45000000D03*
X110000000Y-45000000D03*
D21*
X105150000Y-116200000D03*
D22*
X105150000Y-113660000D03*
X105150000Y-111120000D03*
D20*
X175080000Y-45000000D03*
X170000000Y-45000000D03*
X105800000Y-85520000D03*
X105800000Y-90600000D03*
X145080000Y-45000000D03*
X140000000Y-45000000D03*
D23*
X115550000Y-52500000D03*
X117450000Y-52500000D03*
X116500000Y-50500000D03*
D24*
X119870000Y-50700000D03*
X122150000Y-50700000D03*
X124430000Y-50700000D03*
D25*
X122150000Y-44400000D03*
D24*
X147620000Y-58550000D03*
X149900000Y-58550000D03*
X152180000Y-58550000D03*
D25*
X149900000Y-52250000D03*
D23*
X143450000Y-53000000D03*
X141550000Y-53000000D03*
X142500000Y-55000000D03*
D26*
X129000000Y-91950000D03*
X129000000Y-90050000D03*
X127000000Y-91000000D03*
X141500000Y-58050000D03*
X141500000Y-59950000D03*
X143500000Y-59000000D03*
D27*
X156100000Y-51120000D03*
X156100000Y-53400000D03*
X156100000Y-55680000D03*
D28*
X162400000Y-53400000D03*
D23*
X165050000Y-65250000D03*
X166950000Y-65250000D03*
X166000000Y-63250000D03*
D24*
X168970000Y-60700000D03*
X171250000Y-60700000D03*
X173530000Y-60700000D03*
D25*
X171250000Y-54400000D03*
D29*
X112500000Y-54400000D03*
X112500000Y-56600000D03*
D30*
X116650000Y-102000000D03*
X118850000Y-102000000D03*
X111100000Y-111000000D03*
X108900000Y-111000000D03*
X111100000Y-114000000D03*
X108900000Y-114000000D03*
X111100000Y-117000000D03*
X108900000Y-117000000D03*
X111100000Y-120000000D03*
X108900000Y-120000000D03*
X144100000Y-50000000D03*
X141900000Y-50000000D03*
X140100000Y-50000000D03*
X137900000Y-50000000D03*
D29*
X115500000Y-56600000D03*
X115500000Y-54400000D03*
D30*
X123100000Y-102000000D03*
X120900000Y-102000000D03*
X123100000Y-119000000D03*
X120900000Y-119000000D03*
D29*
X118500000Y-54400000D03*
X118500000Y-56600000D03*
D30*
X124900000Y-119000000D03*
X127100000Y-119000000D03*
D29*
X105000000Y-98900000D03*
X105000000Y-101100000D03*
X135500000Y-49900000D03*
X135500000Y-52100000D03*
D31*
X108500000Y-95050000D03*
X104500000Y-95050000D03*
D32*
X135700000Y-46500000D03*
X135700000Y-42500000D03*
D29*
X109000000Y-98900000D03*
X109000000Y-101100000D03*
X139750000Y-55100000D03*
X139750000Y-52900000D03*
D30*
X128900000Y-56500000D03*
X131100000Y-56500000D03*
X128900000Y-50500000D03*
X131100000Y-50500000D03*
D29*
X132000000Y-100400000D03*
X132000000Y-102600000D03*
D30*
X131100000Y-59500000D03*
X128900000Y-59500000D03*
X128900000Y-53500000D03*
X131100000Y-53500000D03*
D29*
X145500000Y-54900000D03*
X145500000Y-57100000D03*
X105500000Y-66100000D03*
X105500000Y-63900000D03*
X102500000Y-62100000D03*
X102500000Y-59900000D03*
X132000000Y-95900000D03*
X132000000Y-98100000D03*
D30*
X103400000Y-58000000D03*
X105600000Y-58000000D03*
X143900000Y-63000000D03*
X146100000Y-63000000D03*
D29*
X105500000Y-62100000D03*
X105500000Y-59900000D03*
D32*
X108850000Y-54600000D03*
X108850000Y-50600000D03*
D29*
X135000000Y-95900000D03*
X135000000Y-98100000D03*
D30*
X105600000Y-50000000D03*
X103400000Y-50000000D03*
D29*
X139750000Y-60100000D03*
X139750000Y-57900000D03*
X102500000Y-52400000D03*
X102500000Y-54600000D03*
D30*
X148400000Y-63000000D03*
X150600000Y-63000000D03*
X162900000Y-71000000D03*
X165100000Y-71000000D03*
X165100000Y-68000000D03*
X162900000Y-68000000D03*
X170900000Y-65000000D03*
X173100000Y-65000000D03*
X173100000Y-68000000D03*
X170900000Y-68000000D03*
X169100000Y-68000000D03*
X166900000Y-68000000D03*
X163100000Y-42500000D03*
X160900000Y-42500000D03*
D32*
X165650000Y-48600000D03*
X165650000Y-44600000D03*
D29*
X185250000Y-72850000D03*
X185250000Y-70650000D03*
X185250000Y-76850000D03*
X185250000Y-74650000D03*
X185250000Y-66650000D03*
X185250000Y-68850000D03*
D30*
X166900000Y-71000000D03*
X169100000Y-71000000D03*
X170900000Y-71000000D03*
X173100000Y-71000000D03*
D33*
X136855000Y-60275000D03*
X135585000Y-60275000D03*
X134315000Y-60275000D03*
X133045000Y-60275000D03*
X133045000Y-53925000D03*
X134315000Y-53925000D03*
X135585000Y-53925000D03*
X136855000Y-53925000D03*
D34*
X124517000Y-116721000D03*
X124517000Y-116086000D03*
X124517000Y-115425600D03*
X124517000Y-114765200D03*
X124517000Y-114130200D03*
X124517000Y-113469800D03*
X124517000Y-112809400D03*
X124517000Y-112174400D03*
X124517000Y-111514000D03*
X124517000Y-110879000D03*
X119183000Y-110879000D03*
X119183000Y-111514000D03*
X119183000Y-112174400D03*
X119183000Y-112809400D03*
X119183000Y-113469800D03*
X119183000Y-114130200D03*
X119183000Y-114765200D03*
X119183000Y-115425600D03*
X119183000Y-116086000D03*
X119183000Y-116721000D03*
D33*
X165555000Y-96425000D03*
X168095000Y-96425000D03*
X169365000Y-96425000D03*
X170635000Y-96425000D03*
X171905000Y-96425000D03*
X173175000Y-96425000D03*
X174445000Y-96425000D03*
X174445000Y-102775000D03*
X173175000Y-102775000D03*
X171905000Y-102775000D03*
X170635000Y-102775000D03*
X169365000Y-102775000D03*
X168095000Y-102775000D03*
X166825000Y-102775000D03*
X165555000Y-102775000D03*
X166825000Y-96425000D03*
D35*
X175825000Y-70155000D03*
X175825000Y-68885000D03*
X175825000Y-67615000D03*
X175825000Y-66345000D03*
X182175000Y-66345000D03*
X182175000Y-67615000D03*
X182175000Y-68885000D03*
X182175000Y-70155000D03*
D33*
X108095000Y-58825000D03*
X109365000Y-58825000D03*
X110635000Y-58825000D03*
X111905000Y-58825000D03*
X111905000Y-65175000D03*
X110635000Y-65175000D03*
X109365000Y-65175000D03*
X108095000Y-65175000D03*
D26*
X129000000Y-97950000D03*
X129000000Y-96050000D03*
X127000000Y-97000000D03*
D27*
X120100000Y-89730000D03*
X120100000Y-87450000D03*
X120100000Y-85170000D03*
D28*
X113800000Y-87450000D03*
D24*
X119170000Y-82300000D03*
X121450000Y-82300000D03*
X123730000Y-82300000D03*
D25*
X121450000Y-76000000D03*
D29*
X124000000Y-95900000D03*
X124000000Y-98100000D03*
X135000000Y-89900000D03*
X135000000Y-92100000D03*
X124000000Y-92100000D03*
X124000000Y-89900000D03*
D36*
X177165000Y-122555000D03*
X174625000Y-122555000D03*
X172085000Y-122555000D03*
X164465000Y-122555000D03*
X167005000Y-122555000D03*
X169545000Y-122555000D03*
X159385000Y-122555000D03*
X156845000Y-122555000D03*
X154305000Y-122555000D03*
X149225000Y-122555000D03*
X146685000Y-122555000D03*
X177165000Y-74295000D03*
X174625000Y-74295000D03*
X172085000Y-74295000D03*
X169545000Y-74295000D03*
X167005000Y-74295000D03*
X164465000Y-74295000D03*
X161925000Y-74295000D03*
X159385000Y-74295000D03*
X155321000Y-74295000D03*
X152781000Y-74295000D03*
X150241000Y-74295000D03*
X147701000Y-74295000D03*
X145161000Y-74295000D03*
X142621000Y-74295000D03*
X140081000Y-74295000D03*
X137541000Y-74295000D03*
X151765000Y-122555000D03*
D37*
X179705000Y-117475000D03*
X179705000Y-89535000D03*
X128905000Y-74295000D03*
X127635000Y-122555000D03*
X103550000Y-45350000D03*
X181550000Y-43600000D03*
D26*
X137000000Y-116050000D03*
X137000000Y-117950000D03*
X139000000Y-117000000D03*
X137000000Y-109050000D03*
X137000000Y-110950000D03*
X139000000Y-110000000D03*
D29*
X135000000Y-115900000D03*
X135000000Y-118100000D03*
X141000000Y-118100000D03*
X141000000Y-115900000D03*
X135000000Y-108900000D03*
X135000000Y-111100000D03*
X141000000Y-111100000D03*
X141000000Y-108900000D03*
D38*
X112160000Y-81312500D03*
X109710000Y-81312500D03*
X112160000Y-76387500D03*
D39*
X108580000Y-80750000D03*
D40*
X108575000Y-79425000D03*
D41*
X110800000Y-79962500D03*
D42*
X114275000Y-80755000D03*
X114275000Y-79485000D03*
X114275000Y-78215000D03*
X114275000Y-76945000D03*
D40*
X108575000Y-78275000D03*
D41*
X110800000Y-77737500D03*
D39*
X108580000Y-76950000D03*
D38*
X109710000Y-76387500D03*
D21*
X144000000Y-83000000D03*
D22*
X146540000Y-83000000D03*
X149080000Y-83000000D03*
X151620000Y-83000000D03*
X154160000Y-83000000D03*
D43*
X154037500Y-46660000D03*
X154037500Y-44210000D03*
X158962500Y-46660000D03*
D44*
X154600000Y-43080000D03*
D45*
X155925000Y-43075000D03*
D46*
X155387500Y-45300000D03*
D47*
X154595000Y-48775000D03*
X155865000Y-48775000D03*
X157135000Y-48775000D03*
X158405000Y-48775000D03*
D45*
X157075000Y-43075000D03*
D46*
X157612500Y-45300000D03*
D44*
X158400000Y-43080000D03*
D43*
X158962500Y-44210000D03*
D21*
X173800000Y-79000000D03*
D22*
X173800000Y-81540000D03*
X173800000Y-84080000D03*
X173800000Y-86620000D03*
X173800000Y-89160000D03*
X173800000Y-91700000D03*
D21*
X143500000Y-137075001D03*
D22*
X143500000Y-139615001D03*
X143500000Y-142155001D03*
X143500000Y-144695001D03*
X143500000Y-147235001D03*
X143500000Y-149775001D03*
M02*
