G04 #@! TF.FileFunction,Copper,L1,Top,Signal*
%FSLAX46Y46*%
G04 Gerber Fmt 4.6, Leading zero omitted, Abs format (unit mm)*
G04 Created by KiCad (PCBNEW 4.0.4-stable) date 05/23/17 10:20:09*
%MOMM*%
%LPD*%
G01*
G04 APERTURE LIST*
%ADD10C,0.100000*%
%ADD11R,0.750000X1.200000*%
%ADD12R,1.200000X0.750000*%
%ADD13R,1.600000X1.600000*%
%ADD14C,1.600000*%
%ADD15O,1.600000X1.600000*%
%ADD16R,3.200000X3.200000*%
%ADD17O,3.200000X3.200000*%
%ADD18R,2.650000X2.030000*%
%ADD19R,2.030000X2.650000*%
%ADD20C,3.000000*%
%ADD21R,1.700000X1.700000*%
%ADD22O,1.700000X1.700000*%
%ADD23R,0.800000X0.900000*%
%ADD24R,1.200000X2.200000*%
%ADD25R,5.800000X6.400000*%
%ADD26R,2.750000X3.050000*%
%ADD27R,0.900000X0.800000*%
%ADD28R,2.200000X1.200000*%
%ADD29R,6.400000X5.800000*%
%ADD30R,3.050000X2.750000*%
%ADD31R,0.900000X1.200000*%
%ADD32R,1.200000X0.900000*%
%ADD33R,2.000000X1.700000*%
%ADD34R,1.700000X2.000000*%
%ADD35R,0.508000X1.143000*%
%ADD36R,1.270000X0.406400*%
%ADD37R,1.143000X0.508000*%
%ADD38C,1.700000*%
%ADD39C,3.937000*%
%ADD40R,0.800000X0.475000*%
%ADD41R,0.550000X0.650000*%
%ADD42R,0.550000X0.750000*%
%ADD43R,3.900000X2.225000*%
%ADD44R,1.250000X0.650000*%
%ADD45R,0.475000X0.800000*%
%ADD46R,0.650000X0.550000*%
%ADD47R,0.750000X0.550000*%
%ADD48R,2.225000X3.900000*%
%ADD49R,0.650000X1.250000*%
%ADD50C,0.600000*%
%ADD51C,1.000000*%
%ADD52C,0.250000*%
%ADD53C,1.000000*%
%ADD54C,3.000000*%
%ADD55C,6.000000*%
%ADD56C,4.000000*%
%ADD57C,5.000000*%
%ADD58C,2.000000*%
%ADD59C,2.500000*%
%ADD60C,0.254000*%
G04 APERTURE END LIST*
D10*
D11*
X114050000Y-107400000D03*
X114050000Y-109300000D03*
X114050000Y-111100000D03*
X114050000Y-113000000D03*
X114050000Y-114800000D03*
X114050000Y-116700000D03*
X114050000Y-118450000D03*
X114050000Y-120350000D03*
X103000000Y-100950000D03*
X103000000Y-99050000D03*
D12*
X127050000Y-112750000D03*
X128950000Y-112750000D03*
X127050000Y-110000000D03*
X128950000Y-110000000D03*
X107950000Y-104000000D03*
X106050000Y-104000000D03*
D13*
X123000000Y-107000000D03*
D14*
X121000000Y-107000000D03*
D11*
X112000000Y-100950000D03*
X112000000Y-99050000D03*
D13*
X159000000Y-116500000D03*
D14*
X157000000Y-116500000D03*
D13*
X155300000Y-101700000D03*
D15*
X155300000Y-91540000D03*
D16*
X181550000Y-63450000D03*
D17*
X181550000Y-50750000D03*
D18*
X102260000Y-80650000D03*
X106440000Y-80650000D03*
D19*
X150150000Y-42510000D03*
X150150000Y-46690000D03*
D20*
X115080000Y-45000000D03*
X110000000Y-45000000D03*
D21*
X105150000Y-116200000D03*
D22*
X105150000Y-113660000D03*
X105150000Y-111120000D03*
D20*
X175080000Y-45000000D03*
X170000000Y-45000000D03*
X105800000Y-85520000D03*
X105800000Y-90600000D03*
X145080000Y-45000000D03*
X140000000Y-45000000D03*
D23*
X115550000Y-52500000D03*
X117450000Y-52500000D03*
X116500000Y-50500000D03*
D24*
X119870000Y-50700000D03*
X122150000Y-50700000D03*
X124430000Y-50700000D03*
D25*
X122150000Y-44400000D03*
D26*
X123675000Y-42725000D03*
X120625000Y-46075000D03*
X120625000Y-42725000D03*
X123675000Y-46075000D03*
D24*
X147620000Y-58550000D03*
X149900000Y-58550000D03*
X152180000Y-58550000D03*
D25*
X149900000Y-52250000D03*
D26*
X151425000Y-50575000D03*
X148375000Y-53925000D03*
X148375000Y-50575000D03*
X151425000Y-53925000D03*
D23*
X143450000Y-53000000D03*
X141550000Y-53000000D03*
X142500000Y-55000000D03*
D27*
X129000000Y-91950000D03*
X129000000Y-90050000D03*
X127000000Y-91000000D03*
X141500000Y-58050000D03*
X141500000Y-59950000D03*
X143500000Y-59000000D03*
D28*
X156100000Y-51120000D03*
X156100000Y-53400000D03*
X156100000Y-55680000D03*
D29*
X162400000Y-53400000D03*
D30*
X164075000Y-54925000D03*
X160725000Y-51875000D03*
X164075000Y-51875000D03*
X160725000Y-54925000D03*
D23*
X165050000Y-65250000D03*
X166950000Y-65250000D03*
X166000000Y-63250000D03*
D24*
X168970000Y-60700000D03*
X171250000Y-60700000D03*
X173530000Y-60700000D03*
D25*
X171250000Y-54400000D03*
D26*
X172775000Y-52725000D03*
X169725000Y-56075000D03*
X169725000Y-52725000D03*
X172775000Y-56075000D03*
D31*
X112500000Y-54400000D03*
X112500000Y-56600000D03*
D32*
X116650000Y-102000000D03*
X118850000Y-102000000D03*
X111100000Y-111000000D03*
X108900000Y-111000000D03*
X111100000Y-114000000D03*
X108900000Y-114000000D03*
X111100000Y-117000000D03*
X108900000Y-117000000D03*
X111100000Y-120000000D03*
X108900000Y-120000000D03*
X144100000Y-50000000D03*
X141900000Y-50000000D03*
X140100000Y-50000000D03*
X137900000Y-50000000D03*
D31*
X115500000Y-56600000D03*
X115500000Y-54400000D03*
D32*
X123100000Y-102000000D03*
X120900000Y-102000000D03*
X123100000Y-119000000D03*
X120900000Y-119000000D03*
D31*
X118500000Y-54400000D03*
X118500000Y-56600000D03*
D32*
X124900000Y-119000000D03*
X127100000Y-119000000D03*
D31*
X105000000Y-98900000D03*
X105000000Y-101100000D03*
X135500000Y-49900000D03*
X135500000Y-52100000D03*
D33*
X108500000Y-95050000D03*
X104500000Y-95050000D03*
D34*
X135700000Y-46500000D03*
X135700000Y-42500000D03*
D31*
X109000000Y-98900000D03*
X109000000Y-101100000D03*
X139750000Y-55100000D03*
X139750000Y-52900000D03*
D32*
X128900000Y-56500000D03*
X131100000Y-56500000D03*
X128900000Y-50500000D03*
X131100000Y-50500000D03*
D31*
X132000000Y-100400000D03*
X132000000Y-102600000D03*
D32*
X131100000Y-59500000D03*
X128900000Y-59500000D03*
X128900000Y-53500000D03*
X131100000Y-53500000D03*
D31*
X145500000Y-54900000D03*
X145500000Y-57100000D03*
X105500000Y-66100000D03*
X105500000Y-63900000D03*
X102500000Y-62100000D03*
X102500000Y-59900000D03*
X132000000Y-95900000D03*
X132000000Y-98100000D03*
D32*
X103400000Y-58000000D03*
X105600000Y-58000000D03*
X143900000Y-63000000D03*
X146100000Y-63000000D03*
D31*
X105500000Y-62100000D03*
X105500000Y-59900000D03*
D34*
X108850000Y-54600000D03*
X108850000Y-50600000D03*
D31*
X135000000Y-95900000D03*
X135000000Y-98100000D03*
D32*
X105600000Y-50000000D03*
X103400000Y-50000000D03*
D31*
X139750000Y-60100000D03*
X139750000Y-57900000D03*
X102500000Y-52400000D03*
X102500000Y-54600000D03*
D32*
X148400000Y-63000000D03*
X150600000Y-63000000D03*
X162900000Y-71000000D03*
X165100000Y-71000000D03*
X165100000Y-68000000D03*
X162900000Y-68000000D03*
X170900000Y-65000000D03*
X173100000Y-65000000D03*
X173100000Y-68000000D03*
X170900000Y-68000000D03*
X169100000Y-68000000D03*
X166900000Y-68000000D03*
X163100000Y-42500000D03*
X160900000Y-42500000D03*
D34*
X165650000Y-48600000D03*
X165650000Y-44600000D03*
D31*
X185250000Y-72850000D03*
X185250000Y-70650000D03*
X185250000Y-76850000D03*
X185250000Y-74650000D03*
X185250000Y-66650000D03*
X185250000Y-68850000D03*
D32*
X166900000Y-71000000D03*
X169100000Y-71000000D03*
X170900000Y-71000000D03*
X173100000Y-71000000D03*
D35*
X136855000Y-60275000D03*
X135585000Y-60275000D03*
X134315000Y-60275000D03*
X133045000Y-60275000D03*
X133045000Y-53925000D03*
X134315000Y-53925000D03*
X135585000Y-53925000D03*
X136855000Y-53925000D03*
D36*
X124517000Y-116721000D03*
X124517000Y-116086000D03*
X124517000Y-115425600D03*
X124517000Y-114765200D03*
X124517000Y-114130200D03*
X124517000Y-113469800D03*
X124517000Y-112809400D03*
X124517000Y-112174400D03*
X124517000Y-111514000D03*
X124517000Y-110879000D03*
X119183000Y-110879000D03*
X119183000Y-111514000D03*
X119183000Y-112174400D03*
X119183000Y-112809400D03*
X119183000Y-113469800D03*
X119183000Y-114130200D03*
X119183000Y-114765200D03*
X119183000Y-115425600D03*
X119183000Y-116086000D03*
X119183000Y-116721000D03*
D35*
X165555000Y-96425000D03*
X168095000Y-96425000D03*
X169365000Y-96425000D03*
X170635000Y-96425000D03*
X171905000Y-96425000D03*
X173175000Y-96425000D03*
X174445000Y-96425000D03*
X174445000Y-102775000D03*
X173175000Y-102775000D03*
X171905000Y-102775000D03*
X170635000Y-102775000D03*
X169365000Y-102775000D03*
X168095000Y-102775000D03*
X166825000Y-102775000D03*
X165555000Y-102775000D03*
X166825000Y-96425000D03*
D37*
X175825000Y-70155000D03*
X175825000Y-68885000D03*
X175825000Y-67615000D03*
X175825000Y-66345000D03*
X182175000Y-66345000D03*
X182175000Y-67615000D03*
X182175000Y-68885000D03*
X182175000Y-70155000D03*
D35*
X108095000Y-58825000D03*
X109365000Y-58825000D03*
X110635000Y-58825000D03*
X111905000Y-58825000D03*
X111905000Y-65175000D03*
X110635000Y-65175000D03*
X109365000Y-65175000D03*
X108095000Y-65175000D03*
D27*
X129000000Y-97950000D03*
X129000000Y-96050000D03*
X127000000Y-97000000D03*
D28*
X120100000Y-89730000D03*
X120100000Y-87450000D03*
X120100000Y-85170000D03*
D29*
X113800000Y-87450000D03*
D30*
X112125000Y-85925000D03*
X115475000Y-88975000D03*
X112125000Y-88975000D03*
X115475000Y-85925000D03*
D24*
X119170000Y-82300000D03*
X121450000Y-82300000D03*
X123730000Y-82300000D03*
D25*
X121450000Y-76000000D03*
D26*
X122975000Y-74325000D03*
X119925000Y-77675000D03*
X119925000Y-74325000D03*
X122975000Y-77675000D03*
D31*
X124000000Y-95900000D03*
X124000000Y-98100000D03*
X135000000Y-89900000D03*
X135000000Y-92100000D03*
X124000000Y-92100000D03*
X124000000Y-89900000D03*
D38*
X177165000Y-122555000D03*
X174625000Y-122555000D03*
X172085000Y-122555000D03*
X164465000Y-122555000D03*
X167005000Y-122555000D03*
X169545000Y-122555000D03*
X159385000Y-122555000D03*
X156845000Y-122555000D03*
X154305000Y-122555000D03*
X149225000Y-122555000D03*
X146685000Y-122555000D03*
X177165000Y-74295000D03*
X174625000Y-74295000D03*
X172085000Y-74295000D03*
X169545000Y-74295000D03*
X167005000Y-74295000D03*
X164465000Y-74295000D03*
X161925000Y-74295000D03*
X159385000Y-74295000D03*
X155321000Y-74295000D03*
X152781000Y-74295000D03*
X150241000Y-74295000D03*
X147701000Y-74295000D03*
X145161000Y-74295000D03*
X142621000Y-74295000D03*
X140081000Y-74295000D03*
X137541000Y-74295000D03*
X151765000Y-122555000D03*
D39*
X179705000Y-117475000D03*
X179705000Y-89535000D03*
X128905000Y-74295000D03*
X127635000Y-122555000D03*
X103550000Y-45350000D03*
X181550000Y-43600000D03*
D27*
X137000000Y-116050000D03*
X137000000Y-117950000D03*
X139000000Y-117000000D03*
X137000000Y-109050000D03*
X137000000Y-110950000D03*
X139000000Y-110000000D03*
D31*
X135000000Y-115900000D03*
X135000000Y-118100000D03*
X141000000Y-118100000D03*
X141000000Y-115900000D03*
X135000000Y-108900000D03*
X135000000Y-111100000D03*
X141000000Y-111100000D03*
X141000000Y-108900000D03*
D40*
X112160000Y-81312500D03*
X109710000Y-81312500D03*
X112160000Y-76387500D03*
D41*
X108580000Y-80750000D03*
D42*
X108575000Y-79425000D03*
D43*
X110800000Y-79962500D03*
D44*
X114275000Y-80755000D03*
X114275000Y-79485000D03*
X114275000Y-78215000D03*
X114275000Y-76945000D03*
D42*
X108575000Y-78275000D03*
D43*
X110800000Y-77737500D03*
D41*
X108580000Y-76950000D03*
D40*
X109710000Y-76387500D03*
D21*
X144000000Y-83000000D03*
D22*
X146540000Y-83000000D03*
X149080000Y-83000000D03*
X151620000Y-83000000D03*
X154160000Y-83000000D03*
D45*
X154037500Y-46660000D03*
X154037500Y-44210000D03*
X158962500Y-46660000D03*
D46*
X154600000Y-43080000D03*
D47*
X155925000Y-43075000D03*
D48*
X155387500Y-45300000D03*
D49*
X154595000Y-48775000D03*
X155865000Y-48775000D03*
X157135000Y-48775000D03*
X158405000Y-48775000D03*
D47*
X157075000Y-43075000D03*
D48*
X157612500Y-45300000D03*
D46*
X158400000Y-43080000D03*
D45*
X158962500Y-44210000D03*
D21*
X173800000Y-79000000D03*
D22*
X173800000Y-81540000D03*
X173800000Y-84080000D03*
X173800000Y-86620000D03*
X173800000Y-89160000D03*
X173800000Y-91700000D03*
D50*
X141500000Y-61250000D03*
X133750000Y-89000000D03*
X130500000Y-90000000D03*
X130250000Y-95250000D03*
X129500000Y-111500000D03*
X139000000Y-61000000D03*
X103000000Y-97750000D03*
X110500000Y-98000000D03*
X130250000Y-110000000D03*
X123250000Y-115500000D03*
X128500000Y-119000000D03*
X173250000Y-104000000D03*
X183750000Y-66500000D03*
X174500000Y-71250000D03*
X142500000Y-52250000D03*
X128250000Y-52000000D03*
X112750000Y-65500000D03*
X115500000Y-57750000D03*
X118750000Y-52750000D03*
X102000000Y-58500000D03*
D51*
X111500000Y-95000000D03*
X106300000Y-53700000D03*
X162500000Y-47400000D03*
X132750000Y-45750000D03*
D50*
X149250000Y-94000000D03*
X149250000Y-96500000D03*
X149250000Y-103250000D03*
X149250000Y-110000000D03*
X149250000Y-115250000D03*
X158000000Y-81250000D03*
X160750000Y-81250000D03*
X145500000Y-58300000D03*
X144800000Y-59750000D03*
X147150000Y-62000000D03*
X156850000Y-71850000D03*
X157100000Y-79800000D03*
X136700000Y-76200000D03*
X134800000Y-76300000D03*
X126000000Y-71750000D03*
X120000000Y-67000000D03*
X117250000Y-64250000D03*
X117250000Y-62000000D03*
X169200000Y-83000000D03*
X165300000Y-83900000D03*
X166300000Y-83000000D03*
X163500000Y-97250000D03*
X161250000Y-99500000D03*
X161250000Y-72500000D03*
X159250000Y-72750000D03*
X137500000Y-72750000D03*
X134250000Y-63500000D03*
X120750000Y-63500000D03*
X128250000Y-63500000D03*
X117500000Y-115500000D03*
X109000000Y-107000000D03*
X117000000Y-116500000D03*
X109000000Y-106000000D03*
X158500000Y-69000000D03*
X156900000Y-78075002D03*
X162000000Y-69550000D03*
X165400000Y-69750000D03*
X167500000Y-58250000D03*
X167350000Y-59650000D03*
X158250000Y-50250000D03*
X146250000Y-51250000D03*
X135000000Y-99500000D03*
X127500000Y-116500000D03*
X126500000Y-116000000D03*
X132000000Y-104000000D03*
X140050000Y-48750000D03*
X138200000Y-54800000D03*
X138200000Y-63750000D03*
X138100000Y-71850000D03*
X154000000Y-75500000D03*
X152750000Y-71750000D03*
X140500000Y-71750000D03*
X140500000Y-64500000D03*
X140500000Y-61250000D03*
X140500000Y-56500000D03*
X169100000Y-85100000D03*
X167600000Y-85100000D03*
X162800000Y-80400000D03*
X161700000Y-79300000D03*
X109500000Y-61000000D03*
X106500000Y-61000000D03*
X114000000Y-64250000D03*
X118500000Y-68750000D03*
X125750000Y-76000000D03*
X104750000Y-56750000D03*
X108750000Y-60250000D03*
X164250000Y-71750000D03*
X163250000Y-73250000D03*
X168250000Y-72250000D03*
X169500000Y-68750000D03*
X183550000Y-69700000D03*
X180250000Y-69550000D03*
X160450000Y-49750000D03*
X166150000Y-58250000D03*
X172450000Y-67000000D03*
X174600000Y-68250000D03*
X184250000Y-72750000D03*
X182000000Y-75000000D03*
X138000000Y-89750000D03*
X138000000Y-85500000D03*
X125500000Y-108750000D03*
X119250000Y-117500000D03*
X152000000Y-77250000D03*
X125500000Y-92000000D03*
X119500000Y-80500000D03*
X138000000Y-112250000D03*
X138000000Y-113750000D03*
X169250000Y-118250000D03*
X167250000Y-118250000D03*
X160750000Y-114500000D03*
X154750000Y-116000000D03*
X146500000Y-116000000D03*
X144000000Y-116000000D03*
X136250000Y-112250000D03*
X133500000Y-113250000D03*
X169000000Y-116000000D03*
X167250000Y-116000000D03*
X160250000Y-109250000D03*
X157750000Y-109250000D03*
X145750000Y-109000000D03*
X143750000Y-109000000D03*
D52*
X168095000Y-102775000D02*
X168095000Y-118565000D01*
X168095000Y-118565000D02*
X172085000Y-122555000D01*
X171905000Y-96425000D02*
X171905000Y-95595000D01*
X167910000Y-126000000D02*
X164465000Y-122555000D01*
X179500000Y-126000000D02*
X167910000Y-126000000D01*
X184500000Y-121000000D02*
X179500000Y-126000000D01*
X184500000Y-103000000D02*
X184500000Y-121000000D01*
X176000000Y-94500000D02*
X184500000Y-103000000D01*
X173000000Y-94500000D02*
X176000000Y-94500000D01*
X171905000Y-95595000D02*
X173000000Y-94500000D01*
X173175000Y-96425000D02*
X173175000Y-95325000D01*
X169450000Y-125000000D02*
X167005000Y-122555000D01*
X179500000Y-125000000D02*
X169450000Y-125000000D01*
X183500000Y-121000000D02*
X179500000Y-125000000D01*
X183500000Y-103000000D02*
X183500000Y-121000000D01*
X175500000Y-95000000D02*
X183500000Y-103000000D01*
X173500000Y-95000000D02*
X175500000Y-95000000D01*
X173175000Y-95325000D02*
X173500000Y-95000000D01*
X174445000Y-96425000D02*
X175825000Y-96425000D01*
X171190000Y-124200000D02*
X169545000Y-122555000D01*
X179200000Y-124200000D02*
X171190000Y-124200000D01*
X182800000Y-120600000D02*
X179200000Y-124200000D01*
X182800000Y-103400000D02*
X182800000Y-120600000D01*
X175825000Y-96425000D02*
X182800000Y-103400000D01*
D53*
X159000000Y-116500000D02*
X159000000Y-105400000D01*
X159000000Y-105400000D02*
X155300000Y-101700000D01*
X159385000Y-122555000D02*
X159385000Y-116885000D01*
X159385000Y-116885000D02*
X159000000Y-116500000D01*
D52*
X141500000Y-59950000D02*
X141500000Y-61250000D01*
X135000000Y-89900000D02*
X134650000Y-89900000D01*
X134650000Y-89900000D02*
X133750000Y-89000000D01*
X129000000Y-90050000D02*
X130450000Y-90050000D01*
X130450000Y-90050000D02*
X130500000Y-90000000D01*
X130250000Y-95250000D02*
X131350000Y-95250000D01*
X129450000Y-96050000D02*
X130250000Y-95250000D01*
X131350000Y-95250000D02*
X132000000Y-95900000D01*
X129000000Y-96050000D02*
X129450000Y-96050000D01*
X128950000Y-112750000D02*
X128950000Y-112050000D01*
X128950000Y-112050000D02*
X129500000Y-111500000D01*
X139750000Y-60100000D02*
X139750000Y-60250000D01*
X139750000Y-60250000D02*
X139000000Y-61000000D01*
X103000000Y-99050000D02*
X103000000Y-97750000D01*
X110500000Y-98000000D02*
X110950000Y-98000000D01*
X109600000Y-98900000D02*
X110500000Y-98000000D01*
X109000000Y-98900000D02*
X109600000Y-98900000D01*
X110950000Y-98000000D02*
X112000000Y-99050000D01*
X128950000Y-110000000D02*
X130250000Y-110000000D01*
X124517000Y-115425600D02*
X123324400Y-115425600D01*
X123324400Y-115425600D02*
X123250000Y-115500000D01*
X127100000Y-119000000D02*
X128500000Y-119000000D01*
X171905000Y-102775000D02*
X173175000Y-102775000D01*
X173175000Y-102775000D02*
X174445000Y-102775000D01*
X173175000Y-102775000D02*
X173175000Y-103925000D01*
X173175000Y-103925000D02*
X173250000Y-104000000D01*
X185100000Y-66500000D02*
X183750000Y-66500000D01*
X183595000Y-66345000D02*
X183750000Y-66500000D01*
X183595000Y-66345000D02*
X182175000Y-66345000D01*
X185100000Y-66500000D02*
X185250000Y-66650000D01*
X173100000Y-71000000D02*
X174250000Y-71000000D01*
X174250000Y-71000000D02*
X174500000Y-71250000D01*
X141550000Y-53000000D02*
X141750000Y-53000000D01*
X141750000Y-53000000D02*
X142500000Y-52250000D01*
X131100000Y-53500000D02*
X132620000Y-53500000D01*
X132620000Y-53500000D02*
X133045000Y-53925000D01*
X128250000Y-52000000D02*
X129600000Y-52000000D01*
X128900000Y-51350000D02*
X128250000Y-52000000D01*
X128900000Y-50500000D02*
X128900000Y-51350000D01*
X129600000Y-52000000D02*
X131100000Y-53500000D01*
X111905000Y-65175000D02*
X112425000Y-65175000D01*
X112425000Y-65175000D02*
X112750000Y-65500000D01*
X115500000Y-56600000D02*
X115500000Y-57750000D01*
X117450000Y-52500000D02*
X118500000Y-52500000D01*
X118500000Y-52500000D02*
X118750000Y-52750000D01*
X102000000Y-58500000D02*
X102900000Y-58500000D01*
X102500000Y-59000000D02*
X102000000Y-58500000D01*
X102500000Y-59900000D02*
X102500000Y-59000000D01*
X102900000Y-58500000D02*
X103400000Y-58000000D01*
X108500000Y-95050000D02*
X108500000Y-98400000D01*
X108500000Y-98400000D02*
X109000000Y-98900000D01*
D54*
X108500000Y-95050000D02*
X111450000Y-95050000D01*
X111450000Y-95050000D02*
X111500000Y-95000000D01*
X108850000Y-54600000D02*
X107300000Y-54700000D01*
X107300000Y-54700000D02*
X106300000Y-53700000D01*
X165650000Y-48600000D02*
X163700000Y-48600000D01*
X163700000Y-48600000D02*
X162500000Y-47400000D01*
X135700000Y-46500000D02*
X133500000Y-46500000D01*
X133500000Y-46500000D02*
X132750000Y-45750000D01*
D52*
X154160000Y-89090000D02*
X154160000Y-83000000D01*
X149250000Y-94000000D02*
X154160000Y-89090000D01*
X149250000Y-103250000D02*
X149250000Y-96500000D01*
X149250000Y-115250000D02*
X149250000Y-110000000D01*
X173800000Y-84080000D02*
X173920000Y-84080000D01*
X173920000Y-84080000D02*
X177165000Y-80835000D01*
X177165000Y-80835000D02*
X177165000Y-74295000D01*
X173800000Y-81540000D02*
X173800000Y-81500000D01*
X173800000Y-81500000D02*
X175300000Y-80000000D01*
X175300000Y-80000000D02*
X175300000Y-74970000D01*
X175300000Y-74970000D02*
X174625000Y-74295000D01*
X151620000Y-83000000D02*
X151750000Y-83000000D01*
X151750000Y-83000000D02*
X153500000Y-81250000D01*
X153500000Y-81250000D02*
X158000000Y-81250000D01*
X160750000Y-81250000D02*
X164465000Y-77535000D01*
X164465000Y-77535000D02*
X164465000Y-74295000D01*
X158300000Y-71950000D02*
X159580000Y-71950000D01*
X144800000Y-59750000D02*
X147050000Y-62000000D01*
X147050000Y-62000000D02*
X147150000Y-62000000D01*
X156850000Y-71850000D02*
X156950000Y-71950000D01*
X156950000Y-71950000D02*
X158300000Y-71950000D01*
X145500000Y-57100000D02*
X145500000Y-58300000D01*
X159580000Y-71950000D02*
X161925000Y-74295000D01*
X112500000Y-56600000D02*
X112500000Y-57250000D01*
X153600000Y-76300000D02*
X157100000Y-79800000D01*
X136800000Y-76300000D02*
X153600000Y-76300000D01*
X136700000Y-76200000D02*
X136800000Y-76300000D01*
X130200000Y-71700000D02*
X134800000Y-76300000D01*
X126050000Y-71700000D02*
X130200000Y-71700000D01*
X126000000Y-71750000D02*
X126050000Y-71700000D01*
X117250000Y-64250000D02*
X120000000Y-67000000D01*
X112500000Y-57250000D02*
X117250000Y-62000000D01*
X172820000Y-86620000D02*
X173800000Y-86620000D01*
X169200000Y-83000000D02*
X172820000Y-86620000D01*
X127050000Y-110000000D02*
X127050000Y-110050000D01*
X127050000Y-110050000D02*
X127750000Y-110750000D01*
X133000000Y-111500000D02*
X134500000Y-113000000D01*
X134500000Y-113000000D02*
X142210000Y-113000000D01*
X132250000Y-110750000D02*
X133000000Y-111500000D01*
X127750000Y-110750000D02*
X132250000Y-110750000D01*
X166000000Y-72500000D02*
X166000000Y-73100000D01*
X165555000Y-84155000D02*
X165555000Y-96425000D01*
X165300000Y-83900000D02*
X165555000Y-84155000D01*
X166300000Y-76500000D02*
X166300000Y-83000000D01*
X165700000Y-75900000D02*
X166300000Y-76500000D01*
X165700000Y-73400000D02*
X165700000Y-75900000D01*
X166000000Y-73100000D02*
X165700000Y-73400000D01*
X165555000Y-96425000D02*
X164325000Y-96425000D01*
X164325000Y-96425000D02*
X163500000Y-97250000D01*
X161250000Y-99500000D02*
X160750000Y-100000000D01*
X160750000Y-100000000D02*
X160500000Y-100000000D01*
X142650000Y-111100000D02*
X141000000Y-111100000D01*
X153750000Y-100000000D02*
X160500000Y-100000000D01*
X142650000Y-111100000D02*
X153750000Y-100000000D01*
X166900000Y-71600000D02*
X166000000Y-72500000D01*
X166000000Y-72500000D02*
X161250000Y-72500000D01*
X159250000Y-72750000D02*
X137500000Y-72750000D01*
X134250000Y-63500000D02*
X133250000Y-63500000D01*
X128250000Y-63500000D02*
X133250000Y-63500000D01*
X166900000Y-71600000D02*
X166900000Y-71000000D01*
X105500000Y-66100000D02*
X105500000Y-66000000D01*
X105500000Y-66000000D02*
X107250000Y-64250000D01*
X107250000Y-64250000D02*
X107250000Y-63750000D01*
X107250000Y-63750000D02*
X107500000Y-63500000D01*
X107500000Y-63500000D02*
X120750000Y-63500000D01*
X128250000Y-63500000D02*
X131100000Y-60650000D01*
X131100000Y-60650000D02*
X131100000Y-59500000D01*
X127050000Y-110000000D02*
X127050000Y-110300000D01*
X141000000Y-111100000D02*
X141000000Y-111790000D01*
X141000000Y-111790000D02*
X142210000Y-113000000D01*
X142210000Y-113000000D02*
X147310000Y-118100000D01*
X141000000Y-118100000D02*
X147310000Y-118100000D01*
X147310000Y-118100000D02*
X151765000Y-122555000D01*
X124517000Y-111514000D02*
X125536000Y-111514000D01*
X125536000Y-111514000D02*
X127050000Y-110000000D01*
X114050000Y-107400000D02*
X114050000Y-104600000D01*
X114050000Y-104600000D02*
X116650000Y-102000000D01*
X119183000Y-111514000D02*
X118164000Y-111514000D01*
X118164000Y-111514000D02*
X114050000Y-107400000D01*
X119183000Y-112809400D02*
X119183000Y-112174400D01*
X119183000Y-112174400D02*
X115124400Y-112174400D01*
X115124400Y-112174400D02*
X114050000Y-111100000D01*
X114050000Y-111100000D02*
X114050000Y-109300000D01*
X111100000Y-111000000D02*
X113950000Y-111000000D01*
X113950000Y-111000000D02*
X114050000Y-111100000D01*
X119183000Y-113469800D02*
X114519800Y-113469800D01*
X114519800Y-113469800D02*
X114050000Y-113000000D01*
X113000000Y-114000000D02*
X113250000Y-114000000D01*
X113250000Y-114000000D02*
X114050000Y-114800000D01*
X111100000Y-114000000D02*
X113000000Y-114000000D01*
X113000000Y-114000000D02*
X113050000Y-114000000D01*
X113050000Y-114000000D02*
X114050000Y-113000000D01*
X119183000Y-114130200D02*
X120869800Y-114130200D01*
X120900000Y-114160400D02*
X120900000Y-119000000D01*
X120869800Y-114130200D02*
X120900000Y-114160400D01*
X119183000Y-114130200D02*
X116619800Y-114130200D01*
X116619800Y-114130200D02*
X114050000Y-116700000D01*
X114050000Y-118450000D02*
X114050000Y-116700000D01*
X111100000Y-117000000D02*
X113750000Y-117000000D01*
X113750000Y-117000000D02*
X114050000Y-116700000D01*
X119183000Y-114765200D02*
X117234800Y-114765200D01*
X115000000Y-119400000D02*
X114050000Y-120350000D01*
X115000000Y-117000000D02*
X115000000Y-119400000D01*
X117234800Y-114765200D02*
X115000000Y-117000000D01*
X111100000Y-120000000D02*
X113700000Y-120000000D01*
X113700000Y-120000000D02*
X114050000Y-120350000D01*
X106050000Y-104000000D02*
X106050000Y-104050000D01*
X106050000Y-104050000D02*
X109000000Y-107000000D01*
X117574400Y-115425600D02*
X119183000Y-115425600D01*
X117500000Y-115500000D02*
X117574400Y-115425600D01*
X105000000Y-101100000D02*
X105000000Y-102950000D01*
X105000000Y-102950000D02*
X106050000Y-104000000D01*
X105000000Y-101100000D02*
X103150000Y-101100000D01*
X103150000Y-101100000D02*
X103000000Y-100950000D01*
X124517000Y-112809400D02*
X126990600Y-112809400D01*
X126990600Y-112809400D02*
X127050000Y-112750000D01*
D53*
X120100000Y-87450000D02*
X113800000Y-87450000D01*
D52*
X113800000Y-87450000D02*
X113800000Y-96950000D01*
X113800000Y-96950000D02*
X118850000Y-102000000D01*
X118850000Y-102000000D02*
X120900000Y-102000000D01*
X114275000Y-79485000D02*
X114275000Y-80755000D01*
X114275000Y-80755000D02*
X115500000Y-79530000D01*
X115500000Y-79530000D02*
X115500000Y-80000000D01*
D54*
X115500000Y-85750000D02*
X115500000Y-80000000D01*
X115500000Y-80000000D02*
X115500000Y-79300000D01*
D53*
X114915000Y-78715000D02*
X115500000Y-79300000D01*
X114915000Y-78715000D02*
X114275000Y-78215000D01*
D54*
X115500000Y-85750000D02*
X113800000Y-87450000D01*
D52*
X107950000Y-104000000D02*
X107950000Y-104950000D01*
X117914000Y-116086000D02*
X119183000Y-116086000D01*
X117500000Y-116500000D02*
X117914000Y-116086000D01*
X117000000Y-116500000D02*
X117500000Y-116500000D01*
X107950000Y-104950000D02*
X109000000Y-106000000D01*
X112000000Y-100950000D02*
X109150000Y-100950000D01*
X109150000Y-100950000D02*
X109000000Y-101100000D01*
X109000000Y-101100000D02*
X109000000Y-102950000D01*
X109000000Y-102950000D02*
X107950000Y-104000000D01*
X123000000Y-107000000D02*
X123000000Y-102100000D01*
X123000000Y-102100000D02*
X123100000Y-102000000D01*
X124517000Y-110879000D02*
X124517000Y-108517000D01*
X124517000Y-108517000D02*
X123000000Y-107000000D01*
D53*
X121450000Y-82300000D02*
X121450000Y-76000000D01*
X157400000Y-78300000D02*
X157124998Y-78300000D01*
X155300000Y-90450000D02*
X159250000Y-86500000D01*
X159250000Y-80000000D02*
X159250000Y-86500000D01*
X157400000Y-78300000D02*
X159250000Y-80000000D01*
X155300000Y-91540000D02*
X155300000Y-90450000D01*
X158500000Y-69000000D02*
X157750000Y-68250000D01*
X157124998Y-78300000D02*
X156900000Y-78075002D01*
X157750000Y-68250000D02*
X157750000Y-68200000D01*
X157750000Y-68250000D02*
X157750000Y-68200000D01*
D52*
X156100000Y-53400000D02*
X162400000Y-53400000D01*
X175825000Y-70155000D02*
X174505000Y-70155000D01*
X160650000Y-68200000D02*
X157750000Y-68200000D01*
X162000000Y-69550000D02*
X160650000Y-68200000D01*
X165550000Y-69600000D02*
X165400000Y-69750000D01*
X173950000Y-69600000D02*
X165550000Y-69600000D01*
X174505000Y-70155000D02*
X173950000Y-69600000D01*
X124430000Y-50700000D02*
X124430000Y-54430000D01*
X124430000Y-54430000D02*
X124600000Y-54600000D01*
X136855000Y-60275000D02*
X136855000Y-68200000D01*
X118500000Y-56600000D02*
X122600000Y-56600000D01*
X122600000Y-56600000D02*
X124600000Y-54600000D01*
X108095000Y-58825000D02*
X108095000Y-59405000D01*
X107750000Y-62750000D02*
X124650000Y-62750000D01*
X107250000Y-62250000D02*
X107750000Y-62750000D01*
X107250000Y-60250000D02*
X107250000Y-62250000D01*
X108095000Y-59405000D02*
X107250000Y-60250000D01*
D54*
X124600000Y-54600000D02*
X124600000Y-52800000D01*
D55*
X125250000Y-67050000D02*
X124650000Y-66450000D01*
X124650000Y-66450000D02*
X124650000Y-62750000D01*
X124650000Y-62750000D02*
X124650000Y-54650000D01*
X124650000Y-54650000D02*
X124600000Y-54600000D01*
X125300000Y-67050000D02*
X125250000Y-67050000D01*
D54*
X125150000Y-52250000D02*
X125150000Y-50400000D01*
X124600000Y-52800000D02*
X125150000Y-52250000D01*
D55*
X162400000Y-53400000D02*
X162400000Y-60250000D01*
X126450000Y-68200000D02*
X125300000Y-67050000D01*
X157750000Y-68200000D02*
X136855000Y-68200000D01*
X136855000Y-68200000D02*
X126450000Y-68200000D01*
X157950000Y-68400000D02*
X157750000Y-68200000D01*
X157950000Y-64700000D02*
X157950000Y-68400000D01*
X162400000Y-60250000D02*
X157950000Y-64700000D01*
X121450000Y-76000000D02*
X121450000Y-70900000D01*
X121450000Y-70900000D02*
X125300000Y-67050000D01*
X171250000Y-54400000D02*
X163400000Y-54400000D01*
X181550000Y-50750000D02*
X180830000Y-50750000D01*
X180830000Y-50750000D02*
X175080000Y-45000000D01*
D56*
X102260000Y-80650000D02*
X102260000Y-84310000D01*
X103470000Y-85520000D02*
X105800000Y-85520000D01*
X102260000Y-84310000D02*
X103470000Y-85520000D01*
D52*
X112160000Y-81312500D02*
X109710000Y-81312500D01*
X108575000Y-79425000D02*
X108575000Y-78275000D01*
X108575000Y-78275000D02*
X108580000Y-78270000D01*
X108580000Y-78270000D02*
X108580000Y-76950000D01*
X108580000Y-80750000D02*
X109147500Y-80750000D01*
X109147500Y-80750000D02*
X109710000Y-81312500D01*
X106440000Y-80650000D02*
X109047500Y-80650000D01*
X109047500Y-80650000D02*
X108575000Y-80177500D01*
X108575000Y-80177500D02*
X108575000Y-78275000D01*
X108575000Y-78275000D02*
X108580000Y-78270000D01*
X108580000Y-78270000D02*
X108580000Y-77517500D01*
X108580000Y-77517500D02*
X109710000Y-76387500D01*
X109710000Y-76387500D02*
X112160000Y-76387500D01*
D54*
X106440000Y-80650000D02*
X110112500Y-80650000D01*
X110112500Y-80650000D02*
X110800000Y-79962500D01*
D56*
X110800000Y-77737500D02*
X110412500Y-77737500D01*
X110412500Y-77737500D02*
X107850000Y-80300000D01*
X150150000Y-42510000D02*
X147570000Y-42510000D01*
X147570000Y-42510000D02*
X145080000Y-45000000D01*
D52*
X154600000Y-43080000D02*
X155920000Y-43080000D01*
X155920000Y-43080000D02*
X155925000Y-43075000D01*
X155925000Y-43075000D02*
X158395000Y-43075000D01*
X158395000Y-43075000D02*
X158400000Y-43080000D01*
X154037500Y-44210000D02*
X154297500Y-44210000D01*
X154297500Y-44210000D02*
X155387500Y-45300000D01*
X150150000Y-46690000D02*
X154007500Y-46690000D01*
X154007500Y-46690000D02*
X154037500Y-46660000D01*
X154037500Y-46660000D02*
X154037500Y-43642500D01*
X154037500Y-43642500D02*
X154605000Y-43075000D01*
X154605000Y-43075000D02*
X157075000Y-43075000D01*
X157075000Y-43075000D02*
X157080000Y-43080000D01*
X157080000Y-43080000D02*
X157832500Y-43080000D01*
X157832500Y-43080000D02*
X158962500Y-44210000D01*
X158962500Y-44210000D02*
X158702500Y-44210000D01*
X158702500Y-44210000D02*
X158962500Y-44470000D01*
X158962500Y-44470000D02*
X158962500Y-46660000D01*
D54*
X150150000Y-46690000D02*
X151557500Y-46690000D01*
X151557500Y-46690000D02*
X154037500Y-44210000D01*
D52*
X105600000Y-50000000D02*
X108250000Y-50000000D01*
X108250000Y-50000000D02*
X108850000Y-50600000D01*
D53*
X106250000Y-50000000D02*
X108250000Y-50000000D01*
X108250000Y-50000000D02*
X108850000Y-50600000D01*
D56*
X110000000Y-45000000D02*
X110000000Y-49450000D01*
X110000000Y-49450000D02*
X108850000Y-50600000D01*
D53*
X122150000Y-50700000D02*
X122150000Y-44400000D01*
D57*
X115080000Y-45000000D02*
X121550000Y-45000000D01*
X121550000Y-45000000D02*
X122150000Y-44400000D01*
D52*
X105150000Y-116200000D02*
X108100000Y-116200000D01*
X108100000Y-116200000D02*
X108900000Y-117000000D01*
X105150000Y-113660000D02*
X108560000Y-113660000D01*
X108560000Y-113660000D02*
X108900000Y-114000000D01*
X108690000Y-113810000D02*
X108925000Y-113575000D01*
X105150000Y-111120000D02*
X108780000Y-111120000D01*
X108780000Y-111120000D02*
X108900000Y-111000000D01*
X166950000Y-65250000D02*
X166950000Y-65200000D01*
X166950000Y-65200000D02*
X165950000Y-64200000D01*
X175050000Y-50050000D02*
X170000000Y-45000000D01*
X175050000Y-57450000D02*
X175050000Y-50050000D01*
X174350000Y-58150000D02*
X175050000Y-57450000D01*
X167600000Y-58150000D02*
X174350000Y-58150000D01*
X167500000Y-58250000D02*
X167600000Y-58150000D01*
X167350000Y-60050000D02*
X167350000Y-59650000D01*
X165200000Y-62200000D02*
X167350000Y-60050000D01*
X165200000Y-64050000D02*
X165200000Y-62200000D01*
X165050000Y-64200000D02*
X165200000Y-64050000D01*
X165950000Y-64200000D02*
X165050000Y-64200000D01*
X166950000Y-65250000D02*
X166950000Y-67950000D01*
X166950000Y-67950000D02*
X166900000Y-68000000D01*
X165100000Y-68000000D02*
X166900000Y-68000000D01*
X165650000Y-44600000D02*
X165200000Y-44600000D01*
X165200000Y-44600000D02*
X163100000Y-42500000D01*
X165650000Y-44600000D02*
X169600000Y-44600000D01*
X169600000Y-44600000D02*
X170000000Y-45000000D01*
D54*
X165650000Y-44600000D02*
X168250000Y-44600000D01*
D57*
X168250000Y-44600000D02*
X168500000Y-44850000D01*
D52*
X105800000Y-90600000D02*
X105800000Y-89700000D01*
X105800000Y-89700000D02*
X110000000Y-85500000D01*
X113555000Y-76945000D02*
X114275000Y-76945000D01*
X113250000Y-77250000D02*
X113555000Y-76945000D01*
X113250000Y-82250000D02*
X113250000Y-77250000D01*
X112500000Y-83000000D02*
X113250000Y-82250000D01*
X111000000Y-83000000D02*
X112500000Y-83000000D01*
X110000000Y-84000000D02*
X111000000Y-83000000D01*
X110000000Y-85500000D02*
X110000000Y-84000000D01*
X104500000Y-95050000D02*
X102950000Y-95050000D01*
X104000000Y-120000000D02*
X108900000Y-120000000D01*
X102000000Y-118000000D02*
X104000000Y-120000000D01*
X102000000Y-96000000D02*
X102000000Y-118000000D01*
X102950000Y-95050000D02*
X102000000Y-96000000D01*
X104500000Y-95050000D02*
X104500000Y-98400000D01*
X104500000Y-98400000D02*
X105000000Y-98900000D01*
D56*
X104500000Y-95050000D02*
X104500000Y-91900000D01*
X104500000Y-91900000D02*
X105800000Y-90600000D01*
D52*
X137900000Y-50000000D02*
X137900000Y-51150000D01*
X158405000Y-50095000D02*
X158405000Y-48775000D01*
X158250000Y-50250000D02*
X158405000Y-50095000D01*
X138000000Y-51250000D02*
X146250000Y-51250000D01*
X137900000Y-51150000D02*
X138000000Y-51250000D01*
X137900000Y-50000000D02*
X137900000Y-47100000D01*
X137900000Y-47100000D02*
X140000000Y-45000000D01*
X135500000Y-49900000D02*
X137800000Y-49900000D01*
X137800000Y-49900000D02*
X137900000Y-50000000D01*
D56*
X135700000Y-42500000D02*
X137500000Y-42500000D01*
X137500000Y-42500000D02*
X140000000Y-45000000D01*
D52*
X112500000Y-54400000D02*
X115500000Y-54400000D01*
X115500000Y-54400000D02*
X115550000Y-54350000D01*
X115550000Y-54350000D02*
X115550000Y-52500000D01*
X119870000Y-50700000D02*
X119870000Y-53030000D01*
X119870000Y-53030000D02*
X118500000Y-54400000D01*
X116500000Y-50500000D02*
X119670000Y-50500000D01*
X119670000Y-50500000D02*
X119870000Y-50700000D01*
X129000000Y-97950000D02*
X131850000Y-97950000D01*
X131850000Y-97950000D02*
X132000000Y-98100000D01*
X132000000Y-98100000D02*
X132000000Y-100400000D01*
X124517000Y-116721000D02*
X127279000Y-116721000D01*
X135000000Y-99500000D02*
X135000000Y-98100000D01*
X127279000Y-116721000D02*
X127500000Y-116500000D01*
X147620000Y-58550000D02*
X147620000Y-57130000D01*
X154250000Y-52250000D02*
X155380000Y-51120000D01*
X154250000Y-55000000D02*
X154250000Y-52250000D01*
X153000000Y-56250000D02*
X154250000Y-55000000D01*
X148500000Y-56250000D02*
X153000000Y-56250000D01*
X147620000Y-57130000D02*
X148500000Y-56250000D01*
X155380000Y-51120000D02*
X156100000Y-51120000D01*
X148400000Y-63000000D02*
X148400000Y-59330000D01*
X148400000Y-59330000D02*
X147620000Y-58550000D01*
X143500000Y-59000000D02*
X147170000Y-59000000D01*
X147170000Y-59000000D02*
X147620000Y-58550000D01*
X155865000Y-48775000D02*
X157135000Y-48775000D01*
X149900000Y-52250000D02*
X151120000Y-52250000D01*
X151120000Y-52250000D02*
X154595000Y-48775000D01*
X144100000Y-50000000D02*
X147650000Y-50000000D01*
X147650000Y-50000000D02*
X149900000Y-52250000D01*
D58*
X155865000Y-48775000D02*
X153375000Y-48775000D01*
X153375000Y-48775000D02*
X149900000Y-52250000D01*
D52*
X152180000Y-58550000D02*
X152180000Y-61420000D01*
X152180000Y-61420000D02*
X150600000Y-63000000D01*
X146100000Y-63000000D02*
X146250000Y-63000000D01*
X146250000Y-63000000D02*
X147500000Y-64250000D01*
X149350000Y-64250000D02*
X150600000Y-63000000D01*
X147500000Y-64250000D02*
X149350000Y-64250000D01*
D58*
X152180000Y-58550000D02*
X153230000Y-58550000D01*
X153230000Y-58550000D02*
X156100000Y-55680000D01*
D52*
X143450000Y-53000000D02*
X143600000Y-53000000D01*
X143600000Y-53000000D02*
X145500000Y-54900000D01*
X141500000Y-58050000D02*
X142050000Y-58050000D01*
X142500000Y-61600000D02*
X143900000Y-63000000D01*
X142500000Y-58500000D02*
X142500000Y-61600000D01*
X142050000Y-58050000D02*
X142500000Y-58500000D01*
X141500000Y-58050000D02*
X141500000Y-56000000D01*
X141500000Y-56000000D02*
X142500000Y-55000000D01*
X139750000Y-57900000D02*
X141350000Y-57900000D01*
X141350000Y-57900000D02*
X141500000Y-58050000D01*
X126414000Y-116086000D02*
X126500000Y-116000000D01*
X124517000Y-116086000D02*
X126414000Y-116086000D01*
X132000000Y-104000000D02*
X132000000Y-102600000D01*
X162900000Y-71000000D02*
X162900000Y-68000000D01*
X162900000Y-68000000D02*
X162900000Y-67400000D01*
X162900000Y-67400000D02*
X165050000Y-65250000D01*
X168970000Y-60700000D02*
X168970000Y-63070000D01*
X168970000Y-63070000D02*
X170900000Y-65000000D01*
X168970000Y-60700000D02*
X168550000Y-60700000D01*
X168550000Y-60700000D02*
X166000000Y-63250000D01*
X146050000Y-94850000D02*
X159850000Y-94850000D01*
X140100000Y-48800000D02*
X140050000Y-48750000D01*
X138200000Y-54800000D02*
X138200000Y-63750000D01*
X138100000Y-71850000D02*
X138000000Y-71950000D01*
X138000000Y-71950000D02*
X137200000Y-71950000D01*
X137200000Y-71950000D02*
X135800000Y-73350000D01*
X135800000Y-73350000D02*
X135800000Y-84600000D01*
X135800000Y-84600000D02*
X146050000Y-94850000D01*
X140100000Y-50000000D02*
X140100000Y-48800000D01*
X170635000Y-101135000D02*
X170635000Y-102775000D01*
X169000000Y-99500000D02*
X170635000Y-101135000D01*
X164500000Y-99500000D02*
X169000000Y-99500000D01*
X159850000Y-94850000D02*
X164500000Y-99500000D01*
X140100000Y-50000000D02*
X141900000Y-50000000D01*
X123100000Y-113900000D02*
X123100000Y-114150000D01*
X123530200Y-113469800D02*
X123100000Y-113900000D01*
X124517000Y-113469800D02*
X123530200Y-113469800D01*
X122250000Y-118150000D02*
X123100000Y-119000000D01*
X122250000Y-115000000D02*
X122250000Y-118150000D01*
X123100000Y-114150000D02*
X122250000Y-115000000D01*
X123100000Y-119000000D02*
X124900000Y-119000000D01*
X135500000Y-52100000D02*
X138950000Y-52100000D01*
X138950000Y-52100000D02*
X139750000Y-52900000D01*
X135500000Y-52100000D02*
X135500000Y-53840000D01*
X135500000Y-53840000D02*
X135585000Y-53925000D01*
X157500000Y-77250000D02*
X157547174Y-77250000D01*
X157694801Y-77397627D02*
X158197174Y-77900000D01*
X160000000Y-77900000D02*
X158197174Y-77900000D01*
X139750000Y-55750000D02*
X139750000Y-55100000D01*
X157250000Y-77250000D02*
X157500000Y-77250000D01*
X155750000Y-77250000D02*
X157250000Y-77250000D01*
X154000000Y-75500000D02*
X155750000Y-77250000D01*
X140500000Y-71750000D02*
X152750000Y-71750000D01*
X140500000Y-61250000D02*
X140500000Y-64500000D01*
X139750000Y-55750000D02*
X140500000Y-56500000D01*
X157547174Y-77250000D02*
X157694801Y-77397627D01*
X160000000Y-77900000D02*
X160300000Y-77900000D01*
X168095000Y-95505000D02*
X168095000Y-96425000D01*
X169100000Y-94500000D02*
X168095000Y-95505000D01*
X169100000Y-85100000D02*
X169100000Y-94500000D01*
X167500000Y-85100000D02*
X167600000Y-85100000D01*
X162800000Y-80400000D02*
X167500000Y-85100000D01*
X160300000Y-77900000D02*
X161700000Y-79300000D01*
X160000000Y-77900000D02*
X160100000Y-77900000D01*
X136855000Y-53925000D02*
X138575000Y-53925000D01*
X138575000Y-53925000D02*
X139750000Y-55100000D01*
X128900000Y-56500000D02*
X128900000Y-53500000D01*
X128900000Y-59500000D02*
X128900000Y-54900000D01*
X128900000Y-54900000D02*
X128900000Y-53500000D01*
X128900000Y-59500000D02*
X128900000Y-57850000D01*
X131100000Y-56500000D02*
X133000000Y-56500000D01*
X134315000Y-55185000D02*
X134315000Y-53925000D01*
X133000000Y-56500000D02*
X134315000Y-55185000D01*
X134315000Y-53925000D02*
X134315000Y-53715000D01*
X134315000Y-53715000D02*
X131100000Y-50500000D01*
X102500000Y-62100000D02*
X105500000Y-62100000D01*
X105500000Y-63900000D02*
X105500000Y-62100000D01*
X105500000Y-59900000D02*
X105500000Y-60000000D01*
X105500000Y-60000000D02*
X106500000Y-61000000D01*
X111905000Y-59595000D02*
X111905000Y-58825000D01*
X110500000Y-61000000D02*
X111905000Y-59595000D01*
X109500000Y-61000000D02*
X110500000Y-61000000D01*
X105500000Y-59900000D02*
X105500000Y-58100000D01*
X105500000Y-58100000D02*
X105600000Y-58000000D01*
X102500000Y-52400000D02*
X103150000Y-52400000D01*
X110635000Y-57885000D02*
X110635000Y-58825000D01*
X110000000Y-57250000D02*
X110635000Y-57885000D01*
X107000000Y-57250000D02*
X110000000Y-57250000D01*
X104000000Y-54250000D02*
X107000000Y-57250000D01*
X104000000Y-53250000D02*
X104000000Y-54250000D01*
X103150000Y-52400000D02*
X104000000Y-53250000D01*
X102500000Y-52400000D02*
X102500000Y-50900000D01*
X102500000Y-50900000D02*
X103400000Y-50000000D01*
X145500000Y-95750000D02*
X158530000Y-95750000D01*
X114000000Y-64250000D02*
X118500000Y-68750000D01*
X125750000Y-76000000D02*
X145500000Y-95750000D01*
X158530000Y-95750000D02*
X165555000Y-102775000D01*
X102500000Y-54600000D02*
X102600000Y-54600000D01*
X102600000Y-54600000D02*
X104750000Y-56750000D01*
X108750000Y-60250000D02*
X109365000Y-59635000D01*
X109365000Y-59635000D02*
X109365000Y-58825000D01*
X165100000Y-71000000D02*
X165000000Y-71000000D01*
X165000000Y-71000000D02*
X164250000Y-71750000D01*
X163250000Y-73250000D02*
X163250000Y-75250000D01*
X163250000Y-75250000D02*
X161250000Y-77250000D01*
X161250000Y-77250000D02*
X158276000Y-77250000D01*
X158276000Y-77250000D02*
X155321000Y-74295000D01*
X166825000Y-96425000D02*
X166825000Y-87175000D01*
X169500000Y-68750000D02*
X169100000Y-68350000D01*
X168250000Y-72250000D02*
X168250000Y-76250000D01*
X168250000Y-85750000D02*
X168250000Y-76250000D01*
X166825000Y-87175000D02*
X168250000Y-85750000D01*
X169100000Y-68000000D02*
X169100000Y-68350000D01*
X170900000Y-68000000D02*
X169100000Y-68000000D01*
X174600000Y-68250000D02*
X176550000Y-68250000D01*
X183550000Y-69700000D02*
X182735000Y-68885000D01*
X180000000Y-69550000D02*
X180250000Y-69550000D01*
X178700000Y-68250000D02*
X180000000Y-69550000D01*
X176550000Y-68250000D02*
X178700000Y-68250000D01*
X182735000Y-68885000D02*
X182175000Y-68885000D01*
X160900000Y-42500000D02*
X160900000Y-42750000D01*
X160900000Y-42750000D02*
X160450000Y-43200000D01*
X160450000Y-43200000D02*
X160450000Y-49750000D01*
X166150000Y-58250000D02*
X166850000Y-58950000D01*
X166850000Y-58950000D02*
X169600000Y-58950000D01*
X169600000Y-58950000D02*
X170050000Y-59400000D01*
X170050000Y-59400000D02*
X170050000Y-62150000D01*
X170050000Y-62150000D02*
X172050000Y-64150000D01*
X172050000Y-64150000D02*
X172050000Y-66600000D01*
X172050000Y-66600000D02*
X172450000Y-67000000D01*
X174600000Y-68250000D02*
X174600000Y-68300000D01*
X182175000Y-68885000D02*
X183485000Y-68885000D01*
X183485000Y-68885000D02*
X185250000Y-70650000D01*
X182000000Y-75800000D02*
X182000000Y-75000000D01*
X184350000Y-72850000D02*
X184250000Y-72750000D01*
X185250000Y-72850000D02*
X184350000Y-72850000D01*
X182000000Y-82800000D02*
X182000000Y-75800000D01*
X176600000Y-88200000D02*
X182000000Y-82800000D01*
X176600000Y-93000000D02*
X176600000Y-88200000D01*
X175700000Y-93900000D02*
X176600000Y-93000000D01*
X172700000Y-93900000D02*
X175700000Y-93900000D01*
X172700000Y-93900000D02*
X170635000Y-95965000D01*
X170635000Y-96425000D02*
X170635000Y-95965000D01*
X182175000Y-70155000D02*
X182555000Y-70155000D01*
X182555000Y-70155000D02*
X185250000Y-72850000D01*
X170900000Y-71000000D02*
X170900000Y-72150000D01*
X181150000Y-72750000D02*
X185250000Y-76850000D01*
X171500000Y-72750000D02*
X181150000Y-72750000D01*
X170900000Y-72150000D02*
X171500000Y-72750000D01*
X169100000Y-71000000D02*
X170900000Y-71000000D01*
X185250000Y-74650000D02*
X184650000Y-74650000D01*
X181135000Y-67615000D02*
X182175000Y-67615000D01*
X181000000Y-67750000D02*
X181135000Y-67615000D01*
X181000000Y-71000000D02*
X181000000Y-67750000D01*
X184650000Y-74650000D02*
X181000000Y-71000000D01*
X182175000Y-67615000D02*
X184015000Y-67615000D01*
X184015000Y-67615000D02*
X185250000Y-68850000D01*
X133500000Y-105250000D02*
X138000000Y-100750000D01*
X138000000Y-100750000D02*
X138000000Y-89750000D01*
X119183000Y-117433000D02*
X119183000Y-116721000D01*
X125500000Y-108750000D02*
X129000000Y-105250000D01*
X119183000Y-117433000D02*
X119250000Y-117500000D01*
X129000000Y-105250000D02*
X133500000Y-105250000D01*
X138000000Y-80750000D02*
X138000000Y-85500000D01*
X141500000Y-77250000D02*
X138000000Y-80750000D01*
X152000000Y-77250000D02*
X141500000Y-77250000D01*
X120100000Y-89730000D02*
X120100000Y-94200000D01*
X120100000Y-94200000D02*
X124000000Y-98100000D01*
X124000000Y-98100000D02*
X125900000Y-98100000D01*
X125900000Y-98100000D02*
X127000000Y-97000000D01*
X124000000Y-89900000D02*
X124000000Y-82570000D01*
X124000000Y-82570000D02*
X123730000Y-82300000D01*
X124000000Y-89900000D02*
X123100000Y-89900000D01*
X122500000Y-94400000D02*
X124000000Y-95900000D01*
X122500000Y-90500000D02*
X122500000Y-94400000D01*
X123100000Y-89900000D02*
X122500000Y-90500000D01*
D59*
X120100000Y-85170000D02*
X123620000Y-85170000D01*
X123730000Y-85060000D02*
X123730000Y-82300000D01*
X123620000Y-85170000D02*
X123730000Y-85060000D01*
D52*
X129000000Y-91950000D02*
X134850000Y-91950000D01*
X134850000Y-91950000D02*
X135000000Y-92100000D01*
X135000000Y-95900000D02*
X135000000Y-92100000D01*
X125500000Y-92000000D02*
X126000000Y-92000000D01*
X126000000Y-92000000D02*
X127000000Y-91000000D01*
X119170000Y-82300000D02*
X119170000Y-80830000D01*
X125400000Y-92100000D02*
X124000000Y-92100000D01*
X125500000Y-92000000D02*
X125400000Y-92100000D01*
X119170000Y-80830000D02*
X119500000Y-80500000D01*
X173100000Y-65000000D02*
X173100000Y-61130000D01*
X173100000Y-61130000D02*
X173530000Y-60700000D01*
X173100000Y-65000000D02*
X173100000Y-68000000D01*
D56*
X181550000Y-63450000D02*
X177400000Y-63450000D01*
X177400000Y-63450000D02*
X174550000Y-60600000D01*
D52*
X138000000Y-117050000D02*
X138000000Y-113750000D01*
X138000000Y-110000000D02*
X137050000Y-109050000D01*
X138000000Y-112250000D02*
X138000000Y-110000000D01*
X137050000Y-109050000D02*
X135150000Y-109050000D01*
X135150000Y-109050000D02*
X135000000Y-108900000D01*
X149225000Y-122555000D02*
X149225000Y-122225000D01*
X149225000Y-122225000D02*
X147000000Y-120000000D01*
X147000000Y-120000000D02*
X139500000Y-120000000D01*
X139500000Y-120000000D02*
X138000000Y-118500000D01*
X138000000Y-118500000D02*
X138000000Y-117050000D01*
X138000000Y-117050000D02*
X137000000Y-116050000D01*
X135000000Y-115900000D02*
X136850000Y-115900000D01*
X136850000Y-115900000D02*
X137000000Y-116050000D01*
X135000000Y-118100000D02*
X136850000Y-118100000D01*
X136850000Y-118100000D02*
X137000000Y-117950000D01*
X124517000Y-114765200D02*
X131665200Y-114765200D01*
X131665200Y-114765200D02*
X135000000Y-118100000D01*
X174625000Y-122555000D02*
X174625000Y-121875000D01*
X174625000Y-121875000D02*
X171000000Y-118250000D01*
X141000000Y-115900000D02*
X143900000Y-115900000D01*
X169250000Y-118250000D02*
X171000000Y-118250000D01*
X164500000Y-118250000D02*
X167250000Y-118250000D01*
X160750000Y-114500000D02*
X164500000Y-118250000D01*
X146500000Y-116000000D02*
X154750000Y-116000000D01*
X143900000Y-115900000D02*
X144000000Y-116000000D01*
X139000000Y-117000000D02*
X139900000Y-117000000D01*
X139900000Y-117000000D02*
X141000000Y-115900000D01*
X136250000Y-112250000D02*
X136250000Y-111700000D01*
X136250000Y-111700000D02*
X137000000Y-110950000D01*
X124517000Y-114130200D02*
X132619800Y-114130200D01*
X136250000Y-112250000D02*
X135100000Y-111100000D01*
X132619800Y-114130200D02*
X133500000Y-113250000D01*
X135100000Y-111100000D02*
X135000000Y-111100000D01*
X177165000Y-122555000D02*
X177165000Y-122165000D01*
X177165000Y-122165000D02*
X171000000Y-116000000D01*
X141000000Y-108900000D02*
X143650000Y-108900000D01*
X169000000Y-116000000D02*
X171000000Y-116000000D01*
X167000000Y-116000000D02*
X167250000Y-116000000D01*
X160250000Y-109250000D02*
X167000000Y-116000000D01*
X146000000Y-109250000D02*
X157750000Y-109250000D01*
X145750000Y-109000000D02*
X146000000Y-109250000D01*
X143650000Y-108900000D02*
X143750000Y-109000000D01*
X139000000Y-110000000D02*
X139900000Y-110000000D01*
X139900000Y-110000000D02*
X141000000Y-108900000D01*
D60*
G36*
X183636390Y-41049408D02*
X185023654Y-41976349D01*
X185950592Y-43363610D01*
X186290000Y-45069931D01*
X186290000Y-57873000D01*
X180052606Y-57873000D01*
X175810000Y-53630394D01*
X175810000Y-51224504D01*
X179365944Y-51224504D01*
X179713780Y-52024187D01*
X180341164Y-52629886D01*
X181075497Y-52934050D01*
X181423000Y-52822362D01*
X181423000Y-50877000D01*
X181677000Y-50877000D01*
X181677000Y-52822362D01*
X182024503Y-52934050D01*
X182758836Y-52629886D01*
X183386220Y-52024187D01*
X183734056Y-51224504D01*
X183622645Y-50877000D01*
X181677000Y-50877000D01*
X181423000Y-50877000D01*
X179477355Y-50877000D01*
X179365944Y-51224504D01*
X175810000Y-51224504D01*
X175810000Y-50275496D01*
X179365944Y-50275496D01*
X179477355Y-50623000D01*
X181423000Y-50623000D01*
X181423000Y-48677638D01*
X181677000Y-48677638D01*
X181677000Y-50623000D01*
X183622645Y-50623000D01*
X183734056Y-50275496D01*
X183386220Y-49475813D01*
X182758836Y-48870114D01*
X182024503Y-48565950D01*
X181677000Y-48677638D01*
X181423000Y-48677638D01*
X181075497Y-48565950D01*
X180341164Y-48870114D01*
X179713780Y-49475813D01*
X179365944Y-50275496D01*
X175810000Y-50275496D01*
X175810000Y-50050000D01*
X175752148Y-49759161D01*
X175697480Y-49677345D01*
X175587401Y-49512598D01*
X172588773Y-46513970D01*
X173745635Y-46513970D01*
X173905418Y-46832739D01*
X174696187Y-47142723D01*
X175545387Y-47126497D01*
X176254582Y-46832739D01*
X176414365Y-46513970D01*
X175080000Y-45179605D01*
X173745635Y-46513970D01*
X172588773Y-46513970D01*
X172127000Y-46052197D01*
X172127000Y-45444911D01*
X172134628Y-45426541D01*
X172135335Y-44616187D01*
X172937277Y-44616187D01*
X172953503Y-45465387D01*
X173247261Y-46174582D01*
X173566030Y-46334365D01*
X174900395Y-45000000D01*
X175259605Y-45000000D01*
X176593970Y-46334365D01*
X176912739Y-46174582D01*
X177222723Y-45383813D01*
X177206497Y-44534613D01*
X177032935Y-44115596D01*
X178946049Y-44115596D01*
X179341573Y-45072838D01*
X180073310Y-45805853D01*
X181029860Y-46203047D01*
X182065596Y-46203951D01*
X183022838Y-45808427D01*
X183755853Y-45076690D01*
X184153047Y-44120140D01*
X184153951Y-43084404D01*
X183758427Y-42127162D01*
X183026690Y-41394147D01*
X182070140Y-40996953D01*
X181034404Y-40996049D01*
X180077162Y-41391573D01*
X179344147Y-42123310D01*
X178946953Y-43079860D01*
X178946049Y-44115596D01*
X177032935Y-44115596D01*
X176912739Y-43825418D01*
X176593970Y-43665635D01*
X175259605Y-45000000D01*
X174900395Y-45000000D01*
X173566030Y-43665635D01*
X173247261Y-43825418D01*
X172937277Y-44616187D01*
X172135335Y-44616187D01*
X172135370Y-44577185D01*
X172127000Y-44556928D01*
X172127000Y-43486030D01*
X173745635Y-43486030D01*
X175080000Y-44820395D01*
X176414365Y-43486030D01*
X176254582Y-43167261D01*
X175463813Y-42857277D01*
X174614613Y-42873503D01*
X173905418Y-43167261D01*
X173745635Y-43486030D01*
X172127000Y-43486030D01*
X172127000Y-40710000D01*
X181930069Y-40710000D01*
X183636390Y-41049408D01*
X183636390Y-41049408D01*
G37*
X183636390Y-41049408D02*
X185023654Y-41976349D01*
X185950592Y-43363610D01*
X186290000Y-45069931D01*
X186290000Y-57873000D01*
X180052606Y-57873000D01*
X175810000Y-53630394D01*
X175810000Y-51224504D01*
X179365944Y-51224504D01*
X179713780Y-52024187D01*
X180341164Y-52629886D01*
X181075497Y-52934050D01*
X181423000Y-52822362D01*
X181423000Y-50877000D01*
X181677000Y-50877000D01*
X181677000Y-52822362D01*
X182024503Y-52934050D01*
X182758836Y-52629886D01*
X183386220Y-52024187D01*
X183734056Y-51224504D01*
X183622645Y-50877000D01*
X181677000Y-50877000D01*
X181423000Y-50877000D01*
X179477355Y-50877000D01*
X179365944Y-51224504D01*
X175810000Y-51224504D01*
X175810000Y-50275496D01*
X179365944Y-50275496D01*
X179477355Y-50623000D01*
X181423000Y-50623000D01*
X181423000Y-48677638D01*
X181677000Y-48677638D01*
X181677000Y-50623000D01*
X183622645Y-50623000D01*
X183734056Y-50275496D01*
X183386220Y-49475813D01*
X182758836Y-48870114D01*
X182024503Y-48565950D01*
X181677000Y-48677638D01*
X181423000Y-48677638D01*
X181075497Y-48565950D01*
X180341164Y-48870114D01*
X179713780Y-49475813D01*
X179365944Y-50275496D01*
X175810000Y-50275496D01*
X175810000Y-50050000D01*
X175752148Y-49759161D01*
X175697480Y-49677345D01*
X175587401Y-49512598D01*
X172588773Y-46513970D01*
X173745635Y-46513970D01*
X173905418Y-46832739D01*
X174696187Y-47142723D01*
X175545387Y-47126497D01*
X176254582Y-46832739D01*
X176414365Y-46513970D01*
X175080000Y-45179605D01*
X173745635Y-46513970D01*
X172588773Y-46513970D01*
X172127000Y-46052197D01*
X172127000Y-45444911D01*
X172134628Y-45426541D01*
X172135335Y-44616187D01*
X172937277Y-44616187D01*
X172953503Y-45465387D01*
X173247261Y-46174582D01*
X173566030Y-46334365D01*
X174900395Y-45000000D01*
X175259605Y-45000000D01*
X176593970Y-46334365D01*
X176912739Y-46174582D01*
X177222723Y-45383813D01*
X177206497Y-44534613D01*
X177032935Y-44115596D01*
X178946049Y-44115596D01*
X179341573Y-45072838D01*
X180073310Y-45805853D01*
X181029860Y-46203047D01*
X182065596Y-46203951D01*
X183022838Y-45808427D01*
X183755853Y-45076690D01*
X184153047Y-44120140D01*
X184153951Y-43084404D01*
X183758427Y-42127162D01*
X183026690Y-41394147D01*
X182070140Y-40996953D01*
X181034404Y-40996049D01*
X180077162Y-41391573D01*
X179344147Y-42123310D01*
X178946953Y-43079860D01*
X178946049Y-44115596D01*
X177032935Y-44115596D01*
X176912739Y-43825418D01*
X176593970Y-43665635D01*
X175259605Y-45000000D01*
X174900395Y-45000000D01*
X173566030Y-43665635D01*
X173247261Y-43825418D01*
X172937277Y-44616187D01*
X172135335Y-44616187D01*
X172135370Y-44577185D01*
X172127000Y-44556928D01*
X172127000Y-43486030D01*
X173745635Y-43486030D01*
X175080000Y-44820395D01*
X176414365Y-43486030D01*
X176254582Y-43167261D01*
X175463813Y-42857277D01*
X174614613Y-42873503D01*
X173905418Y-43167261D01*
X173745635Y-43486030D01*
X172127000Y-43486030D01*
X172127000Y-40710000D01*
X181930069Y-40710000D01*
X183636390Y-41049408D01*
G36*
X179455407Y-59118914D02*
X179500000Y-59127000D01*
X186290000Y-59127000D01*
X186290000Y-65794229D01*
X186164090Y-65598559D01*
X185951890Y-65453569D01*
X185700000Y-65402560D01*
X184800000Y-65402560D01*
X184564683Y-65446838D01*
X184348559Y-65585910D01*
X184268598Y-65702937D01*
X183936799Y-65565162D01*
X183564833Y-65564838D01*
X183516037Y-65585000D01*
X183513026Y-65585000D01*
X183688327Y-65409698D01*
X183785000Y-65176309D01*
X183785000Y-63735750D01*
X183626250Y-63577000D01*
X181677000Y-63577000D01*
X181677000Y-63597000D01*
X181423000Y-63597000D01*
X181423000Y-63577000D01*
X179473750Y-63577000D01*
X179315000Y-63735750D01*
X179315000Y-65176309D01*
X179411673Y-65409698D01*
X179590301Y-65588327D01*
X179823690Y-65685000D01*
X181112368Y-65685000D01*
X181007069Y-65839110D01*
X180956060Y-66091000D01*
X180956060Y-66599000D01*
X181000338Y-66834317D01*
X181027417Y-66876400D01*
X180844161Y-66912852D01*
X180597599Y-67077599D01*
X180462599Y-67212599D01*
X180297852Y-67459161D01*
X180240000Y-67750000D01*
X180240000Y-68373000D01*
X179897802Y-68373000D01*
X179237401Y-67712599D01*
X178990839Y-67547852D01*
X178700000Y-67490000D01*
X177043940Y-67490000D01*
X177043940Y-67361000D01*
X176999662Y-67125683D01*
X176905334Y-66979093D01*
X176992931Y-66850890D01*
X177043940Y-66599000D01*
X177043940Y-66091000D01*
X176999662Y-65855683D01*
X176860590Y-65639559D01*
X176648390Y-65494569D01*
X176396500Y-65443560D01*
X175253500Y-65443560D01*
X175018183Y-65487838D01*
X174802059Y-65626910D01*
X174657069Y-65839110D01*
X174606060Y-66091000D01*
X174606060Y-66599000D01*
X174650338Y-66834317D01*
X174744666Y-66980907D01*
X174657069Y-67109110D01*
X174615373Y-67315013D01*
X174414833Y-67314838D01*
X174308168Y-67358911D01*
X174238327Y-67190301D01*
X174059698Y-67011673D01*
X173826309Y-66915000D01*
X173385750Y-66915000D01*
X173385074Y-66915676D01*
X173385162Y-66814833D01*
X173243117Y-66471057D01*
X172980327Y-66207808D01*
X172810000Y-66137082D01*
X172810000Y-66085000D01*
X172814250Y-66085000D01*
X172973000Y-65926250D01*
X172973000Y-65127000D01*
X173227000Y-65127000D01*
X173227000Y-65926250D01*
X173385750Y-66085000D01*
X173826309Y-66085000D01*
X174059698Y-65988327D01*
X174238327Y-65809699D01*
X174335000Y-65576310D01*
X174335000Y-65285750D01*
X174176250Y-65127000D01*
X173227000Y-65127000D01*
X172973000Y-65127000D01*
X172953000Y-65127000D01*
X172953000Y-64873000D01*
X172973000Y-64873000D01*
X172973000Y-64073750D01*
X173227000Y-64073750D01*
X173227000Y-64873000D01*
X174176250Y-64873000D01*
X174335000Y-64714250D01*
X174335000Y-64423690D01*
X174238327Y-64190301D01*
X174059698Y-64011673D01*
X173826309Y-63915000D01*
X173385750Y-63915000D01*
X173227000Y-64073750D01*
X172973000Y-64073750D01*
X172814250Y-63915000D01*
X172763255Y-63915000D01*
X172752148Y-63859161D01*
X172587401Y-63612599D01*
X171646903Y-62672101D01*
X171627781Y-62500000D01*
X171633621Y-62447440D01*
X171850000Y-62447440D01*
X172085317Y-62403162D01*
X172301441Y-62264090D01*
X172384538Y-62142473D01*
X172391673Y-62159698D01*
X172570301Y-62338327D01*
X172803690Y-62435000D01*
X173244250Y-62435000D01*
X173403000Y-62276250D01*
X173403000Y-60827000D01*
X173657000Y-60827000D01*
X173657000Y-62276250D01*
X173815750Y-62435000D01*
X174256310Y-62435000D01*
X174489699Y-62338327D01*
X174668327Y-62159698D01*
X174765000Y-61926309D01*
X174765000Y-61723691D01*
X179315000Y-61723691D01*
X179315000Y-63164250D01*
X179473750Y-63323000D01*
X181423000Y-63323000D01*
X181423000Y-61373750D01*
X181677000Y-61373750D01*
X181677000Y-63323000D01*
X183626250Y-63323000D01*
X183785000Y-63164250D01*
X183785000Y-61723691D01*
X183688327Y-61490302D01*
X183509699Y-61311673D01*
X183276310Y-61215000D01*
X181835750Y-61215000D01*
X181677000Y-61373750D01*
X181423000Y-61373750D01*
X181264250Y-61215000D01*
X179823690Y-61215000D01*
X179590301Y-61311673D01*
X179411673Y-61490302D01*
X179315000Y-61723691D01*
X174765000Y-61723691D01*
X174765000Y-60985750D01*
X174606250Y-60827000D01*
X173657000Y-60827000D01*
X173403000Y-60827000D01*
X173383000Y-60827000D01*
X173383000Y-60573000D01*
X173403000Y-60573000D01*
X173403000Y-59123750D01*
X173657000Y-59123750D01*
X173657000Y-60573000D01*
X174606250Y-60573000D01*
X174765000Y-60414250D01*
X174765000Y-59473691D01*
X174668327Y-59240302D01*
X174489699Y-59061673D01*
X174256310Y-58965000D01*
X173815750Y-58965000D01*
X173657000Y-59123750D01*
X173403000Y-59123750D01*
X173244250Y-58965000D01*
X172803690Y-58965000D01*
X172570301Y-59061673D01*
X172391673Y-59240302D01*
X172384409Y-59257838D01*
X172314090Y-59148559D01*
X172101890Y-59003569D01*
X172018158Y-58986613D01*
X172026670Y-58910000D01*
X174350000Y-58910000D01*
X174640839Y-58852148D01*
X174887401Y-58687401D01*
X175587401Y-57987402D01*
X175697480Y-57822655D01*
X175752148Y-57740839D01*
X175754119Y-57730930D01*
X179455407Y-59118914D01*
X179455407Y-59118914D01*
G37*
X179455407Y-59118914D02*
X179500000Y-59127000D01*
X186290000Y-59127000D01*
X186290000Y-65794229D01*
X186164090Y-65598559D01*
X185951890Y-65453569D01*
X185700000Y-65402560D01*
X184800000Y-65402560D01*
X184564683Y-65446838D01*
X184348559Y-65585910D01*
X184268598Y-65702937D01*
X183936799Y-65565162D01*
X183564833Y-65564838D01*
X183516037Y-65585000D01*
X183513026Y-65585000D01*
X183688327Y-65409698D01*
X183785000Y-65176309D01*
X183785000Y-63735750D01*
X183626250Y-63577000D01*
X181677000Y-63577000D01*
X181677000Y-63597000D01*
X181423000Y-63597000D01*
X181423000Y-63577000D01*
X179473750Y-63577000D01*
X179315000Y-63735750D01*
X179315000Y-65176309D01*
X179411673Y-65409698D01*
X179590301Y-65588327D01*
X179823690Y-65685000D01*
X181112368Y-65685000D01*
X181007069Y-65839110D01*
X180956060Y-66091000D01*
X180956060Y-66599000D01*
X181000338Y-66834317D01*
X181027417Y-66876400D01*
X180844161Y-66912852D01*
X180597599Y-67077599D01*
X180462599Y-67212599D01*
X180297852Y-67459161D01*
X180240000Y-67750000D01*
X180240000Y-68373000D01*
X179897802Y-68373000D01*
X179237401Y-67712599D01*
X178990839Y-67547852D01*
X178700000Y-67490000D01*
X177043940Y-67490000D01*
X177043940Y-67361000D01*
X176999662Y-67125683D01*
X176905334Y-66979093D01*
X176992931Y-66850890D01*
X177043940Y-66599000D01*
X177043940Y-66091000D01*
X176999662Y-65855683D01*
X176860590Y-65639559D01*
X176648390Y-65494569D01*
X176396500Y-65443560D01*
X175253500Y-65443560D01*
X175018183Y-65487838D01*
X174802059Y-65626910D01*
X174657069Y-65839110D01*
X174606060Y-66091000D01*
X174606060Y-66599000D01*
X174650338Y-66834317D01*
X174744666Y-66980907D01*
X174657069Y-67109110D01*
X174615373Y-67315013D01*
X174414833Y-67314838D01*
X174308168Y-67358911D01*
X174238327Y-67190301D01*
X174059698Y-67011673D01*
X173826309Y-66915000D01*
X173385750Y-66915000D01*
X173385074Y-66915676D01*
X173385162Y-66814833D01*
X173243117Y-66471057D01*
X172980327Y-66207808D01*
X172810000Y-66137082D01*
X172810000Y-66085000D01*
X172814250Y-66085000D01*
X172973000Y-65926250D01*
X172973000Y-65127000D01*
X173227000Y-65127000D01*
X173227000Y-65926250D01*
X173385750Y-66085000D01*
X173826309Y-66085000D01*
X174059698Y-65988327D01*
X174238327Y-65809699D01*
X174335000Y-65576310D01*
X174335000Y-65285750D01*
X174176250Y-65127000D01*
X173227000Y-65127000D01*
X172973000Y-65127000D01*
X172953000Y-65127000D01*
X172953000Y-64873000D01*
X172973000Y-64873000D01*
X172973000Y-64073750D01*
X173227000Y-64073750D01*
X173227000Y-64873000D01*
X174176250Y-64873000D01*
X174335000Y-64714250D01*
X174335000Y-64423690D01*
X174238327Y-64190301D01*
X174059698Y-64011673D01*
X173826309Y-63915000D01*
X173385750Y-63915000D01*
X173227000Y-64073750D01*
X172973000Y-64073750D01*
X172814250Y-63915000D01*
X172763255Y-63915000D01*
X172752148Y-63859161D01*
X172587401Y-63612599D01*
X171646903Y-62672101D01*
X171627781Y-62500000D01*
X171633621Y-62447440D01*
X171850000Y-62447440D01*
X172085317Y-62403162D01*
X172301441Y-62264090D01*
X172384538Y-62142473D01*
X172391673Y-62159698D01*
X172570301Y-62338327D01*
X172803690Y-62435000D01*
X173244250Y-62435000D01*
X173403000Y-62276250D01*
X173403000Y-60827000D01*
X173657000Y-60827000D01*
X173657000Y-62276250D01*
X173815750Y-62435000D01*
X174256310Y-62435000D01*
X174489699Y-62338327D01*
X174668327Y-62159698D01*
X174765000Y-61926309D01*
X174765000Y-61723691D01*
X179315000Y-61723691D01*
X179315000Y-63164250D01*
X179473750Y-63323000D01*
X181423000Y-63323000D01*
X181423000Y-61373750D01*
X181677000Y-61373750D01*
X181677000Y-63323000D01*
X183626250Y-63323000D01*
X183785000Y-63164250D01*
X183785000Y-61723691D01*
X183688327Y-61490302D01*
X183509699Y-61311673D01*
X183276310Y-61215000D01*
X181835750Y-61215000D01*
X181677000Y-61373750D01*
X181423000Y-61373750D01*
X181264250Y-61215000D01*
X179823690Y-61215000D01*
X179590301Y-61311673D01*
X179411673Y-61490302D01*
X179315000Y-61723691D01*
X174765000Y-61723691D01*
X174765000Y-60985750D01*
X174606250Y-60827000D01*
X173657000Y-60827000D01*
X173403000Y-60827000D01*
X173383000Y-60827000D01*
X173383000Y-60573000D01*
X173403000Y-60573000D01*
X173403000Y-59123750D01*
X173657000Y-59123750D01*
X173657000Y-60573000D01*
X174606250Y-60573000D01*
X174765000Y-60414250D01*
X174765000Y-59473691D01*
X174668327Y-59240302D01*
X174489699Y-59061673D01*
X174256310Y-58965000D01*
X173815750Y-58965000D01*
X173657000Y-59123750D01*
X173403000Y-59123750D01*
X173244250Y-58965000D01*
X172803690Y-58965000D01*
X172570301Y-59061673D01*
X172391673Y-59240302D01*
X172384409Y-59257838D01*
X172314090Y-59148559D01*
X172101890Y-59003569D01*
X172018158Y-58986613D01*
X172026670Y-58910000D01*
X174350000Y-58910000D01*
X174640839Y-58852148D01*
X174887401Y-58687401D01*
X175587401Y-57987402D01*
X175697480Y-57822655D01*
X175752148Y-57740839D01*
X175754119Y-57730930D01*
X179455407Y-59118914D01*
G36*
X173227000Y-67873000D02*
X173247000Y-67873000D01*
X173247000Y-68127000D01*
X173227000Y-68127000D01*
X173227000Y-68147000D01*
X172973000Y-68147000D01*
X172973000Y-68127000D01*
X172953000Y-68127000D01*
X172953000Y-67873000D01*
X172973000Y-67873000D01*
X172973000Y-67853000D01*
X173227000Y-67853000D01*
X173227000Y-67873000D01*
X173227000Y-67873000D01*
G37*
X173227000Y-67873000D02*
X173247000Y-67873000D01*
X173247000Y-68127000D01*
X173227000Y-68127000D01*
X173227000Y-68147000D01*
X172973000Y-68147000D01*
X172973000Y-68127000D01*
X172953000Y-68127000D01*
X172953000Y-67873000D01*
X172973000Y-67873000D01*
X172973000Y-67853000D01*
X173227000Y-67853000D01*
X173227000Y-67873000D01*
G36*
X170873000Y-43049040D02*
X170383813Y-42857277D01*
X169534613Y-42873503D01*
X168825418Y-43167261D01*
X168665635Y-43486030D01*
X170000000Y-44820395D01*
X170014143Y-44806253D01*
X170193748Y-44985858D01*
X170179605Y-45000000D01*
X170193748Y-45014143D01*
X170014143Y-45193748D01*
X170000000Y-45179605D01*
X168665635Y-46513970D01*
X168825418Y-46832739D01*
X169616187Y-47142723D01*
X170465387Y-47126497D01*
X170873000Y-46957658D01*
X170873000Y-47373000D01*
X168038452Y-47373000D01*
X166331452Y-46235000D01*
X166626310Y-46235000D01*
X166859699Y-46138327D01*
X167038327Y-45959698D01*
X167135000Y-45726309D01*
X167135000Y-44885750D01*
X166976250Y-44727000D01*
X165777000Y-44727000D01*
X165777000Y-44747000D01*
X165523000Y-44747000D01*
X165523000Y-44727000D01*
X164323750Y-44727000D01*
X164222031Y-44828719D01*
X163903233Y-44616187D01*
X167857277Y-44616187D01*
X167873503Y-45465387D01*
X168167261Y-46174582D01*
X168486030Y-46334365D01*
X169820395Y-45000000D01*
X168486030Y-43665635D01*
X168167261Y-43825418D01*
X167857277Y-44616187D01*
X163903233Y-44616187D01*
X163570447Y-44394330D01*
X163500000Y-44373000D01*
X161210000Y-44373000D01*
X161210000Y-43597440D01*
X161500000Y-43597440D01*
X161735317Y-43553162D01*
X161951441Y-43414090D01*
X161997969Y-43345994D01*
X162140302Y-43488327D01*
X162373691Y-43585000D01*
X162814250Y-43585000D01*
X162973000Y-43426250D01*
X162973000Y-42627000D01*
X163227000Y-42627000D01*
X163227000Y-43426250D01*
X163385750Y-43585000D01*
X163826309Y-43585000D01*
X164059698Y-43488327D01*
X164229110Y-43318916D01*
X164165000Y-43473691D01*
X164165000Y-44314250D01*
X164323750Y-44473000D01*
X165523000Y-44473000D01*
X165523000Y-43123750D01*
X165777000Y-43123750D01*
X165777000Y-44473000D01*
X166976250Y-44473000D01*
X167135000Y-44314250D01*
X167135000Y-43473691D01*
X167038327Y-43240302D01*
X166859699Y-43061673D01*
X166626310Y-42965000D01*
X165935750Y-42965000D01*
X165777000Y-43123750D01*
X165523000Y-43123750D01*
X165364250Y-42965000D01*
X164673690Y-42965000D01*
X164440301Y-43061673D01*
X164270890Y-43231085D01*
X164335000Y-43076310D01*
X164335000Y-42785750D01*
X164176250Y-42627000D01*
X163227000Y-42627000D01*
X162973000Y-42627000D01*
X162953000Y-42627000D01*
X162953000Y-42373000D01*
X162973000Y-42373000D01*
X162973000Y-41573750D01*
X163227000Y-41573750D01*
X163227000Y-42373000D01*
X164176250Y-42373000D01*
X164335000Y-42214250D01*
X164335000Y-41923690D01*
X164238327Y-41690301D01*
X164059698Y-41511673D01*
X163826309Y-41415000D01*
X163385750Y-41415000D01*
X163227000Y-41573750D01*
X162973000Y-41573750D01*
X162814250Y-41415000D01*
X162373691Y-41415000D01*
X162140302Y-41511673D01*
X161999064Y-41652910D01*
X161964090Y-41598559D01*
X161751890Y-41453569D01*
X161500000Y-41402560D01*
X161127000Y-41402560D01*
X161127000Y-40710000D01*
X170873000Y-40710000D01*
X170873000Y-43049040D01*
X170873000Y-43049040D01*
G37*
X170873000Y-43049040D02*
X170383813Y-42857277D01*
X169534613Y-42873503D01*
X168825418Y-43167261D01*
X168665635Y-43486030D01*
X170000000Y-44820395D01*
X170014143Y-44806253D01*
X170193748Y-44985858D01*
X170179605Y-45000000D01*
X170193748Y-45014143D01*
X170014143Y-45193748D01*
X170000000Y-45179605D01*
X168665635Y-46513970D01*
X168825418Y-46832739D01*
X169616187Y-47142723D01*
X170465387Y-47126497D01*
X170873000Y-46957658D01*
X170873000Y-47373000D01*
X168038452Y-47373000D01*
X166331452Y-46235000D01*
X166626310Y-46235000D01*
X166859699Y-46138327D01*
X167038327Y-45959698D01*
X167135000Y-45726309D01*
X167135000Y-44885750D01*
X166976250Y-44727000D01*
X165777000Y-44727000D01*
X165777000Y-44747000D01*
X165523000Y-44747000D01*
X165523000Y-44727000D01*
X164323750Y-44727000D01*
X164222031Y-44828719D01*
X163903233Y-44616187D01*
X167857277Y-44616187D01*
X167873503Y-45465387D01*
X168167261Y-46174582D01*
X168486030Y-46334365D01*
X169820395Y-45000000D01*
X168486030Y-43665635D01*
X168167261Y-43825418D01*
X167857277Y-44616187D01*
X163903233Y-44616187D01*
X163570447Y-44394330D01*
X163500000Y-44373000D01*
X161210000Y-44373000D01*
X161210000Y-43597440D01*
X161500000Y-43597440D01*
X161735317Y-43553162D01*
X161951441Y-43414090D01*
X161997969Y-43345994D01*
X162140302Y-43488327D01*
X162373691Y-43585000D01*
X162814250Y-43585000D01*
X162973000Y-43426250D01*
X162973000Y-42627000D01*
X163227000Y-42627000D01*
X163227000Y-43426250D01*
X163385750Y-43585000D01*
X163826309Y-43585000D01*
X164059698Y-43488327D01*
X164229110Y-43318916D01*
X164165000Y-43473691D01*
X164165000Y-44314250D01*
X164323750Y-44473000D01*
X165523000Y-44473000D01*
X165523000Y-43123750D01*
X165777000Y-43123750D01*
X165777000Y-44473000D01*
X166976250Y-44473000D01*
X167135000Y-44314250D01*
X167135000Y-43473691D01*
X167038327Y-43240302D01*
X166859699Y-43061673D01*
X166626310Y-42965000D01*
X165935750Y-42965000D01*
X165777000Y-43123750D01*
X165523000Y-43123750D01*
X165364250Y-42965000D01*
X164673690Y-42965000D01*
X164440301Y-43061673D01*
X164270890Y-43231085D01*
X164335000Y-43076310D01*
X164335000Y-42785750D01*
X164176250Y-42627000D01*
X163227000Y-42627000D01*
X162973000Y-42627000D01*
X162953000Y-42627000D01*
X162953000Y-42373000D01*
X162973000Y-42373000D01*
X162973000Y-41573750D01*
X163227000Y-41573750D01*
X163227000Y-42373000D01*
X164176250Y-42373000D01*
X164335000Y-42214250D01*
X164335000Y-41923690D01*
X164238327Y-41690301D01*
X164059698Y-41511673D01*
X163826309Y-41415000D01*
X163385750Y-41415000D01*
X163227000Y-41573750D01*
X162973000Y-41573750D01*
X162814250Y-41415000D01*
X162373691Y-41415000D01*
X162140302Y-41511673D01*
X161999064Y-41652910D01*
X161964090Y-41598559D01*
X161751890Y-41453569D01*
X161500000Y-41402560D01*
X161127000Y-41402560D01*
X161127000Y-40710000D01*
X170873000Y-40710000D01*
X170873000Y-43049040D01*
G36*
X165194822Y-46965000D02*
X164673690Y-46965000D01*
X164440301Y-47061673D01*
X164261673Y-47240302D01*
X164165000Y-47473691D01*
X164165000Y-48314250D01*
X164323750Y-48473000D01*
X165523000Y-48473000D01*
X165523000Y-48453000D01*
X165777000Y-48453000D01*
X165777000Y-48473000D01*
X166976250Y-48473000D01*
X167135000Y-48314250D01*
X167135000Y-48129107D01*
X167934659Y-48608902D01*
X168000000Y-48627000D01*
X170873000Y-48627000D01*
X170873000Y-50373000D01*
X166223543Y-50373000D01*
X166203162Y-50264683D01*
X166184062Y-50235000D01*
X166626310Y-50235000D01*
X166859699Y-50138327D01*
X167038327Y-49959698D01*
X167135000Y-49726309D01*
X167135000Y-48885750D01*
X166976250Y-48727000D01*
X165777000Y-48727000D01*
X165777000Y-48747000D01*
X165523000Y-48747000D01*
X165523000Y-48727000D01*
X164323750Y-48727000D01*
X164165000Y-48885750D01*
X164165000Y-49726309D01*
X164217295Y-49852560D01*
X162840194Y-49852560D01*
X162400000Y-49765000D01*
X161959806Y-49852560D01*
X161384911Y-49852560D01*
X161385162Y-49564833D01*
X161243117Y-49221057D01*
X161210000Y-49187882D01*
X161210000Y-45627000D01*
X162964822Y-45627000D01*
X165194822Y-46965000D01*
X165194822Y-46965000D01*
G37*
X165194822Y-46965000D02*
X164673690Y-46965000D01*
X164440301Y-47061673D01*
X164261673Y-47240302D01*
X164165000Y-47473691D01*
X164165000Y-48314250D01*
X164323750Y-48473000D01*
X165523000Y-48473000D01*
X165523000Y-48453000D01*
X165777000Y-48453000D01*
X165777000Y-48473000D01*
X166976250Y-48473000D01*
X167135000Y-48314250D01*
X167135000Y-48129107D01*
X167934659Y-48608902D01*
X168000000Y-48627000D01*
X170873000Y-48627000D01*
X170873000Y-50373000D01*
X166223543Y-50373000D01*
X166203162Y-50264683D01*
X166184062Y-50235000D01*
X166626310Y-50235000D01*
X166859699Y-50138327D01*
X167038327Y-49959698D01*
X167135000Y-49726309D01*
X167135000Y-48885750D01*
X166976250Y-48727000D01*
X165777000Y-48727000D01*
X165777000Y-48747000D01*
X165523000Y-48747000D01*
X165523000Y-48727000D01*
X164323750Y-48727000D01*
X164165000Y-48885750D01*
X164165000Y-49726309D01*
X164217295Y-49852560D01*
X162840194Y-49852560D01*
X162400000Y-49765000D01*
X161959806Y-49852560D01*
X161384911Y-49852560D01*
X161385162Y-49564833D01*
X161243117Y-49221057D01*
X161210000Y-49187882D01*
X161210000Y-45627000D01*
X162964822Y-45627000D01*
X165194822Y-46965000D01*
G36*
X153800000Y-47707440D02*
X153814534Y-47707440D01*
X153731673Y-47790301D01*
X153635000Y-48023690D01*
X153635000Y-48489250D01*
X153793750Y-48648000D01*
X154468000Y-48648000D01*
X154468000Y-48628000D01*
X154722000Y-48628000D01*
X154722000Y-48648000D01*
X155738000Y-48648000D01*
X155738000Y-48628000D01*
X155992000Y-48628000D01*
X155992000Y-48648000D01*
X157008000Y-48648000D01*
X157008000Y-48628000D01*
X157262000Y-48628000D01*
X157262000Y-48648000D01*
X157282000Y-48648000D01*
X157282000Y-48902000D01*
X157262000Y-48902000D01*
X157262000Y-48922000D01*
X157008000Y-48922000D01*
X157008000Y-48902000D01*
X155992000Y-48902000D01*
X155992000Y-48922000D01*
X155738000Y-48922000D01*
X155738000Y-48902000D01*
X154722000Y-48902000D01*
X154722000Y-48922000D01*
X154468000Y-48922000D01*
X154468000Y-48902000D01*
X153793750Y-48902000D01*
X153635000Y-49060750D01*
X153635000Y-49526310D01*
X153731673Y-49759699D01*
X153910302Y-49938327D01*
X154143691Y-50035000D01*
X154309250Y-50035000D01*
X154467998Y-49876252D01*
X154467998Y-50035000D01*
X154581054Y-50035000D01*
X154548559Y-50055910D01*
X154403569Y-50268110D01*
X154352560Y-50520000D01*
X154352560Y-51072638D01*
X154052198Y-51373000D01*
X154000000Y-51373000D01*
X153950590Y-51383006D01*
X153908965Y-51411447D01*
X153881685Y-51453841D01*
X153873000Y-51500000D01*
X153873000Y-51552198D01*
X153712599Y-51712599D01*
X153547852Y-51959161D01*
X153490000Y-52250000D01*
X153490000Y-54685198D01*
X153435000Y-54740198D01*
X153435000Y-52273691D01*
X153425187Y-52250000D01*
X153435000Y-52226309D01*
X153435000Y-48923691D01*
X153338327Y-48690302D01*
X153159699Y-48511673D01*
X152926310Y-48415000D01*
X152744913Y-48415000D01*
X153067173Y-48199673D01*
X153599923Y-47666923D01*
X153800000Y-47707440D01*
X153800000Y-47707440D01*
G37*
X153800000Y-47707440D02*
X153814534Y-47707440D01*
X153731673Y-47790301D01*
X153635000Y-48023690D01*
X153635000Y-48489250D01*
X153793750Y-48648000D01*
X154468000Y-48648000D01*
X154468000Y-48628000D01*
X154722000Y-48628000D01*
X154722000Y-48648000D01*
X155738000Y-48648000D01*
X155738000Y-48628000D01*
X155992000Y-48628000D01*
X155992000Y-48648000D01*
X157008000Y-48648000D01*
X157008000Y-48628000D01*
X157262000Y-48628000D01*
X157262000Y-48648000D01*
X157282000Y-48648000D01*
X157282000Y-48902000D01*
X157262000Y-48902000D01*
X157262000Y-48922000D01*
X157008000Y-48922000D01*
X157008000Y-48902000D01*
X155992000Y-48902000D01*
X155992000Y-48922000D01*
X155738000Y-48922000D01*
X155738000Y-48902000D01*
X154722000Y-48902000D01*
X154722000Y-48922000D01*
X154468000Y-48922000D01*
X154468000Y-48902000D01*
X153793750Y-48902000D01*
X153635000Y-49060750D01*
X153635000Y-49526310D01*
X153731673Y-49759699D01*
X153910302Y-49938327D01*
X154143691Y-50035000D01*
X154309250Y-50035000D01*
X154467998Y-49876252D01*
X154467998Y-50035000D01*
X154581054Y-50035000D01*
X154548559Y-50055910D01*
X154403569Y-50268110D01*
X154352560Y-50520000D01*
X154352560Y-51072638D01*
X154052198Y-51373000D01*
X154000000Y-51373000D01*
X153950590Y-51383006D01*
X153908965Y-51411447D01*
X153881685Y-51453841D01*
X153873000Y-51500000D01*
X153873000Y-51552198D01*
X153712599Y-51712599D01*
X153547852Y-51959161D01*
X153490000Y-52250000D01*
X153490000Y-54685198D01*
X153435000Y-54740198D01*
X153435000Y-52273691D01*
X153425187Y-52250000D01*
X153435000Y-52226309D01*
X153435000Y-48923691D01*
X153338327Y-48690302D01*
X153159699Y-48511673D01*
X152926310Y-48415000D01*
X152744913Y-48415000D01*
X153067173Y-48199673D01*
X153599923Y-47666923D01*
X153800000Y-47707440D01*
G36*
X159873000Y-41570183D02*
X159848559Y-41585910D01*
X159703569Y-41798110D01*
X159652560Y-42050000D01*
X159652560Y-42950000D01*
X159694934Y-43175197D01*
X159690000Y-43200000D01*
X159690000Y-43401974D01*
X159559698Y-43271673D01*
X159342633Y-43181761D01*
X159263327Y-42990301D01*
X159213638Y-42940612D01*
X159360000Y-42794250D01*
X159360000Y-42678690D01*
X159263327Y-42445301D01*
X159084698Y-42266673D01*
X158851309Y-42170000D01*
X158685750Y-42170000D01*
X158527000Y-42328750D01*
X158527000Y-42715000D01*
X158273000Y-42715000D01*
X158273000Y-42328750D01*
X158114250Y-42170000D01*
X157948691Y-42170000D01*
X157768536Y-42244623D01*
X157576309Y-42165000D01*
X157360750Y-42165000D01*
X157202000Y-42323750D01*
X157202000Y-42715000D01*
X156948000Y-42715000D01*
X156948000Y-42323750D01*
X156789250Y-42165000D01*
X156573691Y-42165000D01*
X156500000Y-42195524D01*
X156426309Y-42165000D01*
X156210750Y-42165000D01*
X156052000Y-42323750D01*
X156052000Y-42715000D01*
X155798000Y-42715000D01*
X155798000Y-42323750D01*
X155639250Y-42165000D01*
X155423691Y-42165000D01*
X155231464Y-42244623D01*
X155051309Y-42170000D01*
X154885750Y-42170000D01*
X154727000Y-42328750D01*
X154727000Y-42715000D01*
X154473000Y-42715000D01*
X154473000Y-42328750D01*
X154314250Y-42170000D01*
X154148691Y-42170000D01*
X153915302Y-42266673D01*
X153736673Y-42445301D01*
X153640000Y-42678690D01*
X153640000Y-42794250D01*
X153786362Y-42940612D01*
X153736673Y-42990301D01*
X153657367Y-43181761D01*
X153440302Y-43271673D01*
X153261673Y-43450301D01*
X153165000Y-43683690D01*
X153165000Y-43924250D01*
X153323750Y-44083000D01*
X153640000Y-44083000D01*
X153640000Y-44337000D01*
X153323750Y-44337000D01*
X153165000Y-44495750D01*
X153165000Y-44736310D01*
X153261673Y-44969699D01*
X153440302Y-45148327D01*
X153673691Y-45245000D01*
X153760000Y-45245000D01*
X153832000Y-45173000D01*
X154243000Y-45173000D01*
X154315000Y-45245000D01*
X154401309Y-45245000D01*
X154575132Y-45173000D01*
X155260500Y-45173000D01*
X155260500Y-45153000D01*
X155514500Y-45153000D01*
X155514500Y-45173000D01*
X157485500Y-45173000D01*
X157485500Y-45153000D01*
X157739500Y-45153000D01*
X157739500Y-45173000D01*
X158424868Y-45173000D01*
X158598691Y-45245000D01*
X158685000Y-45245000D01*
X158757000Y-45173000D01*
X159168000Y-45173000D01*
X159240000Y-45245000D01*
X159326309Y-45245000D01*
X159559698Y-45148327D01*
X159690000Y-45018026D01*
X159690000Y-45851974D01*
X159559698Y-45721673D01*
X159360000Y-45638955D01*
X159360000Y-45585750D01*
X159201250Y-45427000D01*
X157739500Y-45427000D01*
X157739500Y-45447000D01*
X157485500Y-45447000D01*
X157485500Y-45427000D01*
X155514500Y-45427000D01*
X155514500Y-45447000D01*
X155260500Y-45447000D01*
X155260500Y-45427000D01*
X153798750Y-45427000D01*
X153640000Y-45585750D01*
X153640000Y-45638955D01*
X153440302Y-45721673D01*
X153261673Y-45900301D01*
X153165000Y-46133690D01*
X153165000Y-46373000D01*
X153000000Y-46373000D01*
X152929553Y-46394330D01*
X151800000Y-47147365D01*
X151800000Y-46975750D01*
X151641250Y-46817000D01*
X150277000Y-46817000D01*
X150277000Y-46837000D01*
X150023000Y-46837000D01*
X150023000Y-46817000D01*
X148658750Y-46817000D01*
X148500000Y-46975750D01*
X148500000Y-47373000D01*
X147705490Y-47373000D01*
X148104374Y-46575232D01*
X148500000Y-46179606D01*
X148500000Y-46404250D01*
X148658750Y-46563000D01*
X150023000Y-46563000D01*
X150023000Y-46543000D01*
X150277000Y-46543000D01*
X150277000Y-46563000D01*
X151641250Y-46563000D01*
X151800000Y-46404250D01*
X151800000Y-45627000D01*
X153000000Y-45627000D01*
X153049410Y-45616994D01*
X153091035Y-45588553D01*
X153118315Y-45546159D01*
X153127000Y-45500000D01*
X153127000Y-40710000D01*
X159873000Y-40710000D01*
X159873000Y-41570183D01*
X159873000Y-41570183D01*
G37*
X159873000Y-41570183D02*
X159848559Y-41585910D01*
X159703569Y-41798110D01*
X159652560Y-42050000D01*
X159652560Y-42950000D01*
X159694934Y-43175197D01*
X159690000Y-43200000D01*
X159690000Y-43401974D01*
X159559698Y-43271673D01*
X159342633Y-43181761D01*
X159263327Y-42990301D01*
X159213638Y-42940612D01*
X159360000Y-42794250D01*
X159360000Y-42678690D01*
X159263327Y-42445301D01*
X159084698Y-42266673D01*
X158851309Y-42170000D01*
X158685750Y-42170000D01*
X158527000Y-42328750D01*
X158527000Y-42715000D01*
X158273000Y-42715000D01*
X158273000Y-42328750D01*
X158114250Y-42170000D01*
X157948691Y-42170000D01*
X157768536Y-42244623D01*
X157576309Y-42165000D01*
X157360750Y-42165000D01*
X157202000Y-42323750D01*
X157202000Y-42715000D01*
X156948000Y-42715000D01*
X156948000Y-42323750D01*
X156789250Y-42165000D01*
X156573691Y-42165000D01*
X156500000Y-42195524D01*
X156426309Y-42165000D01*
X156210750Y-42165000D01*
X156052000Y-42323750D01*
X156052000Y-42715000D01*
X155798000Y-42715000D01*
X155798000Y-42323750D01*
X155639250Y-42165000D01*
X155423691Y-42165000D01*
X155231464Y-42244623D01*
X155051309Y-42170000D01*
X154885750Y-42170000D01*
X154727000Y-42328750D01*
X154727000Y-42715000D01*
X154473000Y-42715000D01*
X154473000Y-42328750D01*
X154314250Y-42170000D01*
X154148691Y-42170000D01*
X153915302Y-42266673D01*
X153736673Y-42445301D01*
X153640000Y-42678690D01*
X153640000Y-42794250D01*
X153786362Y-42940612D01*
X153736673Y-42990301D01*
X153657367Y-43181761D01*
X153440302Y-43271673D01*
X153261673Y-43450301D01*
X153165000Y-43683690D01*
X153165000Y-43924250D01*
X153323750Y-44083000D01*
X153640000Y-44083000D01*
X153640000Y-44337000D01*
X153323750Y-44337000D01*
X153165000Y-44495750D01*
X153165000Y-44736310D01*
X153261673Y-44969699D01*
X153440302Y-45148327D01*
X153673691Y-45245000D01*
X153760000Y-45245000D01*
X153832000Y-45173000D01*
X154243000Y-45173000D01*
X154315000Y-45245000D01*
X154401309Y-45245000D01*
X154575132Y-45173000D01*
X155260500Y-45173000D01*
X155260500Y-45153000D01*
X155514500Y-45153000D01*
X155514500Y-45173000D01*
X157485500Y-45173000D01*
X157485500Y-45153000D01*
X157739500Y-45153000D01*
X157739500Y-45173000D01*
X158424868Y-45173000D01*
X158598691Y-45245000D01*
X158685000Y-45245000D01*
X158757000Y-45173000D01*
X159168000Y-45173000D01*
X159240000Y-45245000D01*
X159326309Y-45245000D01*
X159559698Y-45148327D01*
X159690000Y-45018026D01*
X159690000Y-45851974D01*
X159559698Y-45721673D01*
X159360000Y-45638955D01*
X159360000Y-45585750D01*
X159201250Y-45427000D01*
X157739500Y-45427000D01*
X157739500Y-45447000D01*
X157485500Y-45447000D01*
X157485500Y-45427000D01*
X155514500Y-45427000D01*
X155514500Y-45447000D01*
X155260500Y-45447000D01*
X155260500Y-45427000D01*
X153798750Y-45427000D01*
X153640000Y-45585750D01*
X153640000Y-45638955D01*
X153440302Y-45721673D01*
X153261673Y-45900301D01*
X153165000Y-46133690D01*
X153165000Y-46373000D01*
X153000000Y-46373000D01*
X152929553Y-46394330D01*
X151800000Y-47147365D01*
X151800000Y-46975750D01*
X151641250Y-46817000D01*
X150277000Y-46817000D01*
X150277000Y-46837000D01*
X150023000Y-46837000D01*
X150023000Y-46817000D01*
X148658750Y-46817000D01*
X148500000Y-46975750D01*
X148500000Y-47373000D01*
X147705490Y-47373000D01*
X148104374Y-46575232D01*
X148500000Y-46179606D01*
X148500000Y-46404250D01*
X148658750Y-46563000D01*
X150023000Y-46563000D01*
X150023000Y-46543000D01*
X150277000Y-46543000D01*
X150277000Y-46563000D01*
X151641250Y-46563000D01*
X151800000Y-46404250D01*
X151800000Y-45627000D01*
X153000000Y-45627000D01*
X153049410Y-45616994D01*
X153091035Y-45588553D01*
X153118315Y-45546159D01*
X153127000Y-45500000D01*
X153127000Y-40710000D01*
X159873000Y-40710000D01*
X159873000Y-41570183D01*
G36*
X148596673Y-40825301D02*
X148500000Y-41058690D01*
X148500000Y-42224250D01*
X148658750Y-42383000D01*
X150023000Y-42383000D01*
X150023000Y-42363000D01*
X150277000Y-42363000D01*
X150277000Y-42383000D01*
X150297000Y-42383000D01*
X150297000Y-42637000D01*
X150277000Y-42637000D01*
X150277000Y-42657000D01*
X150023000Y-42657000D01*
X150023000Y-42637000D01*
X148658750Y-42637000D01*
X148500000Y-42795750D01*
X148500000Y-43961310D01*
X148596673Y-44194699D01*
X148774975Y-44373000D01*
X148000000Y-44373000D01*
X147950590Y-44383006D01*
X147908965Y-44411447D01*
X147891098Y-44434659D01*
X147036363Y-45859217D01*
X147222723Y-45383813D01*
X147206497Y-44534613D01*
X146912739Y-43825418D01*
X146593970Y-43665635D01*
X145259605Y-45000000D01*
X146593970Y-46334365D01*
X146818932Y-46221603D01*
X146391098Y-46934659D01*
X146373000Y-47000000D01*
X146373000Y-47373000D01*
X143127000Y-47373000D01*
X143127000Y-46513970D01*
X143745635Y-46513970D01*
X143905418Y-46832739D01*
X144696187Y-47142723D01*
X145545387Y-47126497D01*
X146254582Y-46832739D01*
X146414365Y-46513970D01*
X145080000Y-45179605D01*
X143745635Y-46513970D01*
X143127000Y-46513970D01*
X143127000Y-45884246D01*
X143247261Y-46174582D01*
X143566030Y-46334365D01*
X144900395Y-45000000D01*
X143566030Y-43665635D01*
X143247261Y-43825418D01*
X143127000Y-44132204D01*
X143127000Y-43486030D01*
X143745635Y-43486030D01*
X145080000Y-44820395D01*
X146414365Y-43486030D01*
X146254582Y-43167261D01*
X145463813Y-42857277D01*
X144614613Y-42873503D01*
X143905418Y-43167261D01*
X143745635Y-43486030D01*
X143127000Y-43486030D01*
X143127000Y-40710000D01*
X148711975Y-40710000D01*
X148596673Y-40825301D01*
X148596673Y-40825301D01*
G37*
X148596673Y-40825301D02*
X148500000Y-41058690D01*
X148500000Y-42224250D01*
X148658750Y-42383000D01*
X150023000Y-42383000D01*
X150023000Y-42363000D01*
X150277000Y-42363000D01*
X150277000Y-42383000D01*
X150297000Y-42383000D01*
X150297000Y-42637000D01*
X150277000Y-42637000D01*
X150277000Y-42657000D01*
X150023000Y-42657000D01*
X150023000Y-42637000D01*
X148658750Y-42637000D01*
X148500000Y-42795750D01*
X148500000Y-43961310D01*
X148596673Y-44194699D01*
X148774975Y-44373000D01*
X148000000Y-44373000D01*
X147950590Y-44383006D01*
X147908965Y-44411447D01*
X147891098Y-44434659D01*
X147036363Y-45859217D01*
X147222723Y-45383813D01*
X147206497Y-44534613D01*
X146912739Y-43825418D01*
X146593970Y-43665635D01*
X145259605Y-45000000D01*
X146593970Y-46334365D01*
X146818932Y-46221603D01*
X146391098Y-46934659D01*
X146373000Y-47000000D01*
X146373000Y-47373000D01*
X143127000Y-47373000D01*
X143127000Y-46513970D01*
X143745635Y-46513970D01*
X143905418Y-46832739D01*
X144696187Y-47142723D01*
X145545387Y-47126497D01*
X146254582Y-46832739D01*
X146414365Y-46513970D01*
X145080000Y-45179605D01*
X143745635Y-46513970D01*
X143127000Y-46513970D01*
X143127000Y-45884246D01*
X143247261Y-46174582D01*
X143566030Y-46334365D01*
X144900395Y-45000000D01*
X143566030Y-43665635D01*
X143247261Y-43825418D01*
X143127000Y-44132204D01*
X143127000Y-43486030D01*
X143745635Y-43486030D01*
X145080000Y-44820395D01*
X146414365Y-43486030D01*
X146254582Y-43167261D01*
X145463813Y-42857277D01*
X144614613Y-42873503D01*
X143905418Y-43167261D01*
X143745635Y-43486030D01*
X143127000Y-43486030D01*
X143127000Y-40710000D01*
X148711975Y-40710000D01*
X148596673Y-40825301D01*
G36*
X141873000Y-43922617D02*
X141832739Y-43825418D01*
X141513970Y-43665635D01*
X140179605Y-45000000D01*
X141513970Y-46334365D01*
X141832739Y-46174582D01*
X141873000Y-46071876D01*
X141873000Y-47373000D01*
X138127000Y-47373000D01*
X138127000Y-46513970D01*
X138665635Y-46513970D01*
X138825418Y-46832739D01*
X139616187Y-47142723D01*
X140465387Y-47126497D01*
X141174582Y-46832739D01*
X141334365Y-46513970D01*
X140000000Y-45179605D01*
X138665635Y-46513970D01*
X138127000Y-46513970D01*
X138127000Y-46077383D01*
X138167261Y-46174582D01*
X138486030Y-46334365D01*
X139820395Y-45000000D01*
X138486030Y-43665635D01*
X138167261Y-43825418D01*
X137952607Y-44373000D01*
X136127000Y-44373000D01*
X136127000Y-44135000D01*
X136676310Y-44135000D01*
X136909699Y-44038327D01*
X137088327Y-43859698D01*
X137185000Y-43626309D01*
X137185000Y-43486030D01*
X138665635Y-43486030D01*
X140000000Y-44820395D01*
X141334365Y-43486030D01*
X141174582Y-43167261D01*
X140383813Y-42857277D01*
X139534613Y-42873503D01*
X138825418Y-43167261D01*
X138665635Y-43486030D01*
X137185000Y-43486030D01*
X137185000Y-42785750D01*
X137026250Y-42627000D01*
X135827000Y-42627000D01*
X135827000Y-42647000D01*
X135573000Y-42647000D01*
X135573000Y-42627000D01*
X134373750Y-42627000D01*
X134215000Y-42785750D01*
X134215000Y-43035394D01*
X134089803Y-42910197D01*
X134047789Y-42882334D01*
X134000000Y-42873000D01*
X129127000Y-42873000D01*
X129127000Y-41373691D01*
X134215000Y-41373691D01*
X134215000Y-42214250D01*
X134373750Y-42373000D01*
X135573000Y-42373000D01*
X135573000Y-41023750D01*
X135827000Y-41023750D01*
X135827000Y-42373000D01*
X137026250Y-42373000D01*
X137185000Y-42214250D01*
X137185000Y-41373691D01*
X137088327Y-41140302D01*
X136909699Y-40961673D01*
X136676310Y-40865000D01*
X135985750Y-40865000D01*
X135827000Y-41023750D01*
X135573000Y-41023750D01*
X135414250Y-40865000D01*
X134723690Y-40865000D01*
X134490301Y-40961673D01*
X134311673Y-41140302D01*
X134215000Y-41373691D01*
X129127000Y-41373691D01*
X129127000Y-40710000D01*
X141873000Y-40710000D01*
X141873000Y-43922617D01*
X141873000Y-43922617D01*
G37*
X141873000Y-43922617D02*
X141832739Y-43825418D01*
X141513970Y-43665635D01*
X140179605Y-45000000D01*
X141513970Y-46334365D01*
X141832739Y-46174582D01*
X141873000Y-46071876D01*
X141873000Y-47373000D01*
X138127000Y-47373000D01*
X138127000Y-46513970D01*
X138665635Y-46513970D01*
X138825418Y-46832739D01*
X139616187Y-47142723D01*
X140465387Y-47126497D01*
X141174582Y-46832739D01*
X141334365Y-46513970D01*
X140000000Y-45179605D01*
X138665635Y-46513970D01*
X138127000Y-46513970D01*
X138127000Y-46077383D01*
X138167261Y-46174582D01*
X138486030Y-46334365D01*
X139820395Y-45000000D01*
X138486030Y-43665635D01*
X138167261Y-43825418D01*
X137952607Y-44373000D01*
X136127000Y-44373000D01*
X136127000Y-44135000D01*
X136676310Y-44135000D01*
X136909699Y-44038327D01*
X137088327Y-43859698D01*
X137185000Y-43626309D01*
X137185000Y-43486030D01*
X138665635Y-43486030D01*
X140000000Y-44820395D01*
X141334365Y-43486030D01*
X141174582Y-43167261D01*
X140383813Y-42857277D01*
X139534613Y-42873503D01*
X138825418Y-43167261D01*
X138665635Y-43486030D01*
X137185000Y-43486030D01*
X137185000Y-42785750D01*
X137026250Y-42627000D01*
X135827000Y-42627000D01*
X135827000Y-42647000D01*
X135573000Y-42647000D01*
X135573000Y-42627000D01*
X134373750Y-42627000D01*
X134215000Y-42785750D01*
X134215000Y-43035394D01*
X134089803Y-42910197D01*
X134047789Y-42882334D01*
X134000000Y-42873000D01*
X129127000Y-42873000D01*
X129127000Y-41373691D01*
X134215000Y-41373691D01*
X134215000Y-42214250D01*
X134373750Y-42373000D01*
X135573000Y-42373000D01*
X135573000Y-41023750D01*
X135827000Y-41023750D01*
X135827000Y-42373000D01*
X137026250Y-42373000D01*
X137185000Y-42214250D01*
X137185000Y-41373691D01*
X137088327Y-41140302D01*
X136909699Y-40961673D01*
X136676310Y-40865000D01*
X135985750Y-40865000D01*
X135827000Y-41023750D01*
X135573000Y-41023750D01*
X135414250Y-40865000D01*
X134723690Y-40865000D01*
X134490301Y-40961673D01*
X134311673Y-41140302D01*
X134215000Y-41373691D01*
X129127000Y-41373691D01*
X129127000Y-40710000D01*
X141873000Y-40710000D01*
X141873000Y-43922617D01*
G36*
X133379517Y-45540161D02*
X133404634Y-45583871D01*
X133444779Y-45614366D01*
X133482039Y-45625724D01*
X134215000Y-45730433D01*
X134215000Y-46214250D01*
X134373750Y-46373000D01*
X135573000Y-46373000D01*
X135573000Y-46353000D01*
X135827000Y-46353000D01*
X135827000Y-46373000D01*
X135847000Y-46373000D01*
X135847000Y-46627000D01*
X135827000Y-46627000D01*
X135827000Y-47976250D01*
X135985750Y-48135000D01*
X136676310Y-48135000D01*
X136873000Y-48053528D01*
X136873000Y-48873000D01*
X136429817Y-48873000D01*
X136414090Y-48848559D01*
X136201890Y-48703569D01*
X135950000Y-48652560D01*
X135050000Y-48652560D01*
X134814683Y-48696838D01*
X134598559Y-48835910D01*
X134573216Y-48873000D01*
X127127000Y-48873000D01*
X127127000Y-46785750D01*
X134215000Y-46785750D01*
X134215000Y-47626309D01*
X134311673Y-47859698D01*
X134490301Y-48038327D01*
X134723690Y-48135000D01*
X135414250Y-48135000D01*
X135573000Y-47976250D01*
X135573000Y-46627000D01*
X134373750Y-46627000D01*
X134215000Y-46785750D01*
X127127000Y-46785750D01*
X127127000Y-44127000D01*
X132908463Y-44127000D01*
X133379517Y-45540161D01*
X133379517Y-45540161D01*
G37*
X133379517Y-45540161D02*
X133404634Y-45583871D01*
X133444779Y-45614366D01*
X133482039Y-45625724D01*
X134215000Y-45730433D01*
X134215000Y-46214250D01*
X134373750Y-46373000D01*
X135573000Y-46373000D01*
X135573000Y-46353000D01*
X135827000Y-46353000D01*
X135827000Y-46373000D01*
X135847000Y-46373000D01*
X135847000Y-46627000D01*
X135827000Y-46627000D01*
X135827000Y-47976250D01*
X135985750Y-48135000D01*
X136676310Y-48135000D01*
X136873000Y-48053528D01*
X136873000Y-48873000D01*
X136429817Y-48873000D01*
X136414090Y-48848559D01*
X136201890Y-48703569D01*
X135950000Y-48652560D01*
X135050000Y-48652560D01*
X134814683Y-48696838D01*
X134598559Y-48835910D01*
X134573216Y-48873000D01*
X127127000Y-48873000D01*
X127127000Y-46785750D01*
X134215000Y-46785750D01*
X134215000Y-47626309D01*
X134311673Y-47859698D01*
X134490301Y-48038327D01*
X134723690Y-48135000D01*
X135414250Y-48135000D01*
X135573000Y-47976250D01*
X135573000Y-46627000D01*
X134373750Y-46627000D01*
X134215000Y-46785750D01*
X127127000Y-46785750D01*
X127127000Y-44127000D01*
X132908463Y-44127000D01*
X133379517Y-45540161D01*
G36*
X118711673Y-40840302D02*
X118615000Y-41073691D01*
X118615000Y-44376309D01*
X118624813Y-44400000D01*
X118615000Y-44423691D01*
X118615000Y-47726309D01*
X118675761Y-47873000D01*
X113127000Y-47873000D01*
X113127000Y-46513970D01*
X113745635Y-46513970D01*
X113905418Y-46832739D01*
X114696187Y-47142723D01*
X115545387Y-47126497D01*
X116254582Y-46832739D01*
X116414365Y-46513970D01*
X115080000Y-45179605D01*
X113745635Y-46513970D01*
X113127000Y-46513970D01*
X113127000Y-45884246D01*
X113247261Y-46174582D01*
X113566030Y-46334365D01*
X114900395Y-45000000D01*
X115259605Y-45000000D01*
X116593970Y-46334365D01*
X116912739Y-46174582D01*
X117222723Y-45383813D01*
X117206497Y-44534613D01*
X116912739Y-43825418D01*
X116593970Y-43665635D01*
X115259605Y-45000000D01*
X114900395Y-45000000D01*
X113566030Y-43665635D01*
X113247261Y-43825418D01*
X113127000Y-44132204D01*
X113127000Y-43486030D01*
X113745635Y-43486030D01*
X115080000Y-44820395D01*
X116414365Y-43486030D01*
X116254582Y-43167261D01*
X115463813Y-42857277D01*
X114614613Y-42873503D01*
X113905418Y-43167261D01*
X113745635Y-43486030D01*
X113127000Y-43486030D01*
X113127000Y-40710000D01*
X118841974Y-40710000D01*
X118711673Y-40840302D01*
X118711673Y-40840302D01*
G37*
X118711673Y-40840302D02*
X118615000Y-41073691D01*
X118615000Y-44376309D01*
X118624813Y-44400000D01*
X118615000Y-44423691D01*
X118615000Y-47726309D01*
X118675761Y-47873000D01*
X113127000Y-47873000D01*
X113127000Y-46513970D01*
X113745635Y-46513970D01*
X113905418Y-46832739D01*
X114696187Y-47142723D01*
X115545387Y-47126497D01*
X116254582Y-46832739D01*
X116414365Y-46513970D01*
X115080000Y-45179605D01*
X113745635Y-46513970D01*
X113127000Y-46513970D01*
X113127000Y-45884246D01*
X113247261Y-46174582D01*
X113566030Y-46334365D01*
X114900395Y-45000000D01*
X115259605Y-45000000D01*
X116593970Y-46334365D01*
X116912739Y-46174582D01*
X117222723Y-45383813D01*
X117206497Y-44534613D01*
X116912739Y-43825418D01*
X116593970Y-43665635D01*
X115259605Y-45000000D01*
X114900395Y-45000000D01*
X113566030Y-43665635D01*
X113247261Y-43825418D01*
X113127000Y-44132204D01*
X113127000Y-43486030D01*
X113745635Y-43486030D01*
X115080000Y-44820395D01*
X116414365Y-43486030D01*
X116254582Y-43167261D01*
X115463813Y-42857277D01*
X114614613Y-42873503D01*
X113905418Y-43167261D01*
X113745635Y-43486030D01*
X113127000Y-43486030D01*
X113127000Y-40710000D01*
X118841974Y-40710000D01*
X118711673Y-40840302D01*
G36*
X111873000Y-43922617D02*
X111832739Y-43825418D01*
X111513970Y-43665635D01*
X110179605Y-45000000D01*
X111513970Y-46334365D01*
X111832739Y-46174582D01*
X111873000Y-46071876D01*
X111873000Y-49000000D01*
X111883006Y-49049410D01*
X111911447Y-49091035D01*
X111953841Y-49118315D01*
X112000000Y-49127000D01*
X113873000Y-49127000D01*
X113873000Y-52873000D01*
X111627000Y-52873000D01*
X111627000Y-52000000D01*
X111616994Y-51950590D01*
X111588553Y-51908965D01*
X111546159Y-51881685D01*
X111500000Y-51873000D01*
X110274239Y-51873000D01*
X110335000Y-51726309D01*
X110335000Y-50885750D01*
X110176250Y-50727000D01*
X108977000Y-50727000D01*
X108977000Y-50747000D01*
X108723000Y-50747000D01*
X108723000Y-50727000D01*
X108703000Y-50727000D01*
X108703000Y-50473000D01*
X108723000Y-50473000D01*
X108723000Y-49123750D01*
X108977000Y-49123750D01*
X108977000Y-50473000D01*
X110176250Y-50473000D01*
X110335000Y-50314250D01*
X110335000Y-49473691D01*
X110238327Y-49240302D01*
X110059699Y-49061673D01*
X109826310Y-48965000D01*
X109135750Y-48965000D01*
X108977000Y-49123750D01*
X108723000Y-49123750D01*
X108564250Y-48965000D01*
X108119912Y-48965000D01*
X108116994Y-48950590D01*
X108088553Y-48908965D01*
X108046159Y-48881685D01*
X108000000Y-48873000D01*
X100710000Y-48873000D01*
X100710000Y-45865596D01*
X100946049Y-45865596D01*
X101341573Y-46822838D01*
X102073310Y-47555853D01*
X103029860Y-47953047D01*
X104065596Y-47953951D01*
X105022838Y-47558427D01*
X105755853Y-46826690D01*
X105885705Y-46513970D01*
X108665635Y-46513970D01*
X108825418Y-46832739D01*
X109616187Y-47142723D01*
X110465387Y-47126497D01*
X111174582Y-46832739D01*
X111334365Y-46513970D01*
X110000000Y-45179605D01*
X108665635Y-46513970D01*
X105885705Y-46513970D01*
X106153047Y-45870140D01*
X106153951Y-44834404D01*
X106063786Y-44616187D01*
X107857277Y-44616187D01*
X107873503Y-45465387D01*
X108167261Y-46174582D01*
X108486030Y-46334365D01*
X109820395Y-45000000D01*
X108486030Y-43665635D01*
X108167261Y-43825418D01*
X107857277Y-44616187D01*
X106063786Y-44616187D01*
X105758427Y-43877162D01*
X105367977Y-43486030D01*
X108665635Y-43486030D01*
X110000000Y-44820395D01*
X111334365Y-43486030D01*
X111174582Y-43167261D01*
X110383813Y-42857277D01*
X109534613Y-42873503D01*
X108825418Y-43167261D01*
X108665635Y-43486030D01*
X105367977Y-43486030D01*
X105026690Y-43144147D01*
X104070140Y-42746953D01*
X103034404Y-42746049D01*
X102077162Y-43141573D01*
X101344147Y-43873310D01*
X100946953Y-44829860D01*
X100946049Y-45865596D01*
X100710000Y-45865596D01*
X100710000Y-45069931D01*
X101049408Y-43363610D01*
X101976349Y-41976346D01*
X103363610Y-41049408D01*
X105069931Y-40710000D01*
X111873000Y-40710000D01*
X111873000Y-43922617D01*
X111873000Y-43922617D01*
G37*
X111873000Y-43922617D02*
X111832739Y-43825418D01*
X111513970Y-43665635D01*
X110179605Y-45000000D01*
X111513970Y-46334365D01*
X111832739Y-46174582D01*
X111873000Y-46071876D01*
X111873000Y-49000000D01*
X111883006Y-49049410D01*
X111911447Y-49091035D01*
X111953841Y-49118315D01*
X112000000Y-49127000D01*
X113873000Y-49127000D01*
X113873000Y-52873000D01*
X111627000Y-52873000D01*
X111627000Y-52000000D01*
X111616994Y-51950590D01*
X111588553Y-51908965D01*
X111546159Y-51881685D01*
X111500000Y-51873000D01*
X110274239Y-51873000D01*
X110335000Y-51726309D01*
X110335000Y-50885750D01*
X110176250Y-50727000D01*
X108977000Y-50727000D01*
X108977000Y-50747000D01*
X108723000Y-50747000D01*
X108723000Y-50727000D01*
X108703000Y-50727000D01*
X108703000Y-50473000D01*
X108723000Y-50473000D01*
X108723000Y-49123750D01*
X108977000Y-49123750D01*
X108977000Y-50473000D01*
X110176250Y-50473000D01*
X110335000Y-50314250D01*
X110335000Y-49473691D01*
X110238327Y-49240302D01*
X110059699Y-49061673D01*
X109826310Y-48965000D01*
X109135750Y-48965000D01*
X108977000Y-49123750D01*
X108723000Y-49123750D01*
X108564250Y-48965000D01*
X108119912Y-48965000D01*
X108116994Y-48950590D01*
X108088553Y-48908965D01*
X108046159Y-48881685D01*
X108000000Y-48873000D01*
X100710000Y-48873000D01*
X100710000Y-45865596D01*
X100946049Y-45865596D01*
X101341573Y-46822838D01*
X102073310Y-47555853D01*
X103029860Y-47953047D01*
X104065596Y-47953951D01*
X105022838Y-47558427D01*
X105755853Y-46826690D01*
X105885705Y-46513970D01*
X108665635Y-46513970D01*
X108825418Y-46832739D01*
X109616187Y-47142723D01*
X110465387Y-47126497D01*
X111174582Y-46832739D01*
X111334365Y-46513970D01*
X110000000Y-45179605D01*
X108665635Y-46513970D01*
X105885705Y-46513970D01*
X106153047Y-45870140D01*
X106153951Y-44834404D01*
X106063786Y-44616187D01*
X107857277Y-44616187D01*
X107873503Y-45465387D01*
X108167261Y-46174582D01*
X108486030Y-46334365D01*
X109820395Y-45000000D01*
X108486030Y-43665635D01*
X108167261Y-43825418D01*
X107857277Y-44616187D01*
X106063786Y-44616187D01*
X105758427Y-43877162D01*
X105367977Y-43486030D01*
X108665635Y-43486030D01*
X110000000Y-44820395D01*
X111334365Y-43486030D01*
X111174582Y-43167261D01*
X110383813Y-42857277D01*
X109534613Y-42873503D01*
X108825418Y-43167261D01*
X108665635Y-43486030D01*
X105367977Y-43486030D01*
X105026690Y-43144147D01*
X104070140Y-42746953D01*
X103034404Y-42746049D01*
X102077162Y-43141573D01*
X101344147Y-43873310D01*
X100946953Y-44829860D01*
X100946049Y-45865596D01*
X100710000Y-45865596D01*
X100710000Y-45069931D01*
X101049408Y-43363610D01*
X101976349Y-41976346D01*
X103363610Y-41049408D01*
X105069931Y-40710000D01*
X111873000Y-40710000D01*
X111873000Y-43922617D01*
G36*
X106373000Y-53000000D02*
X106383006Y-53049410D01*
X106411447Y-53091035D01*
X106453841Y-53118315D01*
X106500000Y-53127000D01*
X107574974Y-53127000D01*
X107461673Y-53240302D01*
X107365000Y-53473691D01*
X107365000Y-54314250D01*
X107523750Y-54473000D01*
X108723000Y-54473000D01*
X108723000Y-54453000D01*
X108977000Y-54453000D01*
X108977000Y-54473000D01*
X110176250Y-54473000D01*
X110335000Y-54314250D01*
X110335000Y-53473691D01*
X110238327Y-53240302D01*
X110125026Y-53127000D01*
X110373000Y-53127000D01*
X110373000Y-54000000D01*
X110383006Y-54049410D01*
X110411447Y-54091035D01*
X110453841Y-54118315D01*
X110500000Y-54127000D01*
X111373000Y-54127000D01*
X111373000Y-56873000D01*
X110697802Y-56873000D01*
X110537401Y-56712599D01*
X110290839Y-56547852D01*
X110000000Y-56490000D01*
X107314802Y-56490000D01*
X105710552Y-54885750D01*
X107365000Y-54885750D01*
X107365000Y-55726309D01*
X107461673Y-55959698D01*
X107640301Y-56138327D01*
X107873690Y-56235000D01*
X108564250Y-56235000D01*
X108723000Y-56076250D01*
X108723000Y-54727000D01*
X108977000Y-54727000D01*
X108977000Y-56076250D01*
X109135750Y-56235000D01*
X109826310Y-56235000D01*
X110059699Y-56138327D01*
X110238327Y-55959698D01*
X110335000Y-55726309D01*
X110335000Y-54885750D01*
X110176250Y-54727000D01*
X108977000Y-54727000D01*
X108723000Y-54727000D01*
X107523750Y-54727000D01*
X107365000Y-54885750D01*
X105710552Y-54885750D01*
X104760000Y-53935198D01*
X104760000Y-53250000D01*
X104702148Y-52959161D01*
X104537401Y-52712599D01*
X104127000Y-52302198D01*
X104127000Y-51627000D01*
X106373000Y-51627000D01*
X106373000Y-53000000D01*
X106373000Y-53000000D01*
G37*
X106373000Y-53000000D02*
X106383006Y-53049410D01*
X106411447Y-53091035D01*
X106453841Y-53118315D01*
X106500000Y-53127000D01*
X107574974Y-53127000D01*
X107461673Y-53240302D01*
X107365000Y-53473691D01*
X107365000Y-54314250D01*
X107523750Y-54473000D01*
X108723000Y-54473000D01*
X108723000Y-54453000D01*
X108977000Y-54453000D01*
X108977000Y-54473000D01*
X110176250Y-54473000D01*
X110335000Y-54314250D01*
X110335000Y-53473691D01*
X110238327Y-53240302D01*
X110125026Y-53127000D01*
X110373000Y-53127000D01*
X110373000Y-54000000D01*
X110383006Y-54049410D01*
X110411447Y-54091035D01*
X110453841Y-54118315D01*
X110500000Y-54127000D01*
X111373000Y-54127000D01*
X111373000Y-56873000D01*
X110697802Y-56873000D01*
X110537401Y-56712599D01*
X110290839Y-56547852D01*
X110000000Y-56490000D01*
X107314802Y-56490000D01*
X105710552Y-54885750D01*
X107365000Y-54885750D01*
X107365000Y-55726309D01*
X107461673Y-55959698D01*
X107640301Y-56138327D01*
X107873690Y-56235000D01*
X108564250Y-56235000D01*
X108723000Y-56076250D01*
X108723000Y-54727000D01*
X108977000Y-54727000D01*
X108977000Y-56076250D01*
X109135750Y-56235000D01*
X109826310Y-56235000D01*
X110059699Y-56138327D01*
X110238327Y-55959698D01*
X110335000Y-55726309D01*
X110335000Y-54885750D01*
X110176250Y-54727000D01*
X108977000Y-54727000D01*
X108723000Y-54727000D01*
X107523750Y-54727000D01*
X107365000Y-54885750D01*
X105710552Y-54885750D01*
X104760000Y-53935198D01*
X104760000Y-53250000D01*
X104702148Y-52959161D01*
X104537401Y-52712599D01*
X104127000Y-52302198D01*
X104127000Y-51627000D01*
X106373000Y-51627000D01*
X106373000Y-53000000D01*
G36*
X157873000Y-59447394D02*
X153447394Y-63873000D01*
X151675026Y-63873000D01*
X151738327Y-63809699D01*
X151835000Y-63576310D01*
X151835000Y-63285750D01*
X151676250Y-63127000D01*
X150727000Y-63127000D01*
X150727000Y-63147000D01*
X150473000Y-63147000D01*
X150473000Y-63127000D01*
X150453000Y-63127000D01*
X150453000Y-62873000D01*
X150473000Y-62873000D01*
X150473000Y-62073750D01*
X150727000Y-62073750D01*
X150727000Y-62873000D01*
X151676250Y-62873000D01*
X151835000Y-62714250D01*
X151835000Y-62423690D01*
X151738327Y-62190301D01*
X151559698Y-62011673D01*
X151326309Y-61915000D01*
X150885750Y-61915000D01*
X150727000Y-62073750D01*
X150473000Y-62073750D01*
X150314250Y-61915000D01*
X150127000Y-61915000D01*
X150127000Y-60627000D01*
X151500000Y-60627000D01*
X151549410Y-60616994D01*
X151591035Y-60588553D01*
X151618315Y-60546159D01*
X151627000Y-60500000D01*
X151627000Y-60285000D01*
X151894250Y-60285000D01*
X152053000Y-60126250D01*
X152053000Y-58677000D01*
X152307000Y-58677000D01*
X152307000Y-60126250D01*
X152465750Y-60285000D01*
X152906310Y-60285000D01*
X153139699Y-60188327D01*
X153318327Y-60009698D01*
X153415000Y-59776309D01*
X153415000Y-58835750D01*
X153256250Y-58677000D01*
X152307000Y-58677000D01*
X152053000Y-58677000D01*
X152033000Y-58677000D01*
X152033000Y-58423000D01*
X152053000Y-58423000D01*
X152053000Y-58403000D01*
X152307000Y-58403000D01*
X152307000Y-58423000D01*
X153256250Y-58423000D01*
X153415000Y-58264250D01*
X153415000Y-57627000D01*
X155000000Y-57627000D01*
X155049410Y-57616994D01*
X155091035Y-57588553D01*
X155118315Y-57546159D01*
X155127000Y-57500000D01*
X155127000Y-56915000D01*
X155814250Y-56915000D01*
X155973000Y-56756250D01*
X155973000Y-55807000D01*
X156227000Y-55807000D01*
X156227000Y-56756250D01*
X156385750Y-56915000D01*
X157326309Y-56915000D01*
X157559698Y-56818327D01*
X157738327Y-56639699D01*
X157835000Y-56406310D01*
X157835000Y-55965750D01*
X157676250Y-55807000D01*
X156227000Y-55807000D01*
X155973000Y-55807000D01*
X155953000Y-55807000D01*
X155953000Y-55553000D01*
X155973000Y-55553000D01*
X155973000Y-55533000D01*
X156227000Y-55533000D01*
X156227000Y-55553000D01*
X157676250Y-55553000D01*
X157835000Y-55394250D01*
X157835000Y-54953690D01*
X157738327Y-54720301D01*
X157645025Y-54627000D01*
X157873000Y-54627000D01*
X157873000Y-59447394D01*
X157873000Y-59447394D01*
G37*
X157873000Y-59447394D02*
X153447394Y-63873000D01*
X151675026Y-63873000D01*
X151738327Y-63809699D01*
X151835000Y-63576310D01*
X151835000Y-63285750D01*
X151676250Y-63127000D01*
X150727000Y-63127000D01*
X150727000Y-63147000D01*
X150473000Y-63147000D01*
X150473000Y-63127000D01*
X150453000Y-63127000D01*
X150453000Y-62873000D01*
X150473000Y-62873000D01*
X150473000Y-62073750D01*
X150727000Y-62073750D01*
X150727000Y-62873000D01*
X151676250Y-62873000D01*
X151835000Y-62714250D01*
X151835000Y-62423690D01*
X151738327Y-62190301D01*
X151559698Y-62011673D01*
X151326309Y-61915000D01*
X150885750Y-61915000D01*
X150727000Y-62073750D01*
X150473000Y-62073750D01*
X150314250Y-61915000D01*
X150127000Y-61915000D01*
X150127000Y-60627000D01*
X151500000Y-60627000D01*
X151549410Y-60616994D01*
X151591035Y-60588553D01*
X151618315Y-60546159D01*
X151627000Y-60500000D01*
X151627000Y-60285000D01*
X151894250Y-60285000D01*
X152053000Y-60126250D01*
X152053000Y-58677000D01*
X152307000Y-58677000D01*
X152307000Y-60126250D01*
X152465750Y-60285000D01*
X152906310Y-60285000D01*
X153139699Y-60188327D01*
X153318327Y-60009698D01*
X153415000Y-59776309D01*
X153415000Y-58835750D01*
X153256250Y-58677000D01*
X152307000Y-58677000D01*
X152053000Y-58677000D01*
X152033000Y-58677000D01*
X152033000Y-58423000D01*
X152053000Y-58423000D01*
X152053000Y-58403000D01*
X152307000Y-58403000D01*
X152307000Y-58423000D01*
X153256250Y-58423000D01*
X153415000Y-58264250D01*
X153415000Y-57627000D01*
X155000000Y-57627000D01*
X155049410Y-57616994D01*
X155091035Y-57588553D01*
X155118315Y-57546159D01*
X155127000Y-57500000D01*
X155127000Y-56915000D01*
X155814250Y-56915000D01*
X155973000Y-56756250D01*
X155973000Y-55807000D01*
X156227000Y-55807000D01*
X156227000Y-56756250D01*
X156385750Y-56915000D01*
X157326309Y-56915000D01*
X157559698Y-56818327D01*
X157738327Y-56639699D01*
X157835000Y-56406310D01*
X157835000Y-55965750D01*
X157676250Y-55807000D01*
X156227000Y-55807000D01*
X155973000Y-55807000D01*
X155953000Y-55807000D01*
X155953000Y-55553000D01*
X155973000Y-55553000D01*
X155973000Y-55533000D01*
X156227000Y-55533000D01*
X156227000Y-55553000D01*
X157676250Y-55553000D01*
X157835000Y-55394250D01*
X157835000Y-54953690D01*
X157738327Y-54720301D01*
X157645025Y-54627000D01*
X157873000Y-54627000D01*
X157873000Y-59447394D01*
G36*
X104873000Y-78373000D02*
X104000000Y-78373000D01*
X103950590Y-78383006D01*
X103908965Y-78411447D01*
X103881685Y-78453841D01*
X103873000Y-78500000D01*
X103873000Y-79066974D01*
X103711310Y-79000000D01*
X102545750Y-79000000D01*
X102387000Y-79158750D01*
X102387000Y-80523000D01*
X102407000Y-80523000D01*
X102407000Y-80777000D01*
X102387000Y-80777000D01*
X102387000Y-82141250D01*
X102545750Y-82300000D01*
X103711310Y-82300000D01*
X103873000Y-82233026D01*
X103873000Y-83000000D01*
X103883006Y-83049410D01*
X103911447Y-83091035D01*
X103953841Y-83118315D01*
X104000000Y-83127000D01*
X109373000Y-83127000D01*
X109373000Y-83596694D01*
X109297852Y-83709161D01*
X109240000Y-84000000D01*
X109240000Y-85185198D01*
X107052198Y-87373000D01*
X106925668Y-87373000D01*
X106974582Y-87352739D01*
X107134365Y-87033970D01*
X105800000Y-85699605D01*
X104465635Y-87033970D01*
X104625418Y-87352739D01*
X104677104Y-87373000D01*
X100710000Y-87373000D01*
X100710000Y-85136187D01*
X103657277Y-85136187D01*
X103673503Y-85985387D01*
X103967261Y-86694582D01*
X104286030Y-86854365D01*
X105620395Y-85520000D01*
X105979605Y-85520000D01*
X107313970Y-86854365D01*
X107632739Y-86694582D01*
X107942723Y-85903813D01*
X107926497Y-85054613D01*
X107632739Y-84345418D01*
X107313970Y-84185635D01*
X105979605Y-85520000D01*
X105620395Y-85520000D01*
X104286030Y-84185635D01*
X103967261Y-84345418D01*
X103657277Y-85136187D01*
X100710000Y-85136187D01*
X100710000Y-84006030D01*
X104465635Y-84006030D01*
X105800000Y-85340395D01*
X107134365Y-84006030D01*
X106974582Y-83687261D01*
X106183813Y-83377277D01*
X105334613Y-83393503D01*
X104625418Y-83687261D01*
X104465635Y-84006030D01*
X100710000Y-84006030D01*
X100710000Y-82259121D01*
X100808690Y-82300000D01*
X101974250Y-82300000D01*
X102133000Y-82141250D01*
X102133000Y-80777000D01*
X102113000Y-80777000D01*
X102113000Y-80523000D01*
X102133000Y-80523000D01*
X102133000Y-79158750D01*
X101974250Y-79000000D01*
X100808690Y-79000000D01*
X100710000Y-79040879D01*
X100710000Y-75127000D01*
X104873000Y-75127000D01*
X104873000Y-78373000D01*
X104873000Y-78373000D01*
G37*
X104873000Y-78373000D02*
X104000000Y-78373000D01*
X103950590Y-78383006D01*
X103908965Y-78411447D01*
X103881685Y-78453841D01*
X103873000Y-78500000D01*
X103873000Y-79066974D01*
X103711310Y-79000000D01*
X102545750Y-79000000D01*
X102387000Y-79158750D01*
X102387000Y-80523000D01*
X102407000Y-80523000D01*
X102407000Y-80777000D01*
X102387000Y-80777000D01*
X102387000Y-82141250D01*
X102545750Y-82300000D01*
X103711310Y-82300000D01*
X103873000Y-82233026D01*
X103873000Y-83000000D01*
X103883006Y-83049410D01*
X103911447Y-83091035D01*
X103953841Y-83118315D01*
X104000000Y-83127000D01*
X109373000Y-83127000D01*
X109373000Y-83596694D01*
X109297852Y-83709161D01*
X109240000Y-84000000D01*
X109240000Y-85185198D01*
X107052198Y-87373000D01*
X106925668Y-87373000D01*
X106974582Y-87352739D01*
X107134365Y-87033970D01*
X105800000Y-85699605D01*
X104465635Y-87033970D01*
X104625418Y-87352739D01*
X104677104Y-87373000D01*
X100710000Y-87373000D01*
X100710000Y-85136187D01*
X103657277Y-85136187D01*
X103673503Y-85985387D01*
X103967261Y-86694582D01*
X104286030Y-86854365D01*
X105620395Y-85520000D01*
X105979605Y-85520000D01*
X107313970Y-86854365D01*
X107632739Y-86694582D01*
X107942723Y-85903813D01*
X107926497Y-85054613D01*
X107632739Y-84345418D01*
X107313970Y-84185635D01*
X105979605Y-85520000D01*
X105620395Y-85520000D01*
X104286030Y-84185635D01*
X103967261Y-84345418D01*
X103657277Y-85136187D01*
X100710000Y-85136187D01*
X100710000Y-84006030D01*
X104465635Y-84006030D01*
X105800000Y-85340395D01*
X107134365Y-84006030D01*
X106974582Y-83687261D01*
X106183813Y-83377277D01*
X105334613Y-83393503D01*
X104625418Y-83687261D01*
X104465635Y-84006030D01*
X100710000Y-84006030D01*
X100710000Y-82259121D01*
X100808690Y-82300000D01*
X101974250Y-82300000D01*
X102133000Y-82141250D01*
X102133000Y-80777000D01*
X102113000Y-80777000D01*
X102113000Y-80523000D01*
X102133000Y-80523000D01*
X102133000Y-79158750D01*
X101974250Y-79000000D01*
X100808690Y-79000000D01*
X100710000Y-79040879D01*
X100710000Y-75127000D01*
X104873000Y-75127000D01*
X104873000Y-78373000D01*
G36*
X104625418Y-88767261D02*
X104465635Y-89086030D01*
X105800000Y-90420395D01*
X107134365Y-89086030D01*
X106974582Y-88767261D01*
X106616776Y-88627000D01*
X109373000Y-88627000D01*
X109373000Y-92373000D01*
X107004526Y-92373000D01*
X107134365Y-92113970D01*
X105800000Y-90779605D01*
X104465635Y-92113970D01*
X104625418Y-92432739D01*
X105416187Y-92742723D01*
X106265387Y-92726497D01*
X106373000Y-92681922D01*
X106373000Y-95009781D01*
X106365000Y-95050000D01*
X106373000Y-95090219D01*
X106373000Y-97373000D01*
X103855898Y-97373000D01*
X103793117Y-97221057D01*
X103530327Y-96957808D01*
X103186799Y-96815162D01*
X102814833Y-96814838D01*
X102471057Y-96956883D01*
X102207808Y-97219673D01*
X102144141Y-97373000D01*
X100710000Y-97373000D01*
X100710000Y-95335750D01*
X102865000Y-95335750D01*
X102865000Y-96026310D01*
X102961673Y-96259699D01*
X103140302Y-96438327D01*
X103373691Y-96535000D01*
X104214250Y-96535000D01*
X104373000Y-96376250D01*
X104373000Y-95177000D01*
X104627000Y-95177000D01*
X104627000Y-96376250D01*
X104785750Y-96535000D01*
X105626309Y-96535000D01*
X105859698Y-96438327D01*
X106038327Y-96259699D01*
X106135000Y-96026310D01*
X106135000Y-95335750D01*
X105976250Y-95177000D01*
X104627000Y-95177000D01*
X104373000Y-95177000D01*
X103023750Y-95177000D01*
X102865000Y-95335750D01*
X100710000Y-95335750D01*
X100710000Y-94073690D01*
X102865000Y-94073690D01*
X102865000Y-94764250D01*
X103023750Y-94923000D01*
X104373000Y-94923000D01*
X104373000Y-93723750D01*
X104627000Y-93723750D01*
X104627000Y-94923000D01*
X105976250Y-94923000D01*
X106135000Y-94764250D01*
X106135000Y-94073690D01*
X106038327Y-93840301D01*
X105859698Y-93661673D01*
X105626309Y-93565000D01*
X104785750Y-93565000D01*
X104627000Y-93723750D01*
X104373000Y-93723750D01*
X104214250Y-93565000D01*
X103373691Y-93565000D01*
X103140302Y-93661673D01*
X102961673Y-93840301D01*
X102865000Y-94073690D01*
X100710000Y-94073690D01*
X100710000Y-90216187D01*
X103657277Y-90216187D01*
X103673503Y-91065387D01*
X103967261Y-91774582D01*
X104286030Y-91934365D01*
X105620395Y-90600000D01*
X105979605Y-90600000D01*
X107313970Y-91934365D01*
X107632739Y-91774582D01*
X107942723Y-90983813D01*
X107926497Y-90134613D01*
X107632739Y-89425418D01*
X107313970Y-89265635D01*
X105979605Y-90600000D01*
X105620395Y-90600000D01*
X104286030Y-89265635D01*
X103967261Y-89425418D01*
X103657277Y-90216187D01*
X100710000Y-90216187D01*
X100710000Y-88627000D01*
X104964038Y-88627000D01*
X104625418Y-88767261D01*
X104625418Y-88767261D01*
G37*
X104625418Y-88767261D02*
X104465635Y-89086030D01*
X105800000Y-90420395D01*
X107134365Y-89086030D01*
X106974582Y-88767261D01*
X106616776Y-88627000D01*
X109373000Y-88627000D01*
X109373000Y-92373000D01*
X107004526Y-92373000D01*
X107134365Y-92113970D01*
X105800000Y-90779605D01*
X104465635Y-92113970D01*
X104625418Y-92432739D01*
X105416187Y-92742723D01*
X106265387Y-92726497D01*
X106373000Y-92681922D01*
X106373000Y-95009781D01*
X106365000Y-95050000D01*
X106373000Y-95090219D01*
X106373000Y-97373000D01*
X103855898Y-97373000D01*
X103793117Y-97221057D01*
X103530327Y-96957808D01*
X103186799Y-96815162D01*
X102814833Y-96814838D01*
X102471057Y-96956883D01*
X102207808Y-97219673D01*
X102144141Y-97373000D01*
X100710000Y-97373000D01*
X100710000Y-95335750D01*
X102865000Y-95335750D01*
X102865000Y-96026310D01*
X102961673Y-96259699D01*
X103140302Y-96438327D01*
X103373691Y-96535000D01*
X104214250Y-96535000D01*
X104373000Y-96376250D01*
X104373000Y-95177000D01*
X104627000Y-95177000D01*
X104627000Y-96376250D01*
X104785750Y-96535000D01*
X105626309Y-96535000D01*
X105859698Y-96438327D01*
X106038327Y-96259699D01*
X106135000Y-96026310D01*
X106135000Y-95335750D01*
X105976250Y-95177000D01*
X104627000Y-95177000D01*
X104373000Y-95177000D01*
X103023750Y-95177000D01*
X102865000Y-95335750D01*
X100710000Y-95335750D01*
X100710000Y-94073690D01*
X102865000Y-94073690D01*
X102865000Y-94764250D01*
X103023750Y-94923000D01*
X104373000Y-94923000D01*
X104373000Y-93723750D01*
X104627000Y-93723750D01*
X104627000Y-94923000D01*
X105976250Y-94923000D01*
X106135000Y-94764250D01*
X106135000Y-94073690D01*
X106038327Y-93840301D01*
X105859698Y-93661673D01*
X105626309Y-93565000D01*
X104785750Y-93565000D01*
X104627000Y-93723750D01*
X104373000Y-93723750D01*
X104214250Y-93565000D01*
X103373691Y-93565000D01*
X103140302Y-93661673D01*
X102961673Y-93840301D01*
X102865000Y-94073690D01*
X100710000Y-94073690D01*
X100710000Y-90216187D01*
X103657277Y-90216187D01*
X103673503Y-91065387D01*
X103967261Y-91774582D01*
X104286030Y-91934365D01*
X105620395Y-90600000D01*
X105979605Y-90600000D01*
X107313970Y-91934365D01*
X107632739Y-91774582D01*
X107942723Y-90983813D01*
X107926497Y-90134613D01*
X107632739Y-89425418D01*
X107313970Y-89265635D01*
X105979605Y-90600000D01*
X105620395Y-90600000D01*
X104286030Y-89265635D01*
X103967261Y-89425418D01*
X103657277Y-90216187D01*
X100710000Y-90216187D01*
X100710000Y-88627000D01*
X104964038Y-88627000D01*
X104625418Y-88767261D01*
G36*
X113040000Y-96950000D02*
X113097852Y-97240839D01*
X113262599Y-97487401D01*
X115873000Y-100097803D01*
X115873000Y-100373000D01*
X113022440Y-100373000D01*
X113022440Y-100350000D01*
X112978162Y-100114683D01*
X112911671Y-100011354D01*
X112913327Y-100009698D01*
X113010000Y-99776309D01*
X113010000Y-99335750D01*
X112851250Y-99177000D01*
X112127000Y-99177000D01*
X112127000Y-99197000D01*
X111873000Y-99197000D01*
X111873000Y-99177000D01*
X111148750Y-99177000D01*
X110990000Y-99335750D01*
X110990000Y-99776309D01*
X111086673Y-100009698D01*
X111088043Y-100011068D01*
X111028569Y-100098110D01*
X111009961Y-100190000D01*
X110005105Y-100190000D01*
X109914090Y-100048559D01*
X109845994Y-100002031D01*
X109988327Y-99859698D01*
X110085000Y-99626309D01*
X110085000Y-99185750D01*
X109926250Y-99027000D01*
X109127000Y-99027000D01*
X109127000Y-99047000D01*
X108873000Y-99047000D01*
X108873000Y-99027000D01*
X108073750Y-99027000D01*
X107915000Y-99185750D01*
X107915000Y-99626309D01*
X108011673Y-99859698D01*
X108152910Y-100000936D01*
X108098559Y-100035910D01*
X107953569Y-100248110D01*
X107928278Y-100373000D01*
X107627000Y-100373000D01*
X107627000Y-98173691D01*
X107915000Y-98173691D01*
X107915000Y-98614250D01*
X108073750Y-98773000D01*
X108873000Y-98773000D01*
X108873000Y-97823750D01*
X109127000Y-97823750D01*
X109127000Y-98773000D01*
X109926250Y-98773000D01*
X110085000Y-98614250D01*
X110085000Y-98323691D01*
X110990000Y-98323691D01*
X110990000Y-98764250D01*
X111148750Y-98923000D01*
X111873000Y-98923000D01*
X111873000Y-97973750D01*
X112127000Y-97973750D01*
X112127000Y-98923000D01*
X112851250Y-98923000D01*
X113010000Y-98764250D01*
X113010000Y-98323691D01*
X112913327Y-98090302D01*
X112734699Y-97911673D01*
X112501310Y-97815000D01*
X112285750Y-97815000D01*
X112127000Y-97973750D01*
X111873000Y-97973750D01*
X111714250Y-97815000D01*
X111498690Y-97815000D01*
X111265301Y-97911673D01*
X111086673Y-98090302D01*
X110990000Y-98323691D01*
X110085000Y-98323691D01*
X110085000Y-98173691D01*
X109988327Y-97940302D01*
X109809699Y-97761673D01*
X109576310Y-97665000D01*
X109285750Y-97665000D01*
X109127000Y-97823750D01*
X108873000Y-97823750D01*
X108714250Y-97665000D01*
X108423690Y-97665000D01*
X108190301Y-97761673D01*
X108011673Y-97940302D01*
X107915000Y-98173691D01*
X107627000Y-98173691D01*
X107627000Y-96535000D01*
X108214250Y-96535000D01*
X108373000Y-96376250D01*
X108373000Y-95177000D01*
X108627000Y-95177000D01*
X108627000Y-96376250D01*
X108785750Y-96535000D01*
X109626309Y-96535000D01*
X109859698Y-96438327D01*
X110038327Y-96259699D01*
X110135000Y-96026310D01*
X110135000Y-95335750D01*
X109976250Y-95177000D01*
X108627000Y-95177000D01*
X108373000Y-95177000D01*
X108353000Y-95177000D01*
X108353000Y-94923000D01*
X108373000Y-94923000D01*
X108373000Y-94903000D01*
X108627000Y-94903000D01*
X108627000Y-94923000D01*
X109976250Y-94923000D01*
X110135000Y-94764250D01*
X110135000Y-94073690D01*
X110038327Y-93840301D01*
X109859698Y-93661673D01*
X109775990Y-93627000D01*
X110500000Y-93627000D01*
X110549410Y-93616994D01*
X110591035Y-93588553D01*
X110618315Y-93546159D01*
X110627000Y-93500000D01*
X110627000Y-92127000D01*
X113040000Y-92127000D01*
X113040000Y-96950000D01*
X113040000Y-96950000D01*
G37*
X113040000Y-96950000D02*
X113097852Y-97240839D01*
X113262599Y-97487401D01*
X115873000Y-100097803D01*
X115873000Y-100373000D01*
X113022440Y-100373000D01*
X113022440Y-100350000D01*
X112978162Y-100114683D01*
X112911671Y-100011354D01*
X112913327Y-100009698D01*
X113010000Y-99776309D01*
X113010000Y-99335750D01*
X112851250Y-99177000D01*
X112127000Y-99177000D01*
X112127000Y-99197000D01*
X111873000Y-99197000D01*
X111873000Y-99177000D01*
X111148750Y-99177000D01*
X110990000Y-99335750D01*
X110990000Y-99776309D01*
X111086673Y-100009698D01*
X111088043Y-100011068D01*
X111028569Y-100098110D01*
X111009961Y-100190000D01*
X110005105Y-100190000D01*
X109914090Y-100048559D01*
X109845994Y-100002031D01*
X109988327Y-99859698D01*
X110085000Y-99626309D01*
X110085000Y-99185750D01*
X109926250Y-99027000D01*
X109127000Y-99027000D01*
X109127000Y-99047000D01*
X108873000Y-99047000D01*
X108873000Y-99027000D01*
X108073750Y-99027000D01*
X107915000Y-99185750D01*
X107915000Y-99626309D01*
X108011673Y-99859698D01*
X108152910Y-100000936D01*
X108098559Y-100035910D01*
X107953569Y-100248110D01*
X107928278Y-100373000D01*
X107627000Y-100373000D01*
X107627000Y-98173691D01*
X107915000Y-98173691D01*
X107915000Y-98614250D01*
X108073750Y-98773000D01*
X108873000Y-98773000D01*
X108873000Y-97823750D01*
X109127000Y-97823750D01*
X109127000Y-98773000D01*
X109926250Y-98773000D01*
X110085000Y-98614250D01*
X110085000Y-98323691D01*
X110990000Y-98323691D01*
X110990000Y-98764250D01*
X111148750Y-98923000D01*
X111873000Y-98923000D01*
X111873000Y-97973750D01*
X112127000Y-97973750D01*
X112127000Y-98923000D01*
X112851250Y-98923000D01*
X113010000Y-98764250D01*
X113010000Y-98323691D01*
X112913327Y-98090302D01*
X112734699Y-97911673D01*
X112501310Y-97815000D01*
X112285750Y-97815000D01*
X112127000Y-97973750D01*
X111873000Y-97973750D01*
X111714250Y-97815000D01*
X111498690Y-97815000D01*
X111265301Y-97911673D01*
X111086673Y-98090302D01*
X110990000Y-98323691D01*
X110085000Y-98323691D01*
X110085000Y-98173691D01*
X109988327Y-97940302D01*
X109809699Y-97761673D01*
X109576310Y-97665000D01*
X109285750Y-97665000D01*
X109127000Y-97823750D01*
X108873000Y-97823750D01*
X108714250Y-97665000D01*
X108423690Y-97665000D01*
X108190301Y-97761673D01*
X108011673Y-97940302D01*
X107915000Y-98173691D01*
X107627000Y-98173691D01*
X107627000Y-96535000D01*
X108214250Y-96535000D01*
X108373000Y-96376250D01*
X108373000Y-95177000D01*
X108627000Y-95177000D01*
X108627000Y-96376250D01*
X108785750Y-96535000D01*
X109626309Y-96535000D01*
X109859698Y-96438327D01*
X110038327Y-96259699D01*
X110135000Y-96026310D01*
X110135000Y-95335750D01*
X109976250Y-95177000D01*
X108627000Y-95177000D01*
X108373000Y-95177000D01*
X108353000Y-95177000D01*
X108353000Y-94923000D01*
X108373000Y-94923000D01*
X108373000Y-94903000D01*
X108627000Y-94903000D01*
X108627000Y-94923000D01*
X109976250Y-94923000D01*
X110135000Y-94764250D01*
X110135000Y-94073690D01*
X110038327Y-93840301D01*
X109859698Y-93661673D01*
X109775990Y-93627000D01*
X110500000Y-93627000D01*
X110549410Y-93616994D01*
X110591035Y-93588553D01*
X110618315Y-93546159D01*
X110627000Y-93500000D01*
X110627000Y-92127000D01*
X113040000Y-92127000D01*
X113040000Y-96950000D01*
G36*
X132373000Y-83697802D02*
X132373000Y-90873000D01*
X130835611Y-90873000D01*
X131028943Y-90793117D01*
X131292192Y-90530327D01*
X131434838Y-90186799D01*
X131435162Y-89814833D01*
X131293117Y-89471057D01*
X131030327Y-89207808D01*
X130686799Y-89065162D01*
X130314833Y-89064838D01*
X129971057Y-89206883D01*
X129939632Y-89238253D01*
X129914090Y-89198559D01*
X129701890Y-89053569D01*
X129450000Y-89002560D01*
X128550000Y-89002560D01*
X128314683Y-89046838D01*
X128098559Y-89185910D01*
X127953569Y-89398110D01*
X127902560Y-89650000D01*
X127902560Y-90140681D01*
X127701890Y-90003569D01*
X127450000Y-89952560D01*
X126550000Y-89952560D01*
X126314683Y-89996838D01*
X126098559Y-90135910D01*
X125953569Y-90348110D01*
X125902560Y-90600000D01*
X125902560Y-90873000D01*
X124975025Y-90873000D01*
X124988327Y-90859698D01*
X125085000Y-90626309D01*
X125085000Y-90185750D01*
X124926250Y-90027000D01*
X124127000Y-90027000D01*
X124127000Y-90047000D01*
X123873000Y-90047000D01*
X123873000Y-90027000D01*
X123073750Y-90027000D01*
X122915000Y-90185750D01*
X122915000Y-90626309D01*
X123011673Y-90859698D01*
X123024975Y-90873000D01*
X122127000Y-90873000D01*
X122127000Y-89173691D01*
X122915000Y-89173691D01*
X122915000Y-89614250D01*
X123073750Y-89773000D01*
X123873000Y-89773000D01*
X123873000Y-88823750D01*
X124127000Y-88823750D01*
X124127000Y-89773000D01*
X124926250Y-89773000D01*
X125085000Y-89614250D01*
X125085000Y-89173691D01*
X124988327Y-88940302D01*
X124809699Y-88761673D01*
X124576310Y-88665000D01*
X124285750Y-88665000D01*
X124127000Y-88823750D01*
X123873000Y-88823750D01*
X123714250Y-88665000D01*
X123423690Y-88665000D01*
X123190301Y-88761673D01*
X123011673Y-88940302D01*
X122915000Y-89173691D01*
X122127000Y-89173691D01*
X122127000Y-86500000D01*
X122116994Y-86450590D01*
X122088553Y-86408965D01*
X122046159Y-86381685D01*
X122000000Y-86373000D01*
X121626683Y-86373000D01*
X121542473Y-86315462D01*
X121559698Y-86308327D01*
X121738327Y-86129699D01*
X121835000Y-85896310D01*
X121835000Y-85455750D01*
X121676250Y-85297000D01*
X120227000Y-85297000D01*
X120227000Y-85317000D01*
X119973000Y-85317000D01*
X119973000Y-85297000D01*
X119953000Y-85297000D01*
X119953000Y-85043000D01*
X119973000Y-85043000D01*
X119973000Y-85023000D01*
X120227000Y-85023000D01*
X120227000Y-85043000D01*
X121676250Y-85043000D01*
X121835000Y-84884250D01*
X121835000Y-84443690D01*
X121738327Y-84210301D01*
X121655025Y-84127000D01*
X122000000Y-84127000D01*
X122049410Y-84116994D01*
X122091035Y-84088553D01*
X122118315Y-84046159D01*
X122120572Y-84034161D01*
X122285317Y-84003162D01*
X122501441Y-83864090D01*
X122584538Y-83742473D01*
X122591673Y-83759698D01*
X122770301Y-83938327D01*
X123003690Y-84035000D01*
X123444250Y-84035000D01*
X123603000Y-83876250D01*
X123603000Y-82427000D01*
X123857000Y-82427000D01*
X123857000Y-83876250D01*
X124015750Y-84035000D01*
X124456310Y-84035000D01*
X124689699Y-83938327D01*
X124868327Y-83759698D01*
X124965000Y-83526309D01*
X124965000Y-82585750D01*
X124806250Y-82427000D01*
X123857000Y-82427000D01*
X123603000Y-82427000D01*
X123583000Y-82427000D01*
X123583000Y-82173000D01*
X123603000Y-82173000D01*
X123603000Y-80723750D01*
X123857000Y-80723750D01*
X123857000Y-82173000D01*
X124806250Y-82173000D01*
X124965000Y-82014250D01*
X124965000Y-81073691D01*
X124868327Y-80840302D01*
X124689699Y-80661673D01*
X124456310Y-80565000D01*
X124015750Y-80565000D01*
X123857000Y-80723750D01*
X123603000Y-80723750D01*
X123444250Y-80565000D01*
X123003690Y-80565000D01*
X122770301Y-80661673D01*
X122591673Y-80840302D01*
X122585000Y-80856412D01*
X122585000Y-79847440D01*
X124350000Y-79847440D01*
X124585317Y-79803162D01*
X124801441Y-79664090D01*
X124826784Y-79627000D01*
X128302198Y-79627000D01*
X132373000Y-83697802D01*
X132373000Y-83697802D01*
G37*
X132373000Y-83697802D02*
X132373000Y-90873000D01*
X130835611Y-90873000D01*
X131028943Y-90793117D01*
X131292192Y-90530327D01*
X131434838Y-90186799D01*
X131435162Y-89814833D01*
X131293117Y-89471057D01*
X131030327Y-89207808D01*
X130686799Y-89065162D01*
X130314833Y-89064838D01*
X129971057Y-89206883D01*
X129939632Y-89238253D01*
X129914090Y-89198559D01*
X129701890Y-89053569D01*
X129450000Y-89002560D01*
X128550000Y-89002560D01*
X128314683Y-89046838D01*
X128098559Y-89185910D01*
X127953569Y-89398110D01*
X127902560Y-89650000D01*
X127902560Y-90140681D01*
X127701890Y-90003569D01*
X127450000Y-89952560D01*
X126550000Y-89952560D01*
X126314683Y-89996838D01*
X126098559Y-90135910D01*
X125953569Y-90348110D01*
X125902560Y-90600000D01*
X125902560Y-90873000D01*
X124975025Y-90873000D01*
X124988327Y-90859698D01*
X125085000Y-90626309D01*
X125085000Y-90185750D01*
X124926250Y-90027000D01*
X124127000Y-90027000D01*
X124127000Y-90047000D01*
X123873000Y-90047000D01*
X123873000Y-90027000D01*
X123073750Y-90027000D01*
X122915000Y-90185750D01*
X122915000Y-90626309D01*
X123011673Y-90859698D01*
X123024975Y-90873000D01*
X122127000Y-90873000D01*
X122127000Y-89173691D01*
X122915000Y-89173691D01*
X122915000Y-89614250D01*
X123073750Y-89773000D01*
X123873000Y-89773000D01*
X123873000Y-88823750D01*
X124127000Y-88823750D01*
X124127000Y-89773000D01*
X124926250Y-89773000D01*
X125085000Y-89614250D01*
X125085000Y-89173691D01*
X124988327Y-88940302D01*
X124809699Y-88761673D01*
X124576310Y-88665000D01*
X124285750Y-88665000D01*
X124127000Y-88823750D01*
X123873000Y-88823750D01*
X123714250Y-88665000D01*
X123423690Y-88665000D01*
X123190301Y-88761673D01*
X123011673Y-88940302D01*
X122915000Y-89173691D01*
X122127000Y-89173691D01*
X122127000Y-86500000D01*
X122116994Y-86450590D01*
X122088553Y-86408965D01*
X122046159Y-86381685D01*
X122000000Y-86373000D01*
X121626683Y-86373000D01*
X121542473Y-86315462D01*
X121559698Y-86308327D01*
X121738327Y-86129699D01*
X121835000Y-85896310D01*
X121835000Y-85455750D01*
X121676250Y-85297000D01*
X120227000Y-85297000D01*
X120227000Y-85317000D01*
X119973000Y-85317000D01*
X119973000Y-85297000D01*
X119953000Y-85297000D01*
X119953000Y-85043000D01*
X119973000Y-85043000D01*
X119973000Y-85023000D01*
X120227000Y-85023000D01*
X120227000Y-85043000D01*
X121676250Y-85043000D01*
X121835000Y-84884250D01*
X121835000Y-84443690D01*
X121738327Y-84210301D01*
X121655025Y-84127000D01*
X122000000Y-84127000D01*
X122049410Y-84116994D01*
X122091035Y-84088553D01*
X122118315Y-84046159D01*
X122120572Y-84034161D01*
X122285317Y-84003162D01*
X122501441Y-83864090D01*
X122584538Y-83742473D01*
X122591673Y-83759698D01*
X122770301Y-83938327D01*
X123003690Y-84035000D01*
X123444250Y-84035000D01*
X123603000Y-83876250D01*
X123603000Y-82427000D01*
X123857000Y-82427000D01*
X123857000Y-83876250D01*
X124015750Y-84035000D01*
X124456310Y-84035000D01*
X124689699Y-83938327D01*
X124868327Y-83759698D01*
X124965000Y-83526309D01*
X124965000Y-82585750D01*
X124806250Y-82427000D01*
X123857000Y-82427000D01*
X123603000Y-82427000D01*
X123583000Y-82427000D01*
X123583000Y-82173000D01*
X123603000Y-82173000D01*
X123603000Y-80723750D01*
X123857000Y-80723750D01*
X123857000Y-82173000D01*
X124806250Y-82173000D01*
X124965000Y-82014250D01*
X124965000Y-81073691D01*
X124868327Y-80840302D01*
X124689699Y-80661673D01*
X124456310Y-80565000D01*
X124015750Y-80565000D01*
X123857000Y-80723750D01*
X123603000Y-80723750D01*
X123444250Y-80565000D01*
X123003690Y-80565000D01*
X122770301Y-80661673D01*
X122591673Y-80840302D01*
X122585000Y-80856412D01*
X122585000Y-79847440D01*
X124350000Y-79847440D01*
X124585317Y-79803162D01*
X124801441Y-79664090D01*
X124826784Y-79627000D01*
X128302198Y-79627000D01*
X132373000Y-83697802D01*
G36*
X112873000Y-75592330D02*
X112686310Y-75515000D01*
X112445750Y-75515000D01*
X112287000Y-75673750D01*
X112287000Y-75990000D01*
X112033000Y-75990000D01*
X112033000Y-75673750D01*
X111874250Y-75515000D01*
X111633690Y-75515000D01*
X111400301Y-75611673D01*
X111221673Y-75790302D01*
X111138955Y-75990000D01*
X111085750Y-75990000D01*
X110927000Y-76148750D01*
X110927000Y-77610500D01*
X110947000Y-77610500D01*
X110947000Y-77864500D01*
X110927000Y-77864500D01*
X110927000Y-79835500D01*
X110947000Y-79835500D01*
X110947000Y-80089500D01*
X110927000Y-80089500D01*
X110927000Y-81551250D01*
X111085750Y-81710000D01*
X111138955Y-81710000D01*
X111206472Y-81873000D01*
X110663528Y-81873000D01*
X110745000Y-81676309D01*
X110745000Y-81590000D01*
X110673000Y-81518000D01*
X110673000Y-81107000D01*
X110745000Y-81035000D01*
X110745000Y-80948691D01*
X110673000Y-80774868D01*
X110673000Y-80089500D01*
X110653000Y-80089500D01*
X110653000Y-79835500D01*
X110673000Y-79835500D01*
X110673000Y-77864500D01*
X110653000Y-77864500D01*
X110653000Y-77610500D01*
X110673000Y-77610500D01*
X110673000Y-76925132D01*
X110745000Y-76751309D01*
X110745000Y-76665000D01*
X110673000Y-76593000D01*
X110673000Y-76182000D01*
X110745000Y-76110000D01*
X110745000Y-76023691D01*
X110648327Y-75790302D01*
X110469699Y-75611673D01*
X110236310Y-75515000D01*
X109995750Y-75515000D01*
X109837000Y-75673750D01*
X109837000Y-75990000D01*
X109583000Y-75990000D01*
X109583000Y-75673750D01*
X109424250Y-75515000D01*
X109183690Y-75515000D01*
X108950301Y-75611673D01*
X108771673Y-75790302D01*
X108681761Y-76007367D01*
X108490301Y-76086673D01*
X108440612Y-76136362D01*
X108294250Y-75990000D01*
X108178690Y-75990000D01*
X107945301Y-76086673D01*
X107766673Y-76265302D01*
X107670000Y-76498691D01*
X107670000Y-76664250D01*
X107828750Y-76823000D01*
X108215000Y-76823000D01*
X108215000Y-77077000D01*
X107828750Y-77077000D01*
X107670000Y-77235750D01*
X107670000Y-77401309D01*
X107744623Y-77581464D01*
X107665000Y-77773691D01*
X107665000Y-77989250D01*
X107823750Y-78148000D01*
X108215000Y-78148000D01*
X108215000Y-78402000D01*
X107823750Y-78402000D01*
X107665000Y-78560750D01*
X107665000Y-78776309D01*
X107695524Y-78850000D01*
X107665000Y-78923691D01*
X107665000Y-79000000D01*
X106725750Y-79000000D01*
X106567000Y-79158750D01*
X106567000Y-80523000D01*
X106587000Y-80523000D01*
X106587000Y-80777000D01*
X106567000Y-80777000D01*
X106567000Y-80797000D01*
X106313000Y-80797000D01*
X106313000Y-80777000D01*
X106293000Y-80777000D01*
X106293000Y-80523000D01*
X106313000Y-80523000D01*
X106313000Y-79158750D01*
X106154250Y-79000000D01*
X106127000Y-79000000D01*
X106127000Y-71627000D01*
X112873000Y-71627000D01*
X112873000Y-75592330D01*
X112873000Y-75592330D01*
G37*
X112873000Y-75592330D02*
X112686310Y-75515000D01*
X112445750Y-75515000D01*
X112287000Y-75673750D01*
X112287000Y-75990000D01*
X112033000Y-75990000D01*
X112033000Y-75673750D01*
X111874250Y-75515000D01*
X111633690Y-75515000D01*
X111400301Y-75611673D01*
X111221673Y-75790302D01*
X111138955Y-75990000D01*
X111085750Y-75990000D01*
X110927000Y-76148750D01*
X110927000Y-77610500D01*
X110947000Y-77610500D01*
X110947000Y-77864500D01*
X110927000Y-77864500D01*
X110927000Y-79835500D01*
X110947000Y-79835500D01*
X110947000Y-80089500D01*
X110927000Y-80089500D01*
X110927000Y-81551250D01*
X111085750Y-81710000D01*
X111138955Y-81710000D01*
X111206472Y-81873000D01*
X110663528Y-81873000D01*
X110745000Y-81676309D01*
X110745000Y-81590000D01*
X110673000Y-81518000D01*
X110673000Y-81107000D01*
X110745000Y-81035000D01*
X110745000Y-80948691D01*
X110673000Y-80774868D01*
X110673000Y-80089500D01*
X110653000Y-80089500D01*
X110653000Y-79835500D01*
X110673000Y-79835500D01*
X110673000Y-77864500D01*
X110653000Y-77864500D01*
X110653000Y-77610500D01*
X110673000Y-77610500D01*
X110673000Y-76925132D01*
X110745000Y-76751309D01*
X110745000Y-76665000D01*
X110673000Y-76593000D01*
X110673000Y-76182000D01*
X110745000Y-76110000D01*
X110745000Y-76023691D01*
X110648327Y-75790302D01*
X110469699Y-75611673D01*
X110236310Y-75515000D01*
X109995750Y-75515000D01*
X109837000Y-75673750D01*
X109837000Y-75990000D01*
X109583000Y-75990000D01*
X109583000Y-75673750D01*
X109424250Y-75515000D01*
X109183690Y-75515000D01*
X108950301Y-75611673D01*
X108771673Y-75790302D01*
X108681761Y-76007367D01*
X108490301Y-76086673D01*
X108440612Y-76136362D01*
X108294250Y-75990000D01*
X108178690Y-75990000D01*
X107945301Y-76086673D01*
X107766673Y-76265302D01*
X107670000Y-76498691D01*
X107670000Y-76664250D01*
X107828750Y-76823000D01*
X108215000Y-76823000D01*
X108215000Y-77077000D01*
X107828750Y-77077000D01*
X107670000Y-77235750D01*
X107670000Y-77401309D01*
X107744623Y-77581464D01*
X107665000Y-77773691D01*
X107665000Y-77989250D01*
X107823750Y-78148000D01*
X108215000Y-78148000D01*
X108215000Y-78402000D01*
X107823750Y-78402000D01*
X107665000Y-78560750D01*
X107665000Y-78776309D01*
X107695524Y-78850000D01*
X107665000Y-78923691D01*
X107665000Y-79000000D01*
X106725750Y-79000000D01*
X106567000Y-79158750D01*
X106567000Y-80523000D01*
X106587000Y-80523000D01*
X106587000Y-80777000D01*
X106567000Y-80777000D01*
X106567000Y-80797000D01*
X106313000Y-80797000D01*
X106313000Y-80777000D01*
X106293000Y-80777000D01*
X106293000Y-80523000D01*
X106313000Y-80523000D01*
X106313000Y-79158750D01*
X106154250Y-79000000D01*
X106127000Y-79000000D01*
X106127000Y-71627000D01*
X112873000Y-71627000D01*
X112873000Y-75592330D01*
G36*
X125873000Y-50500000D02*
X125883006Y-50549410D01*
X125911447Y-50591035D01*
X125953841Y-50618315D01*
X126000000Y-50627000D01*
X127652560Y-50627000D01*
X127652560Y-50950000D01*
X127696838Y-51185317D01*
X127714760Y-51213169D01*
X127457808Y-51469673D01*
X127315162Y-51813201D01*
X127314838Y-52185167D01*
X127456883Y-52528943D01*
X127712513Y-52785020D01*
X127703569Y-52798110D01*
X127652560Y-53050000D01*
X127652560Y-53950000D01*
X127696838Y-54185317D01*
X127835910Y-54401441D01*
X128048110Y-54546431D01*
X128140000Y-54565039D01*
X128140000Y-55432666D01*
X128064683Y-55446838D01*
X127848559Y-55585910D01*
X127703569Y-55798110D01*
X127652560Y-56050000D01*
X127652560Y-56950000D01*
X127696838Y-57185317D01*
X127835910Y-57401441D01*
X128048110Y-57546431D01*
X128140000Y-57565039D01*
X128140000Y-58432666D01*
X128064683Y-58446838D01*
X127848559Y-58585910D01*
X127703569Y-58798110D01*
X127652560Y-59050000D01*
X127652560Y-59950000D01*
X127696838Y-60185317D01*
X127835910Y-60401441D01*
X128048110Y-60546431D01*
X128300000Y-60597440D01*
X128776796Y-60597440D01*
X128826833Y-61848365D01*
X128110320Y-62564878D01*
X128064833Y-62564838D01*
X127721057Y-62706883D01*
X127457808Y-62969673D01*
X127315162Y-63313201D01*
X127314838Y-63685167D01*
X127456883Y-64028943D01*
X127719673Y-64292192D01*
X128063201Y-64434838D01*
X128435167Y-64435162D01*
X128778943Y-64293117D01*
X128812118Y-64260000D01*
X133687537Y-64260000D01*
X133719673Y-64292192D01*
X134063201Y-64434838D01*
X134435167Y-64435162D01*
X134778943Y-64293117D01*
X135042192Y-64030327D01*
X135184838Y-63686799D01*
X135185162Y-63314833D01*
X135107551Y-63127000D01*
X137440000Y-63127000D01*
X137440000Y-63187537D01*
X137407808Y-63219673D01*
X137265162Y-63563201D01*
X137264838Y-63935167D01*
X137406883Y-64278943D01*
X137669673Y-64542192D01*
X138013201Y-64684838D01*
X138385167Y-64685162D01*
X138728943Y-64543117D01*
X138992192Y-64280327D01*
X139134838Y-63936799D01*
X139135162Y-63564833D01*
X138993117Y-63221057D01*
X138960000Y-63187882D01*
X138960000Y-63127000D01*
X139740000Y-63127000D01*
X139740000Y-63937537D01*
X139707808Y-63969673D01*
X139565162Y-64313201D01*
X139564838Y-64685167D01*
X139706883Y-65028943D01*
X139969673Y-65292192D01*
X140313201Y-65434838D01*
X140685167Y-65435162D01*
X141028943Y-65293117D01*
X141292192Y-65030327D01*
X141434838Y-64686799D01*
X141435162Y-64314833D01*
X141293117Y-63971057D01*
X141260000Y-63937882D01*
X141260000Y-63127000D01*
X142652560Y-63127000D01*
X142652560Y-63450000D01*
X142696838Y-63685317D01*
X142835910Y-63901441D01*
X143048110Y-64046431D01*
X143300000Y-64097440D01*
X144500000Y-64097440D01*
X144735317Y-64053162D01*
X144951441Y-63914090D01*
X144999134Y-63844289D01*
X145035910Y-63901441D01*
X145248110Y-64046431D01*
X145500000Y-64097440D01*
X146272638Y-64097440D01*
X146962599Y-64787401D01*
X147209161Y-64952148D01*
X147500000Y-65010000D01*
X148375025Y-65010000D01*
X148383006Y-65049410D01*
X148411447Y-65091035D01*
X148453841Y-65118315D01*
X148500000Y-65127000D01*
X154500000Y-65127000D01*
X154549410Y-65116994D01*
X154598293Y-65080421D01*
X159098293Y-59580421D01*
X159121837Y-59535844D01*
X159127000Y-59500000D01*
X159127000Y-56935000D01*
X162376309Y-56935000D01*
X162400000Y-56925187D01*
X162423691Y-56935000D01*
X165726309Y-56935000D01*
X165959698Y-56838327D01*
X166138327Y-56659699D01*
X166235000Y-56426310D01*
X166235000Y-53423690D01*
X166225187Y-53400000D01*
X166235000Y-53376310D01*
X166235000Y-52127000D01*
X167715000Y-52127000D01*
X167715000Y-54376309D01*
X167724813Y-54400000D01*
X167715000Y-54423691D01*
X167715000Y-57326872D01*
X167686799Y-57315162D01*
X167314833Y-57314838D01*
X166971057Y-57456883D01*
X166824976Y-57602709D01*
X166680327Y-57457808D01*
X166336799Y-57315162D01*
X165964833Y-57314838D01*
X165621057Y-57456883D01*
X165357808Y-57719673D01*
X165215162Y-58063201D01*
X165214838Y-58435167D01*
X165356883Y-58778943D01*
X165619673Y-59042192D01*
X165963201Y-59184838D01*
X166010076Y-59184879D01*
X166312598Y-59487401D01*
X166415081Y-59555878D01*
X166414838Y-59835167D01*
X166436823Y-59888375D01*
X164662599Y-61662599D01*
X164497852Y-61909161D01*
X164440000Y-62200000D01*
X164440000Y-63771251D01*
X164347852Y-63909161D01*
X164290000Y-64200000D01*
X164303591Y-64268324D01*
X164198559Y-64335910D01*
X164053569Y-64548110D01*
X164002560Y-64800000D01*
X164002560Y-65222638D01*
X162362599Y-66862599D01*
X162335898Y-66902560D01*
X162300000Y-66902560D01*
X162064683Y-66946838D01*
X161848559Y-67085910D01*
X161703569Y-67298110D01*
X161652560Y-67550000D01*
X161652560Y-68450000D01*
X161696838Y-68685317D01*
X161835910Y-68901441D01*
X162048110Y-69046431D01*
X162140000Y-69065039D01*
X162140000Y-69932666D01*
X162064683Y-69946838D01*
X161848559Y-70085910D01*
X161703569Y-70298110D01*
X161652560Y-70550000D01*
X161652560Y-71450000D01*
X161694353Y-71672108D01*
X161436799Y-71565162D01*
X161064833Y-71564838D01*
X160721057Y-71706883D01*
X160566236Y-71861434D01*
X160117401Y-71412599D01*
X159870839Y-71247852D01*
X159580000Y-71190000D01*
X157512289Y-71190000D01*
X157380327Y-71057808D01*
X157036799Y-70915162D01*
X156664833Y-70914838D01*
X156321057Y-71056883D01*
X156057808Y-71319673D01*
X155915162Y-71663201D01*
X155914877Y-71990000D01*
X153662747Y-71990000D01*
X153684838Y-71936799D01*
X153685162Y-71564833D01*
X153543117Y-71221057D01*
X153280327Y-70957808D01*
X152936799Y-70815162D01*
X152564833Y-70814838D01*
X152221057Y-70956883D01*
X152187882Y-70990000D01*
X141062463Y-70990000D01*
X141030327Y-70957808D01*
X140686799Y-70815162D01*
X140314833Y-70814838D01*
X139971057Y-70956883D01*
X139707808Y-71219673D01*
X139565162Y-71563201D01*
X139564838Y-71935167D01*
X139587494Y-71990000D01*
X139034879Y-71990000D01*
X139035162Y-71664833D01*
X138893117Y-71321057D01*
X138630327Y-71057808D01*
X138286799Y-70915162D01*
X137914833Y-70914838D01*
X137571057Y-71056883D01*
X137437707Y-71190000D01*
X137200000Y-71190000D01*
X136909161Y-71247852D01*
X136662599Y-71412599D01*
X135702198Y-72373000D01*
X135500000Y-72373000D01*
X135450590Y-72383006D01*
X135408965Y-72411447D01*
X135381685Y-72453841D01*
X135373000Y-72500000D01*
X135373000Y-72702198D01*
X135262599Y-72812599D01*
X135097852Y-73059161D01*
X135040000Y-73350000D01*
X135040000Y-75387253D01*
X134986799Y-75365162D01*
X134939923Y-75365121D01*
X130737401Y-71162599D01*
X130490839Y-70997852D01*
X130200000Y-70940000D01*
X126487441Y-70940000D01*
X126186799Y-70815162D01*
X125814833Y-70814838D01*
X125471057Y-70956883D01*
X125207808Y-71219673D01*
X125065162Y-71563201D01*
X125064838Y-71935167D01*
X125206883Y-72278943D01*
X125469673Y-72542192D01*
X125813201Y-72684838D01*
X126185167Y-72685162D01*
X126528943Y-72543117D01*
X126612205Y-72460000D01*
X127058083Y-72460000D01*
X126699147Y-72818310D01*
X126301953Y-73774860D01*
X126301049Y-74810596D01*
X126696573Y-75767838D01*
X127428310Y-76500853D01*
X128384860Y-76898047D01*
X129420596Y-76898951D01*
X130377838Y-76503427D01*
X131110853Y-75771690D01*
X131508047Y-74815140D01*
X131508686Y-74083488D01*
X133864878Y-76439680D01*
X133864838Y-76485167D01*
X134006883Y-76828943D01*
X134269673Y-77092192D01*
X134613201Y-77234838D01*
X134985167Y-77235162D01*
X135040000Y-77212506D01*
X135040000Y-78373000D01*
X129197802Y-78373000D01*
X126685122Y-75860320D01*
X126685162Y-75814833D01*
X126543117Y-75471057D01*
X126280327Y-75207808D01*
X125936799Y-75065162D01*
X125564833Y-75064838D01*
X125221057Y-75206883D01*
X124985000Y-75442528D01*
X124985000Y-72673691D01*
X124888327Y-72440302D01*
X124709699Y-72261673D01*
X124476310Y-72165000D01*
X121473690Y-72165000D01*
X121450000Y-72174813D01*
X121426310Y-72165000D01*
X118423690Y-72165000D01*
X118190301Y-72261673D01*
X118011673Y-72440302D01*
X117915000Y-72673691D01*
X117915000Y-75976309D01*
X117924813Y-76000000D01*
X117915000Y-76023691D01*
X117915000Y-78373000D01*
X117627000Y-78373000D01*
X117627000Y-75000000D01*
X117616994Y-74950590D01*
X117588553Y-74908965D01*
X117546159Y-74881685D01*
X117500000Y-74873000D01*
X114127000Y-74873000D01*
X114127000Y-70500000D01*
X114116994Y-70450590D01*
X114088553Y-70408965D01*
X114046159Y-70381685D01*
X114000000Y-70373000D01*
X101127000Y-70373000D01*
X101127000Y-58835611D01*
X101206883Y-59028943D01*
X101415193Y-59237617D01*
X101402560Y-59300000D01*
X101402560Y-60500000D01*
X101446838Y-60735317D01*
X101585910Y-60951441D01*
X101655711Y-60999134D01*
X101598559Y-61035910D01*
X101453569Y-61248110D01*
X101402560Y-61500000D01*
X101402560Y-62700000D01*
X101446838Y-62935317D01*
X101585910Y-63151441D01*
X101798110Y-63296431D01*
X102050000Y-63347440D01*
X102950000Y-63347440D01*
X103185317Y-63303162D01*
X103401441Y-63164090D01*
X103546431Y-62951890D01*
X103565039Y-62860000D01*
X104432666Y-62860000D01*
X104446838Y-62935317D01*
X104487481Y-62998478D01*
X104453569Y-63048110D01*
X104402560Y-63300000D01*
X104402560Y-64500000D01*
X104446838Y-64735317D01*
X104585910Y-64951441D01*
X104655711Y-64999134D01*
X104598559Y-65035910D01*
X104453569Y-65248110D01*
X104402560Y-65500000D01*
X104402560Y-66700000D01*
X104446838Y-66935317D01*
X104585910Y-67151441D01*
X104798110Y-67296431D01*
X105050000Y-67347440D01*
X105950000Y-67347440D01*
X106185317Y-67303162D01*
X106401441Y-67164090D01*
X106546431Y-66951890D01*
X106597440Y-66700000D01*
X106597440Y-65977362D01*
X107193560Y-65381242D01*
X107193560Y-65746500D01*
X107237838Y-65981817D01*
X107376910Y-66197941D01*
X107589110Y-66342931D01*
X107841000Y-66393940D01*
X108349000Y-66393940D01*
X108584317Y-66349662D01*
X108730907Y-66255334D01*
X108859110Y-66342931D01*
X109111000Y-66393940D01*
X109619000Y-66393940D01*
X109854317Y-66349662D01*
X110000907Y-66255334D01*
X110129110Y-66342931D01*
X110381000Y-66393940D01*
X110889000Y-66393940D01*
X111124317Y-66349662D01*
X111270907Y-66255334D01*
X111399110Y-66342931D01*
X111651000Y-66393940D01*
X112159000Y-66393940D01*
X112369377Y-66354355D01*
X112563201Y-66434838D01*
X112935167Y-66435162D01*
X113278943Y-66293117D01*
X113542192Y-66030327D01*
X113684838Y-65686799D01*
X113685162Y-65314833D01*
X113593807Y-65093737D01*
X113813201Y-65184838D01*
X113860077Y-65184879D01*
X117564878Y-68889680D01*
X117564838Y-68935167D01*
X117706883Y-69278943D01*
X117969673Y-69542192D01*
X118313201Y-69684838D01*
X118685167Y-69685162D01*
X119028943Y-69543117D01*
X119292192Y-69280327D01*
X119434838Y-68936799D01*
X119435162Y-68564833D01*
X119293117Y-68221057D01*
X119030327Y-67957808D01*
X118686799Y-67815162D01*
X118639923Y-67815121D01*
X115084802Y-64260000D01*
X116314991Y-64260000D01*
X116314838Y-64435167D01*
X116456883Y-64778943D01*
X116719673Y-65042192D01*
X117063201Y-65184838D01*
X117110077Y-65184879D01*
X119064878Y-67139680D01*
X119064838Y-67185167D01*
X119206883Y-67528943D01*
X119469673Y-67792192D01*
X119813201Y-67934838D01*
X120185167Y-67935162D01*
X120528943Y-67793117D01*
X120792192Y-67530327D01*
X120934838Y-67186799D01*
X120935162Y-66814833D01*
X120793117Y-66471057D01*
X120530327Y-66207808D01*
X120186799Y-66065162D01*
X120139923Y-66065121D01*
X118334802Y-64260000D01*
X120187537Y-64260000D01*
X120219673Y-64292192D01*
X120563201Y-64434838D01*
X120935167Y-64435162D01*
X121278943Y-64293117D01*
X121542192Y-64030327D01*
X121684838Y-63686799D01*
X121685162Y-63314833D01*
X121543117Y-62971057D01*
X121280327Y-62707808D01*
X120936799Y-62565162D01*
X120564833Y-62564838D01*
X120221057Y-62706883D01*
X120187882Y-62740000D01*
X117832153Y-62740000D01*
X118042192Y-62530327D01*
X118184838Y-62186799D01*
X118185162Y-61814833D01*
X118043117Y-61471057D01*
X117780327Y-61207808D01*
X117436799Y-61065162D01*
X117389923Y-61065121D01*
X114451802Y-58127000D01*
X114644102Y-58127000D01*
X114706883Y-58278943D01*
X114969673Y-58542192D01*
X115313201Y-58684838D01*
X115685167Y-58685162D01*
X116028943Y-58543117D01*
X116292192Y-58280327D01*
X116434838Y-57936799D01*
X116435118Y-57614801D01*
X116546431Y-57451890D01*
X116597440Y-57200000D01*
X116597440Y-56885750D01*
X117415000Y-56885750D01*
X117415000Y-57326309D01*
X117511673Y-57559698D01*
X117690301Y-57738327D01*
X117923690Y-57835000D01*
X118214250Y-57835000D01*
X118373000Y-57676250D01*
X118373000Y-56727000D01*
X118627000Y-56727000D01*
X118627000Y-57676250D01*
X118785750Y-57835000D01*
X119076310Y-57835000D01*
X119309699Y-57738327D01*
X119488327Y-57559698D01*
X119585000Y-57326309D01*
X119585000Y-56885750D01*
X119426250Y-56727000D01*
X118627000Y-56727000D01*
X118373000Y-56727000D01*
X117573750Y-56727000D01*
X117415000Y-56885750D01*
X116597440Y-56885750D01*
X116597440Y-56000000D01*
X116553162Y-55764683D01*
X116414090Y-55548559D01*
X116344289Y-55500866D01*
X116401441Y-55464090D01*
X116546431Y-55251890D01*
X116597440Y-55000000D01*
X116597440Y-53800000D01*
X116564888Y-53627000D01*
X117437593Y-53627000D01*
X117402560Y-53800000D01*
X117402560Y-55000000D01*
X117446838Y-55235317D01*
X117585910Y-55451441D01*
X117654006Y-55497969D01*
X117511673Y-55640302D01*
X117415000Y-55873691D01*
X117415000Y-56314250D01*
X117573750Y-56473000D01*
X118373000Y-56473000D01*
X118373000Y-56453000D01*
X118627000Y-56453000D01*
X118627000Y-56473000D01*
X119426250Y-56473000D01*
X119585000Y-56314250D01*
X119585000Y-55873691D01*
X119488327Y-55640302D01*
X119347090Y-55499064D01*
X119401441Y-55464090D01*
X119546431Y-55251890D01*
X119597440Y-55000000D01*
X119597440Y-54377362D01*
X120347802Y-53627000D01*
X120500000Y-53627000D01*
X120549410Y-53616994D01*
X120591035Y-53588553D01*
X120618315Y-53546159D01*
X120627000Y-53500000D01*
X120627000Y-53045082D01*
X120630000Y-53030000D01*
X120630000Y-52417334D01*
X120705317Y-52403162D01*
X120921441Y-52264090D01*
X121010333Y-52133992D01*
X121085910Y-52251441D01*
X121298110Y-52396431D01*
X121550000Y-52447440D01*
X122750000Y-52447440D01*
X122985317Y-52403162D01*
X123201441Y-52264090D01*
X123284538Y-52142473D01*
X123291673Y-52159698D01*
X123470301Y-52338327D01*
X123703690Y-52435000D01*
X124144250Y-52435000D01*
X124303000Y-52276250D01*
X124303000Y-50827000D01*
X124557000Y-50827000D01*
X124557000Y-52276250D01*
X124715750Y-52435000D01*
X125156310Y-52435000D01*
X125389699Y-52338327D01*
X125568327Y-52159698D01*
X125665000Y-51926309D01*
X125665000Y-50985750D01*
X125506250Y-50827000D01*
X124557000Y-50827000D01*
X124303000Y-50827000D01*
X124283000Y-50827000D01*
X124283000Y-50573000D01*
X124303000Y-50573000D01*
X124303000Y-50553000D01*
X124557000Y-50553000D01*
X124557000Y-50573000D01*
X125506250Y-50573000D01*
X125665000Y-50414250D01*
X125665000Y-49627000D01*
X125873000Y-49627000D01*
X125873000Y-50500000D01*
X125873000Y-50500000D01*
G37*
X125873000Y-50500000D02*
X125883006Y-50549410D01*
X125911447Y-50591035D01*
X125953841Y-50618315D01*
X126000000Y-50627000D01*
X127652560Y-50627000D01*
X127652560Y-50950000D01*
X127696838Y-51185317D01*
X127714760Y-51213169D01*
X127457808Y-51469673D01*
X127315162Y-51813201D01*
X127314838Y-52185167D01*
X127456883Y-52528943D01*
X127712513Y-52785020D01*
X127703569Y-52798110D01*
X127652560Y-53050000D01*
X127652560Y-53950000D01*
X127696838Y-54185317D01*
X127835910Y-54401441D01*
X128048110Y-54546431D01*
X128140000Y-54565039D01*
X128140000Y-55432666D01*
X128064683Y-55446838D01*
X127848559Y-55585910D01*
X127703569Y-55798110D01*
X127652560Y-56050000D01*
X127652560Y-56950000D01*
X127696838Y-57185317D01*
X127835910Y-57401441D01*
X128048110Y-57546431D01*
X128140000Y-57565039D01*
X128140000Y-58432666D01*
X128064683Y-58446838D01*
X127848559Y-58585910D01*
X127703569Y-58798110D01*
X127652560Y-59050000D01*
X127652560Y-59950000D01*
X127696838Y-60185317D01*
X127835910Y-60401441D01*
X128048110Y-60546431D01*
X128300000Y-60597440D01*
X128776796Y-60597440D01*
X128826833Y-61848365D01*
X128110320Y-62564878D01*
X128064833Y-62564838D01*
X127721057Y-62706883D01*
X127457808Y-62969673D01*
X127315162Y-63313201D01*
X127314838Y-63685167D01*
X127456883Y-64028943D01*
X127719673Y-64292192D01*
X128063201Y-64434838D01*
X128435167Y-64435162D01*
X128778943Y-64293117D01*
X128812118Y-64260000D01*
X133687537Y-64260000D01*
X133719673Y-64292192D01*
X134063201Y-64434838D01*
X134435167Y-64435162D01*
X134778943Y-64293117D01*
X135042192Y-64030327D01*
X135184838Y-63686799D01*
X135185162Y-63314833D01*
X135107551Y-63127000D01*
X137440000Y-63127000D01*
X137440000Y-63187537D01*
X137407808Y-63219673D01*
X137265162Y-63563201D01*
X137264838Y-63935167D01*
X137406883Y-64278943D01*
X137669673Y-64542192D01*
X138013201Y-64684838D01*
X138385167Y-64685162D01*
X138728943Y-64543117D01*
X138992192Y-64280327D01*
X139134838Y-63936799D01*
X139135162Y-63564833D01*
X138993117Y-63221057D01*
X138960000Y-63187882D01*
X138960000Y-63127000D01*
X139740000Y-63127000D01*
X139740000Y-63937537D01*
X139707808Y-63969673D01*
X139565162Y-64313201D01*
X139564838Y-64685167D01*
X139706883Y-65028943D01*
X139969673Y-65292192D01*
X140313201Y-65434838D01*
X140685167Y-65435162D01*
X141028943Y-65293117D01*
X141292192Y-65030327D01*
X141434838Y-64686799D01*
X141435162Y-64314833D01*
X141293117Y-63971057D01*
X141260000Y-63937882D01*
X141260000Y-63127000D01*
X142652560Y-63127000D01*
X142652560Y-63450000D01*
X142696838Y-63685317D01*
X142835910Y-63901441D01*
X143048110Y-64046431D01*
X143300000Y-64097440D01*
X144500000Y-64097440D01*
X144735317Y-64053162D01*
X144951441Y-63914090D01*
X144999134Y-63844289D01*
X145035910Y-63901441D01*
X145248110Y-64046431D01*
X145500000Y-64097440D01*
X146272638Y-64097440D01*
X146962599Y-64787401D01*
X147209161Y-64952148D01*
X147500000Y-65010000D01*
X148375025Y-65010000D01*
X148383006Y-65049410D01*
X148411447Y-65091035D01*
X148453841Y-65118315D01*
X148500000Y-65127000D01*
X154500000Y-65127000D01*
X154549410Y-65116994D01*
X154598293Y-65080421D01*
X159098293Y-59580421D01*
X159121837Y-59535844D01*
X159127000Y-59500000D01*
X159127000Y-56935000D01*
X162376309Y-56935000D01*
X162400000Y-56925187D01*
X162423691Y-56935000D01*
X165726309Y-56935000D01*
X165959698Y-56838327D01*
X166138327Y-56659699D01*
X166235000Y-56426310D01*
X166235000Y-53423690D01*
X166225187Y-53400000D01*
X166235000Y-53376310D01*
X166235000Y-52127000D01*
X167715000Y-52127000D01*
X167715000Y-54376309D01*
X167724813Y-54400000D01*
X167715000Y-54423691D01*
X167715000Y-57326872D01*
X167686799Y-57315162D01*
X167314833Y-57314838D01*
X166971057Y-57456883D01*
X166824976Y-57602709D01*
X166680327Y-57457808D01*
X166336799Y-57315162D01*
X165964833Y-57314838D01*
X165621057Y-57456883D01*
X165357808Y-57719673D01*
X165215162Y-58063201D01*
X165214838Y-58435167D01*
X165356883Y-58778943D01*
X165619673Y-59042192D01*
X165963201Y-59184838D01*
X166010076Y-59184879D01*
X166312598Y-59487401D01*
X166415081Y-59555878D01*
X166414838Y-59835167D01*
X166436823Y-59888375D01*
X164662599Y-61662599D01*
X164497852Y-61909161D01*
X164440000Y-62200000D01*
X164440000Y-63771251D01*
X164347852Y-63909161D01*
X164290000Y-64200000D01*
X164303591Y-64268324D01*
X164198559Y-64335910D01*
X164053569Y-64548110D01*
X164002560Y-64800000D01*
X164002560Y-65222638D01*
X162362599Y-66862599D01*
X162335898Y-66902560D01*
X162300000Y-66902560D01*
X162064683Y-66946838D01*
X161848559Y-67085910D01*
X161703569Y-67298110D01*
X161652560Y-67550000D01*
X161652560Y-68450000D01*
X161696838Y-68685317D01*
X161835910Y-68901441D01*
X162048110Y-69046431D01*
X162140000Y-69065039D01*
X162140000Y-69932666D01*
X162064683Y-69946838D01*
X161848559Y-70085910D01*
X161703569Y-70298110D01*
X161652560Y-70550000D01*
X161652560Y-71450000D01*
X161694353Y-71672108D01*
X161436799Y-71565162D01*
X161064833Y-71564838D01*
X160721057Y-71706883D01*
X160566236Y-71861434D01*
X160117401Y-71412599D01*
X159870839Y-71247852D01*
X159580000Y-71190000D01*
X157512289Y-71190000D01*
X157380327Y-71057808D01*
X157036799Y-70915162D01*
X156664833Y-70914838D01*
X156321057Y-71056883D01*
X156057808Y-71319673D01*
X155915162Y-71663201D01*
X155914877Y-71990000D01*
X153662747Y-71990000D01*
X153684838Y-71936799D01*
X153685162Y-71564833D01*
X153543117Y-71221057D01*
X153280327Y-70957808D01*
X152936799Y-70815162D01*
X152564833Y-70814838D01*
X152221057Y-70956883D01*
X152187882Y-70990000D01*
X141062463Y-70990000D01*
X141030327Y-70957808D01*
X140686799Y-70815162D01*
X140314833Y-70814838D01*
X139971057Y-70956883D01*
X139707808Y-71219673D01*
X139565162Y-71563201D01*
X139564838Y-71935167D01*
X139587494Y-71990000D01*
X139034879Y-71990000D01*
X139035162Y-71664833D01*
X138893117Y-71321057D01*
X138630327Y-71057808D01*
X138286799Y-70915162D01*
X137914833Y-70914838D01*
X137571057Y-71056883D01*
X137437707Y-71190000D01*
X137200000Y-71190000D01*
X136909161Y-71247852D01*
X136662599Y-71412599D01*
X135702198Y-72373000D01*
X135500000Y-72373000D01*
X135450590Y-72383006D01*
X135408965Y-72411447D01*
X135381685Y-72453841D01*
X135373000Y-72500000D01*
X135373000Y-72702198D01*
X135262599Y-72812599D01*
X135097852Y-73059161D01*
X135040000Y-73350000D01*
X135040000Y-75387253D01*
X134986799Y-75365162D01*
X134939923Y-75365121D01*
X130737401Y-71162599D01*
X130490839Y-70997852D01*
X130200000Y-70940000D01*
X126487441Y-70940000D01*
X126186799Y-70815162D01*
X125814833Y-70814838D01*
X125471057Y-70956883D01*
X125207808Y-71219673D01*
X125065162Y-71563201D01*
X125064838Y-71935167D01*
X125206883Y-72278943D01*
X125469673Y-72542192D01*
X125813201Y-72684838D01*
X126185167Y-72685162D01*
X126528943Y-72543117D01*
X126612205Y-72460000D01*
X127058083Y-72460000D01*
X126699147Y-72818310D01*
X126301953Y-73774860D01*
X126301049Y-74810596D01*
X126696573Y-75767838D01*
X127428310Y-76500853D01*
X128384860Y-76898047D01*
X129420596Y-76898951D01*
X130377838Y-76503427D01*
X131110853Y-75771690D01*
X131508047Y-74815140D01*
X131508686Y-74083488D01*
X133864878Y-76439680D01*
X133864838Y-76485167D01*
X134006883Y-76828943D01*
X134269673Y-77092192D01*
X134613201Y-77234838D01*
X134985167Y-77235162D01*
X135040000Y-77212506D01*
X135040000Y-78373000D01*
X129197802Y-78373000D01*
X126685122Y-75860320D01*
X126685162Y-75814833D01*
X126543117Y-75471057D01*
X126280327Y-75207808D01*
X125936799Y-75065162D01*
X125564833Y-75064838D01*
X125221057Y-75206883D01*
X124985000Y-75442528D01*
X124985000Y-72673691D01*
X124888327Y-72440302D01*
X124709699Y-72261673D01*
X124476310Y-72165000D01*
X121473690Y-72165000D01*
X121450000Y-72174813D01*
X121426310Y-72165000D01*
X118423690Y-72165000D01*
X118190301Y-72261673D01*
X118011673Y-72440302D01*
X117915000Y-72673691D01*
X117915000Y-75976309D01*
X117924813Y-76000000D01*
X117915000Y-76023691D01*
X117915000Y-78373000D01*
X117627000Y-78373000D01*
X117627000Y-75000000D01*
X117616994Y-74950590D01*
X117588553Y-74908965D01*
X117546159Y-74881685D01*
X117500000Y-74873000D01*
X114127000Y-74873000D01*
X114127000Y-70500000D01*
X114116994Y-70450590D01*
X114088553Y-70408965D01*
X114046159Y-70381685D01*
X114000000Y-70373000D01*
X101127000Y-70373000D01*
X101127000Y-58835611D01*
X101206883Y-59028943D01*
X101415193Y-59237617D01*
X101402560Y-59300000D01*
X101402560Y-60500000D01*
X101446838Y-60735317D01*
X101585910Y-60951441D01*
X101655711Y-60999134D01*
X101598559Y-61035910D01*
X101453569Y-61248110D01*
X101402560Y-61500000D01*
X101402560Y-62700000D01*
X101446838Y-62935317D01*
X101585910Y-63151441D01*
X101798110Y-63296431D01*
X102050000Y-63347440D01*
X102950000Y-63347440D01*
X103185317Y-63303162D01*
X103401441Y-63164090D01*
X103546431Y-62951890D01*
X103565039Y-62860000D01*
X104432666Y-62860000D01*
X104446838Y-62935317D01*
X104487481Y-62998478D01*
X104453569Y-63048110D01*
X104402560Y-63300000D01*
X104402560Y-64500000D01*
X104446838Y-64735317D01*
X104585910Y-64951441D01*
X104655711Y-64999134D01*
X104598559Y-65035910D01*
X104453569Y-65248110D01*
X104402560Y-65500000D01*
X104402560Y-66700000D01*
X104446838Y-66935317D01*
X104585910Y-67151441D01*
X104798110Y-67296431D01*
X105050000Y-67347440D01*
X105950000Y-67347440D01*
X106185317Y-67303162D01*
X106401441Y-67164090D01*
X106546431Y-66951890D01*
X106597440Y-66700000D01*
X106597440Y-65977362D01*
X107193560Y-65381242D01*
X107193560Y-65746500D01*
X107237838Y-65981817D01*
X107376910Y-66197941D01*
X107589110Y-66342931D01*
X107841000Y-66393940D01*
X108349000Y-66393940D01*
X108584317Y-66349662D01*
X108730907Y-66255334D01*
X108859110Y-66342931D01*
X109111000Y-66393940D01*
X109619000Y-66393940D01*
X109854317Y-66349662D01*
X110000907Y-66255334D01*
X110129110Y-66342931D01*
X110381000Y-66393940D01*
X110889000Y-66393940D01*
X111124317Y-66349662D01*
X111270907Y-66255334D01*
X111399110Y-66342931D01*
X111651000Y-66393940D01*
X112159000Y-66393940D01*
X112369377Y-66354355D01*
X112563201Y-66434838D01*
X112935167Y-66435162D01*
X113278943Y-66293117D01*
X113542192Y-66030327D01*
X113684838Y-65686799D01*
X113685162Y-65314833D01*
X113593807Y-65093737D01*
X113813201Y-65184838D01*
X113860077Y-65184879D01*
X117564878Y-68889680D01*
X117564838Y-68935167D01*
X117706883Y-69278943D01*
X117969673Y-69542192D01*
X118313201Y-69684838D01*
X118685167Y-69685162D01*
X119028943Y-69543117D01*
X119292192Y-69280327D01*
X119434838Y-68936799D01*
X119435162Y-68564833D01*
X119293117Y-68221057D01*
X119030327Y-67957808D01*
X118686799Y-67815162D01*
X118639923Y-67815121D01*
X115084802Y-64260000D01*
X116314991Y-64260000D01*
X116314838Y-64435167D01*
X116456883Y-64778943D01*
X116719673Y-65042192D01*
X117063201Y-65184838D01*
X117110077Y-65184879D01*
X119064878Y-67139680D01*
X119064838Y-67185167D01*
X119206883Y-67528943D01*
X119469673Y-67792192D01*
X119813201Y-67934838D01*
X120185167Y-67935162D01*
X120528943Y-67793117D01*
X120792192Y-67530327D01*
X120934838Y-67186799D01*
X120935162Y-66814833D01*
X120793117Y-66471057D01*
X120530327Y-66207808D01*
X120186799Y-66065162D01*
X120139923Y-66065121D01*
X118334802Y-64260000D01*
X120187537Y-64260000D01*
X120219673Y-64292192D01*
X120563201Y-64434838D01*
X120935167Y-64435162D01*
X121278943Y-64293117D01*
X121542192Y-64030327D01*
X121684838Y-63686799D01*
X121685162Y-63314833D01*
X121543117Y-62971057D01*
X121280327Y-62707808D01*
X120936799Y-62565162D01*
X120564833Y-62564838D01*
X120221057Y-62706883D01*
X120187882Y-62740000D01*
X117832153Y-62740000D01*
X118042192Y-62530327D01*
X118184838Y-62186799D01*
X118185162Y-61814833D01*
X118043117Y-61471057D01*
X117780327Y-61207808D01*
X117436799Y-61065162D01*
X117389923Y-61065121D01*
X114451802Y-58127000D01*
X114644102Y-58127000D01*
X114706883Y-58278943D01*
X114969673Y-58542192D01*
X115313201Y-58684838D01*
X115685167Y-58685162D01*
X116028943Y-58543117D01*
X116292192Y-58280327D01*
X116434838Y-57936799D01*
X116435118Y-57614801D01*
X116546431Y-57451890D01*
X116597440Y-57200000D01*
X116597440Y-56885750D01*
X117415000Y-56885750D01*
X117415000Y-57326309D01*
X117511673Y-57559698D01*
X117690301Y-57738327D01*
X117923690Y-57835000D01*
X118214250Y-57835000D01*
X118373000Y-57676250D01*
X118373000Y-56727000D01*
X118627000Y-56727000D01*
X118627000Y-57676250D01*
X118785750Y-57835000D01*
X119076310Y-57835000D01*
X119309699Y-57738327D01*
X119488327Y-57559698D01*
X119585000Y-57326309D01*
X119585000Y-56885750D01*
X119426250Y-56727000D01*
X118627000Y-56727000D01*
X118373000Y-56727000D01*
X117573750Y-56727000D01*
X117415000Y-56885750D01*
X116597440Y-56885750D01*
X116597440Y-56000000D01*
X116553162Y-55764683D01*
X116414090Y-55548559D01*
X116344289Y-55500866D01*
X116401441Y-55464090D01*
X116546431Y-55251890D01*
X116597440Y-55000000D01*
X116597440Y-53800000D01*
X116564888Y-53627000D01*
X117437593Y-53627000D01*
X117402560Y-53800000D01*
X117402560Y-55000000D01*
X117446838Y-55235317D01*
X117585910Y-55451441D01*
X117654006Y-55497969D01*
X117511673Y-55640302D01*
X117415000Y-55873691D01*
X117415000Y-56314250D01*
X117573750Y-56473000D01*
X118373000Y-56473000D01*
X118373000Y-56453000D01*
X118627000Y-56453000D01*
X118627000Y-56473000D01*
X119426250Y-56473000D01*
X119585000Y-56314250D01*
X119585000Y-55873691D01*
X119488327Y-55640302D01*
X119347090Y-55499064D01*
X119401441Y-55464090D01*
X119546431Y-55251890D01*
X119597440Y-55000000D01*
X119597440Y-54377362D01*
X120347802Y-53627000D01*
X120500000Y-53627000D01*
X120549410Y-53616994D01*
X120591035Y-53588553D01*
X120618315Y-53546159D01*
X120627000Y-53500000D01*
X120627000Y-53045082D01*
X120630000Y-53030000D01*
X120630000Y-52417334D01*
X120705317Y-52403162D01*
X120921441Y-52264090D01*
X121010333Y-52133992D01*
X121085910Y-52251441D01*
X121298110Y-52396431D01*
X121550000Y-52447440D01*
X122750000Y-52447440D01*
X122985317Y-52403162D01*
X123201441Y-52264090D01*
X123284538Y-52142473D01*
X123291673Y-52159698D01*
X123470301Y-52338327D01*
X123703690Y-52435000D01*
X124144250Y-52435000D01*
X124303000Y-52276250D01*
X124303000Y-50827000D01*
X124557000Y-50827000D01*
X124557000Y-52276250D01*
X124715750Y-52435000D01*
X125156310Y-52435000D01*
X125389699Y-52338327D01*
X125568327Y-52159698D01*
X125665000Y-51926309D01*
X125665000Y-50985750D01*
X125506250Y-50827000D01*
X124557000Y-50827000D01*
X124303000Y-50827000D01*
X124283000Y-50827000D01*
X124283000Y-50573000D01*
X124303000Y-50573000D01*
X124303000Y-50553000D01*
X124557000Y-50553000D01*
X124557000Y-50573000D01*
X125506250Y-50573000D01*
X125665000Y-50414250D01*
X125665000Y-49627000D01*
X125873000Y-49627000D01*
X125873000Y-50500000D01*
G36*
X168035910Y-68901441D02*
X168248110Y-69046431D01*
X168500000Y-69097440D01*
X168631888Y-69097440D01*
X168706883Y-69278943D01*
X168969673Y-69542192D01*
X169313201Y-69684838D01*
X169685167Y-69685162D01*
X169873000Y-69607551D01*
X169873000Y-69937593D01*
X169700000Y-69902560D01*
X168500000Y-69902560D01*
X168264683Y-69946838D01*
X168048559Y-70085910D01*
X168000866Y-70155711D01*
X167964090Y-70098559D01*
X167751890Y-69953569D01*
X167500000Y-69902560D01*
X166300000Y-69902560D01*
X166064683Y-69946838D01*
X166001522Y-69987481D01*
X165951890Y-69953569D01*
X165700000Y-69902560D01*
X164500000Y-69902560D01*
X164264683Y-69946838D01*
X164048559Y-70085910D01*
X164000866Y-70155711D01*
X163964090Y-70098559D01*
X163751890Y-69953569D01*
X163660000Y-69934961D01*
X163660000Y-69067334D01*
X163735317Y-69053162D01*
X163951441Y-68914090D01*
X163999134Y-68844289D01*
X164035910Y-68901441D01*
X164248110Y-69046431D01*
X164500000Y-69097440D01*
X165700000Y-69097440D01*
X165935317Y-69053162D01*
X165998478Y-69012519D01*
X166048110Y-69046431D01*
X166300000Y-69097440D01*
X167500000Y-69097440D01*
X167735317Y-69053162D01*
X167951441Y-68914090D01*
X167999134Y-68844289D01*
X168035910Y-68901441D01*
X168035910Y-68901441D01*
G37*
X168035910Y-68901441D02*
X168248110Y-69046431D01*
X168500000Y-69097440D01*
X168631888Y-69097440D01*
X168706883Y-69278943D01*
X168969673Y-69542192D01*
X169313201Y-69684838D01*
X169685167Y-69685162D01*
X169873000Y-69607551D01*
X169873000Y-69937593D01*
X169700000Y-69902560D01*
X168500000Y-69902560D01*
X168264683Y-69946838D01*
X168048559Y-70085910D01*
X168000866Y-70155711D01*
X167964090Y-70098559D01*
X167751890Y-69953569D01*
X167500000Y-69902560D01*
X166300000Y-69902560D01*
X166064683Y-69946838D01*
X166001522Y-69987481D01*
X165951890Y-69953569D01*
X165700000Y-69902560D01*
X164500000Y-69902560D01*
X164264683Y-69946838D01*
X164048559Y-70085910D01*
X164000866Y-70155711D01*
X163964090Y-70098559D01*
X163751890Y-69953569D01*
X163660000Y-69934961D01*
X163660000Y-69067334D01*
X163735317Y-69053162D01*
X163951441Y-68914090D01*
X163999134Y-68844289D01*
X164035910Y-68901441D01*
X164248110Y-69046431D01*
X164500000Y-69097440D01*
X165700000Y-69097440D01*
X165935317Y-69053162D01*
X165998478Y-69012519D01*
X166048110Y-69046431D01*
X166300000Y-69097440D01*
X167500000Y-69097440D01*
X167735317Y-69053162D01*
X167951441Y-68914090D01*
X167999134Y-68844289D01*
X168035910Y-68901441D01*
G36*
X107206000Y-58127190D02*
X107206000Y-58539250D01*
X107364750Y-58698000D01*
X107968000Y-58698000D01*
X107968000Y-58678000D01*
X108222000Y-58678000D01*
X108222000Y-58698000D01*
X108242000Y-58698000D01*
X108242000Y-58952000D01*
X108222000Y-58952000D01*
X108222000Y-58972000D01*
X107968000Y-58972000D01*
X107968000Y-58952000D01*
X107364750Y-58952000D01*
X107206000Y-59110750D01*
X107206000Y-59522810D01*
X107302673Y-59756199D01*
X107481302Y-59934827D01*
X107714691Y-60031500D01*
X107809250Y-60031500D01*
X107841871Y-59998879D01*
X107815162Y-60063201D01*
X107814838Y-60435167D01*
X107956883Y-60778943D01*
X108219673Y-61042192D01*
X108563201Y-61184838D01*
X108564838Y-61184839D01*
X108564838Y-61185167D01*
X108706883Y-61528943D01*
X108969673Y-61792192D01*
X109313201Y-61934838D01*
X109685167Y-61935162D01*
X110028943Y-61793117D01*
X110062118Y-61760000D01*
X110500000Y-61760000D01*
X110790839Y-61702148D01*
X111037401Y-61537401D01*
X112442401Y-60132401D01*
X112607148Y-59885839D01*
X112612881Y-59857020D01*
X112755431Y-59648390D01*
X112806440Y-59396500D01*
X112806440Y-58631242D01*
X116314878Y-62139680D01*
X116314838Y-62185167D01*
X116456883Y-62528943D01*
X116667572Y-62740000D01*
X107500000Y-62740000D01*
X107209160Y-62797852D01*
X106962599Y-62962599D01*
X106712599Y-63212599D01*
X106597440Y-63384947D01*
X106597440Y-63300000D01*
X106553162Y-63064683D01*
X106512519Y-63001522D01*
X106546431Y-62951890D01*
X106597440Y-62700000D01*
X106597440Y-61935086D01*
X106685167Y-61935162D01*
X107028943Y-61793117D01*
X107292192Y-61530327D01*
X107434838Y-61186799D01*
X107435162Y-60814833D01*
X107293117Y-60471057D01*
X107030327Y-60207808D01*
X106686799Y-60065162D01*
X106639923Y-60065121D01*
X106597440Y-60022638D01*
X106597440Y-59300000D01*
X106553162Y-59064683D01*
X106513412Y-59002909D01*
X106651441Y-58914090D01*
X106796431Y-58701890D01*
X106847440Y-58450000D01*
X106847440Y-58127000D01*
X107206079Y-58127000D01*
X107206000Y-58127190D01*
X107206000Y-58127190D01*
G37*
X107206000Y-58127190D02*
X107206000Y-58539250D01*
X107364750Y-58698000D01*
X107968000Y-58698000D01*
X107968000Y-58678000D01*
X108222000Y-58678000D01*
X108222000Y-58698000D01*
X108242000Y-58698000D01*
X108242000Y-58952000D01*
X108222000Y-58952000D01*
X108222000Y-58972000D01*
X107968000Y-58972000D01*
X107968000Y-58952000D01*
X107364750Y-58952000D01*
X107206000Y-59110750D01*
X107206000Y-59522810D01*
X107302673Y-59756199D01*
X107481302Y-59934827D01*
X107714691Y-60031500D01*
X107809250Y-60031500D01*
X107841871Y-59998879D01*
X107815162Y-60063201D01*
X107814838Y-60435167D01*
X107956883Y-60778943D01*
X108219673Y-61042192D01*
X108563201Y-61184838D01*
X108564838Y-61184839D01*
X108564838Y-61185167D01*
X108706883Y-61528943D01*
X108969673Y-61792192D01*
X109313201Y-61934838D01*
X109685167Y-61935162D01*
X110028943Y-61793117D01*
X110062118Y-61760000D01*
X110500000Y-61760000D01*
X110790839Y-61702148D01*
X111037401Y-61537401D01*
X112442401Y-60132401D01*
X112607148Y-59885839D01*
X112612881Y-59857020D01*
X112755431Y-59648390D01*
X112806440Y-59396500D01*
X112806440Y-58631242D01*
X116314878Y-62139680D01*
X116314838Y-62185167D01*
X116456883Y-62528943D01*
X116667572Y-62740000D01*
X107500000Y-62740000D01*
X107209160Y-62797852D01*
X106962599Y-62962599D01*
X106712599Y-63212599D01*
X106597440Y-63384947D01*
X106597440Y-63300000D01*
X106553162Y-63064683D01*
X106512519Y-63001522D01*
X106546431Y-62951890D01*
X106597440Y-62700000D01*
X106597440Y-61935086D01*
X106685167Y-61935162D01*
X107028943Y-61793117D01*
X107292192Y-61530327D01*
X107434838Y-61186799D01*
X107435162Y-60814833D01*
X107293117Y-60471057D01*
X107030327Y-60207808D01*
X106686799Y-60065162D01*
X106639923Y-60065121D01*
X106597440Y-60022638D01*
X106597440Y-59300000D01*
X106553162Y-59064683D01*
X106513412Y-59002909D01*
X106651441Y-58914090D01*
X106796431Y-58701890D01*
X106847440Y-58450000D01*
X106847440Y-58127000D01*
X107206079Y-58127000D01*
X107206000Y-58127190D01*
M02*
