G04 #@! TF.FileFunction,Copper,L2,Bot,Signal*
%FSLAX46Y46*%
G04 Gerber Fmt 4.6, Leading zero omitted, Abs format (unit mm)*
G04 Created by KiCad (PCBNEW 4.0.4-stable) date 05/23/17 22:08:48*
%MOMM*%
%LPD*%
G01*
G04 APERTURE LIST*
%ADD10C,0.100000*%
%ADD11R,1.600000X1.600000*%
%ADD12C,1.600000*%
%ADD13O,1.600000X1.600000*%
%ADD14R,3.200000X3.200000*%
%ADD15O,3.200000X3.200000*%
%ADD16C,3.000000*%
%ADD17R,1.700000X1.700000*%
%ADD18O,1.700000X1.700000*%
%ADD19C,1.700000*%
%ADD20C,3.937000*%
%ADD21C,0.600000*%
%ADD22C,1.000000*%
%ADD23C,3.000000*%
%ADD24C,0.250000*%
%ADD25C,1.000000*%
%ADD26C,0.254000*%
G04 APERTURE END LIST*
D10*
D11*
X123000000Y-107000000D03*
D12*
X121000000Y-107000000D03*
D11*
X159000000Y-116500000D03*
D12*
X157000000Y-116500000D03*
D11*
X155300000Y-101700000D03*
D13*
X155300000Y-91540000D03*
D14*
X181550000Y-63450000D03*
D15*
X181550000Y-50750000D03*
D16*
X115080000Y-45000000D03*
X110000000Y-45000000D03*
D17*
X105150000Y-116200000D03*
D18*
X105150000Y-113660000D03*
X105150000Y-111120000D03*
D16*
X175080000Y-45000000D03*
X170000000Y-45000000D03*
X105800000Y-85520000D03*
X105800000Y-90600000D03*
X145080000Y-45000000D03*
X140000000Y-45000000D03*
D19*
X177165000Y-122555000D03*
X174625000Y-122555000D03*
X172085000Y-122555000D03*
X164465000Y-122555000D03*
X167005000Y-122555000D03*
X169545000Y-122555000D03*
X159385000Y-122555000D03*
X156845000Y-122555000D03*
X154305000Y-122555000D03*
X149225000Y-122555000D03*
X146685000Y-122555000D03*
X177165000Y-74295000D03*
X174625000Y-74295000D03*
X172085000Y-74295000D03*
X169545000Y-74295000D03*
X167005000Y-74295000D03*
X164465000Y-74295000D03*
X161925000Y-74295000D03*
X159385000Y-74295000D03*
X155321000Y-74295000D03*
X152781000Y-74295000D03*
X150241000Y-74295000D03*
X147701000Y-74295000D03*
X145161000Y-74295000D03*
X142621000Y-74295000D03*
X140081000Y-74295000D03*
X137541000Y-74295000D03*
X151765000Y-122555000D03*
D20*
X179705000Y-117475000D03*
X179705000Y-89535000D03*
X128905000Y-74295000D03*
X127635000Y-122555000D03*
X103550000Y-45350000D03*
X181550000Y-43600000D03*
D17*
X144000000Y-83000000D03*
D18*
X146540000Y-83000000D03*
X149080000Y-83000000D03*
X151620000Y-83000000D03*
X154160000Y-83000000D03*
D17*
X173800000Y-79000000D03*
D18*
X173800000Y-81540000D03*
X173800000Y-84080000D03*
X173800000Y-86620000D03*
X173800000Y-89160000D03*
X173800000Y-91700000D03*
D17*
X143500000Y-137075001D03*
D18*
X143500000Y-139615001D03*
X143500000Y-142155001D03*
X143500000Y-144695001D03*
X143500000Y-147235001D03*
X143500000Y-149775001D03*
D21*
X141500000Y-61250000D03*
X133750000Y-89000000D03*
X130500000Y-90000000D03*
X130250000Y-95250000D03*
X129500000Y-111500000D03*
X139000000Y-61000000D03*
X103000000Y-97750000D03*
X110500000Y-98000000D03*
X130250000Y-110000000D03*
X123250000Y-115500000D03*
X128500000Y-119000000D03*
X173250000Y-104000000D03*
X183750000Y-66500000D03*
X174500000Y-71250000D03*
X142500000Y-52250000D03*
X128250000Y-52000000D03*
X112750000Y-65500000D03*
X115500000Y-57750000D03*
X118750000Y-52750000D03*
X102000000Y-58500000D03*
D22*
X111500000Y-95000000D03*
X106300000Y-53700000D03*
X162500000Y-47400000D03*
X132750000Y-45750000D03*
D21*
X149250000Y-94000000D03*
X149250000Y-96500000D03*
X149250000Y-103250000D03*
X149250000Y-110000000D03*
X149250000Y-115250000D03*
X158000000Y-81250000D03*
X160750000Y-81250000D03*
X145500000Y-58300000D03*
X144800000Y-59750000D03*
X147150000Y-62000000D03*
X156850000Y-71850000D03*
X157100000Y-79800000D03*
X136700000Y-76200000D03*
X134800000Y-76300000D03*
X126000000Y-71750000D03*
X120000000Y-67000000D03*
X117250000Y-64250000D03*
X117250000Y-62000000D03*
X169200000Y-83000000D03*
X165300000Y-83900000D03*
X166300000Y-83000000D03*
X163500000Y-97250000D03*
X161250000Y-99500000D03*
X161250000Y-72500000D03*
X159250000Y-72750000D03*
X137500000Y-72750000D03*
X134250000Y-63500000D03*
X120750000Y-63500000D03*
X128250000Y-63500000D03*
X117500000Y-115500000D03*
X109000000Y-107000000D03*
X117000000Y-116500000D03*
X109000000Y-106000000D03*
X158500000Y-69000000D03*
X156900000Y-78075002D03*
X162000000Y-69550000D03*
X165400000Y-69750000D03*
X167500000Y-58250000D03*
X167350000Y-59650000D03*
X158250000Y-50250000D03*
X146250000Y-51250000D03*
X135000000Y-99500000D03*
X127500000Y-116500000D03*
X126500000Y-116000000D03*
X132000000Y-104000000D03*
X140050000Y-48750000D03*
X138200000Y-54800000D03*
X138200000Y-63750000D03*
X138100000Y-71850000D03*
X154000000Y-75500000D03*
X152750000Y-71750000D03*
X140500000Y-71750000D03*
X140500000Y-64500000D03*
X140500000Y-61250000D03*
X140500000Y-56500000D03*
X169100000Y-85100000D03*
X167600000Y-85100000D03*
X162800000Y-80400000D03*
X161700000Y-79300000D03*
X109500000Y-61000000D03*
X106500000Y-61000000D03*
X114000000Y-64250000D03*
X118500000Y-68750000D03*
X125750000Y-76000000D03*
X104750000Y-56750000D03*
X108750000Y-60250000D03*
X163250000Y-73250000D03*
X164250000Y-71750000D03*
X156300000Y-75600000D03*
X168250000Y-72250000D03*
X169500000Y-68750000D03*
X183550000Y-69700000D03*
X180250000Y-69550000D03*
X160450000Y-49750000D03*
X166150000Y-58250000D03*
X172450000Y-67000000D03*
X174600000Y-68250000D03*
X184250000Y-72750000D03*
X182000000Y-75000000D03*
X119250000Y-117500000D03*
X125500000Y-108750000D03*
X138000000Y-85500000D03*
X138000000Y-89750000D03*
X152000000Y-77250000D03*
X156000000Y-76500000D03*
X125500000Y-92000000D03*
X119500000Y-80500000D03*
X138000000Y-112250000D03*
X138000000Y-113750000D03*
X169250000Y-118250000D03*
X167250000Y-118250000D03*
X160750000Y-114500000D03*
X154750000Y-116000000D03*
X146500000Y-116000000D03*
X144000000Y-116000000D03*
X136250000Y-112250000D03*
X133500000Y-113250000D03*
X169000000Y-116000000D03*
X167250000Y-116000000D03*
X160250000Y-109250000D03*
X157750000Y-109250000D03*
X145750000Y-109000000D03*
X143750000Y-109000000D03*
D23*
X132800000Y-45800000D02*
X132800000Y-45850000D01*
X132750000Y-45750000D02*
X132800000Y-45800000D01*
D24*
X146685000Y-122555000D02*
X146685000Y-117815000D01*
X149250000Y-96500000D02*
X149250000Y-94000000D01*
X149250000Y-110000000D02*
X149250000Y-103250000D01*
X146685000Y-117815000D02*
X149250000Y-115250000D01*
X158000000Y-81250000D02*
X160750000Y-81250000D01*
X145500000Y-58300000D02*
X144800000Y-59000000D01*
X144800000Y-59000000D02*
X144800000Y-59750000D01*
X147150000Y-62000000D02*
X156850000Y-71700000D01*
X156850000Y-71700000D02*
X156850000Y-71850000D01*
X159300000Y-78200000D02*
X159300000Y-74380000D01*
X157400000Y-80100000D02*
X159300000Y-78200000D01*
X157100000Y-79800000D02*
X157400000Y-80100000D01*
X134900000Y-76200000D02*
X136700000Y-76200000D01*
X134800000Y-76300000D02*
X134900000Y-76200000D01*
X124750000Y-71750000D02*
X126000000Y-71750000D01*
X120000000Y-67000000D02*
X124750000Y-71750000D01*
X117250000Y-62000000D02*
X117250000Y-64250000D01*
X159300000Y-74380000D02*
X159385000Y-74295000D01*
X147701000Y-74295000D02*
X147701000Y-81621000D01*
X147701000Y-81621000D02*
X149080000Y-83000000D01*
X145161000Y-74295000D02*
X145161000Y-81621000D01*
X145161000Y-81621000D02*
X146540000Y-83000000D01*
X142621000Y-74295000D02*
X142621000Y-81621000D01*
X142621000Y-81621000D02*
X144000000Y-83000000D01*
X166300000Y-83000000D02*
X169200000Y-83000000D01*
X165400000Y-83900000D02*
X165300000Y-83900000D01*
X166300000Y-83000000D02*
X165400000Y-83900000D01*
X163500000Y-97250000D02*
X161250000Y-99500000D01*
X134250000Y-71750000D02*
X135250000Y-72750000D01*
X161250000Y-72500000D02*
X161000000Y-72750000D01*
X161000000Y-72750000D02*
X159250000Y-72750000D01*
X137500000Y-72750000D02*
X135250000Y-72750000D01*
X134250000Y-71750000D02*
X134250000Y-63500000D01*
X120750000Y-63500000D02*
X128250000Y-63500000D01*
X109000000Y-107000000D02*
X117500000Y-115500000D01*
X108000000Y-107500000D02*
X117000000Y-116500000D01*
X108000000Y-107000000D02*
X108000000Y-107500000D01*
X109000000Y-106000000D02*
X108000000Y-107000000D01*
D25*
X158500000Y-71800000D02*
X158500000Y-69000000D01*
X157400000Y-72900000D02*
X158500000Y-71800000D01*
X157400000Y-77575002D02*
X157400000Y-72900000D01*
X156900000Y-78075002D02*
X157400000Y-77575002D01*
D24*
X165200000Y-69550000D02*
X162000000Y-69550000D01*
X165400000Y-69750000D02*
X165200000Y-69550000D01*
X167500000Y-59500000D02*
X167500000Y-58250000D01*
X167350000Y-59650000D02*
X167500000Y-59500000D01*
X147250000Y-50250000D02*
X158250000Y-50250000D01*
X146250000Y-51250000D02*
X147250000Y-50250000D01*
X135000000Y-109000000D02*
X135000000Y-99500000D01*
X127500000Y-116500000D02*
X135000000Y-109000000D01*
X132000000Y-110500000D02*
X132000000Y-104000000D01*
X126500000Y-116000000D02*
X132000000Y-110500000D01*
X140050000Y-48750000D02*
X138200000Y-50600000D01*
X138200000Y-50600000D02*
X138200000Y-54800000D01*
X138200000Y-63750000D02*
X138100000Y-63850000D01*
X138100000Y-63850000D02*
X138100000Y-71850000D01*
X154000000Y-73000000D02*
X154000000Y-75500000D01*
X152750000Y-71750000D02*
X154000000Y-73000000D01*
X140500000Y-64500000D02*
X140500000Y-71750000D01*
X140500000Y-56500000D02*
X140500000Y-61250000D01*
X169000000Y-85100000D02*
X169100000Y-85100000D01*
X167600000Y-85100000D02*
X169000000Y-85100000D01*
X161700000Y-79300000D02*
X162800000Y-80400000D01*
X106500000Y-61000000D02*
X109500000Y-61000000D01*
X110000000Y-60250000D02*
X114000000Y-64250000D01*
X118500000Y-68750000D02*
X125750000Y-76000000D01*
X108750000Y-60250000D02*
X110000000Y-60250000D01*
X104750000Y-56750000D02*
X108250000Y-60250000D01*
X108250000Y-60250000D02*
X108750000Y-60250000D01*
X163250000Y-72750000D02*
X163250000Y-73250000D01*
X164250000Y-71750000D02*
X163250000Y-72750000D01*
X152781000Y-75581000D02*
X152781000Y-74295000D01*
X153700000Y-76500000D02*
X152781000Y-75581000D01*
X154800000Y-76500000D02*
X153700000Y-76500000D01*
X155700000Y-75600000D02*
X154800000Y-76500000D01*
X156300000Y-75600000D02*
X155700000Y-75600000D01*
X168250000Y-70000000D02*
X168250000Y-72250000D01*
X169500000Y-68750000D02*
X168250000Y-70000000D01*
X180400000Y-69700000D02*
X183550000Y-69700000D01*
X180250000Y-69550000D02*
X180400000Y-69700000D01*
X160450000Y-49750000D02*
X166150000Y-55450000D01*
X166150000Y-55450000D02*
X166150000Y-58250000D01*
X172450000Y-67000000D02*
X173700000Y-68250000D01*
X173700000Y-68250000D02*
X174600000Y-68250000D01*
X184250000Y-72750000D02*
X182000000Y-75000000D01*
X152000000Y-77250000D02*
X155250000Y-77250000D01*
X119250000Y-117500000D02*
X125500000Y-111250000D01*
X125500000Y-111250000D02*
X125500000Y-108750000D01*
X138000000Y-89750000D02*
X138000000Y-85500000D01*
X155250000Y-77250000D02*
X156000000Y-76500000D01*
X125500000Y-86500000D02*
X125500000Y-92000000D01*
X119500000Y-80500000D02*
X125500000Y-86500000D01*
X138000000Y-113750000D02*
X138000000Y-112250000D01*
X167250000Y-118250000D02*
X169250000Y-118250000D01*
X156250000Y-114500000D02*
X160750000Y-114500000D01*
X154750000Y-116000000D02*
X156250000Y-114500000D01*
X144000000Y-116000000D02*
X146500000Y-116000000D01*
X134500000Y-112250000D02*
X136250000Y-112250000D01*
X133500000Y-113250000D02*
X134500000Y-112250000D01*
X167250000Y-116000000D02*
X169000000Y-116000000D01*
X157750000Y-109250000D02*
X160250000Y-109250000D01*
X143750000Y-109000000D02*
X145750000Y-109000000D01*
D26*
G36*
X183636390Y-41049408D02*
X185023654Y-41976349D01*
X185950592Y-43363610D01*
X186290000Y-45069931D01*
X186290000Y-121930069D01*
X185950592Y-123636390D01*
X185023654Y-125023651D01*
X183636390Y-125950592D01*
X181930069Y-126290000D01*
X105069931Y-126290000D01*
X103363610Y-125950592D01*
X101976349Y-125023654D01*
X101049408Y-123636390D01*
X100936865Y-123070596D01*
X125031049Y-123070596D01*
X125426573Y-124027838D01*
X126158310Y-124760853D01*
X127114860Y-125158047D01*
X128150596Y-125158951D01*
X129107838Y-124763427D01*
X129840853Y-124031690D01*
X130238047Y-123075140D01*
X130238951Y-122039404D01*
X129843427Y-121082162D01*
X129111690Y-120349147D01*
X128155140Y-119951953D01*
X127119404Y-119951049D01*
X126162162Y-120346573D01*
X125429147Y-121078310D01*
X125031953Y-122034860D01*
X125031049Y-123070596D01*
X100936865Y-123070596D01*
X100710000Y-121930069D01*
X100710000Y-111120000D01*
X103635907Y-111120000D01*
X103748946Y-111688285D01*
X104070853Y-112170054D01*
X104400026Y-112390000D01*
X104070853Y-112609946D01*
X103748946Y-113091715D01*
X103635907Y-113660000D01*
X103748946Y-114228285D01*
X104070853Y-114710054D01*
X104112452Y-114737850D01*
X104064683Y-114746838D01*
X103848559Y-114885910D01*
X103703569Y-115098110D01*
X103652560Y-115350000D01*
X103652560Y-117050000D01*
X103696838Y-117285317D01*
X103835910Y-117501441D01*
X104048110Y-117646431D01*
X104300000Y-117697440D01*
X106000000Y-117697440D01*
X106065225Y-117685167D01*
X118314838Y-117685167D01*
X118456883Y-118028943D01*
X118719673Y-118292192D01*
X119063201Y-118434838D01*
X119435167Y-118435162D01*
X119778943Y-118293117D01*
X120042192Y-118030327D01*
X120184838Y-117686799D01*
X120184879Y-117639923D01*
X121639635Y-116185167D01*
X125564838Y-116185167D01*
X125706883Y-116528943D01*
X125969673Y-116792192D01*
X126313201Y-116934838D01*
X126668127Y-116935147D01*
X126706883Y-117028943D01*
X126969673Y-117292192D01*
X127313201Y-117434838D01*
X127685167Y-117435162D01*
X128028943Y-117293117D01*
X128292192Y-117030327D01*
X128434838Y-116686799D01*
X128434879Y-116639923D01*
X128889635Y-116185167D01*
X143064838Y-116185167D01*
X143206883Y-116528943D01*
X143469673Y-116792192D01*
X143813201Y-116934838D01*
X144185167Y-116935162D01*
X144528943Y-116793117D01*
X144562118Y-116760000D01*
X145937537Y-116760000D01*
X145969673Y-116792192D01*
X146313201Y-116934838D01*
X146490206Y-116934992D01*
X146147599Y-117277599D01*
X145982852Y-117524161D01*
X145925000Y-117815000D01*
X145925000Y-121262253D01*
X145844914Y-121295344D01*
X145426812Y-121712717D01*
X145200258Y-122258319D01*
X145199743Y-122849089D01*
X145425344Y-123395086D01*
X145842717Y-123813188D01*
X146388319Y-124039742D01*
X146979089Y-124040257D01*
X147525086Y-123814656D01*
X147943188Y-123397283D01*
X147954748Y-123369443D01*
X147965344Y-123395086D01*
X148382717Y-123813188D01*
X148928319Y-124039742D01*
X149519089Y-124040257D01*
X150065086Y-123814656D01*
X150483188Y-123397283D01*
X150494748Y-123369443D01*
X150505344Y-123395086D01*
X150922717Y-123813188D01*
X151468319Y-124039742D01*
X152059089Y-124040257D01*
X152605086Y-123814656D01*
X152821160Y-123598958D01*
X153440647Y-123598958D01*
X153520920Y-123850259D01*
X154076279Y-124051718D01*
X154666458Y-124025315D01*
X155089080Y-123850259D01*
X155169353Y-123598958D01*
X155980647Y-123598958D01*
X156060920Y-123850259D01*
X156616279Y-124051718D01*
X157206458Y-124025315D01*
X157629080Y-123850259D01*
X157709353Y-123598958D01*
X156845000Y-122734605D01*
X155980647Y-123598958D01*
X155169353Y-123598958D01*
X154305000Y-122734605D01*
X153440647Y-123598958D01*
X152821160Y-123598958D01*
X153023188Y-123397283D01*
X153042951Y-123349688D01*
X153261042Y-123419353D01*
X154125395Y-122555000D01*
X154484605Y-122555000D01*
X155348958Y-123419353D01*
X155575000Y-123347148D01*
X155801042Y-123419353D01*
X156665395Y-122555000D01*
X157024605Y-122555000D01*
X157888958Y-123419353D01*
X158106640Y-123349819D01*
X158125344Y-123395086D01*
X158542717Y-123813188D01*
X159088319Y-124039742D01*
X159679089Y-124040257D01*
X160225086Y-123814656D01*
X160643188Y-123397283D01*
X160869742Y-122851681D01*
X160869744Y-122849089D01*
X162979743Y-122849089D01*
X163205344Y-123395086D01*
X163622717Y-123813188D01*
X164168319Y-124039742D01*
X164759089Y-124040257D01*
X165305086Y-123814656D01*
X165723188Y-123397283D01*
X165734748Y-123369443D01*
X165745344Y-123395086D01*
X166162717Y-123813188D01*
X166708319Y-124039742D01*
X167299089Y-124040257D01*
X167845086Y-123814656D01*
X168263188Y-123397283D01*
X168274748Y-123369443D01*
X168285344Y-123395086D01*
X168702717Y-123813188D01*
X169248319Y-124039742D01*
X169839089Y-124040257D01*
X170385086Y-123814656D01*
X170803188Y-123397283D01*
X170814748Y-123369443D01*
X170825344Y-123395086D01*
X171242717Y-123813188D01*
X171788319Y-124039742D01*
X172379089Y-124040257D01*
X172925086Y-123814656D01*
X173343188Y-123397283D01*
X173354748Y-123369443D01*
X173365344Y-123395086D01*
X173782717Y-123813188D01*
X174328319Y-124039742D01*
X174919089Y-124040257D01*
X175465086Y-123814656D01*
X175883188Y-123397283D01*
X175894748Y-123369443D01*
X175905344Y-123395086D01*
X176322717Y-123813188D01*
X176868319Y-124039742D01*
X177459089Y-124040257D01*
X178005086Y-123814656D01*
X178423188Y-123397283D01*
X178649742Y-122851681D01*
X178650257Y-122260911D01*
X178424656Y-121714914D01*
X178007283Y-121296812D01*
X177461681Y-121070258D01*
X176870911Y-121069743D01*
X176324914Y-121295344D01*
X175906812Y-121712717D01*
X175895252Y-121740557D01*
X175884656Y-121714914D01*
X175467283Y-121296812D01*
X174921681Y-121070258D01*
X174330911Y-121069743D01*
X173784914Y-121295344D01*
X173366812Y-121712717D01*
X173355252Y-121740557D01*
X173344656Y-121714914D01*
X172927283Y-121296812D01*
X172381681Y-121070258D01*
X171790911Y-121069743D01*
X171244914Y-121295344D01*
X170826812Y-121712717D01*
X170815252Y-121740557D01*
X170804656Y-121714914D01*
X170387283Y-121296812D01*
X169841681Y-121070258D01*
X169250911Y-121069743D01*
X168704914Y-121295344D01*
X168286812Y-121712717D01*
X168275252Y-121740557D01*
X168264656Y-121714914D01*
X167847283Y-121296812D01*
X167301681Y-121070258D01*
X166710911Y-121069743D01*
X166164914Y-121295344D01*
X165746812Y-121712717D01*
X165735252Y-121740557D01*
X165724656Y-121714914D01*
X165307283Y-121296812D01*
X164761681Y-121070258D01*
X164170911Y-121069743D01*
X163624914Y-121295344D01*
X163206812Y-121712717D01*
X162980258Y-122258319D01*
X162979743Y-122849089D01*
X160869744Y-122849089D01*
X160870257Y-122260911D01*
X160644656Y-121714914D01*
X160227283Y-121296812D01*
X159681681Y-121070258D01*
X159090911Y-121069743D01*
X158544914Y-121295344D01*
X158126812Y-121712717D01*
X158107049Y-121760312D01*
X157888958Y-121690647D01*
X157024605Y-122555000D01*
X156665395Y-122555000D01*
X155801042Y-121690647D01*
X155575000Y-121762852D01*
X155348958Y-121690647D01*
X154484605Y-122555000D01*
X154125395Y-122555000D01*
X153261042Y-121690647D01*
X153043360Y-121760181D01*
X153024656Y-121714914D01*
X152821140Y-121511042D01*
X153440647Y-121511042D01*
X154305000Y-122375395D01*
X155169353Y-121511042D01*
X155980647Y-121511042D01*
X156845000Y-122375395D01*
X157709353Y-121511042D01*
X157629080Y-121259741D01*
X157073721Y-121058282D01*
X156483542Y-121084685D01*
X156060920Y-121259741D01*
X155980647Y-121511042D01*
X155169353Y-121511042D01*
X155089080Y-121259741D01*
X154533721Y-121058282D01*
X153943542Y-121084685D01*
X153520920Y-121259741D01*
X153440647Y-121511042D01*
X152821140Y-121511042D01*
X152607283Y-121296812D01*
X152061681Y-121070258D01*
X151470911Y-121069743D01*
X150924914Y-121295344D01*
X150506812Y-121712717D01*
X150495252Y-121740557D01*
X150484656Y-121714914D01*
X150067283Y-121296812D01*
X149521681Y-121070258D01*
X148930911Y-121069743D01*
X148384914Y-121295344D01*
X147966812Y-121712717D01*
X147955252Y-121740557D01*
X147944656Y-121714914D01*
X147527283Y-121296812D01*
X147445000Y-121262645D01*
X147445000Y-118435167D01*
X166314838Y-118435167D01*
X166456883Y-118778943D01*
X166719673Y-119042192D01*
X167063201Y-119184838D01*
X167435167Y-119185162D01*
X167778943Y-119043117D01*
X167812118Y-119010000D01*
X168687537Y-119010000D01*
X168719673Y-119042192D01*
X169063201Y-119184838D01*
X169435167Y-119185162D01*
X169778943Y-119043117D01*
X170042192Y-118780327D01*
X170184838Y-118436799D01*
X170185162Y-118064833D01*
X170154488Y-117990596D01*
X177101049Y-117990596D01*
X177496573Y-118947838D01*
X178228310Y-119680853D01*
X179184860Y-120078047D01*
X180220596Y-120078951D01*
X181177838Y-119683427D01*
X181910853Y-118951690D01*
X182308047Y-117995140D01*
X182308951Y-116959404D01*
X181913427Y-116002162D01*
X181181690Y-115269147D01*
X180225140Y-114871953D01*
X179189404Y-114871049D01*
X178232162Y-115266573D01*
X177499147Y-115998310D01*
X177101953Y-116954860D01*
X177101049Y-117990596D01*
X170154488Y-117990596D01*
X170043117Y-117721057D01*
X169780327Y-117457808D01*
X169436799Y-117315162D01*
X169064833Y-117314838D01*
X168721057Y-117456883D01*
X168687882Y-117490000D01*
X167812463Y-117490000D01*
X167780327Y-117457808D01*
X167436799Y-117315162D01*
X167064833Y-117314838D01*
X166721057Y-117456883D01*
X166457808Y-117719673D01*
X166315162Y-118063201D01*
X166314838Y-118435167D01*
X147445000Y-118435167D01*
X147445000Y-118129802D01*
X149389635Y-116185167D01*
X153814838Y-116185167D01*
X153956883Y-116528943D01*
X154219673Y-116792192D01*
X154563201Y-116934838D01*
X154935167Y-116935162D01*
X155278943Y-116793117D01*
X155542192Y-116530327D01*
X155562486Y-116481454D01*
X155580222Y-116853454D01*
X155746136Y-117254005D01*
X155992255Y-117328139D01*
X156820395Y-116500000D01*
X156806252Y-116485858D01*
X156985858Y-116306252D01*
X157000000Y-116320395D01*
X157014142Y-116306252D01*
X157193748Y-116485858D01*
X157179605Y-116500000D01*
X157193748Y-116514143D01*
X157014142Y-116693748D01*
X157000000Y-116679605D01*
X156171861Y-117507745D01*
X156245995Y-117753864D01*
X156783223Y-117946965D01*
X157353454Y-117919778D01*
X157744947Y-117757616D01*
X157948110Y-117896431D01*
X158200000Y-117947440D01*
X159800000Y-117947440D01*
X160035317Y-117903162D01*
X160251441Y-117764090D01*
X160396431Y-117551890D01*
X160447440Y-117300000D01*
X160447440Y-116185167D01*
X166314838Y-116185167D01*
X166456883Y-116528943D01*
X166719673Y-116792192D01*
X167063201Y-116934838D01*
X167435167Y-116935162D01*
X167778943Y-116793117D01*
X167812118Y-116760000D01*
X168437537Y-116760000D01*
X168469673Y-116792192D01*
X168813201Y-116934838D01*
X169185167Y-116935162D01*
X169528943Y-116793117D01*
X169792192Y-116530327D01*
X169934838Y-116186799D01*
X169935162Y-115814833D01*
X169793117Y-115471057D01*
X169530327Y-115207808D01*
X169186799Y-115065162D01*
X168814833Y-115064838D01*
X168471057Y-115206883D01*
X168437882Y-115240000D01*
X167812463Y-115240000D01*
X167780327Y-115207808D01*
X167436799Y-115065162D01*
X167064833Y-115064838D01*
X166721057Y-115206883D01*
X166457808Y-115469673D01*
X166315162Y-115813201D01*
X166314838Y-116185167D01*
X160447440Y-116185167D01*
X160447440Y-115700000D01*
X160403162Y-115464683D01*
X160318600Y-115333270D01*
X160563201Y-115434838D01*
X160935167Y-115435162D01*
X161278943Y-115293117D01*
X161542192Y-115030327D01*
X161684838Y-114686799D01*
X161685162Y-114314833D01*
X161543117Y-113971057D01*
X161280327Y-113707808D01*
X160936799Y-113565162D01*
X160564833Y-113564838D01*
X160221057Y-113706883D01*
X160187882Y-113740000D01*
X156250000Y-113740000D01*
X155959160Y-113797852D01*
X155712599Y-113962599D01*
X154610320Y-115064878D01*
X154564833Y-115064838D01*
X154221057Y-115206883D01*
X153957808Y-115469673D01*
X153815162Y-115813201D01*
X153814838Y-116185167D01*
X149389635Y-116185167D01*
X149389680Y-116185122D01*
X149435167Y-116185162D01*
X149778943Y-116043117D01*
X150042192Y-115780327D01*
X150184838Y-115436799D01*
X150185162Y-115064833D01*
X150043117Y-114721057D01*
X149780327Y-114457808D01*
X149436799Y-114315162D01*
X149064833Y-114314838D01*
X148721057Y-114456883D01*
X148457808Y-114719673D01*
X148315162Y-115063201D01*
X148315121Y-115110077D01*
X147435009Y-115990189D01*
X147435162Y-115814833D01*
X147293117Y-115471057D01*
X147030327Y-115207808D01*
X146686799Y-115065162D01*
X146314833Y-115064838D01*
X145971057Y-115206883D01*
X145937882Y-115240000D01*
X144562463Y-115240000D01*
X144530327Y-115207808D01*
X144186799Y-115065162D01*
X143814833Y-115064838D01*
X143471057Y-115206883D01*
X143207808Y-115469673D01*
X143065162Y-115813201D01*
X143064838Y-116185167D01*
X128889635Y-116185167D01*
X131639635Y-113435167D01*
X132564838Y-113435167D01*
X132706883Y-113778943D01*
X132969673Y-114042192D01*
X133313201Y-114184838D01*
X133685167Y-114185162D01*
X134028943Y-114043117D01*
X134292192Y-113780327D01*
X134434838Y-113436799D01*
X134434879Y-113389923D01*
X134814802Y-113010000D01*
X135687537Y-113010000D01*
X135719673Y-113042192D01*
X136063201Y-113184838D01*
X136435167Y-113185162D01*
X136778943Y-113043117D01*
X137042192Y-112780327D01*
X137125028Y-112580838D01*
X137206883Y-112778943D01*
X137240000Y-112812118D01*
X137240000Y-113187537D01*
X137207808Y-113219673D01*
X137065162Y-113563201D01*
X137064838Y-113935167D01*
X137206883Y-114278943D01*
X137469673Y-114542192D01*
X137813201Y-114684838D01*
X138185167Y-114685162D01*
X138528943Y-114543117D01*
X138792192Y-114280327D01*
X138934838Y-113936799D01*
X138935162Y-113564833D01*
X138793117Y-113221057D01*
X138760000Y-113187882D01*
X138760000Y-112812463D01*
X138792192Y-112780327D01*
X138934838Y-112436799D01*
X138935162Y-112064833D01*
X138793117Y-111721057D01*
X138530327Y-111457808D01*
X138186799Y-111315162D01*
X137814833Y-111314838D01*
X137471057Y-111456883D01*
X137207808Y-111719673D01*
X137124972Y-111919162D01*
X137043117Y-111721057D01*
X136780327Y-111457808D01*
X136436799Y-111315162D01*
X136064833Y-111314838D01*
X135721057Y-111456883D01*
X135687882Y-111490000D01*
X134500000Y-111490000D01*
X134209161Y-111547852D01*
X133962599Y-111712599D01*
X133360320Y-112314878D01*
X133314833Y-112314838D01*
X132971057Y-112456883D01*
X132707808Y-112719673D01*
X132565162Y-113063201D01*
X132564838Y-113435167D01*
X131639635Y-113435167D01*
X135537401Y-109537401D01*
X135702148Y-109290839D01*
X135723167Y-109185167D01*
X142814838Y-109185167D01*
X142956883Y-109528943D01*
X143219673Y-109792192D01*
X143563201Y-109934838D01*
X143935167Y-109935162D01*
X144278943Y-109793117D01*
X144312118Y-109760000D01*
X145187537Y-109760000D01*
X145219673Y-109792192D01*
X145563201Y-109934838D01*
X145935167Y-109935162D01*
X146278943Y-109793117D01*
X146542192Y-109530327D01*
X146684838Y-109186799D01*
X146685162Y-108814833D01*
X146543117Y-108471057D01*
X146280327Y-108207808D01*
X145936799Y-108065162D01*
X145564833Y-108064838D01*
X145221057Y-108206883D01*
X145187882Y-108240000D01*
X144312463Y-108240000D01*
X144280327Y-108207808D01*
X143936799Y-108065162D01*
X143564833Y-108064838D01*
X143221057Y-108206883D01*
X142957808Y-108469673D01*
X142815162Y-108813201D01*
X142814838Y-109185167D01*
X135723167Y-109185167D01*
X135760000Y-109000000D01*
X135760000Y-103435167D01*
X148314838Y-103435167D01*
X148456883Y-103778943D01*
X148490000Y-103812118D01*
X148490000Y-109437537D01*
X148457808Y-109469673D01*
X148315162Y-109813201D01*
X148314838Y-110185167D01*
X148456883Y-110528943D01*
X148719673Y-110792192D01*
X149063201Y-110934838D01*
X149435167Y-110935162D01*
X149778943Y-110793117D01*
X150042192Y-110530327D01*
X150184838Y-110186799D01*
X150185162Y-109814833D01*
X150043117Y-109471057D01*
X150010000Y-109437882D01*
X150010000Y-109435167D01*
X156814838Y-109435167D01*
X156956883Y-109778943D01*
X157219673Y-110042192D01*
X157563201Y-110184838D01*
X157935167Y-110185162D01*
X158278943Y-110043117D01*
X158312118Y-110010000D01*
X159687537Y-110010000D01*
X159719673Y-110042192D01*
X160063201Y-110184838D01*
X160435167Y-110185162D01*
X160778943Y-110043117D01*
X161042192Y-109780327D01*
X161184838Y-109436799D01*
X161185162Y-109064833D01*
X161043117Y-108721057D01*
X160780327Y-108457808D01*
X160436799Y-108315162D01*
X160064833Y-108314838D01*
X159721057Y-108456883D01*
X159687882Y-108490000D01*
X158312463Y-108490000D01*
X158280327Y-108457808D01*
X157936799Y-108315162D01*
X157564833Y-108314838D01*
X157221057Y-108456883D01*
X156957808Y-108719673D01*
X156815162Y-109063201D01*
X156814838Y-109435167D01*
X150010000Y-109435167D01*
X150010000Y-103812463D01*
X150042192Y-103780327D01*
X150184838Y-103436799D01*
X150185162Y-103064833D01*
X150043117Y-102721057D01*
X149780327Y-102457808D01*
X149436799Y-102315162D01*
X149064833Y-102314838D01*
X148721057Y-102456883D01*
X148457808Y-102719673D01*
X148315162Y-103063201D01*
X148314838Y-103435167D01*
X135760000Y-103435167D01*
X135760000Y-100900000D01*
X153852560Y-100900000D01*
X153852560Y-102500000D01*
X153896838Y-102735317D01*
X154035910Y-102951441D01*
X154248110Y-103096431D01*
X154500000Y-103147440D01*
X156100000Y-103147440D01*
X156335317Y-103103162D01*
X156551441Y-102964090D01*
X156696431Y-102751890D01*
X156747440Y-102500000D01*
X156747440Y-100900000D01*
X156703162Y-100664683D01*
X156564090Y-100448559D01*
X156351890Y-100303569D01*
X156100000Y-100252560D01*
X154500000Y-100252560D01*
X154264683Y-100296838D01*
X154048559Y-100435910D01*
X153903569Y-100648110D01*
X153852560Y-100900000D01*
X135760000Y-100900000D01*
X135760000Y-100062463D01*
X135792192Y-100030327D01*
X135934838Y-99686799D01*
X135934839Y-99685167D01*
X160314838Y-99685167D01*
X160456883Y-100028943D01*
X160719673Y-100292192D01*
X161063201Y-100434838D01*
X161435167Y-100435162D01*
X161778943Y-100293117D01*
X162042192Y-100030327D01*
X162184838Y-99686799D01*
X162184879Y-99639923D01*
X163639680Y-98185122D01*
X163685167Y-98185162D01*
X164028943Y-98043117D01*
X164292192Y-97780327D01*
X164434838Y-97436799D01*
X164435162Y-97064833D01*
X164293117Y-96721057D01*
X164030327Y-96457808D01*
X163686799Y-96315162D01*
X163314833Y-96314838D01*
X162971057Y-96456883D01*
X162707808Y-96719673D01*
X162565162Y-97063201D01*
X162565121Y-97110077D01*
X161110320Y-98564878D01*
X161064833Y-98564838D01*
X160721057Y-98706883D01*
X160457808Y-98969673D01*
X160315162Y-99313201D01*
X160314838Y-99685167D01*
X135934839Y-99685167D01*
X135935162Y-99314833D01*
X135793117Y-98971057D01*
X135530327Y-98707808D01*
X135186799Y-98565162D01*
X134814833Y-98564838D01*
X134471057Y-98706883D01*
X134207808Y-98969673D01*
X134065162Y-99313201D01*
X134064838Y-99685167D01*
X134206883Y-100028943D01*
X134240000Y-100062118D01*
X134240000Y-108685198D01*
X132760000Y-110165198D01*
X132760000Y-104562463D01*
X132792192Y-104530327D01*
X132934838Y-104186799D01*
X132935162Y-103814833D01*
X132793117Y-103471057D01*
X132530327Y-103207808D01*
X132186799Y-103065162D01*
X131814833Y-103064838D01*
X131471057Y-103206883D01*
X131207808Y-103469673D01*
X131065162Y-103813201D01*
X131064838Y-104185167D01*
X131206883Y-104528943D01*
X131240000Y-104562118D01*
X131240000Y-110185198D01*
X126360320Y-115064878D01*
X126314833Y-115064838D01*
X125971057Y-115206883D01*
X125707808Y-115469673D01*
X125565162Y-115813201D01*
X125564838Y-116185167D01*
X121639635Y-116185167D01*
X126037401Y-111787401D01*
X126202148Y-111540839D01*
X126260000Y-111250000D01*
X126260000Y-109312463D01*
X126292192Y-109280327D01*
X126434838Y-108936799D01*
X126435162Y-108564833D01*
X126293117Y-108221057D01*
X126030327Y-107957808D01*
X125686799Y-107815162D01*
X125314833Y-107814838D01*
X124971057Y-107956883D01*
X124707808Y-108219673D01*
X124565162Y-108563201D01*
X124564838Y-108935167D01*
X124706883Y-109278943D01*
X124740000Y-109312118D01*
X124740000Y-110935198D01*
X119110320Y-116564878D01*
X119064833Y-116564838D01*
X118721057Y-116706883D01*
X118457808Y-116969673D01*
X118315162Y-117313201D01*
X118314838Y-117685167D01*
X106065225Y-117685167D01*
X106235317Y-117653162D01*
X106451441Y-117514090D01*
X106596431Y-117301890D01*
X106647440Y-117050000D01*
X106647440Y-115350000D01*
X106603162Y-115114683D01*
X106464090Y-114898559D01*
X106251890Y-114753569D01*
X106184459Y-114739914D01*
X106229147Y-114710054D01*
X106551054Y-114228285D01*
X106664093Y-113660000D01*
X106551054Y-113091715D01*
X106229147Y-112609946D01*
X105899974Y-112390000D01*
X106229147Y-112170054D01*
X106551054Y-111688285D01*
X106664093Y-111120000D01*
X106551054Y-110551715D01*
X106229147Y-110069946D01*
X105747378Y-109748039D01*
X105179093Y-109635000D01*
X105120907Y-109635000D01*
X104552622Y-109748039D01*
X104070853Y-110069946D01*
X103748946Y-110551715D01*
X103635907Y-111120000D01*
X100710000Y-111120000D01*
X100710000Y-107000000D01*
X107240000Y-107000000D01*
X107240000Y-107500000D01*
X107297852Y-107790839D01*
X107462599Y-108037401D01*
X116064878Y-116639680D01*
X116064838Y-116685167D01*
X116206883Y-117028943D01*
X116469673Y-117292192D01*
X116813201Y-117434838D01*
X117185167Y-117435162D01*
X117528943Y-117293117D01*
X117792192Y-117030327D01*
X117934838Y-116686799D01*
X117935147Y-116331873D01*
X118028943Y-116293117D01*
X118292192Y-116030327D01*
X118434838Y-115686799D01*
X118435162Y-115314833D01*
X118293117Y-114971057D01*
X118030327Y-114707808D01*
X117686799Y-114565162D01*
X117639923Y-114565121D01*
X109935122Y-106860320D01*
X109935162Y-106814833D01*
X109922102Y-106783223D01*
X119553035Y-106783223D01*
X119580222Y-107353454D01*
X119746136Y-107754005D01*
X119992255Y-107828139D01*
X120820395Y-107000000D01*
X119992255Y-106171861D01*
X119746136Y-106245995D01*
X119553035Y-106783223D01*
X109922102Y-106783223D01*
X109804931Y-106499649D01*
X109934838Y-106186799D01*
X109935007Y-105992255D01*
X120171861Y-105992255D01*
X121000000Y-106820395D01*
X121014142Y-106806252D01*
X121193748Y-106985858D01*
X121179605Y-107000000D01*
X121193748Y-107014143D01*
X121014142Y-107193748D01*
X121000000Y-107179605D01*
X120171861Y-108007745D01*
X120245995Y-108253864D01*
X120783223Y-108446965D01*
X121353454Y-108419778D01*
X121744947Y-108257616D01*
X121948110Y-108396431D01*
X122200000Y-108447440D01*
X123800000Y-108447440D01*
X124035317Y-108403162D01*
X124251441Y-108264090D01*
X124396431Y-108051890D01*
X124447440Y-107800000D01*
X124447440Y-106200000D01*
X124403162Y-105964683D01*
X124264090Y-105748559D01*
X124051890Y-105603569D01*
X123800000Y-105552560D01*
X122200000Y-105552560D01*
X121964683Y-105596838D01*
X121748559Y-105735910D01*
X121744023Y-105742548D01*
X121216777Y-105553035D01*
X120646546Y-105580222D01*
X120245995Y-105746136D01*
X120171861Y-105992255D01*
X109935007Y-105992255D01*
X109935162Y-105814833D01*
X109793117Y-105471057D01*
X109530327Y-105207808D01*
X109186799Y-105065162D01*
X108814833Y-105064838D01*
X108471057Y-105206883D01*
X108207808Y-105469673D01*
X108065162Y-105813201D01*
X108065121Y-105860077D01*
X107462599Y-106462599D01*
X107297852Y-106709161D01*
X107240000Y-107000000D01*
X100710000Y-107000000D01*
X100710000Y-94185167D01*
X148314838Y-94185167D01*
X148456883Y-94528943D01*
X148490000Y-94562118D01*
X148490000Y-95937537D01*
X148457808Y-95969673D01*
X148315162Y-96313201D01*
X148314838Y-96685167D01*
X148456883Y-97028943D01*
X148719673Y-97292192D01*
X149063201Y-97434838D01*
X149435167Y-97435162D01*
X149778943Y-97293117D01*
X150042192Y-97030327D01*
X150184838Y-96686799D01*
X150185162Y-96314833D01*
X150043117Y-95971057D01*
X150010000Y-95937882D01*
X150010000Y-94562463D01*
X150042192Y-94530327D01*
X150184838Y-94186799D01*
X150185162Y-93814833D01*
X150043117Y-93471057D01*
X149780327Y-93207808D01*
X149436799Y-93065162D01*
X149064833Y-93064838D01*
X148721057Y-93206883D01*
X148457808Y-93469673D01*
X148315162Y-93813201D01*
X148314838Y-94185167D01*
X100710000Y-94185167D01*
X100710000Y-91022815D01*
X103664630Y-91022815D01*
X103988980Y-91807800D01*
X104589041Y-92408909D01*
X105373459Y-92734628D01*
X106222815Y-92735370D01*
X107007800Y-92411020D01*
X107608909Y-91810959D01*
X107934628Y-91026541D01*
X107935370Y-90177185D01*
X107611020Y-89392200D01*
X107010959Y-88791091D01*
X106226541Y-88465372D01*
X105377185Y-88464630D01*
X104592200Y-88788980D01*
X103991091Y-89389041D01*
X103665372Y-90173459D01*
X103664630Y-91022815D01*
X100710000Y-91022815D01*
X100710000Y-85942815D01*
X103664630Y-85942815D01*
X103988980Y-86727800D01*
X104589041Y-87328909D01*
X105373459Y-87654628D01*
X106222815Y-87655370D01*
X107007800Y-87331020D01*
X107608909Y-86730959D01*
X107934628Y-85946541D01*
X107935370Y-85097185D01*
X107611020Y-84312200D01*
X107010959Y-83711091D01*
X106226541Y-83385372D01*
X105377185Y-83384630D01*
X104592200Y-83708980D01*
X103991091Y-84309041D01*
X103665372Y-85093459D01*
X103664630Y-85942815D01*
X100710000Y-85942815D01*
X100710000Y-80685167D01*
X118564838Y-80685167D01*
X118706883Y-81028943D01*
X118969673Y-81292192D01*
X119313201Y-81434838D01*
X119360077Y-81434879D01*
X124740000Y-86814802D01*
X124740000Y-91437537D01*
X124707808Y-91469673D01*
X124565162Y-91813201D01*
X124564838Y-92185167D01*
X124706883Y-92528943D01*
X124969673Y-92792192D01*
X125313201Y-92934838D01*
X125685167Y-92935162D01*
X126028943Y-92793117D01*
X126292192Y-92530327D01*
X126434838Y-92186799D01*
X126435162Y-91814833D01*
X126309988Y-91511887D01*
X153865000Y-91511887D01*
X153865000Y-91568113D01*
X153974233Y-92117264D01*
X154285302Y-92582811D01*
X154750849Y-92893880D01*
X155300000Y-93003113D01*
X155849151Y-92893880D01*
X156314698Y-92582811D01*
X156625767Y-92117264D01*
X156637776Y-92056890D01*
X172358524Y-92056890D01*
X172528355Y-92466924D01*
X172918642Y-92895183D01*
X173443108Y-93141486D01*
X173673000Y-93020819D01*
X173673000Y-91827000D01*
X173927000Y-91827000D01*
X173927000Y-93020819D01*
X174156892Y-93141486D01*
X174681358Y-92895183D01*
X175071645Y-92466924D01*
X175241476Y-92056890D01*
X175120155Y-91827000D01*
X173927000Y-91827000D01*
X173673000Y-91827000D01*
X172479845Y-91827000D01*
X172358524Y-92056890D01*
X156637776Y-92056890D01*
X156735000Y-91568113D01*
X156735000Y-91511887D01*
X156625767Y-90962736D01*
X156314698Y-90497189D01*
X155849151Y-90186120D01*
X155300000Y-90076887D01*
X154750849Y-90186120D01*
X154285302Y-90497189D01*
X153974233Y-90962736D01*
X153865000Y-91511887D01*
X126309988Y-91511887D01*
X126293117Y-91471057D01*
X126260000Y-91437882D01*
X126260000Y-86500000D01*
X126202148Y-86209161D01*
X126202148Y-86209160D01*
X126037401Y-85962599D01*
X125759969Y-85685167D01*
X137064838Y-85685167D01*
X137206883Y-86028943D01*
X137240000Y-86062118D01*
X137240000Y-89187537D01*
X137207808Y-89219673D01*
X137065162Y-89563201D01*
X137064838Y-89935167D01*
X137206883Y-90278943D01*
X137469673Y-90542192D01*
X137813201Y-90684838D01*
X138185167Y-90685162D01*
X138528943Y-90543117D01*
X138792192Y-90280327D01*
X138934838Y-89936799D01*
X138935162Y-89564833D01*
X138793117Y-89221057D01*
X138760000Y-89187882D01*
X138760000Y-86062463D01*
X138792192Y-86030327D01*
X138934838Y-85686799D01*
X138935162Y-85314833D01*
X138922905Y-85285167D01*
X166664838Y-85285167D01*
X166806883Y-85628943D01*
X167069673Y-85892192D01*
X167413201Y-86034838D01*
X167785167Y-86035162D01*
X168128943Y-85893117D01*
X168162118Y-85860000D01*
X168537537Y-85860000D01*
X168569673Y-85892192D01*
X168913201Y-86034838D01*
X169285167Y-86035162D01*
X169628943Y-85893117D01*
X169892192Y-85630327D01*
X170034838Y-85286799D01*
X170035162Y-84914833D01*
X169893117Y-84571057D01*
X169630327Y-84307808D01*
X169286799Y-84165162D01*
X168914833Y-84164838D01*
X168571057Y-84306883D01*
X168537882Y-84340000D01*
X168162463Y-84340000D01*
X168130327Y-84307808D01*
X167786799Y-84165162D01*
X167414833Y-84164838D01*
X167071057Y-84306883D01*
X166807808Y-84569673D01*
X166665162Y-84913201D01*
X166664838Y-85285167D01*
X138922905Y-85285167D01*
X138793117Y-84971057D01*
X138530327Y-84707808D01*
X138186799Y-84565162D01*
X137814833Y-84564838D01*
X137471057Y-84706883D01*
X137207808Y-84969673D01*
X137065162Y-85313201D01*
X137064838Y-85685167D01*
X125759969Y-85685167D01*
X120435122Y-80360320D01*
X120435162Y-80314833D01*
X120293117Y-79971057D01*
X120030327Y-79707808D01*
X119686799Y-79565162D01*
X119314833Y-79564838D01*
X118971057Y-79706883D01*
X118707808Y-79969673D01*
X118565162Y-80313201D01*
X118564838Y-80685167D01*
X100710000Y-80685167D01*
X100710000Y-68935167D01*
X117564838Y-68935167D01*
X117706883Y-69278943D01*
X117969673Y-69542192D01*
X118313201Y-69684838D01*
X118360077Y-69684879D01*
X124814878Y-76139680D01*
X124814838Y-76185167D01*
X124956883Y-76528943D01*
X125219673Y-76792192D01*
X125563201Y-76934838D01*
X125935167Y-76935162D01*
X126278943Y-76793117D01*
X126542192Y-76530327D01*
X126684838Y-76186799D01*
X126685162Y-75814833D01*
X126543117Y-75471057D01*
X126280327Y-75207808D01*
X125936799Y-75065162D01*
X125889923Y-75065121D01*
X125635398Y-74810596D01*
X126301049Y-74810596D01*
X126696573Y-75767838D01*
X127428310Y-76500853D01*
X128384860Y-76898047D01*
X129420596Y-76898951D01*
X130377838Y-76503427D01*
X131110853Y-75771690D01*
X131508047Y-74815140D01*
X131508951Y-73779404D01*
X131113427Y-72822162D01*
X130381690Y-72089147D01*
X129425140Y-71691953D01*
X128389404Y-71691049D01*
X127432162Y-72086573D01*
X126699147Y-72818310D01*
X126301953Y-73774860D01*
X126301049Y-74810596D01*
X125635398Y-74810596D01*
X119435122Y-68610320D01*
X119435162Y-68564833D01*
X119293117Y-68221057D01*
X119030327Y-67957808D01*
X118686799Y-67815162D01*
X118314833Y-67814838D01*
X117971057Y-67956883D01*
X117707808Y-68219673D01*
X117565162Y-68563201D01*
X117564838Y-68935167D01*
X100710000Y-68935167D01*
X100710000Y-67185167D01*
X119064838Y-67185167D01*
X119206883Y-67528943D01*
X119469673Y-67792192D01*
X119813201Y-67934838D01*
X119860077Y-67934879D01*
X124212599Y-72287401D01*
X124459160Y-72452148D01*
X124482965Y-72456883D01*
X124750000Y-72510000D01*
X125437537Y-72510000D01*
X125469673Y-72542192D01*
X125813201Y-72684838D01*
X126185167Y-72685162D01*
X126528943Y-72543117D01*
X126792192Y-72280327D01*
X126934838Y-71936799D01*
X126935162Y-71564833D01*
X126793117Y-71221057D01*
X126530327Y-70957808D01*
X126186799Y-70815162D01*
X125814833Y-70814838D01*
X125471057Y-70956883D01*
X125437882Y-70990000D01*
X125064802Y-70990000D01*
X120935122Y-66860320D01*
X120935162Y-66814833D01*
X120793117Y-66471057D01*
X120530327Y-66207808D01*
X120186799Y-66065162D01*
X119814833Y-66064838D01*
X119471057Y-66206883D01*
X119207808Y-66469673D01*
X119065162Y-66813201D01*
X119064838Y-67185167D01*
X100710000Y-67185167D01*
X100710000Y-56935167D01*
X103814838Y-56935167D01*
X103956883Y-57278943D01*
X104219673Y-57542192D01*
X104563201Y-57684838D01*
X104610077Y-57684879D01*
X107165198Y-60240000D01*
X107062463Y-60240000D01*
X107030327Y-60207808D01*
X106686799Y-60065162D01*
X106314833Y-60064838D01*
X105971057Y-60206883D01*
X105707808Y-60469673D01*
X105565162Y-60813201D01*
X105564838Y-61185167D01*
X105706883Y-61528943D01*
X105969673Y-61792192D01*
X106313201Y-61934838D01*
X106685167Y-61935162D01*
X107028943Y-61793117D01*
X107062118Y-61760000D01*
X108937537Y-61760000D01*
X108969673Y-61792192D01*
X109313201Y-61934838D01*
X109685167Y-61935162D01*
X110028943Y-61793117D01*
X110248821Y-61573623D01*
X113064878Y-64389680D01*
X113064838Y-64435167D01*
X113206883Y-64778943D01*
X113469673Y-65042192D01*
X113813201Y-65184838D01*
X114185167Y-65185162D01*
X114528943Y-65043117D01*
X114792192Y-64780327D01*
X114934838Y-64436799D01*
X114935162Y-64064833D01*
X114793117Y-63721057D01*
X114530327Y-63457808D01*
X114186799Y-63315162D01*
X114139923Y-63315121D01*
X113009969Y-62185167D01*
X116314838Y-62185167D01*
X116456883Y-62528943D01*
X116490000Y-62562118D01*
X116490000Y-63687537D01*
X116457808Y-63719673D01*
X116315162Y-64063201D01*
X116314838Y-64435167D01*
X116456883Y-64778943D01*
X116719673Y-65042192D01*
X117063201Y-65184838D01*
X117435167Y-65185162D01*
X117778943Y-65043117D01*
X118042192Y-64780327D01*
X118184838Y-64436799D01*
X118185162Y-64064833D01*
X118043117Y-63721057D01*
X118010000Y-63687882D01*
X118010000Y-63685167D01*
X119814838Y-63685167D01*
X119956883Y-64028943D01*
X120219673Y-64292192D01*
X120563201Y-64434838D01*
X120935167Y-64435162D01*
X121278943Y-64293117D01*
X121312118Y-64260000D01*
X127687537Y-64260000D01*
X127719673Y-64292192D01*
X128063201Y-64434838D01*
X128435167Y-64435162D01*
X128778943Y-64293117D01*
X129042192Y-64030327D01*
X129184838Y-63686799D01*
X129184839Y-63685167D01*
X133314838Y-63685167D01*
X133456883Y-64028943D01*
X133490000Y-64062118D01*
X133490000Y-71750000D01*
X133547852Y-72040839D01*
X133712599Y-72287401D01*
X134712599Y-73287401D01*
X134959161Y-73452148D01*
X135250000Y-73510000D01*
X136259026Y-73510000D01*
X136056258Y-73998319D01*
X136055743Y-74589089D01*
X136281344Y-75135086D01*
X136441229Y-75295250D01*
X136171057Y-75406883D01*
X136137882Y-75440000D01*
X135167028Y-75440000D01*
X134986799Y-75365162D01*
X134614833Y-75364838D01*
X134271057Y-75506883D01*
X134007808Y-75769673D01*
X133865162Y-76113201D01*
X133864838Y-76485167D01*
X134006883Y-76828943D01*
X134269673Y-77092192D01*
X134613201Y-77234838D01*
X134985167Y-77235162D01*
X135328943Y-77093117D01*
X135462293Y-76960000D01*
X136137537Y-76960000D01*
X136169673Y-76992192D01*
X136513201Y-77134838D01*
X136885167Y-77135162D01*
X137228943Y-76993117D01*
X137492192Y-76730327D01*
X137634838Y-76386799D01*
X137635162Y-76014833D01*
X137538130Y-75779998D01*
X137835089Y-75780257D01*
X138381086Y-75554656D01*
X138597160Y-75338958D01*
X139216647Y-75338958D01*
X139296920Y-75590259D01*
X139852279Y-75791718D01*
X140442458Y-75765315D01*
X140865080Y-75590259D01*
X140945353Y-75338958D01*
X140081000Y-74474605D01*
X139216647Y-75338958D01*
X138597160Y-75338958D01*
X138799188Y-75137283D01*
X138818951Y-75089688D01*
X139037042Y-75159353D01*
X139901395Y-74295000D01*
X140260605Y-74295000D01*
X141124958Y-75159353D01*
X141342640Y-75089819D01*
X141361344Y-75135086D01*
X141778717Y-75553188D01*
X141861000Y-75587355D01*
X141861000Y-81621000D01*
X141918852Y-81911839D01*
X142083599Y-82158401D01*
X142502560Y-82577362D01*
X142502560Y-83850000D01*
X142546838Y-84085317D01*
X142685910Y-84301441D01*
X142898110Y-84446431D01*
X143150000Y-84497440D01*
X144850000Y-84497440D01*
X145085317Y-84453162D01*
X145301441Y-84314090D01*
X145446431Y-84101890D01*
X145460086Y-84034459D01*
X145489946Y-84079147D01*
X145971715Y-84401054D01*
X146540000Y-84514093D01*
X147108285Y-84401054D01*
X147590054Y-84079147D01*
X147810000Y-83749974D01*
X148029946Y-84079147D01*
X148511715Y-84401054D01*
X149080000Y-84514093D01*
X149648285Y-84401054D01*
X150130054Y-84079147D01*
X150350000Y-83749974D01*
X150569946Y-84079147D01*
X151051715Y-84401054D01*
X151620000Y-84514093D01*
X152188285Y-84401054D01*
X152670054Y-84079147D01*
X152890000Y-83749974D01*
X153109946Y-84079147D01*
X153591715Y-84401054D01*
X154160000Y-84514093D01*
X154728285Y-84401054D01*
X155201044Y-84085167D01*
X164364838Y-84085167D01*
X164506883Y-84428943D01*
X164769673Y-84692192D01*
X165113201Y-84834838D01*
X165485167Y-84835162D01*
X165828943Y-84693117D01*
X166092192Y-84430327D01*
X166197086Y-84177716D01*
X166439680Y-83935122D01*
X166485167Y-83935162D01*
X166828943Y-83793117D01*
X166862118Y-83760000D01*
X168637537Y-83760000D01*
X168669673Y-83792192D01*
X169013201Y-83934838D01*
X169385167Y-83935162D01*
X169728943Y-83793117D01*
X169992192Y-83530327D01*
X170134838Y-83186799D01*
X170135162Y-82814833D01*
X169993117Y-82471057D01*
X169730327Y-82207808D01*
X169386799Y-82065162D01*
X169014833Y-82064838D01*
X168671057Y-82206883D01*
X168637882Y-82240000D01*
X166862463Y-82240000D01*
X166830327Y-82207808D01*
X166486799Y-82065162D01*
X166114833Y-82064838D01*
X165771057Y-82206883D01*
X165507808Y-82469673D01*
X165365162Y-82813201D01*
X165365121Y-82860077D01*
X165260233Y-82964965D01*
X165114833Y-82964838D01*
X164771057Y-83106883D01*
X164507808Y-83369673D01*
X164365162Y-83713201D01*
X164364838Y-84085167D01*
X155201044Y-84085167D01*
X155210054Y-84079147D01*
X155531961Y-83597378D01*
X155645000Y-83029093D01*
X155645000Y-82970907D01*
X155531961Y-82402622D01*
X155210054Y-81920853D01*
X154728285Y-81598946D01*
X154160000Y-81485907D01*
X153591715Y-81598946D01*
X153109946Y-81920853D01*
X152890000Y-82250026D01*
X152670054Y-81920853D01*
X152188285Y-81598946D01*
X151620000Y-81485907D01*
X151051715Y-81598946D01*
X150569946Y-81920853D01*
X150350000Y-82250026D01*
X150130054Y-81920853D01*
X149648285Y-81598946D01*
X149080000Y-81485907D01*
X148713592Y-81558790D01*
X148461000Y-81306198D01*
X148461000Y-75587747D01*
X148541086Y-75554656D01*
X148959188Y-75137283D01*
X148970748Y-75109443D01*
X148981344Y-75135086D01*
X149398717Y-75553188D01*
X149944319Y-75779742D01*
X150535089Y-75780257D01*
X151081086Y-75554656D01*
X151499188Y-75137283D01*
X151510748Y-75109443D01*
X151521344Y-75135086D01*
X151938717Y-75553188D01*
X152022378Y-75587927D01*
X152078852Y-75871839D01*
X152243599Y-76118401D01*
X152615198Y-76490000D01*
X152562463Y-76490000D01*
X152530327Y-76457808D01*
X152186799Y-76315162D01*
X151814833Y-76314838D01*
X151471057Y-76456883D01*
X151207808Y-76719673D01*
X151065162Y-77063201D01*
X151064838Y-77435167D01*
X151206883Y-77778943D01*
X151469673Y-78042192D01*
X151813201Y-78184838D01*
X152185167Y-78185162D01*
X152528943Y-78043117D01*
X152562118Y-78010000D01*
X155250000Y-78010000D01*
X155540839Y-77952148D01*
X155787401Y-77787401D01*
X155830850Y-77743952D01*
X155765000Y-78075002D01*
X155851397Y-78509347D01*
X156097434Y-78877568D01*
X156458752Y-79118992D01*
X156307808Y-79269673D01*
X156165162Y-79613201D01*
X156164838Y-79985167D01*
X156306883Y-80328943D01*
X156569673Y-80592192D01*
X156913201Y-80734838D01*
X157008548Y-80734921D01*
X157109161Y-80802148D01*
X157168648Y-80813981D01*
X157065162Y-81063201D01*
X157064838Y-81435167D01*
X157206883Y-81778943D01*
X157469673Y-82042192D01*
X157813201Y-82184838D01*
X158185167Y-82185162D01*
X158528943Y-82043117D01*
X158562118Y-82010000D01*
X160187537Y-82010000D01*
X160219673Y-82042192D01*
X160563201Y-82184838D01*
X160935167Y-82185162D01*
X161278943Y-82043117D01*
X161542192Y-81780327D01*
X161641984Y-81540000D01*
X172285907Y-81540000D01*
X172398946Y-82108285D01*
X172720853Y-82590054D01*
X173050026Y-82810000D01*
X172720853Y-83029946D01*
X172398946Y-83511715D01*
X172285907Y-84080000D01*
X172398946Y-84648285D01*
X172720853Y-85130054D01*
X173050026Y-85350000D01*
X172720853Y-85569946D01*
X172398946Y-86051715D01*
X172285907Y-86620000D01*
X172398946Y-87188285D01*
X172720853Y-87670054D01*
X173050026Y-87890000D01*
X172720853Y-88109946D01*
X172398946Y-88591715D01*
X172285907Y-89160000D01*
X172398946Y-89728285D01*
X172720853Y-90210054D01*
X173061553Y-90437702D01*
X172918642Y-90504817D01*
X172528355Y-90933076D01*
X172358524Y-91343110D01*
X172479845Y-91573000D01*
X173673000Y-91573000D01*
X173673000Y-91553000D01*
X173927000Y-91553000D01*
X173927000Y-91573000D01*
X175120155Y-91573000D01*
X175241476Y-91343110D01*
X175071645Y-90933076D01*
X174681358Y-90504817D01*
X174538447Y-90437702D01*
X174879147Y-90210054D01*
X174985693Y-90050596D01*
X177101049Y-90050596D01*
X177496573Y-91007838D01*
X178228310Y-91740853D01*
X179184860Y-92138047D01*
X180220596Y-92138951D01*
X181177838Y-91743427D01*
X181910853Y-91011690D01*
X182308047Y-90055140D01*
X182308951Y-89019404D01*
X181913427Y-88062162D01*
X181181690Y-87329147D01*
X180225140Y-86931953D01*
X179189404Y-86931049D01*
X178232162Y-87326573D01*
X177499147Y-88058310D01*
X177101953Y-89014860D01*
X177101049Y-90050596D01*
X174985693Y-90050596D01*
X175201054Y-89728285D01*
X175314093Y-89160000D01*
X175201054Y-88591715D01*
X174879147Y-88109946D01*
X174549974Y-87890000D01*
X174879147Y-87670054D01*
X175201054Y-87188285D01*
X175314093Y-86620000D01*
X175201054Y-86051715D01*
X174879147Y-85569946D01*
X174549974Y-85350000D01*
X174879147Y-85130054D01*
X175201054Y-84648285D01*
X175314093Y-84080000D01*
X175201054Y-83511715D01*
X174879147Y-83029946D01*
X174549974Y-82810000D01*
X174879147Y-82590054D01*
X175201054Y-82108285D01*
X175314093Y-81540000D01*
X175201054Y-80971715D01*
X174879147Y-80489946D01*
X174837548Y-80462150D01*
X174885317Y-80453162D01*
X175101441Y-80314090D01*
X175246431Y-80101890D01*
X175297440Y-79850000D01*
X175297440Y-78150000D01*
X175253162Y-77914683D01*
X175114090Y-77698559D01*
X174901890Y-77553569D01*
X174650000Y-77502560D01*
X172950000Y-77502560D01*
X172714683Y-77546838D01*
X172498559Y-77685910D01*
X172353569Y-77898110D01*
X172302560Y-78150000D01*
X172302560Y-79850000D01*
X172346838Y-80085317D01*
X172485910Y-80301441D01*
X172698110Y-80446431D01*
X172765541Y-80460086D01*
X172720853Y-80489946D01*
X172398946Y-80971715D01*
X172285907Y-81540000D01*
X161641984Y-81540000D01*
X161684838Y-81436799D01*
X161685162Y-81064833D01*
X161543117Y-80721057D01*
X161280327Y-80457808D01*
X160936799Y-80315162D01*
X160564833Y-80314838D01*
X160221057Y-80456883D01*
X160187882Y-80490000D01*
X158562463Y-80490000D01*
X158530327Y-80457808D01*
X158238268Y-80336534D01*
X159089635Y-79485167D01*
X160764838Y-79485167D01*
X160906883Y-79828943D01*
X161169673Y-80092192D01*
X161513201Y-80234838D01*
X161560077Y-80234879D01*
X161864878Y-80539680D01*
X161864838Y-80585167D01*
X162006883Y-80928943D01*
X162269673Y-81192192D01*
X162613201Y-81334838D01*
X162985167Y-81335162D01*
X163328943Y-81193117D01*
X163592192Y-80930327D01*
X163734838Y-80586799D01*
X163735162Y-80214833D01*
X163593117Y-79871057D01*
X163330327Y-79607808D01*
X162986799Y-79465162D01*
X162939923Y-79465121D01*
X162635122Y-79160320D01*
X162635162Y-79114833D01*
X162493117Y-78771057D01*
X162230327Y-78507808D01*
X161886799Y-78365162D01*
X161514833Y-78364838D01*
X161171057Y-78506883D01*
X160907808Y-78769673D01*
X160765162Y-79113201D01*
X160764838Y-79485167D01*
X159089635Y-79485167D01*
X159837401Y-78737401D01*
X160002148Y-78490839D01*
X160060000Y-78200000D01*
X160060000Y-75622868D01*
X160225086Y-75554656D01*
X160643188Y-75137283D01*
X160654748Y-75109443D01*
X160665344Y-75135086D01*
X161082717Y-75553188D01*
X161628319Y-75779742D01*
X162219089Y-75780257D01*
X162765086Y-75554656D01*
X163183188Y-75137283D01*
X163194748Y-75109443D01*
X163205344Y-75135086D01*
X163622717Y-75553188D01*
X164168319Y-75779742D01*
X164759089Y-75780257D01*
X165305086Y-75554656D01*
X165723188Y-75137283D01*
X165734748Y-75109443D01*
X165745344Y-75135086D01*
X166162717Y-75553188D01*
X166708319Y-75779742D01*
X167299089Y-75780257D01*
X167845086Y-75554656D01*
X168263188Y-75137283D01*
X168274748Y-75109443D01*
X168285344Y-75135086D01*
X168702717Y-75553188D01*
X169248319Y-75779742D01*
X169839089Y-75780257D01*
X170385086Y-75554656D01*
X170803188Y-75137283D01*
X170814748Y-75109443D01*
X170825344Y-75135086D01*
X171242717Y-75553188D01*
X171788319Y-75779742D01*
X172379089Y-75780257D01*
X172925086Y-75554656D01*
X173343188Y-75137283D01*
X173354748Y-75109443D01*
X173365344Y-75135086D01*
X173782717Y-75553188D01*
X174328319Y-75779742D01*
X174919089Y-75780257D01*
X175465086Y-75554656D01*
X175883188Y-75137283D01*
X175894748Y-75109443D01*
X175905344Y-75135086D01*
X176322717Y-75553188D01*
X176868319Y-75779742D01*
X177459089Y-75780257D01*
X178005086Y-75554656D01*
X178375220Y-75185167D01*
X181064838Y-75185167D01*
X181206883Y-75528943D01*
X181469673Y-75792192D01*
X181813201Y-75934838D01*
X182185167Y-75935162D01*
X182528943Y-75793117D01*
X182792192Y-75530327D01*
X182934838Y-75186799D01*
X182934879Y-75139923D01*
X184389680Y-73685122D01*
X184435167Y-73685162D01*
X184778943Y-73543117D01*
X185042192Y-73280327D01*
X185184838Y-72936799D01*
X185185162Y-72564833D01*
X185043117Y-72221057D01*
X184780327Y-71957808D01*
X184436799Y-71815162D01*
X184064833Y-71814838D01*
X183721057Y-71956883D01*
X183457808Y-72219673D01*
X183315162Y-72563201D01*
X183315121Y-72610077D01*
X181860320Y-74064878D01*
X181814833Y-74064838D01*
X181471057Y-74206883D01*
X181207808Y-74469673D01*
X181065162Y-74813201D01*
X181064838Y-75185167D01*
X178375220Y-75185167D01*
X178423188Y-75137283D01*
X178649742Y-74591681D01*
X178650257Y-74000911D01*
X178424656Y-73454914D01*
X178007283Y-73036812D01*
X177461681Y-72810258D01*
X176870911Y-72809743D01*
X176324914Y-73035344D01*
X175906812Y-73452717D01*
X175895252Y-73480557D01*
X175884656Y-73454914D01*
X175467283Y-73036812D01*
X174921681Y-72810258D01*
X174330911Y-72809743D01*
X173784914Y-73035344D01*
X173366812Y-73452717D01*
X173355252Y-73480557D01*
X173344656Y-73454914D01*
X172927283Y-73036812D01*
X172381681Y-72810258D01*
X171790911Y-72809743D01*
X171244914Y-73035344D01*
X170826812Y-73452717D01*
X170815252Y-73480557D01*
X170804656Y-73454914D01*
X170387283Y-73036812D01*
X169841681Y-72810258D01*
X169250911Y-72809743D01*
X168844510Y-72977664D01*
X169042192Y-72780327D01*
X169184838Y-72436799D01*
X169185162Y-72064833D01*
X169043117Y-71721057D01*
X169010000Y-71687882D01*
X169010000Y-70314802D01*
X169589635Y-69735167D01*
X179314838Y-69735167D01*
X179456883Y-70078943D01*
X179719673Y-70342192D01*
X180063201Y-70484838D01*
X180435167Y-70485162D01*
X180496064Y-70460000D01*
X182987537Y-70460000D01*
X183019673Y-70492192D01*
X183363201Y-70634838D01*
X183735167Y-70635162D01*
X184078943Y-70493117D01*
X184342192Y-70230327D01*
X184484838Y-69886799D01*
X184485162Y-69514833D01*
X184343117Y-69171057D01*
X184080327Y-68907808D01*
X183736799Y-68765162D01*
X183364833Y-68764838D01*
X183021057Y-68906883D01*
X182987882Y-68940000D01*
X180962201Y-68940000D01*
X180780327Y-68757808D01*
X180436799Y-68615162D01*
X180064833Y-68614838D01*
X179721057Y-68756883D01*
X179457808Y-69019673D01*
X179315162Y-69363201D01*
X179314838Y-69735167D01*
X169589635Y-69735167D01*
X169639680Y-69685122D01*
X169685167Y-69685162D01*
X170028943Y-69543117D01*
X170292192Y-69280327D01*
X170434838Y-68936799D01*
X170435162Y-68564833D01*
X170293117Y-68221057D01*
X170030327Y-67957808D01*
X169686799Y-67815162D01*
X169314833Y-67814838D01*
X168971057Y-67956883D01*
X168707808Y-68219673D01*
X168565162Y-68563201D01*
X168565121Y-68610077D01*
X167712599Y-69462599D01*
X167547852Y-69709161D01*
X167490000Y-70000000D01*
X167490000Y-71687537D01*
X167457808Y-71719673D01*
X167315162Y-72063201D01*
X167314838Y-72435167D01*
X167456883Y-72778943D01*
X167620155Y-72942500D01*
X167301681Y-72810258D01*
X166710911Y-72809743D01*
X166164914Y-73035344D01*
X165746812Y-73452717D01*
X165735252Y-73480557D01*
X165724656Y-73454914D01*
X165307283Y-73036812D01*
X164761681Y-72810258D01*
X164264977Y-72809825D01*
X164389680Y-72685122D01*
X164435167Y-72685162D01*
X164778943Y-72543117D01*
X165042192Y-72280327D01*
X165184838Y-71936799D01*
X165185162Y-71564833D01*
X165043117Y-71221057D01*
X164780327Y-70957808D01*
X164436799Y-70815162D01*
X164064833Y-70814838D01*
X163721057Y-70956883D01*
X163457808Y-71219673D01*
X163315162Y-71563201D01*
X163315121Y-71610077D01*
X162712599Y-72212599D01*
X162547852Y-72459161D01*
X162505503Y-72672061D01*
X162457808Y-72719673D01*
X162390999Y-72880565D01*
X162221681Y-72810258D01*
X162133605Y-72810181D01*
X162184838Y-72686799D01*
X162185162Y-72314833D01*
X162043117Y-71971057D01*
X161780327Y-71707808D01*
X161436799Y-71565162D01*
X161064833Y-71564838D01*
X160721057Y-71706883D01*
X160457808Y-71969673D01*
X160449367Y-71990000D01*
X159812463Y-71990000D01*
X159780327Y-71957808D01*
X159617093Y-71890027D01*
X159635000Y-71800000D01*
X159635000Y-69735167D01*
X161064838Y-69735167D01*
X161206883Y-70078943D01*
X161469673Y-70342192D01*
X161813201Y-70484838D01*
X162185167Y-70485162D01*
X162528943Y-70343117D01*
X162562118Y-70310000D01*
X164637886Y-70310000D01*
X164869673Y-70542192D01*
X165213201Y-70684838D01*
X165585167Y-70685162D01*
X165928943Y-70543117D01*
X166192192Y-70280327D01*
X166334838Y-69936799D01*
X166335162Y-69564833D01*
X166193117Y-69221057D01*
X165930327Y-68957808D01*
X165586799Y-68815162D01*
X165325352Y-68814934D01*
X165200000Y-68790000D01*
X162562463Y-68790000D01*
X162530327Y-68757808D01*
X162186799Y-68615162D01*
X161814833Y-68614838D01*
X161471057Y-68756883D01*
X161207808Y-69019673D01*
X161065162Y-69363201D01*
X161064838Y-69735167D01*
X159635000Y-69735167D01*
X159635000Y-69000000D01*
X159548603Y-68565654D01*
X159302566Y-68197434D01*
X158934346Y-67951397D01*
X158500000Y-67865000D01*
X158065654Y-67951397D01*
X157697434Y-68197434D01*
X157451397Y-68565654D01*
X157365000Y-69000000D01*
X157365000Y-71051444D01*
X157213221Y-70988419D01*
X153409969Y-67185167D01*
X171514838Y-67185167D01*
X171656883Y-67528943D01*
X171919673Y-67792192D01*
X172263201Y-67934838D01*
X172310077Y-67934879D01*
X173162599Y-68787401D01*
X173409161Y-68952148D01*
X173700000Y-69010000D01*
X174037537Y-69010000D01*
X174069673Y-69042192D01*
X174413201Y-69184838D01*
X174785167Y-69185162D01*
X175128943Y-69043117D01*
X175392192Y-68780327D01*
X175534838Y-68436799D01*
X175535162Y-68064833D01*
X175393117Y-67721057D01*
X175130327Y-67457808D01*
X174786799Y-67315162D01*
X174414833Y-67314838D01*
X174071057Y-67456883D01*
X174037882Y-67490000D01*
X174014802Y-67490000D01*
X173385122Y-66860320D01*
X173385162Y-66814833D01*
X173243117Y-66471057D01*
X172980327Y-66207808D01*
X172636799Y-66065162D01*
X172264833Y-66064838D01*
X171921057Y-66206883D01*
X171657808Y-66469673D01*
X171515162Y-66813201D01*
X171514838Y-67185167D01*
X153409969Y-67185167D01*
X148085122Y-61860320D01*
X148085131Y-61850000D01*
X179302560Y-61850000D01*
X179302560Y-65050000D01*
X179346838Y-65285317D01*
X179485910Y-65501441D01*
X179698110Y-65646431D01*
X179950000Y-65697440D01*
X183150000Y-65697440D01*
X183385317Y-65653162D01*
X183601441Y-65514090D01*
X183746431Y-65301890D01*
X183797440Y-65050000D01*
X183797440Y-61850000D01*
X183753162Y-61614683D01*
X183614090Y-61398559D01*
X183401890Y-61253569D01*
X183150000Y-61202560D01*
X179950000Y-61202560D01*
X179714683Y-61246838D01*
X179498559Y-61385910D01*
X179353569Y-61598110D01*
X179302560Y-61850000D01*
X148085131Y-61850000D01*
X148085162Y-61814833D01*
X147943117Y-61471057D01*
X147680327Y-61207808D01*
X147336799Y-61065162D01*
X146964833Y-61064838D01*
X146621057Y-61206883D01*
X146357808Y-61469673D01*
X146215162Y-61813201D01*
X146214838Y-62185167D01*
X146356883Y-62528943D01*
X146619673Y-62792192D01*
X146963201Y-62934838D01*
X147010077Y-62934879D01*
X155915008Y-71839810D01*
X155914838Y-72035167D01*
X156056883Y-72378943D01*
X156316845Y-72639359D01*
X156265000Y-72900000D01*
X156265000Y-73138707D01*
X156163283Y-73036812D01*
X155617681Y-72810258D01*
X155026911Y-72809743D01*
X154745301Y-72926102D01*
X154702148Y-72709161D01*
X154537401Y-72462599D01*
X153685122Y-71610320D01*
X153685162Y-71564833D01*
X153543117Y-71221057D01*
X153280327Y-70957808D01*
X152936799Y-70815162D01*
X152564833Y-70814838D01*
X152221057Y-70956883D01*
X151957808Y-71219673D01*
X151815162Y-71563201D01*
X151814838Y-71935167D01*
X151956883Y-72278943D01*
X152219673Y-72542192D01*
X152563201Y-72684838D01*
X152610077Y-72684879D01*
X152735157Y-72809959D01*
X152486911Y-72809743D01*
X151940914Y-73035344D01*
X151522812Y-73452717D01*
X151511252Y-73480557D01*
X151500656Y-73454914D01*
X151083283Y-73036812D01*
X150537681Y-72810258D01*
X149946911Y-72809743D01*
X149400914Y-73035344D01*
X148982812Y-73452717D01*
X148971252Y-73480557D01*
X148960656Y-73454914D01*
X148543283Y-73036812D01*
X147997681Y-72810258D01*
X147406911Y-72809743D01*
X146860914Y-73035344D01*
X146442812Y-73452717D01*
X146431252Y-73480557D01*
X146420656Y-73454914D01*
X146003283Y-73036812D01*
X145457681Y-72810258D01*
X144866911Y-72809743D01*
X144320914Y-73035344D01*
X143902812Y-73452717D01*
X143891252Y-73480557D01*
X143880656Y-73454914D01*
X143463283Y-73036812D01*
X142917681Y-72810258D01*
X142326911Y-72809743D01*
X141780914Y-73035344D01*
X141362812Y-73452717D01*
X141343049Y-73500312D01*
X141124958Y-73430647D01*
X140260605Y-74295000D01*
X139901395Y-74295000D01*
X139037042Y-73430647D01*
X138819360Y-73500181D01*
X138800656Y-73454914D01*
X138597140Y-73251042D01*
X139216647Y-73251042D01*
X140081000Y-74115395D01*
X140945353Y-73251042D01*
X140865080Y-72999741D01*
X140309721Y-72798282D01*
X139719542Y-72824685D01*
X139296920Y-72999741D01*
X139216647Y-73251042D01*
X138597140Y-73251042D01*
X138390364Y-73043905D01*
X138434838Y-72936799D01*
X138435024Y-72723242D01*
X138628943Y-72643117D01*
X138892192Y-72380327D01*
X139034838Y-72036799D01*
X139035162Y-71664833D01*
X138893117Y-71321057D01*
X138860000Y-71287882D01*
X138860000Y-64685167D01*
X139564838Y-64685167D01*
X139706883Y-65028943D01*
X139740000Y-65062118D01*
X139740000Y-71187537D01*
X139707808Y-71219673D01*
X139565162Y-71563201D01*
X139564838Y-71935167D01*
X139706883Y-72278943D01*
X139969673Y-72542192D01*
X140313201Y-72684838D01*
X140685167Y-72685162D01*
X141028943Y-72543117D01*
X141292192Y-72280327D01*
X141434838Y-71936799D01*
X141435162Y-71564833D01*
X141293117Y-71221057D01*
X141260000Y-71187882D01*
X141260000Y-65062463D01*
X141292192Y-65030327D01*
X141434838Y-64686799D01*
X141435162Y-64314833D01*
X141293117Y-63971057D01*
X141030327Y-63707808D01*
X140686799Y-63565162D01*
X140314833Y-63564838D01*
X139971057Y-63706883D01*
X139707808Y-63969673D01*
X139565162Y-64313201D01*
X139564838Y-64685167D01*
X138860000Y-64685167D01*
X138860000Y-64412289D01*
X138992192Y-64280327D01*
X139134838Y-63936799D01*
X139135162Y-63564833D01*
X138993117Y-63221057D01*
X138730327Y-62957808D01*
X138386799Y-62815162D01*
X138014833Y-62814838D01*
X137671057Y-62956883D01*
X137407808Y-63219673D01*
X137265162Y-63563201D01*
X137264838Y-63935167D01*
X137340000Y-64117073D01*
X137340000Y-71287537D01*
X137307808Y-71319673D01*
X137165162Y-71663201D01*
X137164976Y-71876758D01*
X136971057Y-71956883D01*
X136937882Y-71990000D01*
X135564802Y-71990000D01*
X135010000Y-71435198D01*
X135010000Y-64062463D01*
X135042192Y-64030327D01*
X135184838Y-63686799D01*
X135185162Y-63314833D01*
X135043117Y-62971057D01*
X134780327Y-62707808D01*
X134436799Y-62565162D01*
X134064833Y-62564838D01*
X133721057Y-62706883D01*
X133457808Y-62969673D01*
X133315162Y-63313201D01*
X133314838Y-63685167D01*
X129184839Y-63685167D01*
X129185162Y-63314833D01*
X129043117Y-62971057D01*
X128780327Y-62707808D01*
X128436799Y-62565162D01*
X128064833Y-62564838D01*
X127721057Y-62706883D01*
X127687882Y-62740000D01*
X121312463Y-62740000D01*
X121280327Y-62707808D01*
X120936799Y-62565162D01*
X120564833Y-62564838D01*
X120221057Y-62706883D01*
X119957808Y-62969673D01*
X119815162Y-63313201D01*
X119814838Y-63685167D01*
X118010000Y-63685167D01*
X118010000Y-62562463D01*
X118042192Y-62530327D01*
X118184838Y-62186799D01*
X118185162Y-61814833D01*
X118043117Y-61471057D01*
X117780327Y-61207808D01*
X117436799Y-61065162D01*
X117064833Y-61064838D01*
X116721057Y-61206883D01*
X116457808Y-61469673D01*
X116315162Y-61813201D01*
X116314838Y-62185167D01*
X113009969Y-62185167D01*
X110537401Y-59712599D01*
X110290839Y-59547852D01*
X110000000Y-59490000D01*
X109312463Y-59490000D01*
X109280327Y-59457808D01*
X108936799Y-59315162D01*
X108564833Y-59314838D01*
X108440863Y-59366061D01*
X105759969Y-56685167D01*
X139564838Y-56685167D01*
X139706883Y-57028943D01*
X139740000Y-57062118D01*
X139740000Y-60687537D01*
X139707808Y-60719673D01*
X139565162Y-61063201D01*
X139564838Y-61435167D01*
X139706883Y-61778943D01*
X139969673Y-62042192D01*
X140313201Y-62184838D01*
X140685167Y-62185162D01*
X141028943Y-62043117D01*
X141292192Y-61780327D01*
X141434838Y-61436799D01*
X141435162Y-61064833D01*
X141293117Y-60721057D01*
X141260000Y-60687882D01*
X141260000Y-59935167D01*
X143864838Y-59935167D01*
X144006883Y-60278943D01*
X144269673Y-60542192D01*
X144613201Y-60684838D01*
X144985167Y-60685162D01*
X145328943Y-60543117D01*
X145592192Y-60280327D01*
X145734838Y-59936799D01*
X145735162Y-59564833D01*
X145610844Y-59263959D01*
X145639680Y-59235122D01*
X145685167Y-59235162D01*
X146028943Y-59093117D01*
X146292192Y-58830327D01*
X146434838Y-58486799D01*
X146435162Y-58114833D01*
X146293117Y-57771057D01*
X146030327Y-57507808D01*
X145686799Y-57365162D01*
X145314833Y-57364838D01*
X144971057Y-57506883D01*
X144707808Y-57769673D01*
X144565162Y-58113201D01*
X144565121Y-58160076D01*
X144262599Y-58462599D01*
X144097852Y-58709161D01*
X144040000Y-59000000D01*
X144040000Y-59187537D01*
X144007808Y-59219673D01*
X143865162Y-59563201D01*
X143864838Y-59935167D01*
X141260000Y-59935167D01*
X141260000Y-57062463D01*
X141292192Y-57030327D01*
X141434838Y-56686799D01*
X141435162Y-56314833D01*
X141293117Y-55971057D01*
X141030327Y-55707808D01*
X140686799Y-55565162D01*
X140314833Y-55564838D01*
X139971057Y-55706883D01*
X139707808Y-55969673D01*
X139565162Y-56313201D01*
X139564838Y-56685167D01*
X105759969Y-56685167D01*
X105685122Y-56610320D01*
X105685162Y-56564833D01*
X105543117Y-56221057D01*
X105280327Y-55957808D01*
X104936799Y-55815162D01*
X104564833Y-55814838D01*
X104221057Y-55956883D01*
X103957808Y-56219673D01*
X103815162Y-56563201D01*
X103814838Y-56935167D01*
X100710000Y-56935167D01*
X100710000Y-54985167D01*
X137264838Y-54985167D01*
X137406883Y-55328943D01*
X137669673Y-55592192D01*
X138013201Y-55734838D01*
X138385167Y-55735162D01*
X138728943Y-55593117D01*
X138992192Y-55330327D01*
X139134838Y-54986799D01*
X139135162Y-54614833D01*
X138993117Y-54271057D01*
X138960000Y-54237882D01*
X138960000Y-51435167D01*
X145314838Y-51435167D01*
X145456883Y-51778943D01*
X145719673Y-52042192D01*
X146063201Y-52184838D01*
X146435167Y-52185162D01*
X146778943Y-52043117D01*
X147042192Y-51780327D01*
X147184838Y-51436799D01*
X147184879Y-51389923D01*
X147564802Y-51010000D01*
X157687537Y-51010000D01*
X157719673Y-51042192D01*
X158063201Y-51184838D01*
X158435167Y-51185162D01*
X158778943Y-51043117D01*
X159042192Y-50780327D01*
X159184838Y-50436799D01*
X159185162Y-50064833D01*
X159131586Y-49935167D01*
X159514838Y-49935167D01*
X159656883Y-50278943D01*
X159919673Y-50542192D01*
X160263201Y-50684838D01*
X160310077Y-50684879D01*
X165390000Y-55764802D01*
X165390000Y-57687537D01*
X165357808Y-57719673D01*
X165215162Y-58063201D01*
X165214838Y-58435167D01*
X165356883Y-58778943D01*
X165619673Y-59042192D01*
X165963201Y-59184838D01*
X166335167Y-59185162D01*
X166603109Y-59074451D01*
X166557808Y-59119673D01*
X166415162Y-59463201D01*
X166414838Y-59835167D01*
X166556883Y-60178943D01*
X166819673Y-60442192D01*
X167163201Y-60584838D01*
X167535167Y-60585162D01*
X167878943Y-60443117D01*
X168142192Y-60180327D01*
X168284838Y-59836799D01*
X168285162Y-59464833D01*
X168260000Y-59403936D01*
X168260000Y-58812463D01*
X168292192Y-58780327D01*
X168434838Y-58436799D01*
X168435162Y-58064833D01*
X168293117Y-57721057D01*
X168030327Y-57457808D01*
X167686799Y-57315162D01*
X167314833Y-57314838D01*
X166971057Y-57456883D01*
X166910000Y-57517834D01*
X166910000Y-55450000D01*
X166852148Y-55159160D01*
X166687401Y-54912599D01*
X162481016Y-50706214D01*
X179315000Y-50706214D01*
X179315000Y-50793786D01*
X179485129Y-51649083D01*
X179969616Y-52374170D01*
X180694703Y-52858657D01*
X181550000Y-53028786D01*
X182405297Y-52858657D01*
X183130384Y-52374170D01*
X183614871Y-51649083D01*
X183785000Y-50793786D01*
X183785000Y-50706214D01*
X183614871Y-49850917D01*
X183130384Y-49125830D01*
X182405297Y-48641343D01*
X181550000Y-48471214D01*
X180694703Y-48641343D01*
X179969616Y-49125830D01*
X179485129Y-49850917D01*
X179315000Y-50706214D01*
X162481016Y-50706214D01*
X161385122Y-49610320D01*
X161385162Y-49564833D01*
X161243117Y-49221057D01*
X160980327Y-48957808D01*
X160636799Y-48815162D01*
X160264833Y-48814838D01*
X159921057Y-48956883D01*
X159657808Y-49219673D01*
X159515162Y-49563201D01*
X159514838Y-49935167D01*
X159131586Y-49935167D01*
X159043117Y-49721057D01*
X158780327Y-49457808D01*
X158436799Y-49315162D01*
X158064833Y-49314838D01*
X157721057Y-49456883D01*
X157687882Y-49490000D01*
X147250000Y-49490000D01*
X146959161Y-49547852D01*
X146712599Y-49712599D01*
X146110320Y-50314878D01*
X146064833Y-50314838D01*
X145721057Y-50456883D01*
X145457808Y-50719673D01*
X145315162Y-51063201D01*
X145314838Y-51435167D01*
X138960000Y-51435167D01*
X138960000Y-50914802D01*
X140189680Y-49685122D01*
X140235167Y-49685162D01*
X140578943Y-49543117D01*
X140842192Y-49280327D01*
X140984838Y-48936799D01*
X140985162Y-48564833D01*
X140843117Y-48221057D01*
X140580327Y-47957808D01*
X140236799Y-47815162D01*
X139864833Y-47814838D01*
X139521057Y-47956883D01*
X139257808Y-48219673D01*
X139115162Y-48563201D01*
X139115121Y-48610077D01*
X137662599Y-50062599D01*
X137497852Y-50309161D01*
X137440000Y-50600000D01*
X137440000Y-54237537D01*
X137407808Y-54269673D01*
X137265162Y-54613201D01*
X137264838Y-54985167D01*
X100710000Y-54985167D01*
X100710000Y-45865596D01*
X100946049Y-45865596D01*
X101341573Y-46822838D01*
X102073310Y-47555853D01*
X103029860Y-47953047D01*
X104065596Y-47953951D01*
X105022838Y-47558427D01*
X105755853Y-46826690D01*
X106153047Y-45870140D01*
X106153437Y-45422815D01*
X107864630Y-45422815D01*
X108188980Y-46207800D01*
X108789041Y-46808909D01*
X109573459Y-47134628D01*
X110422815Y-47135370D01*
X111207800Y-46811020D01*
X111808909Y-46210959D01*
X112134628Y-45426541D01*
X112134631Y-45422815D01*
X112944630Y-45422815D01*
X113268980Y-46207800D01*
X113869041Y-46808909D01*
X114653459Y-47134628D01*
X115502815Y-47135370D01*
X116287800Y-46811020D01*
X116888909Y-46210959D01*
X117214628Y-45426541D01*
X117214631Y-45422815D01*
X137864630Y-45422815D01*
X138188980Y-46207800D01*
X138789041Y-46808909D01*
X139573459Y-47134628D01*
X140422815Y-47135370D01*
X141207800Y-46811020D01*
X141808909Y-46210959D01*
X142134628Y-45426541D01*
X142134631Y-45422815D01*
X142944630Y-45422815D01*
X143268980Y-46207800D01*
X143869041Y-46808909D01*
X144653459Y-47134628D01*
X145502815Y-47135370D01*
X146287800Y-46811020D01*
X146888909Y-46210959D01*
X147214628Y-45426541D01*
X147214631Y-45422815D01*
X167864630Y-45422815D01*
X168188980Y-46207800D01*
X168789041Y-46808909D01*
X169573459Y-47134628D01*
X170422815Y-47135370D01*
X171207800Y-46811020D01*
X171808909Y-46210959D01*
X172134628Y-45426541D01*
X172134631Y-45422815D01*
X172944630Y-45422815D01*
X173268980Y-46207800D01*
X173869041Y-46808909D01*
X174653459Y-47134628D01*
X175502815Y-47135370D01*
X176287800Y-46811020D01*
X176888909Y-46210959D01*
X177214628Y-45426541D01*
X177215370Y-44577185D01*
X177024645Y-44115596D01*
X178946049Y-44115596D01*
X179341573Y-45072838D01*
X180073310Y-45805853D01*
X181029860Y-46203047D01*
X182065596Y-46203951D01*
X183022838Y-45808427D01*
X183755853Y-45076690D01*
X184153047Y-44120140D01*
X184153951Y-43084404D01*
X183758427Y-42127162D01*
X183026690Y-41394147D01*
X182070140Y-40996953D01*
X181034404Y-40996049D01*
X180077162Y-41391573D01*
X179344147Y-42123310D01*
X178946953Y-43079860D01*
X178946049Y-44115596D01*
X177024645Y-44115596D01*
X176891020Y-43792200D01*
X176290959Y-43191091D01*
X175506541Y-42865372D01*
X174657185Y-42864630D01*
X173872200Y-43188980D01*
X173271091Y-43789041D01*
X172945372Y-44573459D01*
X172944630Y-45422815D01*
X172134631Y-45422815D01*
X172135370Y-44577185D01*
X171811020Y-43792200D01*
X171210959Y-43191091D01*
X170426541Y-42865372D01*
X169577185Y-42864630D01*
X168792200Y-43188980D01*
X168191091Y-43789041D01*
X167865372Y-44573459D01*
X167864630Y-45422815D01*
X147214631Y-45422815D01*
X147215370Y-44577185D01*
X146891020Y-43792200D01*
X146290959Y-43191091D01*
X145506541Y-42865372D01*
X144657185Y-42864630D01*
X143872200Y-43188980D01*
X143271091Y-43789041D01*
X142945372Y-44573459D01*
X142944630Y-45422815D01*
X142134631Y-45422815D01*
X142135370Y-44577185D01*
X141811020Y-43792200D01*
X141210959Y-43191091D01*
X140426541Y-42865372D01*
X139577185Y-42864630D01*
X138792200Y-43188980D01*
X138191091Y-43789041D01*
X137865372Y-44573459D01*
X137864630Y-45422815D01*
X117214631Y-45422815D01*
X117215370Y-44577185D01*
X116891020Y-43792200D01*
X116290959Y-43191091D01*
X115506541Y-42865372D01*
X114657185Y-42864630D01*
X113872200Y-43188980D01*
X113271091Y-43789041D01*
X112945372Y-44573459D01*
X112944630Y-45422815D01*
X112134631Y-45422815D01*
X112135370Y-44577185D01*
X111811020Y-43792200D01*
X111210959Y-43191091D01*
X110426541Y-42865372D01*
X109577185Y-42864630D01*
X108792200Y-43188980D01*
X108191091Y-43789041D01*
X107865372Y-44573459D01*
X107864630Y-45422815D01*
X106153437Y-45422815D01*
X106153951Y-44834404D01*
X105758427Y-43877162D01*
X105026690Y-43144147D01*
X104070140Y-42746953D01*
X103034404Y-42746049D01*
X102077162Y-43141573D01*
X101344147Y-43873310D01*
X100946953Y-44829860D01*
X100946049Y-45865596D01*
X100710000Y-45865596D01*
X100710000Y-45069931D01*
X101049408Y-43363610D01*
X101976349Y-41976346D01*
X103363610Y-41049408D01*
X105069931Y-40710000D01*
X181930069Y-40710000D01*
X183636390Y-41049408D01*
X183636390Y-41049408D01*
G37*
X183636390Y-41049408D02*
X185023654Y-41976349D01*
X185950592Y-43363610D01*
X186290000Y-45069931D01*
X186290000Y-121930069D01*
X185950592Y-123636390D01*
X185023654Y-125023651D01*
X183636390Y-125950592D01*
X181930069Y-126290000D01*
X105069931Y-126290000D01*
X103363610Y-125950592D01*
X101976349Y-125023654D01*
X101049408Y-123636390D01*
X100936865Y-123070596D01*
X125031049Y-123070596D01*
X125426573Y-124027838D01*
X126158310Y-124760853D01*
X127114860Y-125158047D01*
X128150596Y-125158951D01*
X129107838Y-124763427D01*
X129840853Y-124031690D01*
X130238047Y-123075140D01*
X130238951Y-122039404D01*
X129843427Y-121082162D01*
X129111690Y-120349147D01*
X128155140Y-119951953D01*
X127119404Y-119951049D01*
X126162162Y-120346573D01*
X125429147Y-121078310D01*
X125031953Y-122034860D01*
X125031049Y-123070596D01*
X100936865Y-123070596D01*
X100710000Y-121930069D01*
X100710000Y-111120000D01*
X103635907Y-111120000D01*
X103748946Y-111688285D01*
X104070853Y-112170054D01*
X104400026Y-112390000D01*
X104070853Y-112609946D01*
X103748946Y-113091715D01*
X103635907Y-113660000D01*
X103748946Y-114228285D01*
X104070853Y-114710054D01*
X104112452Y-114737850D01*
X104064683Y-114746838D01*
X103848559Y-114885910D01*
X103703569Y-115098110D01*
X103652560Y-115350000D01*
X103652560Y-117050000D01*
X103696838Y-117285317D01*
X103835910Y-117501441D01*
X104048110Y-117646431D01*
X104300000Y-117697440D01*
X106000000Y-117697440D01*
X106065225Y-117685167D01*
X118314838Y-117685167D01*
X118456883Y-118028943D01*
X118719673Y-118292192D01*
X119063201Y-118434838D01*
X119435167Y-118435162D01*
X119778943Y-118293117D01*
X120042192Y-118030327D01*
X120184838Y-117686799D01*
X120184879Y-117639923D01*
X121639635Y-116185167D01*
X125564838Y-116185167D01*
X125706883Y-116528943D01*
X125969673Y-116792192D01*
X126313201Y-116934838D01*
X126668127Y-116935147D01*
X126706883Y-117028943D01*
X126969673Y-117292192D01*
X127313201Y-117434838D01*
X127685167Y-117435162D01*
X128028943Y-117293117D01*
X128292192Y-117030327D01*
X128434838Y-116686799D01*
X128434879Y-116639923D01*
X128889635Y-116185167D01*
X143064838Y-116185167D01*
X143206883Y-116528943D01*
X143469673Y-116792192D01*
X143813201Y-116934838D01*
X144185167Y-116935162D01*
X144528943Y-116793117D01*
X144562118Y-116760000D01*
X145937537Y-116760000D01*
X145969673Y-116792192D01*
X146313201Y-116934838D01*
X146490206Y-116934992D01*
X146147599Y-117277599D01*
X145982852Y-117524161D01*
X145925000Y-117815000D01*
X145925000Y-121262253D01*
X145844914Y-121295344D01*
X145426812Y-121712717D01*
X145200258Y-122258319D01*
X145199743Y-122849089D01*
X145425344Y-123395086D01*
X145842717Y-123813188D01*
X146388319Y-124039742D01*
X146979089Y-124040257D01*
X147525086Y-123814656D01*
X147943188Y-123397283D01*
X147954748Y-123369443D01*
X147965344Y-123395086D01*
X148382717Y-123813188D01*
X148928319Y-124039742D01*
X149519089Y-124040257D01*
X150065086Y-123814656D01*
X150483188Y-123397283D01*
X150494748Y-123369443D01*
X150505344Y-123395086D01*
X150922717Y-123813188D01*
X151468319Y-124039742D01*
X152059089Y-124040257D01*
X152605086Y-123814656D01*
X152821160Y-123598958D01*
X153440647Y-123598958D01*
X153520920Y-123850259D01*
X154076279Y-124051718D01*
X154666458Y-124025315D01*
X155089080Y-123850259D01*
X155169353Y-123598958D01*
X155980647Y-123598958D01*
X156060920Y-123850259D01*
X156616279Y-124051718D01*
X157206458Y-124025315D01*
X157629080Y-123850259D01*
X157709353Y-123598958D01*
X156845000Y-122734605D01*
X155980647Y-123598958D01*
X155169353Y-123598958D01*
X154305000Y-122734605D01*
X153440647Y-123598958D01*
X152821160Y-123598958D01*
X153023188Y-123397283D01*
X153042951Y-123349688D01*
X153261042Y-123419353D01*
X154125395Y-122555000D01*
X154484605Y-122555000D01*
X155348958Y-123419353D01*
X155575000Y-123347148D01*
X155801042Y-123419353D01*
X156665395Y-122555000D01*
X157024605Y-122555000D01*
X157888958Y-123419353D01*
X158106640Y-123349819D01*
X158125344Y-123395086D01*
X158542717Y-123813188D01*
X159088319Y-124039742D01*
X159679089Y-124040257D01*
X160225086Y-123814656D01*
X160643188Y-123397283D01*
X160869742Y-122851681D01*
X160869744Y-122849089D01*
X162979743Y-122849089D01*
X163205344Y-123395086D01*
X163622717Y-123813188D01*
X164168319Y-124039742D01*
X164759089Y-124040257D01*
X165305086Y-123814656D01*
X165723188Y-123397283D01*
X165734748Y-123369443D01*
X165745344Y-123395086D01*
X166162717Y-123813188D01*
X166708319Y-124039742D01*
X167299089Y-124040257D01*
X167845086Y-123814656D01*
X168263188Y-123397283D01*
X168274748Y-123369443D01*
X168285344Y-123395086D01*
X168702717Y-123813188D01*
X169248319Y-124039742D01*
X169839089Y-124040257D01*
X170385086Y-123814656D01*
X170803188Y-123397283D01*
X170814748Y-123369443D01*
X170825344Y-123395086D01*
X171242717Y-123813188D01*
X171788319Y-124039742D01*
X172379089Y-124040257D01*
X172925086Y-123814656D01*
X173343188Y-123397283D01*
X173354748Y-123369443D01*
X173365344Y-123395086D01*
X173782717Y-123813188D01*
X174328319Y-124039742D01*
X174919089Y-124040257D01*
X175465086Y-123814656D01*
X175883188Y-123397283D01*
X175894748Y-123369443D01*
X175905344Y-123395086D01*
X176322717Y-123813188D01*
X176868319Y-124039742D01*
X177459089Y-124040257D01*
X178005086Y-123814656D01*
X178423188Y-123397283D01*
X178649742Y-122851681D01*
X178650257Y-122260911D01*
X178424656Y-121714914D01*
X178007283Y-121296812D01*
X177461681Y-121070258D01*
X176870911Y-121069743D01*
X176324914Y-121295344D01*
X175906812Y-121712717D01*
X175895252Y-121740557D01*
X175884656Y-121714914D01*
X175467283Y-121296812D01*
X174921681Y-121070258D01*
X174330911Y-121069743D01*
X173784914Y-121295344D01*
X173366812Y-121712717D01*
X173355252Y-121740557D01*
X173344656Y-121714914D01*
X172927283Y-121296812D01*
X172381681Y-121070258D01*
X171790911Y-121069743D01*
X171244914Y-121295344D01*
X170826812Y-121712717D01*
X170815252Y-121740557D01*
X170804656Y-121714914D01*
X170387283Y-121296812D01*
X169841681Y-121070258D01*
X169250911Y-121069743D01*
X168704914Y-121295344D01*
X168286812Y-121712717D01*
X168275252Y-121740557D01*
X168264656Y-121714914D01*
X167847283Y-121296812D01*
X167301681Y-121070258D01*
X166710911Y-121069743D01*
X166164914Y-121295344D01*
X165746812Y-121712717D01*
X165735252Y-121740557D01*
X165724656Y-121714914D01*
X165307283Y-121296812D01*
X164761681Y-121070258D01*
X164170911Y-121069743D01*
X163624914Y-121295344D01*
X163206812Y-121712717D01*
X162980258Y-122258319D01*
X162979743Y-122849089D01*
X160869744Y-122849089D01*
X160870257Y-122260911D01*
X160644656Y-121714914D01*
X160227283Y-121296812D01*
X159681681Y-121070258D01*
X159090911Y-121069743D01*
X158544914Y-121295344D01*
X158126812Y-121712717D01*
X158107049Y-121760312D01*
X157888958Y-121690647D01*
X157024605Y-122555000D01*
X156665395Y-122555000D01*
X155801042Y-121690647D01*
X155575000Y-121762852D01*
X155348958Y-121690647D01*
X154484605Y-122555000D01*
X154125395Y-122555000D01*
X153261042Y-121690647D01*
X153043360Y-121760181D01*
X153024656Y-121714914D01*
X152821140Y-121511042D01*
X153440647Y-121511042D01*
X154305000Y-122375395D01*
X155169353Y-121511042D01*
X155980647Y-121511042D01*
X156845000Y-122375395D01*
X157709353Y-121511042D01*
X157629080Y-121259741D01*
X157073721Y-121058282D01*
X156483542Y-121084685D01*
X156060920Y-121259741D01*
X155980647Y-121511042D01*
X155169353Y-121511042D01*
X155089080Y-121259741D01*
X154533721Y-121058282D01*
X153943542Y-121084685D01*
X153520920Y-121259741D01*
X153440647Y-121511042D01*
X152821140Y-121511042D01*
X152607283Y-121296812D01*
X152061681Y-121070258D01*
X151470911Y-121069743D01*
X150924914Y-121295344D01*
X150506812Y-121712717D01*
X150495252Y-121740557D01*
X150484656Y-121714914D01*
X150067283Y-121296812D01*
X149521681Y-121070258D01*
X148930911Y-121069743D01*
X148384914Y-121295344D01*
X147966812Y-121712717D01*
X147955252Y-121740557D01*
X147944656Y-121714914D01*
X147527283Y-121296812D01*
X147445000Y-121262645D01*
X147445000Y-118435167D01*
X166314838Y-118435167D01*
X166456883Y-118778943D01*
X166719673Y-119042192D01*
X167063201Y-119184838D01*
X167435167Y-119185162D01*
X167778943Y-119043117D01*
X167812118Y-119010000D01*
X168687537Y-119010000D01*
X168719673Y-119042192D01*
X169063201Y-119184838D01*
X169435167Y-119185162D01*
X169778943Y-119043117D01*
X170042192Y-118780327D01*
X170184838Y-118436799D01*
X170185162Y-118064833D01*
X170154488Y-117990596D01*
X177101049Y-117990596D01*
X177496573Y-118947838D01*
X178228310Y-119680853D01*
X179184860Y-120078047D01*
X180220596Y-120078951D01*
X181177838Y-119683427D01*
X181910853Y-118951690D01*
X182308047Y-117995140D01*
X182308951Y-116959404D01*
X181913427Y-116002162D01*
X181181690Y-115269147D01*
X180225140Y-114871953D01*
X179189404Y-114871049D01*
X178232162Y-115266573D01*
X177499147Y-115998310D01*
X177101953Y-116954860D01*
X177101049Y-117990596D01*
X170154488Y-117990596D01*
X170043117Y-117721057D01*
X169780327Y-117457808D01*
X169436799Y-117315162D01*
X169064833Y-117314838D01*
X168721057Y-117456883D01*
X168687882Y-117490000D01*
X167812463Y-117490000D01*
X167780327Y-117457808D01*
X167436799Y-117315162D01*
X167064833Y-117314838D01*
X166721057Y-117456883D01*
X166457808Y-117719673D01*
X166315162Y-118063201D01*
X166314838Y-118435167D01*
X147445000Y-118435167D01*
X147445000Y-118129802D01*
X149389635Y-116185167D01*
X153814838Y-116185167D01*
X153956883Y-116528943D01*
X154219673Y-116792192D01*
X154563201Y-116934838D01*
X154935167Y-116935162D01*
X155278943Y-116793117D01*
X155542192Y-116530327D01*
X155562486Y-116481454D01*
X155580222Y-116853454D01*
X155746136Y-117254005D01*
X155992255Y-117328139D01*
X156820395Y-116500000D01*
X156806252Y-116485858D01*
X156985858Y-116306252D01*
X157000000Y-116320395D01*
X157014142Y-116306252D01*
X157193748Y-116485858D01*
X157179605Y-116500000D01*
X157193748Y-116514143D01*
X157014142Y-116693748D01*
X157000000Y-116679605D01*
X156171861Y-117507745D01*
X156245995Y-117753864D01*
X156783223Y-117946965D01*
X157353454Y-117919778D01*
X157744947Y-117757616D01*
X157948110Y-117896431D01*
X158200000Y-117947440D01*
X159800000Y-117947440D01*
X160035317Y-117903162D01*
X160251441Y-117764090D01*
X160396431Y-117551890D01*
X160447440Y-117300000D01*
X160447440Y-116185167D01*
X166314838Y-116185167D01*
X166456883Y-116528943D01*
X166719673Y-116792192D01*
X167063201Y-116934838D01*
X167435167Y-116935162D01*
X167778943Y-116793117D01*
X167812118Y-116760000D01*
X168437537Y-116760000D01*
X168469673Y-116792192D01*
X168813201Y-116934838D01*
X169185167Y-116935162D01*
X169528943Y-116793117D01*
X169792192Y-116530327D01*
X169934838Y-116186799D01*
X169935162Y-115814833D01*
X169793117Y-115471057D01*
X169530327Y-115207808D01*
X169186799Y-115065162D01*
X168814833Y-115064838D01*
X168471057Y-115206883D01*
X168437882Y-115240000D01*
X167812463Y-115240000D01*
X167780327Y-115207808D01*
X167436799Y-115065162D01*
X167064833Y-115064838D01*
X166721057Y-115206883D01*
X166457808Y-115469673D01*
X166315162Y-115813201D01*
X166314838Y-116185167D01*
X160447440Y-116185167D01*
X160447440Y-115700000D01*
X160403162Y-115464683D01*
X160318600Y-115333270D01*
X160563201Y-115434838D01*
X160935167Y-115435162D01*
X161278943Y-115293117D01*
X161542192Y-115030327D01*
X161684838Y-114686799D01*
X161685162Y-114314833D01*
X161543117Y-113971057D01*
X161280327Y-113707808D01*
X160936799Y-113565162D01*
X160564833Y-113564838D01*
X160221057Y-113706883D01*
X160187882Y-113740000D01*
X156250000Y-113740000D01*
X155959160Y-113797852D01*
X155712599Y-113962599D01*
X154610320Y-115064878D01*
X154564833Y-115064838D01*
X154221057Y-115206883D01*
X153957808Y-115469673D01*
X153815162Y-115813201D01*
X153814838Y-116185167D01*
X149389635Y-116185167D01*
X149389680Y-116185122D01*
X149435167Y-116185162D01*
X149778943Y-116043117D01*
X150042192Y-115780327D01*
X150184838Y-115436799D01*
X150185162Y-115064833D01*
X150043117Y-114721057D01*
X149780327Y-114457808D01*
X149436799Y-114315162D01*
X149064833Y-114314838D01*
X148721057Y-114456883D01*
X148457808Y-114719673D01*
X148315162Y-115063201D01*
X148315121Y-115110077D01*
X147435009Y-115990189D01*
X147435162Y-115814833D01*
X147293117Y-115471057D01*
X147030327Y-115207808D01*
X146686799Y-115065162D01*
X146314833Y-115064838D01*
X145971057Y-115206883D01*
X145937882Y-115240000D01*
X144562463Y-115240000D01*
X144530327Y-115207808D01*
X144186799Y-115065162D01*
X143814833Y-115064838D01*
X143471057Y-115206883D01*
X143207808Y-115469673D01*
X143065162Y-115813201D01*
X143064838Y-116185167D01*
X128889635Y-116185167D01*
X131639635Y-113435167D01*
X132564838Y-113435167D01*
X132706883Y-113778943D01*
X132969673Y-114042192D01*
X133313201Y-114184838D01*
X133685167Y-114185162D01*
X134028943Y-114043117D01*
X134292192Y-113780327D01*
X134434838Y-113436799D01*
X134434879Y-113389923D01*
X134814802Y-113010000D01*
X135687537Y-113010000D01*
X135719673Y-113042192D01*
X136063201Y-113184838D01*
X136435167Y-113185162D01*
X136778943Y-113043117D01*
X137042192Y-112780327D01*
X137125028Y-112580838D01*
X137206883Y-112778943D01*
X137240000Y-112812118D01*
X137240000Y-113187537D01*
X137207808Y-113219673D01*
X137065162Y-113563201D01*
X137064838Y-113935167D01*
X137206883Y-114278943D01*
X137469673Y-114542192D01*
X137813201Y-114684838D01*
X138185167Y-114685162D01*
X138528943Y-114543117D01*
X138792192Y-114280327D01*
X138934838Y-113936799D01*
X138935162Y-113564833D01*
X138793117Y-113221057D01*
X138760000Y-113187882D01*
X138760000Y-112812463D01*
X138792192Y-112780327D01*
X138934838Y-112436799D01*
X138935162Y-112064833D01*
X138793117Y-111721057D01*
X138530327Y-111457808D01*
X138186799Y-111315162D01*
X137814833Y-111314838D01*
X137471057Y-111456883D01*
X137207808Y-111719673D01*
X137124972Y-111919162D01*
X137043117Y-111721057D01*
X136780327Y-111457808D01*
X136436799Y-111315162D01*
X136064833Y-111314838D01*
X135721057Y-111456883D01*
X135687882Y-111490000D01*
X134500000Y-111490000D01*
X134209161Y-111547852D01*
X133962599Y-111712599D01*
X133360320Y-112314878D01*
X133314833Y-112314838D01*
X132971057Y-112456883D01*
X132707808Y-112719673D01*
X132565162Y-113063201D01*
X132564838Y-113435167D01*
X131639635Y-113435167D01*
X135537401Y-109537401D01*
X135702148Y-109290839D01*
X135723167Y-109185167D01*
X142814838Y-109185167D01*
X142956883Y-109528943D01*
X143219673Y-109792192D01*
X143563201Y-109934838D01*
X143935167Y-109935162D01*
X144278943Y-109793117D01*
X144312118Y-109760000D01*
X145187537Y-109760000D01*
X145219673Y-109792192D01*
X145563201Y-109934838D01*
X145935167Y-109935162D01*
X146278943Y-109793117D01*
X146542192Y-109530327D01*
X146684838Y-109186799D01*
X146685162Y-108814833D01*
X146543117Y-108471057D01*
X146280327Y-108207808D01*
X145936799Y-108065162D01*
X145564833Y-108064838D01*
X145221057Y-108206883D01*
X145187882Y-108240000D01*
X144312463Y-108240000D01*
X144280327Y-108207808D01*
X143936799Y-108065162D01*
X143564833Y-108064838D01*
X143221057Y-108206883D01*
X142957808Y-108469673D01*
X142815162Y-108813201D01*
X142814838Y-109185167D01*
X135723167Y-109185167D01*
X135760000Y-109000000D01*
X135760000Y-103435167D01*
X148314838Y-103435167D01*
X148456883Y-103778943D01*
X148490000Y-103812118D01*
X148490000Y-109437537D01*
X148457808Y-109469673D01*
X148315162Y-109813201D01*
X148314838Y-110185167D01*
X148456883Y-110528943D01*
X148719673Y-110792192D01*
X149063201Y-110934838D01*
X149435167Y-110935162D01*
X149778943Y-110793117D01*
X150042192Y-110530327D01*
X150184838Y-110186799D01*
X150185162Y-109814833D01*
X150043117Y-109471057D01*
X150010000Y-109437882D01*
X150010000Y-109435167D01*
X156814838Y-109435167D01*
X156956883Y-109778943D01*
X157219673Y-110042192D01*
X157563201Y-110184838D01*
X157935167Y-110185162D01*
X158278943Y-110043117D01*
X158312118Y-110010000D01*
X159687537Y-110010000D01*
X159719673Y-110042192D01*
X160063201Y-110184838D01*
X160435167Y-110185162D01*
X160778943Y-110043117D01*
X161042192Y-109780327D01*
X161184838Y-109436799D01*
X161185162Y-109064833D01*
X161043117Y-108721057D01*
X160780327Y-108457808D01*
X160436799Y-108315162D01*
X160064833Y-108314838D01*
X159721057Y-108456883D01*
X159687882Y-108490000D01*
X158312463Y-108490000D01*
X158280327Y-108457808D01*
X157936799Y-108315162D01*
X157564833Y-108314838D01*
X157221057Y-108456883D01*
X156957808Y-108719673D01*
X156815162Y-109063201D01*
X156814838Y-109435167D01*
X150010000Y-109435167D01*
X150010000Y-103812463D01*
X150042192Y-103780327D01*
X150184838Y-103436799D01*
X150185162Y-103064833D01*
X150043117Y-102721057D01*
X149780327Y-102457808D01*
X149436799Y-102315162D01*
X149064833Y-102314838D01*
X148721057Y-102456883D01*
X148457808Y-102719673D01*
X148315162Y-103063201D01*
X148314838Y-103435167D01*
X135760000Y-103435167D01*
X135760000Y-100900000D01*
X153852560Y-100900000D01*
X153852560Y-102500000D01*
X153896838Y-102735317D01*
X154035910Y-102951441D01*
X154248110Y-103096431D01*
X154500000Y-103147440D01*
X156100000Y-103147440D01*
X156335317Y-103103162D01*
X156551441Y-102964090D01*
X156696431Y-102751890D01*
X156747440Y-102500000D01*
X156747440Y-100900000D01*
X156703162Y-100664683D01*
X156564090Y-100448559D01*
X156351890Y-100303569D01*
X156100000Y-100252560D01*
X154500000Y-100252560D01*
X154264683Y-100296838D01*
X154048559Y-100435910D01*
X153903569Y-100648110D01*
X153852560Y-100900000D01*
X135760000Y-100900000D01*
X135760000Y-100062463D01*
X135792192Y-100030327D01*
X135934838Y-99686799D01*
X135934839Y-99685167D01*
X160314838Y-99685167D01*
X160456883Y-100028943D01*
X160719673Y-100292192D01*
X161063201Y-100434838D01*
X161435167Y-100435162D01*
X161778943Y-100293117D01*
X162042192Y-100030327D01*
X162184838Y-99686799D01*
X162184879Y-99639923D01*
X163639680Y-98185122D01*
X163685167Y-98185162D01*
X164028943Y-98043117D01*
X164292192Y-97780327D01*
X164434838Y-97436799D01*
X164435162Y-97064833D01*
X164293117Y-96721057D01*
X164030327Y-96457808D01*
X163686799Y-96315162D01*
X163314833Y-96314838D01*
X162971057Y-96456883D01*
X162707808Y-96719673D01*
X162565162Y-97063201D01*
X162565121Y-97110077D01*
X161110320Y-98564878D01*
X161064833Y-98564838D01*
X160721057Y-98706883D01*
X160457808Y-98969673D01*
X160315162Y-99313201D01*
X160314838Y-99685167D01*
X135934839Y-99685167D01*
X135935162Y-99314833D01*
X135793117Y-98971057D01*
X135530327Y-98707808D01*
X135186799Y-98565162D01*
X134814833Y-98564838D01*
X134471057Y-98706883D01*
X134207808Y-98969673D01*
X134065162Y-99313201D01*
X134064838Y-99685167D01*
X134206883Y-100028943D01*
X134240000Y-100062118D01*
X134240000Y-108685198D01*
X132760000Y-110165198D01*
X132760000Y-104562463D01*
X132792192Y-104530327D01*
X132934838Y-104186799D01*
X132935162Y-103814833D01*
X132793117Y-103471057D01*
X132530327Y-103207808D01*
X132186799Y-103065162D01*
X131814833Y-103064838D01*
X131471057Y-103206883D01*
X131207808Y-103469673D01*
X131065162Y-103813201D01*
X131064838Y-104185167D01*
X131206883Y-104528943D01*
X131240000Y-104562118D01*
X131240000Y-110185198D01*
X126360320Y-115064878D01*
X126314833Y-115064838D01*
X125971057Y-115206883D01*
X125707808Y-115469673D01*
X125565162Y-115813201D01*
X125564838Y-116185167D01*
X121639635Y-116185167D01*
X126037401Y-111787401D01*
X126202148Y-111540839D01*
X126260000Y-111250000D01*
X126260000Y-109312463D01*
X126292192Y-109280327D01*
X126434838Y-108936799D01*
X126435162Y-108564833D01*
X126293117Y-108221057D01*
X126030327Y-107957808D01*
X125686799Y-107815162D01*
X125314833Y-107814838D01*
X124971057Y-107956883D01*
X124707808Y-108219673D01*
X124565162Y-108563201D01*
X124564838Y-108935167D01*
X124706883Y-109278943D01*
X124740000Y-109312118D01*
X124740000Y-110935198D01*
X119110320Y-116564878D01*
X119064833Y-116564838D01*
X118721057Y-116706883D01*
X118457808Y-116969673D01*
X118315162Y-117313201D01*
X118314838Y-117685167D01*
X106065225Y-117685167D01*
X106235317Y-117653162D01*
X106451441Y-117514090D01*
X106596431Y-117301890D01*
X106647440Y-117050000D01*
X106647440Y-115350000D01*
X106603162Y-115114683D01*
X106464090Y-114898559D01*
X106251890Y-114753569D01*
X106184459Y-114739914D01*
X106229147Y-114710054D01*
X106551054Y-114228285D01*
X106664093Y-113660000D01*
X106551054Y-113091715D01*
X106229147Y-112609946D01*
X105899974Y-112390000D01*
X106229147Y-112170054D01*
X106551054Y-111688285D01*
X106664093Y-111120000D01*
X106551054Y-110551715D01*
X106229147Y-110069946D01*
X105747378Y-109748039D01*
X105179093Y-109635000D01*
X105120907Y-109635000D01*
X104552622Y-109748039D01*
X104070853Y-110069946D01*
X103748946Y-110551715D01*
X103635907Y-111120000D01*
X100710000Y-111120000D01*
X100710000Y-107000000D01*
X107240000Y-107000000D01*
X107240000Y-107500000D01*
X107297852Y-107790839D01*
X107462599Y-108037401D01*
X116064878Y-116639680D01*
X116064838Y-116685167D01*
X116206883Y-117028943D01*
X116469673Y-117292192D01*
X116813201Y-117434838D01*
X117185167Y-117435162D01*
X117528943Y-117293117D01*
X117792192Y-117030327D01*
X117934838Y-116686799D01*
X117935147Y-116331873D01*
X118028943Y-116293117D01*
X118292192Y-116030327D01*
X118434838Y-115686799D01*
X118435162Y-115314833D01*
X118293117Y-114971057D01*
X118030327Y-114707808D01*
X117686799Y-114565162D01*
X117639923Y-114565121D01*
X109935122Y-106860320D01*
X109935162Y-106814833D01*
X109922102Y-106783223D01*
X119553035Y-106783223D01*
X119580222Y-107353454D01*
X119746136Y-107754005D01*
X119992255Y-107828139D01*
X120820395Y-107000000D01*
X119992255Y-106171861D01*
X119746136Y-106245995D01*
X119553035Y-106783223D01*
X109922102Y-106783223D01*
X109804931Y-106499649D01*
X109934838Y-106186799D01*
X109935007Y-105992255D01*
X120171861Y-105992255D01*
X121000000Y-106820395D01*
X121014142Y-106806252D01*
X121193748Y-106985858D01*
X121179605Y-107000000D01*
X121193748Y-107014143D01*
X121014142Y-107193748D01*
X121000000Y-107179605D01*
X120171861Y-108007745D01*
X120245995Y-108253864D01*
X120783223Y-108446965D01*
X121353454Y-108419778D01*
X121744947Y-108257616D01*
X121948110Y-108396431D01*
X122200000Y-108447440D01*
X123800000Y-108447440D01*
X124035317Y-108403162D01*
X124251441Y-108264090D01*
X124396431Y-108051890D01*
X124447440Y-107800000D01*
X124447440Y-106200000D01*
X124403162Y-105964683D01*
X124264090Y-105748559D01*
X124051890Y-105603569D01*
X123800000Y-105552560D01*
X122200000Y-105552560D01*
X121964683Y-105596838D01*
X121748559Y-105735910D01*
X121744023Y-105742548D01*
X121216777Y-105553035D01*
X120646546Y-105580222D01*
X120245995Y-105746136D01*
X120171861Y-105992255D01*
X109935007Y-105992255D01*
X109935162Y-105814833D01*
X109793117Y-105471057D01*
X109530327Y-105207808D01*
X109186799Y-105065162D01*
X108814833Y-105064838D01*
X108471057Y-105206883D01*
X108207808Y-105469673D01*
X108065162Y-105813201D01*
X108065121Y-105860077D01*
X107462599Y-106462599D01*
X107297852Y-106709161D01*
X107240000Y-107000000D01*
X100710000Y-107000000D01*
X100710000Y-94185167D01*
X148314838Y-94185167D01*
X148456883Y-94528943D01*
X148490000Y-94562118D01*
X148490000Y-95937537D01*
X148457808Y-95969673D01*
X148315162Y-96313201D01*
X148314838Y-96685167D01*
X148456883Y-97028943D01*
X148719673Y-97292192D01*
X149063201Y-97434838D01*
X149435167Y-97435162D01*
X149778943Y-97293117D01*
X150042192Y-97030327D01*
X150184838Y-96686799D01*
X150185162Y-96314833D01*
X150043117Y-95971057D01*
X150010000Y-95937882D01*
X150010000Y-94562463D01*
X150042192Y-94530327D01*
X150184838Y-94186799D01*
X150185162Y-93814833D01*
X150043117Y-93471057D01*
X149780327Y-93207808D01*
X149436799Y-93065162D01*
X149064833Y-93064838D01*
X148721057Y-93206883D01*
X148457808Y-93469673D01*
X148315162Y-93813201D01*
X148314838Y-94185167D01*
X100710000Y-94185167D01*
X100710000Y-91022815D01*
X103664630Y-91022815D01*
X103988980Y-91807800D01*
X104589041Y-92408909D01*
X105373459Y-92734628D01*
X106222815Y-92735370D01*
X107007800Y-92411020D01*
X107608909Y-91810959D01*
X107934628Y-91026541D01*
X107935370Y-90177185D01*
X107611020Y-89392200D01*
X107010959Y-88791091D01*
X106226541Y-88465372D01*
X105377185Y-88464630D01*
X104592200Y-88788980D01*
X103991091Y-89389041D01*
X103665372Y-90173459D01*
X103664630Y-91022815D01*
X100710000Y-91022815D01*
X100710000Y-85942815D01*
X103664630Y-85942815D01*
X103988980Y-86727800D01*
X104589041Y-87328909D01*
X105373459Y-87654628D01*
X106222815Y-87655370D01*
X107007800Y-87331020D01*
X107608909Y-86730959D01*
X107934628Y-85946541D01*
X107935370Y-85097185D01*
X107611020Y-84312200D01*
X107010959Y-83711091D01*
X106226541Y-83385372D01*
X105377185Y-83384630D01*
X104592200Y-83708980D01*
X103991091Y-84309041D01*
X103665372Y-85093459D01*
X103664630Y-85942815D01*
X100710000Y-85942815D01*
X100710000Y-80685167D01*
X118564838Y-80685167D01*
X118706883Y-81028943D01*
X118969673Y-81292192D01*
X119313201Y-81434838D01*
X119360077Y-81434879D01*
X124740000Y-86814802D01*
X124740000Y-91437537D01*
X124707808Y-91469673D01*
X124565162Y-91813201D01*
X124564838Y-92185167D01*
X124706883Y-92528943D01*
X124969673Y-92792192D01*
X125313201Y-92934838D01*
X125685167Y-92935162D01*
X126028943Y-92793117D01*
X126292192Y-92530327D01*
X126434838Y-92186799D01*
X126435162Y-91814833D01*
X126309988Y-91511887D01*
X153865000Y-91511887D01*
X153865000Y-91568113D01*
X153974233Y-92117264D01*
X154285302Y-92582811D01*
X154750849Y-92893880D01*
X155300000Y-93003113D01*
X155849151Y-92893880D01*
X156314698Y-92582811D01*
X156625767Y-92117264D01*
X156637776Y-92056890D01*
X172358524Y-92056890D01*
X172528355Y-92466924D01*
X172918642Y-92895183D01*
X173443108Y-93141486D01*
X173673000Y-93020819D01*
X173673000Y-91827000D01*
X173927000Y-91827000D01*
X173927000Y-93020819D01*
X174156892Y-93141486D01*
X174681358Y-92895183D01*
X175071645Y-92466924D01*
X175241476Y-92056890D01*
X175120155Y-91827000D01*
X173927000Y-91827000D01*
X173673000Y-91827000D01*
X172479845Y-91827000D01*
X172358524Y-92056890D01*
X156637776Y-92056890D01*
X156735000Y-91568113D01*
X156735000Y-91511887D01*
X156625767Y-90962736D01*
X156314698Y-90497189D01*
X155849151Y-90186120D01*
X155300000Y-90076887D01*
X154750849Y-90186120D01*
X154285302Y-90497189D01*
X153974233Y-90962736D01*
X153865000Y-91511887D01*
X126309988Y-91511887D01*
X126293117Y-91471057D01*
X126260000Y-91437882D01*
X126260000Y-86500000D01*
X126202148Y-86209161D01*
X126202148Y-86209160D01*
X126037401Y-85962599D01*
X125759969Y-85685167D01*
X137064838Y-85685167D01*
X137206883Y-86028943D01*
X137240000Y-86062118D01*
X137240000Y-89187537D01*
X137207808Y-89219673D01*
X137065162Y-89563201D01*
X137064838Y-89935167D01*
X137206883Y-90278943D01*
X137469673Y-90542192D01*
X137813201Y-90684838D01*
X138185167Y-90685162D01*
X138528943Y-90543117D01*
X138792192Y-90280327D01*
X138934838Y-89936799D01*
X138935162Y-89564833D01*
X138793117Y-89221057D01*
X138760000Y-89187882D01*
X138760000Y-86062463D01*
X138792192Y-86030327D01*
X138934838Y-85686799D01*
X138935162Y-85314833D01*
X138922905Y-85285167D01*
X166664838Y-85285167D01*
X166806883Y-85628943D01*
X167069673Y-85892192D01*
X167413201Y-86034838D01*
X167785167Y-86035162D01*
X168128943Y-85893117D01*
X168162118Y-85860000D01*
X168537537Y-85860000D01*
X168569673Y-85892192D01*
X168913201Y-86034838D01*
X169285167Y-86035162D01*
X169628943Y-85893117D01*
X169892192Y-85630327D01*
X170034838Y-85286799D01*
X170035162Y-84914833D01*
X169893117Y-84571057D01*
X169630327Y-84307808D01*
X169286799Y-84165162D01*
X168914833Y-84164838D01*
X168571057Y-84306883D01*
X168537882Y-84340000D01*
X168162463Y-84340000D01*
X168130327Y-84307808D01*
X167786799Y-84165162D01*
X167414833Y-84164838D01*
X167071057Y-84306883D01*
X166807808Y-84569673D01*
X166665162Y-84913201D01*
X166664838Y-85285167D01*
X138922905Y-85285167D01*
X138793117Y-84971057D01*
X138530327Y-84707808D01*
X138186799Y-84565162D01*
X137814833Y-84564838D01*
X137471057Y-84706883D01*
X137207808Y-84969673D01*
X137065162Y-85313201D01*
X137064838Y-85685167D01*
X125759969Y-85685167D01*
X120435122Y-80360320D01*
X120435162Y-80314833D01*
X120293117Y-79971057D01*
X120030327Y-79707808D01*
X119686799Y-79565162D01*
X119314833Y-79564838D01*
X118971057Y-79706883D01*
X118707808Y-79969673D01*
X118565162Y-80313201D01*
X118564838Y-80685167D01*
X100710000Y-80685167D01*
X100710000Y-68935167D01*
X117564838Y-68935167D01*
X117706883Y-69278943D01*
X117969673Y-69542192D01*
X118313201Y-69684838D01*
X118360077Y-69684879D01*
X124814878Y-76139680D01*
X124814838Y-76185167D01*
X124956883Y-76528943D01*
X125219673Y-76792192D01*
X125563201Y-76934838D01*
X125935167Y-76935162D01*
X126278943Y-76793117D01*
X126542192Y-76530327D01*
X126684838Y-76186799D01*
X126685162Y-75814833D01*
X126543117Y-75471057D01*
X126280327Y-75207808D01*
X125936799Y-75065162D01*
X125889923Y-75065121D01*
X125635398Y-74810596D01*
X126301049Y-74810596D01*
X126696573Y-75767838D01*
X127428310Y-76500853D01*
X128384860Y-76898047D01*
X129420596Y-76898951D01*
X130377838Y-76503427D01*
X131110853Y-75771690D01*
X131508047Y-74815140D01*
X131508951Y-73779404D01*
X131113427Y-72822162D01*
X130381690Y-72089147D01*
X129425140Y-71691953D01*
X128389404Y-71691049D01*
X127432162Y-72086573D01*
X126699147Y-72818310D01*
X126301953Y-73774860D01*
X126301049Y-74810596D01*
X125635398Y-74810596D01*
X119435122Y-68610320D01*
X119435162Y-68564833D01*
X119293117Y-68221057D01*
X119030327Y-67957808D01*
X118686799Y-67815162D01*
X118314833Y-67814838D01*
X117971057Y-67956883D01*
X117707808Y-68219673D01*
X117565162Y-68563201D01*
X117564838Y-68935167D01*
X100710000Y-68935167D01*
X100710000Y-67185167D01*
X119064838Y-67185167D01*
X119206883Y-67528943D01*
X119469673Y-67792192D01*
X119813201Y-67934838D01*
X119860077Y-67934879D01*
X124212599Y-72287401D01*
X124459160Y-72452148D01*
X124482965Y-72456883D01*
X124750000Y-72510000D01*
X125437537Y-72510000D01*
X125469673Y-72542192D01*
X125813201Y-72684838D01*
X126185167Y-72685162D01*
X126528943Y-72543117D01*
X126792192Y-72280327D01*
X126934838Y-71936799D01*
X126935162Y-71564833D01*
X126793117Y-71221057D01*
X126530327Y-70957808D01*
X126186799Y-70815162D01*
X125814833Y-70814838D01*
X125471057Y-70956883D01*
X125437882Y-70990000D01*
X125064802Y-70990000D01*
X120935122Y-66860320D01*
X120935162Y-66814833D01*
X120793117Y-66471057D01*
X120530327Y-66207808D01*
X120186799Y-66065162D01*
X119814833Y-66064838D01*
X119471057Y-66206883D01*
X119207808Y-66469673D01*
X119065162Y-66813201D01*
X119064838Y-67185167D01*
X100710000Y-67185167D01*
X100710000Y-56935167D01*
X103814838Y-56935167D01*
X103956883Y-57278943D01*
X104219673Y-57542192D01*
X104563201Y-57684838D01*
X104610077Y-57684879D01*
X107165198Y-60240000D01*
X107062463Y-60240000D01*
X107030327Y-60207808D01*
X106686799Y-60065162D01*
X106314833Y-60064838D01*
X105971057Y-60206883D01*
X105707808Y-60469673D01*
X105565162Y-60813201D01*
X105564838Y-61185167D01*
X105706883Y-61528943D01*
X105969673Y-61792192D01*
X106313201Y-61934838D01*
X106685167Y-61935162D01*
X107028943Y-61793117D01*
X107062118Y-61760000D01*
X108937537Y-61760000D01*
X108969673Y-61792192D01*
X109313201Y-61934838D01*
X109685167Y-61935162D01*
X110028943Y-61793117D01*
X110248821Y-61573623D01*
X113064878Y-64389680D01*
X113064838Y-64435167D01*
X113206883Y-64778943D01*
X113469673Y-65042192D01*
X113813201Y-65184838D01*
X114185167Y-65185162D01*
X114528943Y-65043117D01*
X114792192Y-64780327D01*
X114934838Y-64436799D01*
X114935162Y-64064833D01*
X114793117Y-63721057D01*
X114530327Y-63457808D01*
X114186799Y-63315162D01*
X114139923Y-63315121D01*
X113009969Y-62185167D01*
X116314838Y-62185167D01*
X116456883Y-62528943D01*
X116490000Y-62562118D01*
X116490000Y-63687537D01*
X116457808Y-63719673D01*
X116315162Y-64063201D01*
X116314838Y-64435167D01*
X116456883Y-64778943D01*
X116719673Y-65042192D01*
X117063201Y-65184838D01*
X117435167Y-65185162D01*
X117778943Y-65043117D01*
X118042192Y-64780327D01*
X118184838Y-64436799D01*
X118185162Y-64064833D01*
X118043117Y-63721057D01*
X118010000Y-63687882D01*
X118010000Y-63685167D01*
X119814838Y-63685167D01*
X119956883Y-64028943D01*
X120219673Y-64292192D01*
X120563201Y-64434838D01*
X120935167Y-64435162D01*
X121278943Y-64293117D01*
X121312118Y-64260000D01*
X127687537Y-64260000D01*
X127719673Y-64292192D01*
X128063201Y-64434838D01*
X128435167Y-64435162D01*
X128778943Y-64293117D01*
X129042192Y-64030327D01*
X129184838Y-63686799D01*
X129184839Y-63685167D01*
X133314838Y-63685167D01*
X133456883Y-64028943D01*
X133490000Y-64062118D01*
X133490000Y-71750000D01*
X133547852Y-72040839D01*
X133712599Y-72287401D01*
X134712599Y-73287401D01*
X134959161Y-73452148D01*
X135250000Y-73510000D01*
X136259026Y-73510000D01*
X136056258Y-73998319D01*
X136055743Y-74589089D01*
X136281344Y-75135086D01*
X136441229Y-75295250D01*
X136171057Y-75406883D01*
X136137882Y-75440000D01*
X135167028Y-75440000D01*
X134986799Y-75365162D01*
X134614833Y-75364838D01*
X134271057Y-75506883D01*
X134007808Y-75769673D01*
X133865162Y-76113201D01*
X133864838Y-76485167D01*
X134006883Y-76828943D01*
X134269673Y-77092192D01*
X134613201Y-77234838D01*
X134985167Y-77235162D01*
X135328943Y-77093117D01*
X135462293Y-76960000D01*
X136137537Y-76960000D01*
X136169673Y-76992192D01*
X136513201Y-77134838D01*
X136885167Y-77135162D01*
X137228943Y-76993117D01*
X137492192Y-76730327D01*
X137634838Y-76386799D01*
X137635162Y-76014833D01*
X137538130Y-75779998D01*
X137835089Y-75780257D01*
X138381086Y-75554656D01*
X138597160Y-75338958D01*
X139216647Y-75338958D01*
X139296920Y-75590259D01*
X139852279Y-75791718D01*
X140442458Y-75765315D01*
X140865080Y-75590259D01*
X140945353Y-75338958D01*
X140081000Y-74474605D01*
X139216647Y-75338958D01*
X138597160Y-75338958D01*
X138799188Y-75137283D01*
X138818951Y-75089688D01*
X139037042Y-75159353D01*
X139901395Y-74295000D01*
X140260605Y-74295000D01*
X141124958Y-75159353D01*
X141342640Y-75089819D01*
X141361344Y-75135086D01*
X141778717Y-75553188D01*
X141861000Y-75587355D01*
X141861000Y-81621000D01*
X141918852Y-81911839D01*
X142083599Y-82158401D01*
X142502560Y-82577362D01*
X142502560Y-83850000D01*
X142546838Y-84085317D01*
X142685910Y-84301441D01*
X142898110Y-84446431D01*
X143150000Y-84497440D01*
X144850000Y-84497440D01*
X145085317Y-84453162D01*
X145301441Y-84314090D01*
X145446431Y-84101890D01*
X145460086Y-84034459D01*
X145489946Y-84079147D01*
X145971715Y-84401054D01*
X146540000Y-84514093D01*
X147108285Y-84401054D01*
X147590054Y-84079147D01*
X147810000Y-83749974D01*
X148029946Y-84079147D01*
X148511715Y-84401054D01*
X149080000Y-84514093D01*
X149648285Y-84401054D01*
X150130054Y-84079147D01*
X150350000Y-83749974D01*
X150569946Y-84079147D01*
X151051715Y-84401054D01*
X151620000Y-84514093D01*
X152188285Y-84401054D01*
X152670054Y-84079147D01*
X152890000Y-83749974D01*
X153109946Y-84079147D01*
X153591715Y-84401054D01*
X154160000Y-84514093D01*
X154728285Y-84401054D01*
X155201044Y-84085167D01*
X164364838Y-84085167D01*
X164506883Y-84428943D01*
X164769673Y-84692192D01*
X165113201Y-84834838D01*
X165485167Y-84835162D01*
X165828943Y-84693117D01*
X166092192Y-84430327D01*
X166197086Y-84177716D01*
X166439680Y-83935122D01*
X166485167Y-83935162D01*
X166828943Y-83793117D01*
X166862118Y-83760000D01*
X168637537Y-83760000D01*
X168669673Y-83792192D01*
X169013201Y-83934838D01*
X169385167Y-83935162D01*
X169728943Y-83793117D01*
X169992192Y-83530327D01*
X170134838Y-83186799D01*
X170135162Y-82814833D01*
X169993117Y-82471057D01*
X169730327Y-82207808D01*
X169386799Y-82065162D01*
X169014833Y-82064838D01*
X168671057Y-82206883D01*
X168637882Y-82240000D01*
X166862463Y-82240000D01*
X166830327Y-82207808D01*
X166486799Y-82065162D01*
X166114833Y-82064838D01*
X165771057Y-82206883D01*
X165507808Y-82469673D01*
X165365162Y-82813201D01*
X165365121Y-82860077D01*
X165260233Y-82964965D01*
X165114833Y-82964838D01*
X164771057Y-83106883D01*
X164507808Y-83369673D01*
X164365162Y-83713201D01*
X164364838Y-84085167D01*
X155201044Y-84085167D01*
X155210054Y-84079147D01*
X155531961Y-83597378D01*
X155645000Y-83029093D01*
X155645000Y-82970907D01*
X155531961Y-82402622D01*
X155210054Y-81920853D01*
X154728285Y-81598946D01*
X154160000Y-81485907D01*
X153591715Y-81598946D01*
X153109946Y-81920853D01*
X152890000Y-82250026D01*
X152670054Y-81920853D01*
X152188285Y-81598946D01*
X151620000Y-81485907D01*
X151051715Y-81598946D01*
X150569946Y-81920853D01*
X150350000Y-82250026D01*
X150130054Y-81920853D01*
X149648285Y-81598946D01*
X149080000Y-81485907D01*
X148713592Y-81558790D01*
X148461000Y-81306198D01*
X148461000Y-75587747D01*
X148541086Y-75554656D01*
X148959188Y-75137283D01*
X148970748Y-75109443D01*
X148981344Y-75135086D01*
X149398717Y-75553188D01*
X149944319Y-75779742D01*
X150535089Y-75780257D01*
X151081086Y-75554656D01*
X151499188Y-75137283D01*
X151510748Y-75109443D01*
X151521344Y-75135086D01*
X151938717Y-75553188D01*
X152022378Y-75587927D01*
X152078852Y-75871839D01*
X152243599Y-76118401D01*
X152615198Y-76490000D01*
X152562463Y-76490000D01*
X152530327Y-76457808D01*
X152186799Y-76315162D01*
X151814833Y-76314838D01*
X151471057Y-76456883D01*
X151207808Y-76719673D01*
X151065162Y-77063201D01*
X151064838Y-77435167D01*
X151206883Y-77778943D01*
X151469673Y-78042192D01*
X151813201Y-78184838D01*
X152185167Y-78185162D01*
X152528943Y-78043117D01*
X152562118Y-78010000D01*
X155250000Y-78010000D01*
X155540839Y-77952148D01*
X155787401Y-77787401D01*
X155830850Y-77743952D01*
X155765000Y-78075002D01*
X155851397Y-78509347D01*
X156097434Y-78877568D01*
X156458752Y-79118992D01*
X156307808Y-79269673D01*
X156165162Y-79613201D01*
X156164838Y-79985167D01*
X156306883Y-80328943D01*
X156569673Y-80592192D01*
X156913201Y-80734838D01*
X157008548Y-80734921D01*
X157109161Y-80802148D01*
X157168648Y-80813981D01*
X157065162Y-81063201D01*
X157064838Y-81435167D01*
X157206883Y-81778943D01*
X157469673Y-82042192D01*
X157813201Y-82184838D01*
X158185167Y-82185162D01*
X158528943Y-82043117D01*
X158562118Y-82010000D01*
X160187537Y-82010000D01*
X160219673Y-82042192D01*
X160563201Y-82184838D01*
X160935167Y-82185162D01*
X161278943Y-82043117D01*
X161542192Y-81780327D01*
X161641984Y-81540000D01*
X172285907Y-81540000D01*
X172398946Y-82108285D01*
X172720853Y-82590054D01*
X173050026Y-82810000D01*
X172720853Y-83029946D01*
X172398946Y-83511715D01*
X172285907Y-84080000D01*
X172398946Y-84648285D01*
X172720853Y-85130054D01*
X173050026Y-85350000D01*
X172720853Y-85569946D01*
X172398946Y-86051715D01*
X172285907Y-86620000D01*
X172398946Y-87188285D01*
X172720853Y-87670054D01*
X173050026Y-87890000D01*
X172720853Y-88109946D01*
X172398946Y-88591715D01*
X172285907Y-89160000D01*
X172398946Y-89728285D01*
X172720853Y-90210054D01*
X173061553Y-90437702D01*
X172918642Y-90504817D01*
X172528355Y-90933076D01*
X172358524Y-91343110D01*
X172479845Y-91573000D01*
X173673000Y-91573000D01*
X173673000Y-91553000D01*
X173927000Y-91553000D01*
X173927000Y-91573000D01*
X175120155Y-91573000D01*
X175241476Y-91343110D01*
X175071645Y-90933076D01*
X174681358Y-90504817D01*
X174538447Y-90437702D01*
X174879147Y-90210054D01*
X174985693Y-90050596D01*
X177101049Y-90050596D01*
X177496573Y-91007838D01*
X178228310Y-91740853D01*
X179184860Y-92138047D01*
X180220596Y-92138951D01*
X181177838Y-91743427D01*
X181910853Y-91011690D01*
X182308047Y-90055140D01*
X182308951Y-89019404D01*
X181913427Y-88062162D01*
X181181690Y-87329147D01*
X180225140Y-86931953D01*
X179189404Y-86931049D01*
X178232162Y-87326573D01*
X177499147Y-88058310D01*
X177101953Y-89014860D01*
X177101049Y-90050596D01*
X174985693Y-90050596D01*
X175201054Y-89728285D01*
X175314093Y-89160000D01*
X175201054Y-88591715D01*
X174879147Y-88109946D01*
X174549974Y-87890000D01*
X174879147Y-87670054D01*
X175201054Y-87188285D01*
X175314093Y-86620000D01*
X175201054Y-86051715D01*
X174879147Y-85569946D01*
X174549974Y-85350000D01*
X174879147Y-85130054D01*
X175201054Y-84648285D01*
X175314093Y-84080000D01*
X175201054Y-83511715D01*
X174879147Y-83029946D01*
X174549974Y-82810000D01*
X174879147Y-82590054D01*
X175201054Y-82108285D01*
X175314093Y-81540000D01*
X175201054Y-80971715D01*
X174879147Y-80489946D01*
X174837548Y-80462150D01*
X174885317Y-80453162D01*
X175101441Y-80314090D01*
X175246431Y-80101890D01*
X175297440Y-79850000D01*
X175297440Y-78150000D01*
X175253162Y-77914683D01*
X175114090Y-77698559D01*
X174901890Y-77553569D01*
X174650000Y-77502560D01*
X172950000Y-77502560D01*
X172714683Y-77546838D01*
X172498559Y-77685910D01*
X172353569Y-77898110D01*
X172302560Y-78150000D01*
X172302560Y-79850000D01*
X172346838Y-80085317D01*
X172485910Y-80301441D01*
X172698110Y-80446431D01*
X172765541Y-80460086D01*
X172720853Y-80489946D01*
X172398946Y-80971715D01*
X172285907Y-81540000D01*
X161641984Y-81540000D01*
X161684838Y-81436799D01*
X161685162Y-81064833D01*
X161543117Y-80721057D01*
X161280327Y-80457808D01*
X160936799Y-80315162D01*
X160564833Y-80314838D01*
X160221057Y-80456883D01*
X160187882Y-80490000D01*
X158562463Y-80490000D01*
X158530327Y-80457808D01*
X158238268Y-80336534D01*
X159089635Y-79485167D01*
X160764838Y-79485167D01*
X160906883Y-79828943D01*
X161169673Y-80092192D01*
X161513201Y-80234838D01*
X161560077Y-80234879D01*
X161864878Y-80539680D01*
X161864838Y-80585167D01*
X162006883Y-80928943D01*
X162269673Y-81192192D01*
X162613201Y-81334838D01*
X162985167Y-81335162D01*
X163328943Y-81193117D01*
X163592192Y-80930327D01*
X163734838Y-80586799D01*
X163735162Y-80214833D01*
X163593117Y-79871057D01*
X163330327Y-79607808D01*
X162986799Y-79465162D01*
X162939923Y-79465121D01*
X162635122Y-79160320D01*
X162635162Y-79114833D01*
X162493117Y-78771057D01*
X162230327Y-78507808D01*
X161886799Y-78365162D01*
X161514833Y-78364838D01*
X161171057Y-78506883D01*
X160907808Y-78769673D01*
X160765162Y-79113201D01*
X160764838Y-79485167D01*
X159089635Y-79485167D01*
X159837401Y-78737401D01*
X160002148Y-78490839D01*
X160060000Y-78200000D01*
X160060000Y-75622868D01*
X160225086Y-75554656D01*
X160643188Y-75137283D01*
X160654748Y-75109443D01*
X160665344Y-75135086D01*
X161082717Y-75553188D01*
X161628319Y-75779742D01*
X162219089Y-75780257D01*
X162765086Y-75554656D01*
X163183188Y-75137283D01*
X163194748Y-75109443D01*
X163205344Y-75135086D01*
X163622717Y-75553188D01*
X164168319Y-75779742D01*
X164759089Y-75780257D01*
X165305086Y-75554656D01*
X165723188Y-75137283D01*
X165734748Y-75109443D01*
X165745344Y-75135086D01*
X166162717Y-75553188D01*
X166708319Y-75779742D01*
X167299089Y-75780257D01*
X167845086Y-75554656D01*
X168263188Y-75137283D01*
X168274748Y-75109443D01*
X168285344Y-75135086D01*
X168702717Y-75553188D01*
X169248319Y-75779742D01*
X169839089Y-75780257D01*
X170385086Y-75554656D01*
X170803188Y-75137283D01*
X170814748Y-75109443D01*
X170825344Y-75135086D01*
X171242717Y-75553188D01*
X171788319Y-75779742D01*
X172379089Y-75780257D01*
X172925086Y-75554656D01*
X173343188Y-75137283D01*
X173354748Y-75109443D01*
X173365344Y-75135086D01*
X173782717Y-75553188D01*
X174328319Y-75779742D01*
X174919089Y-75780257D01*
X175465086Y-75554656D01*
X175883188Y-75137283D01*
X175894748Y-75109443D01*
X175905344Y-75135086D01*
X176322717Y-75553188D01*
X176868319Y-75779742D01*
X177459089Y-75780257D01*
X178005086Y-75554656D01*
X178375220Y-75185167D01*
X181064838Y-75185167D01*
X181206883Y-75528943D01*
X181469673Y-75792192D01*
X181813201Y-75934838D01*
X182185167Y-75935162D01*
X182528943Y-75793117D01*
X182792192Y-75530327D01*
X182934838Y-75186799D01*
X182934879Y-75139923D01*
X184389680Y-73685122D01*
X184435167Y-73685162D01*
X184778943Y-73543117D01*
X185042192Y-73280327D01*
X185184838Y-72936799D01*
X185185162Y-72564833D01*
X185043117Y-72221057D01*
X184780327Y-71957808D01*
X184436799Y-71815162D01*
X184064833Y-71814838D01*
X183721057Y-71956883D01*
X183457808Y-72219673D01*
X183315162Y-72563201D01*
X183315121Y-72610077D01*
X181860320Y-74064878D01*
X181814833Y-74064838D01*
X181471057Y-74206883D01*
X181207808Y-74469673D01*
X181065162Y-74813201D01*
X181064838Y-75185167D01*
X178375220Y-75185167D01*
X178423188Y-75137283D01*
X178649742Y-74591681D01*
X178650257Y-74000911D01*
X178424656Y-73454914D01*
X178007283Y-73036812D01*
X177461681Y-72810258D01*
X176870911Y-72809743D01*
X176324914Y-73035344D01*
X175906812Y-73452717D01*
X175895252Y-73480557D01*
X175884656Y-73454914D01*
X175467283Y-73036812D01*
X174921681Y-72810258D01*
X174330911Y-72809743D01*
X173784914Y-73035344D01*
X173366812Y-73452717D01*
X173355252Y-73480557D01*
X173344656Y-73454914D01*
X172927283Y-73036812D01*
X172381681Y-72810258D01*
X171790911Y-72809743D01*
X171244914Y-73035344D01*
X170826812Y-73452717D01*
X170815252Y-73480557D01*
X170804656Y-73454914D01*
X170387283Y-73036812D01*
X169841681Y-72810258D01*
X169250911Y-72809743D01*
X168844510Y-72977664D01*
X169042192Y-72780327D01*
X169184838Y-72436799D01*
X169185162Y-72064833D01*
X169043117Y-71721057D01*
X169010000Y-71687882D01*
X169010000Y-70314802D01*
X169589635Y-69735167D01*
X179314838Y-69735167D01*
X179456883Y-70078943D01*
X179719673Y-70342192D01*
X180063201Y-70484838D01*
X180435167Y-70485162D01*
X180496064Y-70460000D01*
X182987537Y-70460000D01*
X183019673Y-70492192D01*
X183363201Y-70634838D01*
X183735167Y-70635162D01*
X184078943Y-70493117D01*
X184342192Y-70230327D01*
X184484838Y-69886799D01*
X184485162Y-69514833D01*
X184343117Y-69171057D01*
X184080327Y-68907808D01*
X183736799Y-68765162D01*
X183364833Y-68764838D01*
X183021057Y-68906883D01*
X182987882Y-68940000D01*
X180962201Y-68940000D01*
X180780327Y-68757808D01*
X180436799Y-68615162D01*
X180064833Y-68614838D01*
X179721057Y-68756883D01*
X179457808Y-69019673D01*
X179315162Y-69363201D01*
X179314838Y-69735167D01*
X169589635Y-69735167D01*
X169639680Y-69685122D01*
X169685167Y-69685162D01*
X170028943Y-69543117D01*
X170292192Y-69280327D01*
X170434838Y-68936799D01*
X170435162Y-68564833D01*
X170293117Y-68221057D01*
X170030327Y-67957808D01*
X169686799Y-67815162D01*
X169314833Y-67814838D01*
X168971057Y-67956883D01*
X168707808Y-68219673D01*
X168565162Y-68563201D01*
X168565121Y-68610077D01*
X167712599Y-69462599D01*
X167547852Y-69709161D01*
X167490000Y-70000000D01*
X167490000Y-71687537D01*
X167457808Y-71719673D01*
X167315162Y-72063201D01*
X167314838Y-72435167D01*
X167456883Y-72778943D01*
X167620155Y-72942500D01*
X167301681Y-72810258D01*
X166710911Y-72809743D01*
X166164914Y-73035344D01*
X165746812Y-73452717D01*
X165735252Y-73480557D01*
X165724656Y-73454914D01*
X165307283Y-73036812D01*
X164761681Y-72810258D01*
X164264977Y-72809825D01*
X164389680Y-72685122D01*
X164435167Y-72685162D01*
X164778943Y-72543117D01*
X165042192Y-72280327D01*
X165184838Y-71936799D01*
X165185162Y-71564833D01*
X165043117Y-71221057D01*
X164780327Y-70957808D01*
X164436799Y-70815162D01*
X164064833Y-70814838D01*
X163721057Y-70956883D01*
X163457808Y-71219673D01*
X163315162Y-71563201D01*
X163315121Y-71610077D01*
X162712599Y-72212599D01*
X162547852Y-72459161D01*
X162505503Y-72672061D01*
X162457808Y-72719673D01*
X162390999Y-72880565D01*
X162221681Y-72810258D01*
X162133605Y-72810181D01*
X162184838Y-72686799D01*
X162185162Y-72314833D01*
X162043117Y-71971057D01*
X161780327Y-71707808D01*
X161436799Y-71565162D01*
X161064833Y-71564838D01*
X160721057Y-71706883D01*
X160457808Y-71969673D01*
X160449367Y-71990000D01*
X159812463Y-71990000D01*
X159780327Y-71957808D01*
X159617093Y-71890027D01*
X159635000Y-71800000D01*
X159635000Y-69735167D01*
X161064838Y-69735167D01*
X161206883Y-70078943D01*
X161469673Y-70342192D01*
X161813201Y-70484838D01*
X162185167Y-70485162D01*
X162528943Y-70343117D01*
X162562118Y-70310000D01*
X164637886Y-70310000D01*
X164869673Y-70542192D01*
X165213201Y-70684838D01*
X165585167Y-70685162D01*
X165928943Y-70543117D01*
X166192192Y-70280327D01*
X166334838Y-69936799D01*
X166335162Y-69564833D01*
X166193117Y-69221057D01*
X165930327Y-68957808D01*
X165586799Y-68815162D01*
X165325352Y-68814934D01*
X165200000Y-68790000D01*
X162562463Y-68790000D01*
X162530327Y-68757808D01*
X162186799Y-68615162D01*
X161814833Y-68614838D01*
X161471057Y-68756883D01*
X161207808Y-69019673D01*
X161065162Y-69363201D01*
X161064838Y-69735167D01*
X159635000Y-69735167D01*
X159635000Y-69000000D01*
X159548603Y-68565654D01*
X159302566Y-68197434D01*
X158934346Y-67951397D01*
X158500000Y-67865000D01*
X158065654Y-67951397D01*
X157697434Y-68197434D01*
X157451397Y-68565654D01*
X157365000Y-69000000D01*
X157365000Y-71051444D01*
X157213221Y-70988419D01*
X153409969Y-67185167D01*
X171514838Y-67185167D01*
X171656883Y-67528943D01*
X171919673Y-67792192D01*
X172263201Y-67934838D01*
X172310077Y-67934879D01*
X173162599Y-68787401D01*
X173409161Y-68952148D01*
X173700000Y-69010000D01*
X174037537Y-69010000D01*
X174069673Y-69042192D01*
X174413201Y-69184838D01*
X174785167Y-69185162D01*
X175128943Y-69043117D01*
X175392192Y-68780327D01*
X175534838Y-68436799D01*
X175535162Y-68064833D01*
X175393117Y-67721057D01*
X175130327Y-67457808D01*
X174786799Y-67315162D01*
X174414833Y-67314838D01*
X174071057Y-67456883D01*
X174037882Y-67490000D01*
X174014802Y-67490000D01*
X173385122Y-66860320D01*
X173385162Y-66814833D01*
X173243117Y-66471057D01*
X172980327Y-66207808D01*
X172636799Y-66065162D01*
X172264833Y-66064838D01*
X171921057Y-66206883D01*
X171657808Y-66469673D01*
X171515162Y-66813201D01*
X171514838Y-67185167D01*
X153409969Y-67185167D01*
X148085122Y-61860320D01*
X148085131Y-61850000D01*
X179302560Y-61850000D01*
X179302560Y-65050000D01*
X179346838Y-65285317D01*
X179485910Y-65501441D01*
X179698110Y-65646431D01*
X179950000Y-65697440D01*
X183150000Y-65697440D01*
X183385317Y-65653162D01*
X183601441Y-65514090D01*
X183746431Y-65301890D01*
X183797440Y-65050000D01*
X183797440Y-61850000D01*
X183753162Y-61614683D01*
X183614090Y-61398559D01*
X183401890Y-61253569D01*
X183150000Y-61202560D01*
X179950000Y-61202560D01*
X179714683Y-61246838D01*
X179498559Y-61385910D01*
X179353569Y-61598110D01*
X179302560Y-61850000D01*
X148085131Y-61850000D01*
X148085162Y-61814833D01*
X147943117Y-61471057D01*
X147680327Y-61207808D01*
X147336799Y-61065162D01*
X146964833Y-61064838D01*
X146621057Y-61206883D01*
X146357808Y-61469673D01*
X146215162Y-61813201D01*
X146214838Y-62185167D01*
X146356883Y-62528943D01*
X146619673Y-62792192D01*
X146963201Y-62934838D01*
X147010077Y-62934879D01*
X155915008Y-71839810D01*
X155914838Y-72035167D01*
X156056883Y-72378943D01*
X156316845Y-72639359D01*
X156265000Y-72900000D01*
X156265000Y-73138707D01*
X156163283Y-73036812D01*
X155617681Y-72810258D01*
X155026911Y-72809743D01*
X154745301Y-72926102D01*
X154702148Y-72709161D01*
X154537401Y-72462599D01*
X153685122Y-71610320D01*
X153685162Y-71564833D01*
X153543117Y-71221057D01*
X153280327Y-70957808D01*
X152936799Y-70815162D01*
X152564833Y-70814838D01*
X152221057Y-70956883D01*
X151957808Y-71219673D01*
X151815162Y-71563201D01*
X151814838Y-71935167D01*
X151956883Y-72278943D01*
X152219673Y-72542192D01*
X152563201Y-72684838D01*
X152610077Y-72684879D01*
X152735157Y-72809959D01*
X152486911Y-72809743D01*
X151940914Y-73035344D01*
X151522812Y-73452717D01*
X151511252Y-73480557D01*
X151500656Y-73454914D01*
X151083283Y-73036812D01*
X150537681Y-72810258D01*
X149946911Y-72809743D01*
X149400914Y-73035344D01*
X148982812Y-73452717D01*
X148971252Y-73480557D01*
X148960656Y-73454914D01*
X148543283Y-73036812D01*
X147997681Y-72810258D01*
X147406911Y-72809743D01*
X146860914Y-73035344D01*
X146442812Y-73452717D01*
X146431252Y-73480557D01*
X146420656Y-73454914D01*
X146003283Y-73036812D01*
X145457681Y-72810258D01*
X144866911Y-72809743D01*
X144320914Y-73035344D01*
X143902812Y-73452717D01*
X143891252Y-73480557D01*
X143880656Y-73454914D01*
X143463283Y-73036812D01*
X142917681Y-72810258D01*
X142326911Y-72809743D01*
X141780914Y-73035344D01*
X141362812Y-73452717D01*
X141343049Y-73500312D01*
X141124958Y-73430647D01*
X140260605Y-74295000D01*
X139901395Y-74295000D01*
X139037042Y-73430647D01*
X138819360Y-73500181D01*
X138800656Y-73454914D01*
X138597140Y-73251042D01*
X139216647Y-73251042D01*
X140081000Y-74115395D01*
X140945353Y-73251042D01*
X140865080Y-72999741D01*
X140309721Y-72798282D01*
X139719542Y-72824685D01*
X139296920Y-72999741D01*
X139216647Y-73251042D01*
X138597140Y-73251042D01*
X138390364Y-73043905D01*
X138434838Y-72936799D01*
X138435024Y-72723242D01*
X138628943Y-72643117D01*
X138892192Y-72380327D01*
X139034838Y-72036799D01*
X139035162Y-71664833D01*
X138893117Y-71321057D01*
X138860000Y-71287882D01*
X138860000Y-64685167D01*
X139564838Y-64685167D01*
X139706883Y-65028943D01*
X139740000Y-65062118D01*
X139740000Y-71187537D01*
X139707808Y-71219673D01*
X139565162Y-71563201D01*
X139564838Y-71935167D01*
X139706883Y-72278943D01*
X139969673Y-72542192D01*
X140313201Y-72684838D01*
X140685167Y-72685162D01*
X141028943Y-72543117D01*
X141292192Y-72280327D01*
X141434838Y-71936799D01*
X141435162Y-71564833D01*
X141293117Y-71221057D01*
X141260000Y-71187882D01*
X141260000Y-65062463D01*
X141292192Y-65030327D01*
X141434838Y-64686799D01*
X141435162Y-64314833D01*
X141293117Y-63971057D01*
X141030327Y-63707808D01*
X140686799Y-63565162D01*
X140314833Y-63564838D01*
X139971057Y-63706883D01*
X139707808Y-63969673D01*
X139565162Y-64313201D01*
X139564838Y-64685167D01*
X138860000Y-64685167D01*
X138860000Y-64412289D01*
X138992192Y-64280327D01*
X139134838Y-63936799D01*
X139135162Y-63564833D01*
X138993117Y-63221057D01*
X138730327Y-62957808D01*
X138386799Y-62815162D01*
X138014833Y-62814838D01*
X137671057Y-62956883D01*
X137407808Y-63219673D01*
X137265162Y-63563201D01*
X137264838Y-63935167D01*
X137340000Y-64117073D01*
X137340000Y-71287537D01*
X137307808Y-71319673D01*
X137165162Y-71663201D01*
X137164976Y-71876758D01*
X136971057Y-71956883D01*
X136937882Y-71990000D01*
X135564802Y-71990000D01*
X135010000Y-71435198D01*
X135010000Y-64062463D01*
X135042192Y-64030327D01*
X135184838Y-63686799D01*
X135185162Y-63314833D01*
X135043117Y-62971057D01*
X134780327Y-62707808D01*
X134436799Y-62565162D01*
X134064833Y-62564838D01*
X133721057Y-62706883D01*
X133457808Y-62969673D01*
X133315162Y-63313201D01*
X133314838Y-63685167D01*
X129184839Y-63685167D01*
X129185162Y-63314833D01*
X129043117Y-62971057D01*
X128780327Y-62707808D01*
X128436799Y-62565162D01*
X128064833Y-62564838D01*
X127721057Y-62706883D01*
X127687882Y-62740000D01*
X121312463Y-62740000D01*
X121280327Y-62707808D01*
X120936799Y-62565162D01*
X120564833Y-62564838D01*
X120221057Y-62706883D01*
X119957808Y-62969673D01*
X119815162Y-63313201D01*
X119814838Y-63685167D01*
X118010000Y-63685167D01*
X118010000Y-62562463D01*
X118042192Y-62530327D01*
X118184838Y-62186799D01*
X118185162Y-61814833D01*
X118043117Y-61471057D01*
X117780327Y-61207808D01*
X117436799Y-61065162D01*
X117064833Y-61064838D01*
X116721057Y-61206883D01*
X116457808Y-61469673D01*
X116315162Y-61813201D01*
X116314838Y-62185167D01*
X113009969Y-62185167D01*
X110537401Y-59712599D01*
X110290839Y-59547852D01*
X110000000Y-59490000D01*
X109312463Y-59490000D01*
X109280327Y-59457808D01*
X108936799Y-59315162D01*
X108564833Y-59314838D01*
X108440863Y-59366061D01*
X105759969Y-56685167D01*
X139564838Y-56685167D01*
X139706883Y-57028943D01*
X139740000Y-57062118D01*
X139740000Y-60687537D01*
X139707808Y-60719673D01*
X139565162Y-61063201D01*
X139564838Y-61435167D01*
X139706883Y-61778943D01*
X139969673Y-62042192D01*
X140313201Y-62184838D01*
X140685167Y-62185162D01*
X141028943Y-62043117D01*
X141292192Y-61780327D01*
X141434838Y-61436799D01*
X141435162Y-61064833D01*
X141293117Y-60721057D01*
X141260000Y-60687882D01*
X141260000Y-59935167D01*
X143864838Y-59935167D01*
X144006883Y-60278943D01*
X144269673Y-60542192D01*
X144613201Y-60684838D01*
X144985167Y-60685162D01*
X145328943Y-60543117D01*
X145592192Y-60280327D01*
X145734838Y-59936799D01*
X145735162Y-59564833D01*
X145610844Y-59263959D01*
X145639680Y-59235122D01*
X145685167Y-59235162D01*
X146028943Y-59093117D01*
X146292192Y-58830327D01*
X146434838Y-58486799D01*
X146435162Y-58114833D01*
X146293117Y-57771057D01*
X146030327Y-57507808D01*
X145686799Y-57365162D01*
X145314833Y-57364838D01*
X144971057Y-57506883D01*
X144707808Y-57769673D01*
X144565162Y-58113201D01*
X144565121Y-58160076D01*
X144262599Y-58462599D01*
X144097852Y-58709161D01*
X144040000Y-59000000D01*
X144040000Y-59187537D01*
X144007808Y-59219673D01*
X143865162Y-59563201D01*
X143864838Y-59935167D01*
X141260000Y-59935167D01*
X141260000Y-57062463D01*
X141292192Y-57030327D01*
X141434838Y-56686799D01*
X141435162Y-56314833D01*
X141293117Y-55971057D01*
X141030327Y-55707808D01*
X140686799Y-55565162D01*
X140314833Y-55564838D01*
X139971057Y-55706883D01*
X139707808Y-55969673D01*
X139565162Y-56313201D01*
X139564838Y-56685167D01*
X105759969Y-56685167D01*
X105685122Y-56610320D01*
X105685162Y-56564833D01*
X105543117Y-56221057D01*
X105280327Y-55957808D01*
X104936799Y-55815162D01*
X104564833Y-55814838D01*
X104221057Y-55956883D01*
X103957808Y-56219673D01*
X103815162Y-56563201D01*
X103814838Y-56935167D01*
X100710000Y-56935167D01*
X100710000Y-54985167D01*
X137264838Y-54985167D01*
X137406883Y-55328943D01*
X137669673Y-55592192D01*
X138013201Y-55734838D01*
X138385167Y-55735162D01*
X138728943Y-55593117D01*
X138992192Y-55330327D01*
X139134838Y-54986799D01*
X139135162Y-54614833D01*
X138993117Y-54271057D01*
X138960000Y-54237882D01*
X138960000Y-51435167D01*
X145314838Y-51435167D01*
X145456883Y-51778943D01*
X145719673Y-52042192D01*
X146063201Y-52184838D01*
X146435167Y-52185162D01*
X146778943Y-52043117D01*
X147042192Y-51780327D01*
X147184838Y-51436799D01*
X147184879Y-51389923D01*
X147564802Y-51010000D01*
X157687537Y-51010000D01*
X157719673Y-51042192D01*
X158063201Y-51184838D01*
X158435167Y-51185162D01*
X158778943Y-51043117D01*
X159042192Y-50780327D01*
X159184838Y-50436799D01*
X159185162Y-50064833D01*
X159131586Y-49935167D01*
X159514838Y-49935167D01*
X159656883Y-50278943D01*
X159919673Y-50542192D01*
X160263201Y-50684838D01*
X160310077Y-50684879D01*
X165390000Y-55764802D01*
X165390000Y-57687537D01*
X165357808Y-57719673D01*
X165215162Y-58063201D01*
X165214838Y-58435167D01*
X165356883Y-58778943D01*
X165619673Y-59042192D01*
X165963201Y-59184838D01*
X166335167Y-59185162D01*
X166603109Y-59074451D01*
X166557808Y-59119673D01*
X166415162Y-59463201D01*
X166414838Y-59835167D01*
X166556883Y-60178943D01*
X166819673Y-60442192D01*
X167163201Y-60584838D01*
X167535167Y-60585162D01*
X167878943Y-60443117D01*
X168142192Y-60180327D01*
X168284838Y-59836799D01*
X168285162Y-59464833D01*
X168260000Y-59403936D01*
X168260000Y-58812463D01*
X168292192Y-58780327D01*
X168434838Y-58436799D01*
X168435162Y-58064833D01*
X168293117Y-57721057D01*
X168030327Y-57457808D01*
X167686799Y-57315162D01*
X167314833Y-57314838D01*
X166971057Y-57456883D01*
X166910000Y-57517834D01*
X166910000Y-55450000D01*
X166852148Y-55159160D01*
X166687401Y-54912599D01*
X162481016Y-50706214D01*
X179315000Y-50706214D01*
X179315000Y-50793786D01*
X179485129Y-51649083D01*
X179969616Y-52374170D01*
X180694703Y-52858657D01*
X181550000Y-53028786D01*
X182405297Y-52858657D01*
X183130384Y-52374170D01*
X183614871Y-51649083D01*
X183785000Y-50793786D01*
X183785000Y-50706214D01*
X183614871Y-49850917D01*
X183130384Y-49125830D01*
X182405297Y-48641343D01*
X181550000Y-48471214D01*
X180694703Y-48641343D01*
X179969616Y-49125830D01*
X179485129Y-49850917D01*
X179315000Y-50706214D01*
X162481016Y-50706214D01*
X161385122Y-49610320D01*
X161385162Y-49564833D01*
X161243117Y-49221057D01*
X160980327Y-48957808D01*
X160636799Y-48815162D01*
X160264833Y-48814838D01*
X159921057Y-48956883D01*
X159657808Y-49219673D01*
X159515162Y-49563201D01*
X159514838Y-49935167D01*
X159131586Y-49935167D01*
X159043117Y-49721057D01*
X158780327Y-49457808D01*
X158436799Y-49315162D01*
X158064833Y-49314838D01*
X157721057Y-49456883D01*
X157687882Y-49490000D01*
X147250000Y-49490000D01*
X146959161Y-49547852D01*
X146712599Y-49712599D01*
X146110320Y-50314878D01*
X146064833Y-50314838D01*
X145721057Y-50456883D01*
X145457808Y-50719673D01*
X145315162Y-51063201D01*
X145314838Y-51435167D01*
X138960000Y-51435167D01*
X138960000Y-50914802D01*
X140189680Y-49685122D01*
X140235167Y-49685162D01*
X140578943Y-49543117D01*
X140842192Y-49280327D01*
X140984838Y-48936799D01*
X140985162Y-48564833D01*
X140843117Y-48221057D01*
X140580327Y-47957808D01*
X140236799Y-47815162D01*
X139864833Y-47814838D01*
X139521057Y-47956883D01*
X139257808Y-48219673D01*
X139115162Y-48563201D01*
X139115121Y-48610077D01*
X137662599Y-50062599D01*
X137497852Y-50309161D01*
X137440000Y-50600000D01*
X137440000Y-54237537D01*
X137407808Y-54269673D01*
X137265162Y-54613201D01*
X137264838Y-54985167D01*
X100710000Y-54985167D01*
X100710000Y-45865596D01*
X100946049Y-45865596D01*
X101341573Y-46822838D01*
X102073310Y-47555853D01*
X103029860Y-47953047D01*
X104065596Y-47953951D01*
X105022838Y-47558427D01*
X105755853Y-46826690D01*
X106153047Y-45870140D01*
X106153437Y-45422815D01*
X107864630Y-45422815D01*
X108188980Y-46207800D01*
X108789041Y-46808909D01*
X109573459Y-47134628D01*
X110422815Y-47135370D01*
X111207800Y-46811020D01*
X111808909Y-46210959D01*
X112134628Y-45426541D01*
X112134631Y-45422815D01*
X112944630Y-45422815D01*
X113268980Y-46207800D01*
X113869041Y-46808909D01*
X114653459Y-47134628D01*
X115502815Y-47135370D01*
X116287800Y-46811020D01*
X116888909Y-46210959D01*
X117214628Y-45426541D01*
X117214631Y-45422815D01*
X137864630Y-45422815D01*
X138188980Y-46207800D01*
X138789041Y-46808909D01*
X139573459Y-47134628D01*
X140422815Y-47135370D01*
X141207800Y-46811020D01*
X141808909Y-46210959D01*
X142134628Y-45426541D01*
X142134631Y-45422815D01*
X142944630Y-45422815D01*
X143268980Y-46207800D01*
X143869041Y-46808909D01*
X144653459Y-47134628D01*
X145502815Y-47135370D01*
X146287800Y-46811020D01*
X146888909Y-46210959D01*
X147214628Y-45426541D01*
X147214631Y-45422815D01*
X167864630Y-45422815D01*
X168188980Y-46207800D01*
X168789041Y-46808909D01*
X169573459Y-47134628D01*
X170422815Y-47135370D01*
X171207800Y-46811020D01*
X171808909Y-46210959D01*
X172134628Y-45426541D01*
X172134631Y-45422815D01*
X172944630Y-45422815D01*
X173268980Y-46207800D01*
X173869041Y-46808909D01*
X174653459Y-47134628D01*
X175502815Y-47135370D01*
X176287800Y-46811020D01*
X176888909Y-46210959D01*
X177214628Y-45426541D01*
X177215370Y-44577185D01*
X177024645Y-44115596D01*
X178946049Y-44115596D01*
X179341573Y-45072838D01*
X180073310Y-45805853D01*
X181029860Y-46203047D01*
X182065596Y-46203951D01*
X183022838Y-45808427D01*
X183755853Y-45076690D01*
X184153047Y-44120140D01*
X184153951Y-43084404D01*
X183758427Y-42127162D01*
X183026690Y-41394147D01*
X182070140Y-40996953D01*
X181034404Y-40996049D01*
X180077162Y-41391573D01*
X179344147Y-42123310D01*
X178946953Y-43079860D01*
X178946049Y-44115596D01*
X177024645Y-44115596D01*
X176891020Y-43792200D01*
X176290959Y-43191091D01*
X175506541Y-42865372D01*
X174657185Y-42864630D01*
X173872200Y-43188980D01*
X173271091Y-43789041D01*
X172945372Y-44573459D01*
X172944630Y-45422815D01*
X172134631Y-45422815D01*
X172135370Y-44577185D01*
X171811020Y-43792200D01*
X171210959Y-43191091D01*
X170426541Y-42865372D01*
X169577185Y-42864630D01*
X168792200Y-43188980D01*
X168191091Y-43789041D01*
X167865372Y-44573459D01*
X167864630Y-45422815D01*
X147214631Y-45422815D01*
X147215370Y-44577185D01*
X146891020Y-43792200D01*
X146290959Y-43191091D01*
X145506541Y-42865372D01*
X144657185Y-42864630D01*
X143872200Y-43188980D01*
X143271091Y-43789041D01*
X142945372Y-44573459D01*
X142944630Y-45422815D01*
X142134631Y-45422815D01*
X142135370Y-44577185D01*
X141811020Y-43792200D01*
X141210959Y-43191091D01*
X140426541Y-42865372D01*
X139577185Y-42864630D01*
X138792200Y-43188980D01*
X138191091Y-43789041D01*
X137865372Y-44573459D01*
X137864630Y-45422815D01*
X117214631Y-45422815D01*
X117215370Y-44577185D01*
X116891020Y-43792200D01*
X116290959Y-43191091D01*
X115506541Y-42865372D01*
X114657185Y-42864630D01*
X113872200Y-43188980D01*
X113271091Y-43789041D01*
X112945372Y-44573459D01*
X112944630Y-45422815D01*
X112134631Y-45422815D01*
X112135370Y-44577185D01*
X111811020Y-43792200D01*
X111210959Y-43191091D01*
X110426541Y-42865372D01*
X109577185Y-42864630D01*
X108792200Y-43188980D01*
X108191091Y-43789041D01*
X107865372Y-44573459D01*
X107864630Y-45422815D01*
X106153437Y-45422815D01*
X106153951Y-44834404D01*
X105758427Y-43877162D01*
X105026690Y-43144147D01*
X104070140Y-42746953D01*
X103034404Y-42746049D01*
X102077162Y-43141573D01*
X101344147Y-43873310D01*
X100946953Y-44829860D01*
X100946049Y-45865596D01*
X100710000Y-45865596D01*
X100710000Y-45069931D01*
X101049408Y-43363610D01*
X101976349Y-41976346D01*
X103363610Y-41049408D01*
X105069931Y-40710000D01*
X181930069Y-40710000D01*
X183636390Y-41049408D01*
M02*
