M48
;DRILL file {KiCad 4.0.4-stable} date 07/15/17 11:14:04
;FORMAT={-:-/ absolute / metric / decimal}
FMAT,2
METRIC,TZ
T1C0.400
T2C0.500
T3C0.800
T4C0.813
T5C1.000
T6C1.300
T7C1.600
T8C3.175
%
G90
G05
M71
T1
X102.Y-58.5
X103.Y-97.75
X104.75Y-56.75
X106.5Y-61.
X108.75Y-60.25
X109.Y-106.
X109.Y-107.
X109.5Y-61.
X110.5Y-98.
X112.75Y-65.5
X114.Y-64.25
X115.5Y-57.75
X117.Y-116.5
X117.25Y-62.
X117.25Y-64.25
X117.5Y-115.5
X118.5Y-68.75
X118.75Y-52.75
X119.25Y-117.5
X119.5Y-80.5
X120.Y-67.
X120.75Y-63.5
X123.25Y-115.5
X125.5Y-92.
X125.5Y-108.75
X125.75Y-76.
X126.Y-71.75
X126.5Y-116.
X127.5Y-116.5
X128.25Y-52.
X128.25Y-63.5
X128.5Y-119.
X129.5Y-111.5
X130.25Y-95.25
X130.25Y-110.
X130.5Y-90.
X132.Y-104.
X133.5Y-113.25
X133.75Y-89.
X134.25Y-63.5
X134.8Y-76.3
X135.Y-99.5
X136.25Y-112.25
X136.7Y-76.2
X137.5Y-72.75
X138.Y-85.5
X138.Y-89.75
X138.Y-112.25
X138.Y-113.75
X138.1Y-71.85
X138.2Y-54.8
X138.2Y-63.75
X139.Y-61.
X140.05Y-48.75
X140.5Y-56.5
X140.5Y-61.25
X140.5Y-64.5
X140.5Y-71.75
X141.5Y-61.25
X142.5Y-52.25
X143.75Y-109.
X144.Y-116.
X144.8Y-59.75
X145.5Y-58.3
X145.75Y-109.
X146.25Y-51.25
X146.5Y-116.
X147.15Y-62.
X149.25Y-94.
X149.25Y-96.5
X149.25Y-103.25
X149.25Y-110.
X149.25Y-115.25
X152.Y-77.25
X152.75Y-71.75
X154.Y-75.5
X154.75Y-116.
X156.Y-76.5
X156.3Y-75.6
X156.85Y-71.85
X156.9Y-78.075
X157.1Y-79.8
X157.75Y-109.25
X158.Y-81.25
X158.25Y-50.25
X158.5Y-69.
X159.25Y-72.75
X160.25Y-109.25
X160.45Y-49.75
X160.75Y-81.25
X160.75Y-114.5
X161.25Y-72.5
X161.25Y-99.5
X161.7Y-79.3
X162.Y-69.55
X162.8Y-80.4
X163.25Y-73.25
X163.5Y-97.25
X164.25Y-71.75
X165.3Y-83.9
X165.4Y-69.75
X166.15Y-58.25
X166.3Y-83.
X167.25Y-116.
X167.25Y-118.25
X167.35Y-59.65
X167.5Y-58.25
X167.6Y-85.1
X168.25Y-72.25
X169.Y-116.
X169.1Y-85.1
X169.2Y-83.
X169.25Y-118.25
X169.5Y-68.75
X172.45Y-67.
X173.25Y-104.
X174.5Y-71.25
X174.6Y-68.25
X180.25Y-69.55
X182.Y-75.
X183.55Y-69.7
X183.75Y-66.5
X184.25Y-72.75
T2
X106.3Y-53.7
X111.5Y-95.
X132.75Y-45.75
X162.5Y-47.4
T3
X121.Y-107.
X123.Y-107.
X155.3Y-91.54
X155.3Y-101.7
X157.Y-116.5
X159.Y-116.5
T4
X146.685Y-122.555
X149.225Y-122.555
X151.765Y-122.555
X154.305Y-122.555
X156.845Y-122.555
X159.385Y-122.555
X164.465Y-74.295
X164.465Y-122.555
X167.005Y-74.295
X167.005Y-122.555
X169.545Y-74.295
X169.545Y-122.555
X172.085Y-74.295
X172.085Y-122.555
X174.625Y-74.295
X174.625Y-122.555
X177.165Y-74.295
X177.165Y-122.555
T5
X105.15Y-111.12
X105.15Y-113.66
X105.15Y-116.2
X137.541Y-74.295
X140.081Y-74.295
X142.621Y-74.295
X144.Y-83.
X145.161Y-74.295
X146.54Y-83.
X147.701Y-74.295
X149.08Y-83.
X150.241Y-74.295
X151.62Y-83.
X152.781Y-74.295
X154.16Y-83.
X155.321Y-74.295
X159.385Y-74.295
X161.925Y-74.295
X173.8Y-79.
X173.8Y-81.54
X173.8Y-84.08
X173.8Y-86.62
X173.8Y-89.16
X173.8Y-91.7
T6
X105.8Y-85.52
X105.8Y-90.6
X110.Y-45.
X115.08Y-45.
X140.Y-45.
X145.08Y-45.
X170.Y-45.
X175.08Y-45.
T7
X181.55Y-50.75
X181.55Y-63.45
T8
X103.55Y-45.35
X127.635Y-122.555
X128.905Y-74.295
X179.705Y-89.535
X179.705Y-117.475
X181.55Y-43.6
T0
M30
